<?xml version="1.0" encoding="utf-8"?>
<!-- Generator: Adobe Illustrator 13.0.0, SVG Export Plug-In . SVG Version: 6.00 Build 14948)  -->
<!DOCTYPE svg PUBLIC "-//W3C//DTD SVG 1.1//EN" "http://www.w3.org/Graphics/SVG/1.1/DTD/svg11.dtd">
<svg version="1.1" id="Layer_1" xmlns="http://www.w3.org/2000/svg" xmlns:xlink="http://www.w3.org/1999/xlink" x="0px" y="0px"
	 width="180px" height="150px" viewBox="0 0 240 200" enable-background="new 0 0 240 200" xml:space="preserve">
<g id="Bomi_County">
	<path fill="#F2F2F2" stroke="#8D8D8D" d="M79.331,50c4.901,1.139,6.82,0.496,11.258,3.287c4.848,3.047,10.755,5.516,15.668,1.357
		c4.519-3.82,3.588-6.627,8.428-2.153l6.676,6.175c1.988,1.837,6.764,6.148,6.787,8.612l0.059,5.608
		c0.02,2.164-1.188,3.974-1.188,6.062c2.233,4.486,3.377,12.247,9.051,5.837c4.57-5.162,10.115-11.975,15.666-15.975
		c2.593-1.87,8.701,0.556,11.6,1.134c5.532,1.106,8.663,4.284,13.632,6.229c2.521,0.551,4.974,0.191,7.185,1.815
		c2.16,1.581,3.638,3.5,6.053,4.873c2.521,1.428,5.453,0.959,8.26,1.133l0,0c4.614,9.827-13.596,5.058-17.195,9.915
		c-1.193,1.608-2.432,1.586-2.718,3.908c-0.376,3.084-0.165,5.473-1.921,8.274c-0.998,1.592-2.001,7.325-2.094,9.232
		c1.359,2.729-1.09,3.429-2.318,5.439c-1.066,1.738,0.434,2.938-1.587,4.643c-1.51,1.281-0.976,2.498-1.356,4.197
		c-0.484,2.164-3.842,4.748-5.202,6.567c-3.507,4.683-2.845,11.043-8.995,13.883c-6.398,2.954-10.512,3.733-15.557,9.179
		c-2.318,8.367-10.138,7.473-17.195,8.384c-1.45,0.19-6.312-0.71-7.015-0.224c-0.92,0.637,0.064,4.305-0.227,5.438
		c-2.265,8.846-8.494,5.537-14.764,7.024c-4.442,1.053-5.305-3.912-4.864-7.193c0.496-3.695-2.577-7.494-4.073-10.766
		c-0.189-2.039-1.128-4.851-3.225-5.5c-1.421-0.436-3.347,0.649-4.978,0.398c-1.045-0.164-2.634-0.082-3.507,0.566
		c-0.901,0.67-1.72,2.822-2.262,3.914c-0.978,1.955-2.622,6.143-3.134,8.316l0,0c-1.299-0.785-2.151-1.16-3.28-2.188
		c-2.667-2.457-5.16-2.631-8.067-4.784c-1.399-0.513-2.048-0.854-3.415-1.505c-0.412-0.168-0.822-0.168-1.232-0.402
		c-0.888-0.52-1.367-1.029-2.324-1.368c-2.016-0.758-3.042-1.51-5.057-2.19c-0.957-0.305-1.54-0.683-2.461-1.096
		c-1.059-0.475-1.742-0.682-2.735-1.227c-1.023-0.584-1.672-0.992-2.733-1.505l0,0l0.271-5.652c0.479-2.108-3.552-5.618-2.15-7.537
		l4.185-5.724c1.586-2.169,8.357,0.113,11.597-3.68c1.145-1.34,0.414-3.353,0.226-4.877c-0.269-2.191,4.445-4.765,5.771-6.684
		c1.481-2.146,3.514-0.688,5.034-2.099c1.705-1.58,2.927-5.794,3.678-7.931c0.979-2.785-3.694-4.986-2.093-9.01
		c1.592-2.535,4.415-7.314,0.849-9.004c-2.513-1.193-5.277-3.352-4.356-6.35c0.835-2.714,2.242-2.845,4.186-4.415
		c2.503-2.027,3.547-5.755,4.583-8.671c1.492-4.197,3.202-7.271,3.394-11.953c0.128-0.688,0.346-1.27,0.056-1.929
		c-0.339-0.769-0.969-1.428-1.244-2.262c-0.429-1.297-0.158-2.649,0.792-3.685L79.331,50L79.331,50L79.331,50z"/>
</g>
</svg>
