<?xml version="1.0" encoding="utf-8"?>
<!-- Generator: Adobe Illustrator 13.0.0, SVG Export Plug-In . SVG Version: 6.00 Build 14948)  -->
<!DOCTYPE svg PUBLIC "-//W3C//DTD SVG 1.1//EN" "http://www.w3.org/Graphics/SVG/1.1/DTD/svg11.dtd">
<svg version="1.1" id="Layer_1" xmlns="http://www.w3.org/2000/svg" xmlns:xlink="http://www.w3.org/1999/xlink" x="0px" y="0px"
	 width="240px" height="200px" viewBox="0 0 240 200" enable-background="new 0 0 240 200" xml:space="preserve">
<g id="Bomi_County">
	<g enable-background="new    ">
		<path fill="#474747" d="M21.099,12.874h4.292c0.85,0,1.483,0.035,1.9,0.106c0.418,0.07,0.791,0.219,1.121,0.443
			c0.329,0.225,0.604,0.523,0.824,0.896c0.22,0.374,0.33,0.793,0.33,1.256c0,0.504-0.136,0.965-0.406,1.385
			c-0.271,0.42-0.639,0.735-1.103,0.945c0.654,0.189,1.157,0.515,1.509,0.974s0.527,0.999,0.527,1.618
			c0,0.489-0.113,0.964-0.341,1.425c-0.227,0.462-0.537,0.83-0.93,1.106c-0.394,0.275-0.878,0.445-1.454,0.509
			c-0.361,0.039-1.233,0.063-2.615,0.073h-3.655V12.874z M23.267,14.661v2.483h1.421c0.845,0,1.37-0.013,1.575-0.037
			c0.371-0.044,0.663-0.172,0.875-0.385c0.212-0.212,0.318-0.491,0.318-0.838c0-0.332-0.092-0.603-0.274-0.81
			c-0.184-0.208-0.456-0.333-0.817-0.378c-0.215-0.023-0.833-0.036-1.853-0.036H23.267z M23.267,18.932v2.871h2.007
			c0.781,0,1.277-0.022,1.487-0.066c0.322-0.059,0.584-0.201,0.788-0.429c0.202-0.227,0.304-0.53,0.304-0.911
			c0-0.322-0.078-0.596-0.234-0.82s-0.382-0.389-0.678-0.491s-0.936-0.153-1.922-0.153H23.267z"/>
		<path fill="#474747" d="M31.433,19.612c0-0.684,0.168-1.345,0.505-1.985c0.337-0.639,0.814-1.127,1.432-1.465
			c0.618-0.336,1.308-0.505,2.069-0.505c1.177,0,2.141,0.382,2.893,1.146c0.752,0.764,1.128,1.729,1.128,2.896
			c0,1.177-0.38,2.152-1.139,2.926c-0.759,0.774-1.715,1.161-2.867,1.161c-0.713,0-1.393-0.161-2.04-0.483s-1.139-0.795-1.476-1.417
			C31.602,21.264,31.433,20.506,31.433,19.612z M33.542,19.723c0,0.771,0.183,1.361,0.549,1.771s0.818,0.615,1.355,0.615
			s0.987-0.205,1.351-0.615s0.546-1.005,0.546-1.787c0-0.762-0.182-1.348-0.546-1.758s-0.814-0.615-1.351-0.615
			s-0.989,0.205-1.355,0.615S33.542,18.951,33.542,19.723z"/>
		<path fill="#474747" d="M40.918,15.833h1.897v1.062c0.679-0.824,1.487-1.237,2.424-1.237c0.498,0,0.93,0.103,1.296,0.308
			s0.667,0.516,0.901,0.93c0.342-0.414,0.71-0.725,1.106-0.93s0.818-0.308,1.267-0.308c0.571,0,1.055,0.116,1.45,0.348
			c0.396,0.232,0.691,0.573,0.886,1.022c0.142,0.332,0.212,0.869,0.212,1.611v4.973H50.3v-4.445c0-0.771-0.071-1.27-0.212-1.494
			c-0.19-0.293-0.483-0.439-0.879-0.439c-0.288,0-0.559,0.088-0.813,0.264s-0.437,0.433-0.549,0.772
			c-0.112,0.339-0.168,0.875-0.168,1.607v3.735H45.62v-4.263c0-0.757-0.037-1.245-0.11-1.465s-0.187-0.383-0.34-0.491
			c-0.154-0.106-0.363-0.16-0.626-0.16c-0.317,0-0.603,0.085-0.857,0.256s-0.436,0.418-0.546,0.74
			c-0.109,0.322-0.165,0.856-0.165,1.604v3.779h-2.058V15.833z"/>
		<path fill="#474747" d="M54.409,14.778v-1.904h2.058v1.904H54.409z M54.409,23.611v-7.778h2.058v7.778H54.409z"/>
		<path fill="#474747" d="M69.629,19.664l2.102,0.666c-0.322,1.172-0.858,2.042-1.608,2.611c-0.75,0.568-1.7,0.854-2.853,0.854
			c-1.426,0-2.598-0.487-3.516-1.462c-0.918-0.974-1.377-2.306-1.377-3.995c0-1.787,0.461-3.175,1.384-4.164
			c0.923-0.988,2.136-1.482,3.64-1.482c1.313,0,2.38,0.388,3.201,1.164c0.488,0.459,0.854,1.118,1.099,1.978l-2.146,0.513
			c-0.127-0.557-0.392-0.996-0.795-1.318c-0.402-0.322-0.892-0.483-1.468-0.483c-0.796,0-1.442,0.286-1.937,0.856
			c-0.496,0.572-0.744,1.497-0.744,2.776c0,1.357,0.244,2.324,0.732,2.9s1.123,0.864,1.904,0.864c0.576,0,1.072-0.184,1.487-0.549
			C69.15,21.025,69.448,20.45,69.629,19.664z"/>
		<path fill="#474747" d="M73.101,19.612c0-0.684,0.168-1.345,0.505-1.985c0.337-0.639,0.814-1.127,1.432-1.465
			c0.617-0.336,1.307-0.505,2.069-0.505c1.177,0,2.141,0.382,2.893,1.146c0.752,0.764,1.128,1.729,1.128,2.896
			c0,1.177-0.38,2.152-1.139,2.926c-0.76,0.774-1.715,1.161-2.868,1.161c-0.713,0-1.393-0.161-2.04-0.483
			c-0.647-0.322-1.139-0.795-1.476-1.417C73.269,21.264,73.101,20.506,73.101,19.612z M75.21,19.723
			c0,0.771,0.183,1.361,0.549,1.771s0.818,0.615,1.355,0.615s0.987-0.205,1.352-0.615c0.363-0.41,0.545-1.005,0.545-1.787
			c0-0.762-0.182-1.348-0.545-1.758c-0.364-0.41-0.814-0.615-1.352-0.615s-0.989,0.205-1.355,0.615S75.21,18.951,75.21,19.723z"/>
		<path fill="#474747" d="M87.859,23.611v-1.164c-0.283,0.415-0.656,0.742-1.117,0.98c-0.462,0.239-0.949,0.359-1.461,0.359
			c-0.522,0-0.991-0.115-1.406-0.344c-0.415-0.229-0.715-0.552-0.901-0.967s-0.278-0.989-0.278-1.722v-4.922h2.058v3.574
			c0,1.094,0.038,1.764,0.114,2.011c0.075,0.246,0.213,0.441,0.414,0.586c0.2,0.144,0.454,0.216,0.762,0.216
			c0.352,0,0.667-0.097,0.945-0.289c0.278-0.193,0.469-0.433,0.571-0.718c0.103-0.286,0.154-0.985,0.154-2.099v-3.281h2.058v7.778
			H87.859z"/>
		<path fill="#474747" d="M98.977,23.611h-2.058v-3.97c0-0.84-0.044-1.383-0.132-1.63c-0.088-0.246-0.23-0.438-0.429-0.574
			c-0.197-0.137-0.436-0.205-0.714-0.205c-0.356,0-0.676,0.098-0.959,0.293s-0.478,0.453-0.583,0.775s-0.157,0.919-0.157,1.787
			v3.523h-2.058v-7.778h1.912v1.143c0.679-0.879,1.533-1.318,2.563-1.318c0.454,0,0.869,0.082,1.245,0.245
			c0.376,0.164,0.66,0.373,0.854,0.627c0.192,0.254,0.327,0.541,0.402,0.863s0.114,0.784,0.114,1.385V23.611z"/>
		<path fill="#474747" d="M104.631,15.833v1.641h-1.406v3.135c0,0.635,0.013,1.005,0.041,1.109c0.026,0.105,0.088,0.192,0.183,0.261
			c0.096,0.068,0.211,0.102,0.348,0.102c0.19,0,0.466-0.065,0.828-0.197l0.176,1.597c-0.479,0.205-1.021,0.308-1.626,0.308
			c-0.371,0-0.706-0.063-1.003-0.187c-0.298-0.125-0.516-0.286-0.656-0.483c-0.139-0.198-0.235-0.465-0.289-0.803
			c-0.044-0.238-0.066-0.722-0.066-1.449v-3.392h-0.945v-1.641h0.945v-1.546l2.065-1.201v2.747H104.631z"/>
		<path fill="#474747" d="M105.085,15.833h2.19l1.86,5.522l1.816-5.522h2.131l-2.747,7.485l-0.491,1.355
			c-0.181,0.453-0.353,0.8-0.516,1.039c-0.164,0.239-0.352,0.434-0.564,0.583c-0.212,0.148-0.474,0.265-0.783,0.348
			c-0.311,0.083-0.661,0.124-1.051,0.124c-0.396,0-0.784-0.041-1.165-0.124l-0.183-1.611c0.322,0.063,0.613,0.095,0.872,0.095
			c0.479,0,0.833-0.14,1.062-0.421c0.229-0.28,0.405-0.639,0.527-1.073L105.085,15.833z"/>
	</g>
	<path fill="#F2F2F2" stroke="#8D8D8D" d="M79.331,50c4.901,1.139,6.82,0.496,11.258,3.287c4.848,3.047,10.755,5.516,15.668,1.357
		c4.519-3.82,3.588-6.627,8.428-2.153l6.676,6.175c1.988,1.837,6.764,6.148,6.787,8.612l0.059,5.608
		c0.02,2.164-1.188,3.974-1.188,6.062c2.233,4.486,3.377,12.247,9.051,5.837c4.57-5.162,10.115-11.975,15.666-15.975
		c2.593-1.87,8.701,0.556,11.6,1.134c5.532,1.106,8.663,4.284,13.632,6.229c2.521,0.551,4.974,0.191,7.185,1.815
		c2.16,1.581,3.638,3.5,6.053,4.873c2.521,1.428,5.453,0.959,8.26,1.133l0,0c4.614,9.827-13.596,5.058-17.195,9.915
		c-1.193,1.608-2.432,1.586-2.718,3.908c-0.376,3.084-0.165,5.473-1.921,8.274c-0.998,1.592-2.001,7.325-2.094,9.232
		c1.359,2.729-1.09,3.429-2.318,5.439c-1.066,1.738,0.434,2.938-1.587,4.643c-1.51,1.281-0.976,2.498-1.356,4.197
		c-0.484,2.164-3.842,4.748-5.202,6.567c-3.507,4.683-2.845,11.043-8.995,13.883c-6.398,2.954-10.512,3.733-15.557,9.179
		c-2.318,8.367-10.138,7.473-17.195,8.384c-1.45,0.19-6.312-0.71-7.015-0.224c-0.92,0.637,0.064,4.305-0.227,5.438
		c-2.265,8.846-8.494,5.537-14.764,7.024c-4.442,1.053-5.305-3.912-4.864-7.193c0.496-3.695-2.577-7.494-4.073-10.766
		c-0.189-2.039-1.128-4.851-3.225-5.5c-1.421-0.436-3.347,0.649-4.978,0.398c-1.045-0.164-2.634-0.082-3.507,0.566
		c-0.901,0.67-1.72,2.822-2.262,3.914c-0.978,1.955-2.622,6.143-3.134,8.316l0,0c-1.299-0.785-2.151-1.16-3.28-2.188
		c-2.667-2.457-5.16-2.631-8.067-4.784c-1.399-0.513-2.048-0.854-3.415-1.505c-0.412-0.168-0.822-0.168-1.232-0.402
		c-0.888-0.52-1.367-1.029-2.324-1.368c-2.016-0.758-3.042-1.51-5.057-2.19c-0.957-0.305-1.54-0.683-2.461-1.096
		c-1.059-0.475-1.742-0.682-2.735-1.227c-1.023-0.584-1.672-0.992-2.733-1.505l0,0l0.271-5.652c0.479-2.108-3.552-5.618-2.15-7.537
		l4.185-5.724c1.586-2.169,8.357,0.113,11.597-3.68c1.145-1.34,0.414-3.353,0.226-4.877c-0.269-2.191,4.445-4.765,5.771-6.684
		c1.481-2.146,3.514-0.688,5.034-2.099c1.705-1.58,2.927-5.794,3.678-7.931c0.979-2.785-3.694-4.986-2.093-9.01
		c1.592-2.535,4.415-7.314,0.849-9.004c-2.513-1.193-5.277-3.352-4.356-6.35c0.835-2.714,2.242-2.845,4.186-4.415
		c2.503-2.027,3.547-5.755,4.583-8.671c1.492-4.197,3.202-7.271,3.394-11.953c0.128-0.688,0.346-1.27,0.056-1.929
		c-0.339-0.769-0.969-1.428-1.244-2.262c-0.429-1.297-0.158-2.649,0.792-3.685L79.331,50L79.331,50L79.331,50z"/>
</g>
<g id="Bong" display="none">
	<text transform="matrix(1 0 0 1 20 23.6113)" display="inline" fill="#474747" font-family="'Arial-BoldMT'" font-size="15">Bong</text>
	<path display="inline" fill="#F2F2F2" stroke="#8D8D8D" d="M46.195,131.814c1.524-0.057,3.247-0.24,4.733,0.082
		c2.066,0.449,3.893,2.084,6.115,1.492c0.975-0.263,1.984-1.031,2.979-1.412c1.296-0.498,2.722-0.721,4.068-1.093
		c0.884-0.188,2.823-0.901,2.977-1.998c1.086-0.433,2.083-0.985,3.324-0.157c0,1.407,0.01,2.289,0.346,3.674
		c0.228,0.938-0.125,1.695,0.052,2.584c0.313,1.57,1.012,2.154,0.719,3.912c-0.216,1.297-0.436,2.304-0.319,3.572
		c0.984,0.703,3.61,0.37,4.892,0.37c2.011,0,4.292-0.364,6.274-0.051c2.789,0,2.683-0.167,3.218,2.235
		c0.024,0.104,0.234,3.344,0.798,2.529c1.497-2.171,1.447-5.351,5.025-5.459c2.908-0.091,3.967,2.059,6.222,2.422
		c2.73,0.443,3.563-1.396,5.85-2.104c1.49-0.461,2.211,0.523,3.589,0.667c6.021,0.625,6.999-1.319,9.865-5.834
		c0.52-0.592,0.721-1.431,1.011-2.157c0.623-1.57,0.771-1.009,1.887-0.267c1.476,0.983,3.313,2.065,4.973,2.69
		c1.273,0.479,2.331,1.987,2.42,3.329l0,0c2.219,0.487,3.798,2.496,4.389,4.499c0.287,0.986,0.596,1.01,1.515,1.357
		c1.59,0.609,2.436,1.679,3.962,2.451c3.645,1.849,8.109,3.961,5.529,8.548l-2.604,7.22c-0.991,2.746-4.789,6.243-5.132,8.572
		c-0.285,1.953,1.093,1.861-0.346,3.755c-0.318,0.421-0.479,1.952-0.346,2.478c2.586,0.639,1.504,0.164,2.633-1.437
		c1.674-2.384,5.674-3.429,7.816-5.701c2.059-2.185,3.678-0.425,6.089-0.425c1.759,0,4.044-0.861,4.12-2.902
		c0.066-1.755,1.87,0.055,2.953-0.428c1.018-0.451,1.299-1.43,2.578-1.756c0.677-0.174,1.359,0.175,2.047-0.107
		c2.313-0.941,1.876-3.488,3.723-4.871c0.533-0.324,0.896-1.931,1.383-1.654c0.627,0.356,0.603,1.388,1.756,0.986
		c1.191-0.412,1.684-3.033,2.604-4.021c0.958-1.022,2.738-1.224,3.457-2.237c1.325-1.88-0.258-3.717,2.687-1.306
		c0.898,0.739-0.771,3.722,2.552,2.479c2.628-0.985,7.653-1.368,9.626-3.251c0.372-0.354,1.201-1.187,1.779-0.879
		c0.83,0.438,0.289,1.709,1.838,1.174c1.186-0.412,1.951-1.146,3.296-1.412l0,0l0.478-1.599c0.135-0.401,0.219-0.84,0.346-1.253
		c0.121-0.379,0.185-0.592,0.055-0.982c-0.182-0.55-0.691-1.054-0.691-1.625c0-0.502,0.612-0.8,0.93-1.119
		c0.326-0.721,0.508-1.349,0.508-2.133c0-0.521-0.479-0.771-0.479-1.304c0-1.774,1.971-0.983,2.444-2.235
		c0.267-0.699-0.238-1.205,0.426-1.841c0.966-0.92,0.964-1.186,0.16-2.396c-1.157-1.736,0.567-2.129,1.701-2.928
		c0.67-0.476,1.181-1.082,1.862-1.573c2.139-1.546,2.492-2.718,0.982-4.687c-1.141-1.015-1.837-1.512-1.837-3.169
		c0-1.376,0.14-2.555-0.797-3.677c-0.653-0.784-1.728-0.718-2.339-1.411c-0.258-0.287-1.692-2.907-1.781-3.3
		c-0.135-0.598-0.246-1.385-0.559-1.891c-0.793-1.287-2.582-2.725-3.643-3.918c-0.529-0.595,1.785-1.342,2.151-1.597
		c1.991-1.194-0.726-2.257-0.69-3.036c0.072-1.591,2.127-1.326,2.127-2.852c0-0.764-0.996-1.186-1.115-1.941
		c-0.193-1.202,1.094-1.694,1.859-2.237c1.655-1.179,2.014-1.586,2.075-3.73c0.062-2.147,1.729-3.42,1.729-5.459
		c0-1.181,0.567-1.976,0.742-3.09l0.256-4.022l0,0c-0.033-0.612-0.677-2.254-0.677-2.867c0-1.061,1.027-1.478,1.027-2.536
		c0-0.451-0.289-0.643-0.515-1.03c-0.447-0.771-0.771-1.253-1.155-2.055c-0.546-1.125-0.931-2.442-2.218-2.442h-3.021
		c-0.448,0-0.644-0.258-1.062-0.387c-1.381-0.481-1.989-1.317-2.953-2.441c-0.9-1.058-1.316-1.829-1.93-3.082
		c-0.256-0.548-0.703-0.869-0.703-1.512c0-0.674,0.063-1.027,0.063-1.701c-0.063-0.515,0.129-1.03,0.129-1.542V57.55
		c0-0.387,0.064-0.707-0.129-0.997c-0.547-0.738-1.382-0.643-2.313-0.643c-0.899,0-1.443,0-2.313,0.131
		c-1.188,0.192-1.862,0.641-3.084,0.641c-0.869,0-1.733-0.095-2.058-0.899c-0.576-1.381-0.416-2.441-1.155-3.725
		c-0.418-0.74-0.835-1.414-1.701-1.414h-2.508c-1.027,0-1.573-0.643-2.603-0.643c-1.06,0-1.478,0.933-2.057,1.798
		c-0.544,0.838-1.284,1.061-1.798,1.929c-0.45,0.738-0.802,1.542-1.671,1.542c-0.996,0-1.156-1.255-1.414-2.186
		c-0.159-0.545-0.192-1.286-0.771-1.286c-0.642,0-0.93,0.323-1.541,0.515c-0.609,0.192-0.996,0.192-1.541,0.512
		c-0.676,0.387-0.74,1.03-1.156,1.673c-0.674,1.027-1.414,1.479-2.187,2.442c-0.642,0.835-0.995,1.798-2.056,1.798l0,0
		c-1.027,1.03-1.277,3.305-1.954,4.583c-0.54,1.022-2.162,1.296-3.058,2.157c-2.276,2.193-5.996,3.221-8.906,4.635
		c-1.016,0.492-1.846,0.307-2.818,0.584c-1.146,0.328-1.85,1.207-2.898,1.52c-1.293,1.69-1.117,2.031-0.026,3.702
		c1.042,1.594-1.25,1.565-1.25,2.716c0,1.171-0.14,1.547-1.274,1.998c-1.582,0.623-2.359-0.043-3.724,0.026
		c-1.685,0.084-2.616,1.417-3.829,2.316c-1.303,0.968-5.995,0.671-7.339-0.238c-0.945-0.641-2.527-1.658-3.537-2.104l0,0l-2.1,0.638
		c-0.629,0.627-1.079,1.742-1.994,2.024c-0.497,0.151-1.058,0.261-1.542,0.454c-1.496,0.589-1.688,2.779-3.59,2.395
		c-3.208,0.464-0.364,1.455-2.26,2.905c-1.389,1.061-2.947,1.204-4.333,0.372c-1.683-1.012-7.879,1.755-8.642,3.461
		c-0.555,1.243-2.89,2.688-4.254,3.064c-3.209,0.886-3.238,3.146-5.77,4.74c-1.769,1.111-4.063-6.344-3.67-7.75
		c1.5-1.235,0.929-1.337,0.346-2.557c-0.488-1.017,0.731-1.762,0.452-2.557c-0.238-0.671-0.108-1.066,0.398-1.625
		c0.469-0.515,1.372-1.57,1.197-2.316c-0.162-0.687-1.536-2.026-2.128-2.423c-1.134-0.764-3.524,0.95-4.492,1.545
		c-1.861,1.14-5.287,2.854-7.446,3.115c-1.225,0.148-2.815,0.064-2.951,1.624c0,1.117,1.279,3.392,0.399,4.127
		c-1.034,0.869-2.74,1.558-3.43,2.665c-0.637,1.02-0.723,1.901-1.968,1.811c-2.096-0.154-0.967-1.645-1.542-2.797
		c-2.966,0-3.583,10.783-6.62,11.984c-1.672,0.66-3.602,0.216-5.344,0.587c-0.976,0.207-1.044,1.313-1.809,1.438
		c-1.038,1.299-1.891,2.647-2.473,4.18c-0.383,1.011-1.444,1.082-1.86,2.104c-0.769,1.88-1.797,4.384-3.245,5.831
		c-0.74,0.743-1.552,2.896-2.419,3.223l0,0c-0.094,0.178,1.404,1.908,1.782,2.345c1.053,1.218,1.096,3.243,2.978,3.569
		c1.952,0.336,3.702,0.703,5.451,1.812L46.195,131.814L46.195,131.814L46.195,131.814z"/>
</g>
<g id="Gbarpolu" display="none">
	<text transform="matrix(1 0 0 1 20 23.6113)" display="inline" fill="#474747" font-family="'Arial-BoldMT'" font-size="15">Gbarpolu</text>
	<path display="inline" fill="#F2F2F2" stroke="#8D8D8D" d="M98.29,178.646l1.327-1.045l0,0c0.772-0.291,1.497-2.211,2.157-2.873
		c1.291-1.291,2.208-3.522,2.892-5.199c0.372-0.911,1.318-0.977,1.659-1.875c0.52-1.366,1.28-2.57,2.205-3.729
		c0.683-0.108,0.742-1.097,1.612-1.28c1.554-0.332,3.275,0.065,4.765-0.523c2.708-1.071,3.257-10.686,5.903-10.686
		c0.512,1.027-0.495,2.356,1.375,2.494c1.108,0.079,1.186-0.705,1.754-1.615c0.615-0.986,2.138-1.602,3.059-2.375
		c0.784-0.655-0.355-2.685-0.355-3.681c0.121-1.392,1.539-1.315,2.633-1.448c1.924-0.232,4.978-1.761,6.638-2.776
		c0.862-0.53,2.995-2.06,4.007-1.378c0.525,0.354,1.752,1.549,1.896,2.16c0.156,0.666-0.648,1.605-1.066,2.065
		c-0.453,0.497-0.566,0.851-0.355,1.447c0.25,0.709-0.836,1.373-0.402,2.28c0.52,1.086,1.029,1.179-0.309,2.279
		c-0.352,1.254,1.694,7.9,3.271,6.909c2.257-1.421,2.283-3.437,5.145-4.226c1.217-0.336,3.299-1.624,3.793-2.732
		c0.68-1.521,6.203-3.988,7.705-3.086c1.236,0.742,2.625,0.614,3.864-0.331c1.69-1.293-0.847-2.177,2.015-2.591
		c1.696,0.343,1.866-1.609,3.2-2.137c0.433-0.17,0.933-0.27,1.375-0.403c0.816-0.251,1.22-1.244,1.778-1.804l1.873-0.569l0,0
		c0.314-0.592,0.715-1.169,1.256-1.565c0.381-0.281,0.936-0.563,1.232-0.929c0.527-0.646-0.069-1.727,0.854-2.255
		c0.336-0.507,1.662-1.16,1.326-1.732c-0.42-0.726-1.883-0.875-0.829-1.875c1.726-1.642,1.974-2.72,2.347-4.987
		c0.248-1.489,1.323-2.375,1.685-3.728c0.21-0.791,0.709-0.554,1.422-0.689c1.071-0.204,0.937-1.354,1.21-2.088
		c0.234-0.631,1.707-0.979,2.371-1.615c1.585-2.311-1.198-2.635-1.73-4.18c-0.716-2.08,1.699-2.652,2.702-3.657
		c1.031-1.033,0.079-2.026,0.474-3.111c0.554-1.517,1.797-1.343,3.105-1.399c2.066-0.09,2.482-3.058,0.688-4.015
		c-0.582-1.048-0.02-2.62-0.662-3.609c-0.672-1.025-1.43-1.759-1.778-2.99c-0.175-0.617-0.007-1.622-0.403-2.09
		c-0.725-0.856-2.188-1.51-3.225-1.971l-5.168-2.302c-3-1.503-5.79-2.225-8.559-4.274c-2.168-1.606-4.934-2.115-7.302-3.349
		c-1.435-0.745-2.347-1.997-3.509-2.993c-0.611-0.524-1.154,0.254-1.896,0.215c-1.867,0.818-8.787,4.58-9.72,0.807
		c-0.974,0-1.546,0.935-2.917,0.76c-1.167-0.149-2.945,0.171-3.982-0.237c-1.137-0.45,1.426-3.317,1.826-3.396
		c0.013-0.048,0.023-0.063,0.023-0.119c-0.729-0.246-2.736-0.333-3.604-0.333c-1.358,0-3.199,1.768-4.244,0.167
		c-0.68-1.042-0.695-0.456-2.038-0.333c-2.287,0.455-3.517-0.715-2.726-2.8c0.7-1.854,0.418-2.826-0.451-4.417
		c-0.532-0.975,1.26-1.41,1.328-2.232c0.178-2.193-0.192-2.105-1.969-1.164c-1.99,1.056-4.271,2.208-5.999,3.751
		c-0.495,0.444-3.321,3.079-3.248,1.497c0.039-0.802,0.796-2.649-0.307-2.92c-2.168-0.536-1.997-0.732-3.153-2.471
		c-1.1-1.651,1.258-1.546,2.11-3.038c0-2.398-2.822-0.821-3.272-2.208c-0.282-0.873-1.599-2.275-0.426-3.086
		c0.776-0.538,4.305-5.827,3.248-6.412c-0.207-0.114-2.068-0.546-2.276-0.546c-0.593,0-1.496,0.996-2.086,1.307l-3.627,1.898
		c-1.835,0.962-3.267-0.304-5.026,0.19c-0.742,0.039-1.247,0.226-1.849-0.261c-0.276-0.224-0.463-0.514-0.853-0.498
		c-1.186,0.048-2.078,1.305-3.367,1.305c-0.548,0-1.191,0.374-1.683,0.594c-1.142,0.511-1.922,1.194-3.176,1.639
		c-0.582,0.257-1.499,0.24-1.944-0.263c-0.335-0.377-0.894-0.497-1.185-0.949c-0.375-0.581-0.146-1.609-1.115-1.283
		c-0.532,0.181-1.414,0.546-1.944,0.546c-0.626,0-1.172,0.767-1.778,0.999l-3.313,0.023l0,0v20.124c-0.945,0-1.461,0.086-2.406,0.23
		c-0.229,0.027-0.344,0.229-0.573,0.229c-0.458,0-0.687-0.171-1.146-0.114c-0.516,0.057-0.715,0.458-1.146,0.688
		c-0.888,0.487-1.403,0.859-2.292,1.374c-0.517,0.287-0.86,0.545-1.375,0.802c-0.344,0.172-0.773,0.229-0.917,0.573
		c-0.114,0.315-0.114,0.602-0.229,0.917c-0.372,1.03-1.117,1.375-1.948,2.063c-0.944,0.802-1.26,1.604-1.948,2.634
		c-0.373,0.546-0.774,0.747-1.26,1.146c-1.002,0.859-1.089,1.748-1.948,2.75c-1.06,1.231-2.09,1.918-2.292,3.552
		c-0.115,0.943-0.257,1.862-1.146,2.177c-0.715,0.258-1.318,0.229-1.833,0.802c-0.63,0.715-0.229,1.604-0.917,2.291
		c-0.487,0.487-1.117,0.345-1.833,0.345c-0.028,0.543,0.115,0.886-0.115,1.373c-0.172,0.373-0.516,0.517-0.802,0.804
		c-1.118,1.117-2.091,1.403-3.552,2.06l0,0l1.885,1.217c1.293,0.26,2.553,0.802,3.912,0.927c2.272,0.211,4.84-0.509,7.207-0.522
		l4.149-0.022c0.704-0.004,1.889-0.459,2.276,0.331c0.767,1.566,1.415,1.598,1.47,3.514l0.119,4.133
		c1.279,0.828,2.743,1.196,4.267,1.258c1.147,0.049,2.203-1.068,3.366-1.068c0.328,0.992-0.237,1.755-0.853,2.518
		c-1.075,1.334,0.223,2.656,0.047,4.299c-0.089,0.826-0.913,2.729,0.284,3.23c0.98,0.408,2.468-0.263,3.485,0.401
		c0.784,0.515,0.775,1.116,1.92,1.259c1.215,0.15,7.56-0.596,6.686,1.378c0.154,1.699,0.31,1.97-0.807,3.3
		c-1.078,1.289-2.692,2.213-4.054,3.135c-0.727,0.494-1.492,0.854-2.205,1.426c-0.684,0.549-1.808,1.421-2.631,1.66
		c-1.661,1.604-4.407,1.984-6.068,3.824c-1.491,1.648-3.668,2.59-5.737,3.323c-3.494,1.24-3.854,3.531-6.259,5.937
		c-0.842,0.844-2.092,0.088-2.418,1.093c-0.184,0.565-0.644,0.558-1.162,0.594c-1.157,0.085-1.151,0.271-2.134,0.735
		c-0.195,0.705-0.598,0.88-1.304,0.976c-0.699,0.092-0.582,0.472-0.924,0.948c-0.622,0.865-3.743,2.188-4.836,2.851
		c-1.492,0.902-2.535,1.4-2.963,3.156c-0.488,2.001-3.08,1.289-4.339,2.161c-0.794,0.551,0.828,1.334,0.972,1.947
		c0.169,0.721,0.368,1.681,0.119,2.422l0,0c2.054,0.479,2.858,0.209,4.718,1.378c2.031,1.276,4.507,2.312,6.566,0.569
		c1.894-1.603,1.504-2.778,3.532-0.902l2.798,2.588c0.833,0.77,2.834,2.576,2.845,3.609l0.024,2.35
		c0.009,0.906-0.499,1.663-0.499,2.54c0.938,1.88,1.416,5.133,3.793,2.446c1.916-2.164,4.24-5.019,6.567-6.694
		c1.086-0.784,3.646,0.231,4.86,0.476c2.319,0.463,3.631,1.795,5.713,2.61c1.057,0.229,2.084,0.08,3.011,0.761
		c0.906,0.662,1.524,1.467,2.537,2.042C95.883,178.771,97.113,178.575,98.29,178.646L98.29,178.646L98.29,178.646z"/>
</g>
<g id="Grand_Bassa" display="none">
	<text transform="matrix(1 0 0 1 20 23.6113)" display="inline" fill="#474747" font-family="'Arial-BoldMT'" font-size="15">Grand Bassa</text>
	<path display="inline" fill="#F2F2F2" stroke="#8D8D8D" d="M180.504,60.117c-0.275,1.05,0.264,2.552,0.242,3.679l-0.098,4.694
		c-0.026,1.318-0.565,3.039-0.219,4.261c0.674,2.358,0.397,3.881,3.045,4.694c1.281,0.396,2.053,0.871,3.168,1.528
		c1.281,0.75,2.676,1.164,3.938,1.981c0.969,0.619,1.984,1.488,3.046,1.891c1.201,0.454,3.204,1.306,1.958,2.878
		c-0.729,0.92-2.07,0.394-2.635,0.995c-0.59,0.626,0.139,1.728,0.218,2.442c0.054,0.494-0.155,2.785-0.58,2.955
		c-1.297,0.517-3.356,0.458-4.762,0.654c-0.431,0.221-1.216,0.167-1.716,0.193c-0.959,0.047-1.896,0.301-2.853,0.41
		c-0.534,0.063-1.088,0.191-1.618,0.291c-0.509,0.095-1.252,0.112-1.69,0.363l0,0l-0.193-1.139
		c-0.129-0.643-0.146-0.955,0.048-1.572c0.122-0.387,0.305-0.824,0.291-1.236c-0.029-0.896-0.055-1.307-1.039-1.281
		c-0.592,0.014-1.187-0.072-1.765-0.072c-0.022-0.119-0.067-0.051,0.097-0.075c-2.707,0.231-6.275-1.981-8.193,0.654
		c-1.295,1.779-7.104,1.488-9.182,1.912c-2.146,0.44-3.771,1.734-5.85,2.13c-0.743,0.142-2.66-0.061-3.189,0.242
		c0,1.705,1.406,2.834,1.231,4.308c0.312,1.816,0.285,4.303,0.218,6.147c-0.061,1.685-0.63,3.618-0.097,5.228
		c0.341,1.029-0.073,2.242,0.024,3.367c0.145,1.668-3.804,0.896-3.795,0.895c-1.565,0.252-3.566,0.023-4.566,1.525
		c-0.647,0.974-1.68,2.043-2.151,3.023l-0.967,2.01c-0.546,1.137-0.177,2.065-0.437,2.857c-0.486,1.494-1.914-1.436-2.197-1.791
		c-1.611-2.03-3.172-1.623-5.729-1.623c-3.918,0-0.455,5.033-4.203,5.882c-2.58,0.582-2.865,1.313-3.216,3.535
		c0.052,0.981,1.142,1.812,0.772,2.854c-0.301,0.85-0.7,1.082-0.7,2.059c0,1.857-1.95,1.634-1.038,3.822
		c0.417,1.002-1.055,1.389-0.895,2.324c0.217,1.264,1.429,2.407,1.377,3.754c-0.025,0.685-0.547,1.215-0.58,2.032
		c-0.03,0.771-0.609,1.781-1.232,2.226c-0.275,0.914,0.055,1.687-0.169,2.541c-0.183,0.699-0.894,1.154-0.894,1.865
		c0,1.373-0.856,2.889-0.024,4.064c0.522,0.74,0.752,1.441,0.604,2.373c-0.246,1.544-2.366,1.229-1.813,2.781
		c0.287,0.807,0.776,1.58,1.017,2.351c0.359,1.085,1.305,1.776,1.377,3.099l0.145,2.637c0.145,2.595-2.295,2.482-3.842,3.606
		c-1.077,0.783-0.116,2.62-1.33,3.464c-0.608,0.422-1.653,0.485-1.909,1.209L115.618,180l0,0c-0.073-0.177-0.101-0.309-0.174-0.468
		c-0.19-0.38-0.556-0.425-0.935-0.585c-0.307-0.133-0.439-0.336-0.643-0.584c-0.598-0.699-1.211-0.877-2.044-1.283
		c-0.759-0.382-1.27-0.514-1.869-1.11c-0.365-0.366-0.452-0.715-0.701-1.169c-0.35-0.627-0.759-0.861-1.285-1.342
		c-0.335-0.307-0.496-0.557-0.817-0.878c-0.599-0.599-1.022-0.875-1.577-1.519c-0.204-0.246-0.292-0.469-0.525-0.701
		c-0.161-0.159-0.351-0.219-0.468-0.406c-0.102-0.161-0.176-0.321-0.292-0.469c-0.452-0.525-0.978-0.644-1.343-1.228
		c-0.277-0.452-0.41-0.759-0.76-1.167c-0.612-0.699-1.124-0.964-1.577-1.753c-0.627-0.846-0.963-1.487-1.927-1.926
		c-0.743-0.335-1.285-0.177-2.043-0.468c-0.526-0.205-0.744-0.51-1.168-0.877c-0.321-0.275-0.569-0.424-0.817-0.758
		c-0.321-0.425-0.379-0.789-0.76-1.168c-0.714-0.717-1.314-0.892-2.102-1.521c-0.54-0.425-0.569-0.919-1.051-1.401
		c-0.584-0.584-1.036-0.83-1.577-1.46c-0.146-0.175-0.292-0.263-0.467-0.407c-0.452-0.396-0.628-0.701-1.11-1.053
		c-0.496-0.363-0.86-0.51-1.402-0.816c-0.379-0.219-0.642-0.291-0.993-0.526c-0.189-0.116-0.249-0.335-0.467-0.407
		c-0.161-0.059-0.306-0.059-0.467-0.115c-0.467-0.176-0.627-0.615-0.7-1.111c-0.146-0.92-0.818-1.27-1.519-1.867
		c-0.335-0.277-0.525-0.496-0.876-0.76c-0.642-0.481-0.978-0.789-1.635-1.228c-0.467-0.321-0.686-0.584-1.109-0.934
		c-0.176-0.146-0.467-0.177-0.467-0.41c0-0.465,0.452-0.612,0.583-1.05c0.146-0.514,0.175-0.861,0.175-1.401
		c0-0.599-0.351-0.894-0.642-1.401c-0.292-0.513-0.555-0.789-0.759-1.345c-0.087-0.263-0.234-0.407-0.234-0.7
		c0-0.394,0.191-0.584,0.351-0.934c0.074-0.161,0.103-0.294,0.176-0.469c0.249-0.567,0.672-0.787,0.818-1.401
		c-0.234,0.03-0.351,0.03-0.584,0.06c-0.599,0.088-0.861,0.524-1.46,0.524c-0.424,0-0.54-0.524-0.964-0.524
		c-0.642,0-0.963,0.408-1.605,0.408c-0.642,0-1.051-0.496-1.226-1.109c-0.526-0.395-1.007-0.641-1.578-0.992
		c-0.802-0.496-1.211-0.861-1.985-1.4c-0.891-0.628-1.46-0.935-2.453-1.402c-0.364-0.16-0.627-0.264-0.935-0.523
		c-0.086-0.074-0.086-0.177-0.174-0.234c-0.161-0.117-0.307-0.176-0.468-0.291c-0.394-0.293-0.568-0.57-0.876-0.935
		c-0.409-0.481-0.773-0.659-1.226-1.11c-0.248-0.25-0.496-0.35-0.701-0.644c-0.496-0.685-0.657-1.183-1.168-1.867
		c-0.657-0.892-1.285-1.227-2.161-1.928c-1.138-0.906-1.766-1.519-3.037-2.22c-0.744-0.409-1.168-1.08-1.985-1.344
		c-0.949-0.394-1.547-0.525-2.511-0.875c-1.036-0.379-1.547-0.817-2.569-1.228c-0.335-0.131-0.541-0.161-0.877-0.291
		c-0.67-0.265-0.977-0.599-1.693-0.761c-0.379-0.088-0.701,0.016-0.993-0.231c-0.146-0.119-0.174-0.308-0.292-0.468
		c-0.321-0.452-0.876-0.6-0.876-1.169c0-0.38,0.35-0.556,0.701-0.701c0.264-0.103,0.438-0.202,0.701-0.291
		c0.628-0.233,1.022-0.291,1.694-0.291c0.583,0,0.949,0.072,1.459,0.351c0.409,0.219,0.453,0.627,0.818,0.934
		c0.467,0.408,0.832,0.48,1.343,0.816c0.351,0.234,0.569,0.469,0.992,0.469c0.57,0,0.804-0.469,1.373-0.469
		c0.351,0,0.569,0.219,0.788,0.469c0.366,0.394,0.496,0.73,0.875,1.109c-0.13-0.279-0.043-0.424-0.058-0.701
		c-0.043-0.598-0.131-0.936-0.233-1.518c-0.043-0.294-0.028-0.498-0.176-0.759c-0.146-0.265-0.379-0.353-0.642-0.526
		c-0.278-0.191-0.424-0.38-0.76-0.469c-0.379-0.102-0.642-0.116-0.992-0.291c-0.102-0.044-0.146-0.116-0.233-0.174
		c-0.073-0.045-0.233-0.018-0.233-0.119c0-0.422,0.467-0.568,0.467-0.992c0-0.115-0.087-0.188-0.117-0.291
		c-0.263-0.017-0.422-0.058-0.686-0.058c-0.833,0-1.168,0.7-2,0.7c-0.496,0-0.555-0.57-0.818-0.994
		c-0.189-0.321-0.438-0.526-0.817-0.526c-0.467,0-0.686,0.294-1.11,0.47c-0.351,0.146-0.569,0.203-0.935,0.291
		c-0.058-0.262-0.043-0.438-0.117-0.699c-0.102-0.396-0.335-0.602-0.584-0.937l0,0l1.512-2.592c1.324-0.442,0.523-2.622,0.217-3.486
		c-0.891-2.505,2.042-4.219,2.417-6.438c0.255-1.516,1.417-0.982,2.223-1.621c1.196-0.945-0.053-1.855,0.169-3.024
		c0.349-0.748,0.313-1.919,0.942-2.52c1.033-0.985,3.024-2.124,3.359-3.509c0.688-2.852-1.087-4.938,1.595-6.995
		c0.88-0.673,2.11-1.737,2.731-2.638c1.085-1.576-0.14-1.935-0.29-3.29c-0.174-1.532-1.788-1.732-1.788-3.679
		c0-1.963-1.028-1.93,1.329-1.77c1.239,0.086,2.46-1.507,3.504-1.186c0.747,0.231,1.028,1.682,1.933,0.775
		c1.741-1.744,2.898,1.081,3.674,2.226c1.063,1.572,1.888,1.409,3.504,1.986c1.002,0.359,1.304,1.516,2.199,1.814
		c1.186,0.396,3.36-0.114,4.35-0.822c1.636-1.174,1.934-3.225,2.683-4.89c0.743-0.531,1.277-2.019,1.739-2.832
		c0.704-1.239,2.568,1.192,2.779,1.912c1.308,4.454,3.564,2.282,7.129,3.099c3.014,0.689,7.104-1.176,9.667-2.759
		c1.894-0.166,2.846-2.943,4.422-3.873c1.052-0.622,2.449-0.326,3.527-1.089c1.672-1.188,3.143-2.397,4.23-4.188
		c1.186-1.956,1.209-4.331,1.909-6.438L116.97,50l0,0c2.018,0.442,3.453,2.268,3.987,4.089c0.262,0.896,0.542,0.915,1.378,1.234
		c1.444,0.554,2.213,1.523,3.601,2.229c3.313,1.679,7.369,3.6,5.026,7.768l-2.368,6.562c-0.9,2.496-4.354,5.675-4.664,7.791
		c-0.261,1.777,0.993,1.693-0.313,3.414c-0.29,0.382-0.435,1.772-0.314,2.252c2.351,0.58,1.367,0.149,2.394-1.307
		c1.521-2.165,5.158-3.115,7.104-5.181c1.872-1.986,3.342-0.387,5.534-0.387c1.599,0,3.676-0.785,3.746-2.638
		c0.062-1.595,1.698,0.049,2.683-0.389c0.926-0.41,1.182-1.299,2.346-1.595c0.615-0.158,1.233,0.156,1.859-0.098
		c2.1-0.857,1.704-3.171,3.383-4.429c0.484-0.293,0.813-1.753,1.258-1.502c0.569,0.324,0.545,1.26,1.596,0.896
		c1.082-0.375,1.527-2.757,2.367-3.656c0.871-0.929,2.49-1.111,3.142-2.033c1.205-1.709-0.233-3.379,2.442-1.188
		c0.815,0.673-0.701,3.383,2.318,2.251c2.389-0.894,6.957-1.241,8.748-2.953c0.338-0.323,1.094-1.078,1.62-0.798
		c0.752,0.398,0.261,1.553,1.667,1.066C178.586,61.023,179.281,60.359,180.504,60.117L180.504,60.117L180.504,60.117z"/>
</g>
<g id="Grand_Cape_Mount_County" display="none">
	<text transform="matrix(1 0 0 1 20 23.6113)" display="inline" fill="#474747" font-family="'Arial-BoldMT'" font-size="15">Grand Cape Mount County</text>
	<path display="inline" fill="#F2F2F2" stroke="#8D8D8D" d="M108.938,180l0.14-2.918c0.247-1.088-1.832-2.898-1.109-3.889
		l2.158-2.95c0.818-1.116,4.311,0.059,5.981-1.897c0.59-0.691,0.214-1.729,0.117-2.513c-0.138-1.133,2.292-2.457,2.976-3.449
		c0.764-1.106,1.813-0.354,2.596-1.079c0.88-0.818,1.51-2.99,1.896-4.094c0.506-1.438-1.904-2.57-1.078-4.645
		c0.82-1.31,2.277-3.774,0.438-4.646c-1.296-0.614-2.722-1.726-2.246-3.271c0.43-1.403,1.155-1.471,2.158-2.28
		c1.291-1.043,1.829-2.97,2.363-4.474c0.77-2.164,1.65-3.748,1.751-6.164c0.065-0.354,0.179-0.654,0.028-0.994
		c-0.176-0.395-0.5-0.733-0.643-1.168c-0.222-0.668-0.081-1.364,0.408-1.898l0.816-0.965l0,0c0.307-0.91,0.063-2.094-0.146-2.979
		c-0.176-0.754-2.173-1.721-1.193-2.397c1.549-1.071,4.737-0.194,5.338-2.656c0.526-2.161,1.812-2.776,3.646-3.888
		c1.346-0.814,5.188-2.443,5.951-3.506c0.423-0.59,0.277-1.057,1.138-1.17c0.867-0.114,1.365-0.332,1.604-1.196
		c1.207-0.574,1.201-0.806,2.627-0.908c0.637-0.045,1.203-0.034,1.429-0.729c0.399-1.238,1.938-0.309,2.976-1.342
		c2.961-2.963,3.402-5.784,7.703-7.307c2.547-0.905,5.225-2.063,7.059-4.093c2.046-2.263,5.425-2.732,7.47-4.703
		c1.013-0.298,2.396-1.372,3.237-2.046c0.877-0.7,1.818-1.146,2.714-1.754c1.676-1.133,3.661-2.271,4.989-3.854
		c1.373-1.642,1.181-1.97,0.992-4.063c1.074-2.429-6.734-1.51-8.229-1.695c-1.409-0.174-1.398-0.916-2.362-1.549
		c-1.253-0.818-3.082,0.011-4.29-0.495c-1.473-0.618-0.459-2.957-0.35-3.975c0.217-2.021-1.383-3.646-0.059-5.288
		c0.758-0.941,1.453-1.88,1.051-3.098c-1.434,0-2.73,1.372-4.143,1.313c-1.877-0.076-3.677-0.529-5.253-1.546l-0.146-5.085
		c-0.068-2.358-0.865-2.398-1.811-4.326c-0.475-0.97-1.934-0.413-2.8-0.408l-5.104,0.028c-2.912,0.017-6.072,0.902-8.869,0.644
		c-1.672-0.154-3.223-0.821-4.813-1.141L135.729,50l0,0c-2.256,1.021-3.386,1.973-5.642,2.96c-0.493,0.211-0.635,0.81-1.127,0.987
		c-0.67,0.247-1.094,0.424-1.834,0.424c-0.423,0-0.739-0.177-1.127-0.144c-0.704,0.107-1.06,0.531-1.692,0.846
		c-0.775,0.388-1.479,0.635-1.832,1.411c-0.529,1.164-0.74,2.01-1.692,2.819c-0.986,0.846-1.763,1.201-2.679,2.117
		c-0.388,0.388-0.458,0.739-0.846,1.127c-0.599,0.599-1.021,0.95-1.833,1.127c-0.67,0.141-1.269,0.177-1.691,0.706
		c-0.107,0.141-0.035,0.388-0.142,0.565c-0.597,1.034-1.138,1.706-2.146,2.215c-0.412,0.135-0.86,0.472-1.379,0.604
		c-2.057,0.517-3.561,0.599-5.076,2.114c-0.917,0.917-1.34,1.642-2.115,2.679c-0.688,0.922-1.522,1.372-2.115,2.398
		c-0.323,0.56-0.18,1.057-0.282,1.692c-0.073,0.455-0.319,0.706-0.564,1.127c-0.776,1.338-1.445,2.117-2.679,3.104
		c-0.352,0.281-0.637,0.525-0.987,0.843c-0.46,0.421-0.987,0.635-0.987,1.271c0,0.987,0.104,1.622-0.141,2.538
		c-0.178,0.669-0.186,1.293-0.705,1.692c-0.678,0.517-1.375,0.079-2.257,0.141c-1.162,0.079-1.516,1.408-2.679,1.408
		c-0.494,0-0.635-0.562-1.128-0.562c-0.459,0-0.704,0.287-1.128,0.421c-1.126,0.36-1.763,0.602-2.82,1.13
		c-0.704,0.351-1.164,0.706-1.974,0.706c-0.318,0-0.565-0.183-0.845-0.141c-0.459,0.062-0.744,0.418-1.128,0.703
		c-0.425,0.315-0.835,0.602-0.987,1.127c-0.235,0.813,0.098,1.662-0.563,2.257c-0.352,0.315-0.843-0.32-1.129-0.706
		c-0.419-0.565-0.669-1.268-1.41-1.268c-0.247,0-0.571,0.034-0.563,0.281c0.035,1.231,0.845,1.866,0.845,3.103
		c0,1.512-0.741,2.254-1.268,3.666c-0.422,1.127-0.354,3.118-1.551,2.819c-0.563-0.141-1.128-0.283-1.692-0.424
		c-0.336-0.085-0.423,0.491-0.423,0.846c0,0.565,0.629,0.746,0.987,1.127c0.663,0.711,0.771,1.379,1.128,2.259
		c0.171,0.424,0.423,0.669,0.423,1.127c0,0.883-0.278,1.446-0.564,2.257c-0.313,0.883-0.475,1.471-0.987,2.255
		c-0.085,0.132-0.365,0.19-0.564,0.144c-0.752-0.188-1.492-0.44-2.256-0.564c-0.395-0.064-1.056-0.371-1.199,0
		c-0.373,0.964-0.116,2.074,0,3.102c0.097,0.867,0.424,1.694,0.635,2.537c0.201,0.805-0.614,1.231-0.846,1.975
		c-0.119,0.382,0.078,0.781-0.141,1.13c-0.379,0.604-1.058,0.669-1.692,0.985c-0.916,0.459-1.41,0.848-2.115,1.553
		c-0.352,0.352-0.568,0.734-0.987,0.986c-0.568,0.344-1.34,0.563-1.34,1.269c0,0.563,0.232,0.846,0.212,1.411
		c-0.014,0.422-0.212,0.705-0.212,1.127c0,0.457,0.494,0.669,0.494,1.127c0,0.281-0.176,0.54-0.423,0.564
		c-1.302,0.135-2.324-0.277-3.384,0.422c-0.701,0.465-0.882,1.061-1.41,1.694c-0.352,0.422-0.779,0.634-0.988,1.125
		c-0.178,0.425-0.207,0.781-0.423,1.13c-0.241,0.389-0.706,0.495-0.987,0.846c-0.281,0.353-0.184,0.74-0.431,1.162l0,0
		c0.186,0.172,0.372,0.364,0.572,0.602c0.423,0.495,0.811,0.775,0.987,1.408c0.088,0.334,0.106,0.617,0.354,0.847
		c0.334,0.317,0.705,0.317,1.128,0.494c0.44,0.175,0.705,0.335,1.127,0.563c0.477,0.264,0.635,0.602,1.058,0.916
		c0.194,0.144,0.352,0.178,0.564,0.283c0.476,0.262,0.669,0.563,1.128,0.846c0.441,0.263,0.706,0.496,1.128,0.776
		c1.305,0.88,1.992,1.619,2.82,2.96c0.247,0.404,0.423,0.686,0.635,1.13c0.37,0.739,0.51,1.231,0.846,1.974
		c0.194,0.455,0.458,0.687,0.705,1.127c0.511,0.896,0.757,1.498,0.916,2.539c0.088,0.545,0.16,0.863,0.282,1.41
		c0.141,0.563,0.23,1.037,0.706,1.338c0.388,0.246,0.723,0.246,1.128,0.496c0.67,0.401,0.899,1.127,1.692,1.127
		c0.353,0,0.511-0.193,0.845-0.281c0.318-0.094,0.547-0.039,0.845-0.143c0.142-0.055,0.142-0.212,0.283-0.281
		c0.952-0.479,1.551-0.549,2.539-0.918c0.775-0.283,1.251-0.391,1.973-0.774c0.794-0.422,1.199-1.06,2.115-1.06
		c0.335,0,0.512,0.141,0.846,0.141c0.159,0,0.317,0.09,0.423,0c0.071-0.051,0-0.229,0.071-0.281
		c0.282-0.208,0.476-0.492,0.846-0.492c0.352,0,0.546,0.191,0.846,0.353c0.247,0.124,0.282,0.422,0.564,0.422
		c0.37,0,0.476-0.422,0.846-0.422c0.494,0,0.634,0.563,1.128,0.563c0.229,0,0.335-0.21,0.564-0.21c0.141,0,0.176,0.123,0.282,0.21
		c0.229,0.194,0.282,0.405,0.352,0.703l-0.352,0.708l0.141,0.281c0.67,0.054,1.197,0.054,1.692,0.495
		c0.229,0.404,0.563,0.455,0.916,0.771c0.512,0.459,0.706,0.935,0.706,1.622c0,0.689-0.493,0.97-0.706,1.622
		c0.212-0.02,0.335-0.07,0.547-0.07c0.248,0,0.317,0.23,0.51,0.353c0.195,0.124,0.441,0.16,0.565,0.354
		c0.176,0.28,0.087,0.614,0.352,0.846c0.299,0.244,0.494,0.457,0.846,0.633c0.44,0.214,0.986,0.283,0.986,0.777
		c0,0.229-0.141,0.35-0.21,0.563c-0.176,0.563-0.229,0.97-0.636,1.408c-0.245,0.284-0.545,0.407-0.704,0.774
		c-0.176,0.405-0.088,0.724-0.21,1.131c-0.071,0.262-0.458,0.229-0.564,0.494c-0.106,0.299-0.106,0.525-0.212,0.845
		c-0.088-0.07-0.229-0.054-0.282-0.142c-0.176-0.301-0.229-0.617-0.563-0.775c-0.089-0.036-0.194,0.018-0.283,0
		c-0.634-0.123-1.039-0.07-1.692-0.141c-0.546-0.054-0.862-0.16-1.41-0.211c-0.669-0.07-1.11-0.054-1.691-0.354
		c-0.547-0.281-0.722-0.793-1.339-0.914c-0.264-0.057-0.422,0.088-0.705,0.066c-0.423-0.017-0.652-0.261-0.987-0.49
		c-0.846-0.582-1.235-1.077-2.116-1.622c-0.193-0.107-0.316-0.353-0.563-0.353c-0.141,0-0.159,0.174-0.282,0.209
		c-0.194,0.057-0.354,0.144-0.564,0.144c-0.528,0-0.635-0.531-1.058-0.847c-0.493-0.371-0.881-0.479-1.41-0.775
		c-1.004-0.582-1.621-0.938-2.538-1.622c-0.283,0.284-0.511,0.495-0.916,0.495c-0.441,0-0.634-0.477-0.634-0.917
		c0-0.618,0.353-0.937,0.353-1.552c0-0.248-0.37-0.248-0.564-0.352c-0.423-0.266-0.687-0.461-1.128-0.706
		c-0.476-0.264-0.74-0.512-1.269-0.705l-1.269,0.351l-0.282-0.066c0.035-0.461,0.282-0.691,0.282-1.146
		c0-0.213-0.053-0.334-0.071-0.545c-0.21,0.121-0.439,0.141-0.564,0.352c-0.105,0.175,0.018,0.367,0,0.563
		c-0.051,0.338-0.264,0.531-0.492,0.778c-0.071,0.088-0.053,0.228-0.141,0.281c-0.159,0.104-0.405,0.034-0.564,0.141
		c-0.458,0.335-0.493,0.829-0.493,1.411c0,0.721,0.44,1.107,0.917,1.619c0.07,0.087,0.053,0.214,0.141,0.284
		c0.176,0.157,0.423,0.174,0.564,0.352c0.299,0.351,0.282,0.687,0.423,1.13c0.44,1.336,1.479,1.883,2.819,2.324
		c0.969,0.314,1.586,0.352,2.539,0.706c0.458,0.157,0.704,0.401,1.127,0.635c1.198,0.634,1.975,0.914,3.172,1.552
		c1.164,0.613,1.939,0.808,3.173,1.269c0.917,0.332,1.357,0.757,2.257,1.128c0.563,0.23,0.915,0.334,1.48,0.563
		c0.563,0.229,0.845,0.476,1.41,0.709c0.793,0.313,1.216,0.611,1.973,0.985c0.406,0.191,0.705,0.191,1.128,0.353
		c0.883,0.313,1.375,0.599,2.256,0.916c2.027,0.756,3.138,1.356,5.076,2.324c0.67,0.338,1.076,0.545,1.763,0.846
		c1.357,0.619,2.255,0.74,3.666,1.201c1.234,0.404,1.886,0.896,3.101,1.338C106.699,178.779,107.511,179.292,108.938,180
		L108.938,180L108.938,180z"/>
</g>
<g id="Grand_Gedeh" display="none">
	<text transform="matrix(1 0 0 1 20 23.6113)" display="inline" fill="#474747" font-family="'Arial-BoldMT'" font-size="15">Grand Gedeh</text>
	<path display="inline" fill="#F2F2F2" stroke="#8D8D8D" d="M9.987,139.012c0.936-0.531,1.225-1.348,1.964-1.883
		c0.059-0.043,1.337,0.99,1.741,1.193c0.484,0.238,4.292,0.634,4.701,0.355c2.007-1.357,2.062-0.09,3.871,0.362
		c1.247,0.31,2.464-1.087,3.759-1.274c2.427-0.354,3.513,2.256,5.946-0.556c0.624-0.719,2.561-2.776,2.598-3.626
		c0.047-1.016-0.853-1.423-0.607-2.688c0.21-1.086,0.406-3.18-1.217-3.24c-1.151-0.042-3.28,2.518-3.732,0.361
		c0.044-0.97-1.186-2.382-0.664-3.216c0.997-1.588,3.45-2.803,3.042-5.176c-0.227-1.315-1.044-2.278-1.549-3.517
		c-0.706-1.732,0.62-1.62,1.963-1.914c1.896-0.409,3.609-1.198,5.558-1.551c1.2-0.215,3.253-1.232,3.429-2.629
		c0.111-0.08,0.111-0.199,0.221-0.276c0.077-0.858,0.647-1.679,0.691-2.688c0.224-0.802-0.084-1.386-0.056-2.188
		c0.056-1.543,0.858-1.355,0.084-3.102c-0.313-0.701,1.022-1.974,1.411-2.547c0.731-1.082-0.474-3.85,1.16-3.85
		c2.498,0,2.082-0.765,3.042-2.438c0.662-1.154,3.685-1.164,4.977-1.33c2.432-0.309,1.971-3.245,3.154-4.43
		c0.978-0.706,0.678-1.796,1.023-2.824c0.245-0.743,1.017-1.231,1.05-2.022c0.088-2.115,0.78-2.568,2.211-4.1
		c0.733-0.783,1.636-1.606,1.798-2.715c0.331-2.243,1.652-2.457,3.069-3.876c1.486-1.489,1.585-2.525,1.492-4.651
		c0.293-0.285,1.033-3.378,1.079-3.959c0.12-1.5,0.072-2.182,1.411-3.021c0.678-0.424,2.46-3.424,2.46-4.236
		c0-0.645-0.481-1.26-0.664-1.883c-0.295-1.002,0.456-3.168,1.125-3.882l0,0l6.647,0.267c1.471,0,2.206,1.036,2.975,2.272
		c0.534,0.903,1.168,1.236,1.87,2.003c1.67,1.806,2.373,3.141,4.677,4.276c0.334-0.802,0.402-1.335,0.802-2.137
		c0.802-1.638,1.737-2.305,2.672-3.876c0.234-0.432,0.368-0.802,0.669-1.201c0.602,0.833,0.869,1.572,1.737,2.136
		c0.602,0.402,1.07,0.605,1.604,1.071c0.602,0.501,0.903,0.967,1.604,1.334c1.001,0.536,1.77,0.738,2.539,1.604
		c-1.348,0-2.286,0.711-2.539,2.006c-0.088,0.453,0.806,0.197,1.068,0.533c0.104,0.13-0.066,0.37,0,0.535
		c0.232,0.568,0.402,0.967,0.402,1.604c0,1.037,0.035,1.705-0.268,2.672c-0.198,0.637-0.581,0.964-0.802,1.604
		c-0.079,0.229-0.401,0.267-0.401,0.533c0,0.269,0.332,0.304,0.401,0.535c0.132,0.435,0.339,0.666,0.534,1.068
		c0.274,0.565,0.2,1.138,0.668,1.604c0.301,0.301,0.755,0.685,1.068,0.402c0.89-0.802,0.935-2.272,2.139-2.272
		c0.936,0,1.538,0.024,2.405,0.266c0.803,0.227,1.269,0.669,2.138,0.669c0.669,0,0.935-0.533,1.604-0.533
		c0.634,0,0.97,0.331,1.604,0.4c1.503,0.165,2.659-0.746,3.875,0.133c0.921,0.666-0.975,2.36,0,2.941
		c1.842,1.092,3.408,0.301,5.479,0.802c1.103,0.266,1.665,0.578,2.671,1.068c0.163,0.077,0.373,0.056,0.534,0.133
		c0.605,0.291,0.904,0.802,1.604,0.802c0.535,0,0.802-0.4,1.337-0.4c0.334,0,0.436,0.331,0.666,0.533
		c0.57,0.499,0.871,0.901,1.338,1.471c0.438,0.533,0.963,0.714,1.604,1.068c0.563,0.312,0.937,0.669,1.604,0.669
		c0.834,0,1.303-0.344,2.137-0.4c0.637-0.045,1.074,0.168,1.604-0.136c0.871-0.498,1.001-1.337,1.736-2.003
		c0.299-0.269,0.501-0.669,0.936-0.669c0.436,0,0.475,0.563,0.803,0.802c0.674,0.493,1.303,0.535,2.14,0.535
		c0.899,0,1.335-0.575,2.137-0.935c2.171-0.975,3.509-1.873,5.914-1.873c0.435,0,0.868,0,1.304,0c1.474,0-0.121,2.531,0.668,3.743
		c0.08,0.125,0.359,0.221,0.532,0.133c0.357-0.178,0.716-0.357,1.071-0.535c1.098-0.546,1.449,1.769,2.672,1.737
		c0.436-0.008,0.102-0.802,0.4-1.068c0.269-0.234,0.703-0.202,1.07-0.266c0.199-0.035,0.299-0.267,0.532-0.267
		c0.97,0,1.036,1.468,2.006,1.468c0.267,0,0.267-0.399,0.533-0.399c0.233,0,0.069,0.463,0.269,0.533
		c0.369,0.13,0.666,0.269,1.068,0.269c0.333,0,0.467-0.269,0.803-0.269c1.471,0,2.077,1.268,2.938,2.406
		c0.606,0.799,1.169,1.172,1.872,1.873c0.533,0.533,0.669,1.068,1.201,1.601c1.104,1.103,1.973,1.572,3.074,2.675
		c0.937,0.933,2.004,1.468,2.004,2.805c0,0.567-0.637,0.77-0.668,1.337c-0.033,0.634,0.17,1.002,0,1.601
		c-0.194,0.704-0.998,0.872-1.203,1.604c-0.226,0.805-0.028,1.372-0.269,2.139c-0.194,0.637-0.53,0.97-0.666,1.604
		c-0.131,0.602-0.065,0.97-0.134,1.604c-0.133,1.232-0.434,1.938-0.434,3.173c0,0.634-0.24,1.063,0.031,1.636
		c0.146,0.307,0.469,0.27,0.803,0.27c0.902,0,1.203-0.938,1.604-1.736c0.301-0.604,0.549-1.102,1.201-1.338
		c0.203-0.071,0.43,0.105,0.536,0.268c0.227,0.338,0.304,0.762,0.668,0.938c0.538,0.259,1.067,0.104,1.604,0.4
		c1.032,0.568,1.197,1.573,1.604,2.672c0.762,2.071,1.591,3.215,2.004,5.347c0.09,0.453-0.768,0.203-1.068,0.532
		c-0.396,0.438-0.104,1.002-0.27,1.604c-0.202,0.769-0.936,1.068-0.936,1.87c0,1.037,0.663,1.577,1.204,2.406
		c1.526,2.342,2.937,3.383,5.212,5.076c0.594,0.442,1.107,0.633,1.604,1.205c0.139,0.16,0.102,0.399,0.267,0.533
		c0.538,0.435,1.011,0.489,1.604,0.801c1.443,0.758,2.177,1.373,3.742,1.873c0.24,0.078,0.353-0.307,0.399-0.535
		c0.187-0.87,0.006-1.438,0.267-2.271c0.203-0.634,0.703-0.967,0.937-1.604c0.136-0.364-0.065-0.771,0.136-1.067
		c0.365-0.536,1.18-1.063,1.602-0.536c0.587,0.73-0.133,1.506-0.133,2.439c0,0.3-0.133,0.535,0,0.769
		c0.332,0.567,1.002,0.507,1.604,0.802c1.034,0.506,1.568,1.111,2.673,1.471c1.67,0.541,2.812,0.601,4.278,1.604
		c1.804,1.233,2.777,2.201,3.74,4.144c0.709,1.431,0.936,3.207,2.539,3.207c0.301,0,0.631,0.063,0.802-0.135
		c0.264-0.302,0.233-0.666,0.399-1.068c0.168-0.399,0.603-0.67,1.07-0.67c0.734,0,1.102,0.568,1.604,1.072
		c0.533,0.531,0.772,0.996,1.201,1.601c0.142,0.196,0.407,0.2,0.535,0.401c0.205,0.328,0.165,0.772,0.399,1.068
		c0.432,0.538,1.002,0.504,1.604,0.803c0.401,0.199,0.602,0.535,1.067,0.535c0.567,0,0.567-0.805,0.668-1.338
		c0.2-1.033,0.567-1.638,0.803-2.672c0.33-1.438,0.333-2.286,0.535-3.74c0.029-0.199,0.302,0.268,0.533,0.268
		c0.202,0,0.37-0.174,0.534-0.135c0.672,0.16,0.9,0.707,1.472,1.068c0.532,0.339,1.004,0.299,1.604,0.536
		c0.668,0.264,1.463,0.386,1.604,1.067c0.137,0.66-0.591,1.041-0.938,1.604c-0.82,1.343-1.602,2.171-1.602,3.74
		c0,1.505,1.068,2.24,1.068,3.742c0,0.67-0.432,0.938-0.803,1.472c-0.563,0.805-1.068,1.401-1.068,2.403
		c0,0.332,0.174,0.5,0.267,0.802c0.339,1.067,0.57,1.67,1.068,2.675c0.501,0.999,0.653,1.645,1.067,2.672
		c0.789,1.941,1.683,2.9,2.539,4.809c0.348,0.766,0.447,1.336,0.67,2.141c0.11,0.396,0.238,0.699,0.401,1.068
		c0.071,0.164,0.002,0.432,0.134,0.535c0.469,0.364,0.969-0.07,1.604,0c1.17,0.127,1.199,1.502,1.335,2.672
		c0.099,0.836,0.271,1.304,0.271,2.14c0,1.036-0.568,2.137-1.604,2.137c-0.335,0-0.47-0.267-0.802-0.267
		c-0.435,0-0.936,0.234-0.936,0.669c0,0.666,0.461,0.936,0.532,1.604c0.097,0.834-0.093,1.303,0,2.137
		c0.139,1.201,1.471,1.568,1.471,2.772c0,0.368,0,0.735,0,1.104c0,1.05-1.938-0.733-2.672,0c-0.29,0.289,0.165,0.526,0.601,0.807
		l0,0c-2.056,0.068-4.299,0.498-6.313,0.852c-1.768,0.309-3.592,0.856-5.391,0.856c-4.01,0-8.194-0.78-12.084-1.72
		c-8.256-0.779-18.91-0.553-24.856-7.032c-1.502-1.64-4.292-1.153-6.306-2.104c-3.723-0.742-7.873,0.387-11.53-0.523
		c-1.062-0.268-1.694-1.159-2.707-1.498c-4.651-1.551-13.004,0.111-17.396,1.967c-3.469,1.594-4.256,2.764-7.521,0.805
		c-1.175-0.709-6.677,0.088-7.853,0.857c-1.442,0.945-3.028,2.787-4.563,3.404c-1.846,0.746-5.74,1.147-7.769,1.33
		c-1.397,0.127-2.905-0.277-4.314-0.277l0,0l-1.104-10.966c-0.099-2.4-0.902-4.998-1.191-7.423c-0.273-2.317-0.655-4.736-1.409-6.95
		c-0.523-1.54-1.423-2.912-1.934-4.403c-4.103-5.052-13.278-13.195-19.578-7.115c-1.595,1.536-3.947,4.5-6.083,5.148
		c-5.963,5.662-11.887,13.563-20.295,15.205c-1.854,0.361-8.476,0.242-9.622-1.303c-3.632-0.519-6.932-2.989-10.507-3.988
		c-3.255-0.909-7.708-2.508-11.004-2.684c-2.179-0.117-5.017,0.133-5.308-2.662c-0.713-1.781-2.424-5.33-4.204-6.23
		C13.688,140.786,11.514,141.053,9.987,139.012L9.987,139.012L9.987,139.012z"/>
</g>
<g id="Grand_Kru" display="none">
	<text transform="matrix(1 0 0 1 20 23.6113)" display="inline" fill="#474747" font-family="'Arial-BoldMT'" font-size="15">Grand Kru</text>
	<path display="inline" fill="#F2F2F2" stroke="#8D8D8D" d="M112.046,50c2.721,1.242,5.423,3.681,8.101,5.212
		c2.821,1.612,1.835,11.36,4.787,11.825c5.996,0.942,11.94,2.032,17.356,5.108c4.451,2.615,8.409,7.218,9.396,12.417l0,0
		l-1.051,3.112c0,1.494,0.158,3.12,0.525,4.546c0.326,1.272-0.305,2.318-0.979,3.325c-0.636,0.945-0.953,1.312-1.115,2.517
		c-0.022,0.158-0.141,1.363-0.178,0.875c0,4.252,0.026,5.438-2.06,9.059c-0.802,1.393-3.282,5.791-3.282,7.24l0.07,0.07
		c7.768,0,15.158,2.465,22.244,5.631c1.346,0.603,6.772,3.455,7.789,3.396c3.58,2.655,11.979,4.896,13.515,9.688
		c1.438,4.461,4.604,7.918,4.403,13.049c-0.053,1.293-2.063,1.885-2.551,3.146c-1.084,6.08,2.01,3.645,5.623,4.092
		c1.328,1.332,0.327,9.532,0.73,11.896c0.505,2.921-3.661,10.866-6.426,11.784L185.523,180l0,0c0-0.148-0.146-0.212-0.17-0.34
		c-0.23-0.821-0.506-1.245-0.845-2.021c-0.296-0.678-0.38-1.121-0.844-1.689c-0.085-0.129-0.104-0.275-0.253-0.34
		c-0.21-0.104-0.441-0.104-0.676-0.168c-0.506-0.148-0.821-0.293-1.351-0.422c-1.602-0.399-2.573-0.508-4.136-1.013
		c-1.497-0.483-2.361-0.801-3.88-1.265c-1.12-0.338-1.604-0.949-2.702-1.35c-1.581-0.594-2.529-0.806-4.136-1.27
		c-0.396-0.104-0.735-0.021-1.013-0.337c-0.336-0.4,0.063-1.117-0.422-1.351c-0.992-0.483-1.709-0.527-2.785-0.845
		c-1.478-0.442-2.278-0.907-3.711-1.433c-0.634-0.232-1.058-0.213-1.689-0.426c-0.526-0.168-0.885-0.336-1.434-0.42
		c-1.563-0.231-2.49-0.275-4.053-0.508c-0.548-0.085-0.885-0.293-1.434-0.421c-0.78-0.192-1.268-0.212-2.025-0.421
		c-0.779-0.212-1.267-0.275-2.025-0.592c-2.131-0.528-3.354-0.737-5.484-1.266c-0.696-0.168-1.077-0.34-1.773-0.424
		c-2.51-0.357-3.986-0.316-6.498-0.759c-0.971-0.168-1.477-0.487-2.447-0.676c-1.182-0.231-1.92-0.168-3.122-0.337
		c-1.013-0.146-1.604-0.146-2.616-0.336c-0.781-0.151-1.225-0.36-2.025-0.424c-0.781-0.064-1.287,0.043-2.027-0.17
		c-1.053-0.295-1.666-0.633-2.699-1.013c-1.289-0.464-2.238-0.274-3.377-1.013c-0.527-0.337-0.654-0.762-1.011-1.266
		c-0.612-0.846-1.309-1.058-2.28-1.438c-0.696-0.271-1.159-0.377-1.856-0.673c-0.296-0.128-0.676-0.168-0.676-0.509
		c0-0.252,0.148-0.44,0.084-0.674c-0.126-0.424-0.484-0.53-0.843-0.76c-0.422-0.275-0.654-0.568-1.013-0.929
		c-0.971-0.97-1.562-1.582-2.701-2.362c-0.717-0.484-1.225-0.549-2.025-0.845c-1.309-0.483-2.09-0.737-3.459-0.929
		c-1.605-0.232-2.448-0.737-3.967-1.266c-0.696-0.232-1.161-0.275-1.857-0.509c-2.11-0.717-3.375-1.073-5.485-1.771
		c-0.929-0.297-1.434-0.592-2.362-0.93c-0.654-0.23-1.161-0.168-1.689-0.592c-0.464-0.355-0.464-0.865-0.843-1.35
		c-0.486-0.633-0.865-0.992-1.604-1.35c-0.38-0.191-0.801-0.213-1.013-0.593c-0.252-0.483-0.252-0.845-0.506-1.351
		c-0.294-0.611-0.719-0.863-1.267-1.264c-0.717-0.529-1.201-0.826-2.024-1.183c-0.464-0.19-0.612-0.572-1.013-0.845
		c-0.358-0.232-0.635-0.316-1.013-0.508c-0.781-0.422-1.245-0.758-2.026-1.183c-0.802-0.42-1.181-0.885-2.024-1.265
		c-1.161-0.528-1.877-0.696-3.039-1.266c-1.245-0.613-1.941-0.762-3.123-1.351c-0.697-0.34-1.013-0.72-1.689-1.097
		c-0.885-0.487-1.454-0.74-2.362-1.186c-0.76-0.377-1.265-0.523-2.025-0.925c-0.823-0.425-1.265-0.845-2.11-1.185
		c-0.358-0.146-0.633-0.17-1.013-0.254c-0.865-0.19-1.329-0.463-2.194-0.588c-1.223-0.168-1.855-0.549-3.039-0.93
		c-1.602-0.527-2.552-0.779-4.22-1.182l0,0l4.316-2.984c3.388-2.759,4.295-7.507,7.928-10.074c2.5-1.767,6.023-1.716,8.939-1.992
		c3.274-0.313,2.13-6.535,3.039-9.271c0.771-2.312,2.813-2.591,4.996-2.591c3.07,0,5.032-1.831,7.3-3.775
		c1.642-0.76,2.71-1.548,4.61-1.716c4.166-0.367,2.645-2.201,3.771-4.967c0.561-1.373,3.014-1.672,4.085-3.112
		c1.583-2.12,4.181-3.917,6.356-5.351c2.125-1.4,1.108-4.973,2.34-6.471c1.085-0.646,1.634-0.596,2.201-1.82
		c0.723-1.558,0.75-3.188,1.957-4.546c1.368-1.548,2.88-4.159,3.212-6.191C109.941,53.937,110.668,51.38,112.046,50L112.046,50
		L112.046,50z"/>
</g>
<g id="Lofa" display="none">
	<text transform="matrix(1 0 0 1 20 23.6113)" display="inline" fill="#474747" font-family="'Arial-BoldMT'" font-size="15">Lofa</text>
	<path display="inline" fill="#F2F2F2" stroke="#8D8D8D" d="M136.063,177.805c0.754,0.334,1.934,1.092,2.64,1.57
		c1.003,0.68,4.506,0.9,5.478,0.178c0.905-0.671,1.603-1.666,2.859-1.729c1.02-0.053,1.598,0.445,2.777-0.02
		c0.851-0.337,0.953-0.617,0.953-1.492c0-0.858,1.711-0.838,0.934-2.026c-0.814-1.245-0.944-1.501,0.02-2.765
		c0.783-0.232,1.307-0.889,2.163-1.133c0.728-0.207,1.349-0.068,2.103-0.437c2.175-1.056,4.951-1.823,6.65-3.46
		c0.668-0.643,1.879-0.848,2.282-1.61c0.504-0.954,0.69-2.651,1.459-3.421l0,0c-0.169,0-0.239-0.168-0.384-0.191l-0.114-0.276
		c0.033-0.124,0.069-0.257,0.114-0.394c0.146-0.455,0.171-0.721,0.385-1.151c0.434-0.886,1.342-1.224,1.342-2.231
		c0-0.559,0-1.119,0-1.68c0-0.525-0.096-0.936,0.191-1.365c0.288-0.433,0.678-0.547,1.056-0.863c0.82-0.688,1.462-0.983,2.11-1.822
		c0.502-0.648,0.572-1.201,0.96-1.918c0.571-1.059,1.21-1.53,1.63-2.687c0.155-0.428,0.376-0.698,0.479-1.151
		c0.304-1.32,0.319-2.18,0.768-3.453c0.127-0.356,0.404-0.435,0.577-0.768c0.282-0.552,0.44-0.955,0.671-1.535
		c0.178-0.451,0.383-0.791,0.671-1.15c0.215-0.264,0.672-0.313,0.672-0.672c0-0.455-0.407-0.625-0.672-0.957
		c-0.188-0.241-0.29-0.528-0.479-0.771c-0.074-0.094-0.313,0.025-0.383-0.095c-0.22-0.383-0.072-0.696-0.098-1.151
		c-0.023-0.454,0.079-0.722,0-1.151c-0.137-0.743-0.479-1.148-0.479-1.918c0-0.599-0.014-0.979,0.19-1.533
		c0.06-0.164,0.281-0.174,0.384-0.289c0.521-0.579,1.028-0.77,1.438-1.438c0.501-0.817,0.358-1.486,0.862-2.304
		c0.305-0.759,0.287-1.808,0.287-2.782c0-1.414-0.238-2.71-1.535-3.261c-0.935-0.407-1.414-0.813-2.301-1.343
		c-0.432-0.239-0.744-0.432-0.961-0.864c-0.359-0.744-0.43-1.295-0.959-1.918c-0.383-0.455-0.887-0.552-1.15-1.056
		c-0.287-0.525-0.359-0.937-0.479-1.533c-0.168-0.889-0.384-1.391-0.384-2.303c0-0.289-0.048-0.504,0-0.768
		c0.049-0.289,0.288-0.457,0.288-0.769c0-0.601-0.12-0.959-0.288-1.534c-0.048-0.169-0.191-0.264-0.191-0.456v-1.967
		c0-1.127,1.127-1.343,1.631-2.373l-1.822-4.605c0.072-0.694,0.479-1.031,0.479-1.726c0-0.168-0.168-0.24-0.191-0.383
		c-0.863,0.072-1.271,0.576-2.135,0.576c-0.215,0-0.336-0.073-0.552-0.097c0.024-0.456,0.192-0.719,0.479-1.055
		c0.191-0.503,0.479-0.887,0.479-1.439c0-0.719-0.456-1.055-0.672-1.727c-0.024-0.12,0.022-0.264,0-0.384
		c-0.097-0.312-0.288-0.456-0.384-0.767c-0.455-1.271-0.479-2.087-0.575-3.454c-0.071-0.96-0.144-1.703-0.862-2.303
		c-0.457-0.383-0.984-0.119-1.535-0.287c-0.313-0.097-0.455-0.385-0.768-0.48c-0.695-0.239-1.176-0.144-1.919-0.192l-0.097-0.479
		c0.168-1.056,0.265-1.704,0.576-2.687c0.168-0.527,0.672-0.767,0.672-1.342c0-0.744-0.623-1.031-1.055-1.631
		c1.008-1.006,1.821-1.342,2.78-2.398c-0.769-0.863-1.535-1.416-1.535-2.589c0-0.287,0.12-0.48,0.097-0.767
		c0-0.168-0.145-0.239-0.192-0.384c-0.216-0.671-0.574-1.006-1.149-1.438c0.742-0.744,1.463-0.792,2.205-1.536
		c0.721-0.719,1.008-1.295,1.247-2.302c0.072-0.288,0.288-0.456,0.288-0.768c0-1.006-1.415-0.815-2.398-0.959
		c-0.574-0.096-0.935-0.264-1.533-0.288c-0.48-0.024-0.793,0.096-1.247,0c-0.48-0.12-0.72-0.455-1.151-0.671
		c-0.552-0.264-0.959-0.408-1.343-0.864c-0.431-0.504-0.575-0.911-0.769-1.535c-0.168-0.528-0.383-1.151-0.959-1.151
		c-0.768,0-1.006,0.744-1.438,1.343c-0.288,0.407-0.672,0.625-1.15,0.768c-0.984,0.312-1.654-0.192-2.688,0
		c-0.313,0.049-0.455,0.384-0.79,0.384h-0.744c-0.047-0.264-0.12-0.503-0.19-0.767c-0.049-0.168-0.289-0.191-0.289-0.384
		c0-0.671,0.672-0.935,1.248-1.247c0.574-0.311,0.982-0.623,1.342-1.151c0.146-0.215,0.385-0.312,0.385-0.576
		c0-1.15-0.96-1.558-1.823-2.302c-0.524-0.456-0.909-0.719-1.534-1.055c-0.479-0.264-0.742-0.528-1.149-0.864
		c-0.144-0.119-0.169-0.382-0.386-0.382c-0.6,0-0.888,0.382-1.342,0.767c-0.384,0.336-0.769,0.407-0.959,0.863
		c-0.217,0.552-0.072,0.983-0.287,1.535c-0.192,0.48-0.48,0.72-0.865,1.056c-0.719-0.504-1.055-1.008-1.533-1.727
		c-0.264-0.407-0.432-0.744-0.672-1.151c-0.217-0.359-0.575-0.528-0.575-0.96c0-0.551,0.384-0.79,0.384-1.342
		c0-0.936-0.288-1.463-0.672-2.303c-0.191-0.431-0.335-0.719-0.479-1.15C140.336,50.48,140.24,50,139.809,50
		c-0.982,0-1.391,0.624-2.303,0.959c-0.099,0.037-0.311,0.02-0.548,0.049c-0.619,1.119-0.03,2.108-0.699,3.117
		c-0.649,0.98-1.727,0.862-2.901,0.862c-0.287,0-0.453-0.121-0.742-0.096c-0.516,0.046-0.815,0.192-1.344,0.192
		c-1.198,0-1.869-0.479-3.069-0.479c-1.606,0-2.541,0.218-4.028,0.862c-1.39,0.603-1.559,1.848-2.878,2.589
		c-0.383,0.216-0.717,0.15-1.15,0.289c-0.766,0.245-1.299,0.378-1.919,0.862c-0.579,0.451-0.499,1.209-1.151,1.536
		c-0.259,0.129-0.478,0.196-0.768,0.287c-0.693,0.22-1.175,0.142-1.918,0.193c-0.648,0.044-1.08,0.215-1.535,0.671
		c-0.287,0.287-0.431,0.671-0.863,0.671c-0.384,0-0.576-0.457-0.576-0.839c0-0.384,0.14-0.6,0.096-0.983
		c-0.047-0.416-0.218-0.836-0.144-1.248c0.249-1.369,0.736-2.686,1.103-4.028c0.27-0.988-1.275-1.025-2.207-1.438
		c-1.01-0.449-1.583-0.864-2.686-0.864c-1.055,0-1.63,0.192-2.685,0.192c-0.6,0-1.104,0.097-1.535-0.288
		c-0.24-0.214-0.107-0.583-0.384-0.767c-0.127-0.086-0.304,0.077-0.384,0.191c-0.616,0.891-0.741,1.805-1.727,2.207
		c-0.428,0.174-0.743,0.146-1.151,0.383c-0.622,0.36-0.784,0.871-1.343,1.342c-0.368,0.311-0.575,0.48-1.055,0.48
		c-0.767,0-1.197-0.246-1.918-0.48c-1.125-0.364-1.871-0.523-3.07-0.479c-0.302,0.01-0.567,0.067-0.82,0.107l0,0
		c-0.12,0.6-0.139,1.067-0.139,1.69v1.391c0,1.175-1.055,1.679-1.055,2.854c0,0.455,0.168,0.694,0.192,1.151
		c0.072,0.887,0,1.487,0.288,2.303c0.216,0.575,0.479,0.91,0.479,1.534c0,1.031-0.887,1.392-1.343,2.302
		c-0.432,0.864-0.816,1.343-0.959,2.303c-0.145,0.862-0.023,1.415-0.096,2.301c-0.072,0.888-0.192,1.392-0.192,2.279v1.966
		c0,1.176,0.959,1.679,0.959,2.853c0,0.696-0.24,1.08-0.479,1.727c-0.432,1.151-0.959,1.727-1.822,2.59
		c-0.528,0.528-0.72,0.959-1.151,1.535c-0.743,1.008-1.75,1.104-2.974,1.342c-1.151,0.241-1.607,0.912-2.686,1.344l-5.755-1.535
		c-0.912,0.288-1.439,0.432-2.302,0.863c-0.456,0.215-0.672,0.552-1.151,0.768c-0.743,0.336-1.271,0.311-1.918,0.767
		c-0.863,0.624-1.104,1.319-1.535,2.302c-0.336,0.767-0.599,1.174-0.959,1.918c-0.241,0.503-0.552,0.744-0.959,1.151
		c-0.695,0.694-1.079,1.174-1.918,1.63c-0.576,0.312-0.936,0.479-1.535,0.768c-0.288,0.143-0.599,0.215-0.768,0.48
		c-0.048,0.096,0.024,0.263,0,0.382c-0.192,0.553-0.144,0.936-0.192,1.536c-0.048,0.743-0.048,1.15-0.048,1.895
		c0,1.055-0.048,1.847-0.048,2.901v1.568l0,0l2.774-0.021c0.507-0.193,0.964-0.836,1.489-0.836c0.444,0,1.183-0.306,1.627-0.457
		c0.812-0.272,0.619,0.588,0.933,1.074c0.244,0.379,0.712,0.479,0.992,0.794c0.374,0.421,1.141,0.437,1.627,0.222
		c1.051-0.373,1.704-0.945,2.659-1.373c0.412-0.185,0.95-0.498,1.41-0.498c1.08,0,1.825-1.053,2.818-1.092
		c0.326-0.014,0.484,0.229,0.714,0.416c0.504,0.407,0.927,0.252,1.548,0.219c1.473-0.414,2.671,0.646,4.208-0.158l3.037-1.59
		c0.495-0.26,1.25-1.094,1.746-1.094c0.175,0,1.732,0.361,1.906,0.457c0.885,0.489-2.069,4.918-2.719,5.367
		c-0.982,0.68,0.121,1.854,0.357,2.584c0.376,1.162,2.739-0.158,2.739,1.85c-0.713,1.248-2.688,1.16-1.767,2.543
		c0.968,1.455,0.824,1.621,2.64,2.068c0.923,0.229,0.29,1.773,0.258,2.445c-0.063,1.325,2.303-0.881,2.719-1.253
		c1.446-1.293,3.355-2.257,5.021-3.142c1.486-0.787,1.798-0.861,1.647,0.975c-0.056,0.688-1.557,1.053-1.111,1.867
		c0.728,1.334,0.964,2.147,0.377,3.699c-0.662,1.746,0.367,2.726,2.283,2.345c1.124-0.103,1.138-0.593,1.706,0.278
		c0.875,1.342,2.416-0.14,3.553-0.14c0.725,0,2.407,0.073,3.017,0.278c0,0.047-0.01,0.06-0.021,0.1
		c-0.336,0.066-2.48,2.467-1.528,2.844c0.868,0.342,2.356,0.073,3.335,0.198c1.146,0.147,1.626-0.637,2.441-0.637
		c0.781,3.159,6.572,0.009,8.137-0.677c0.62,0.033,1.075-0.616,1.588-0.18c0.973,0.834,1.737,1.883,2.938,2.506
		c1.981,1.032,4.298,1.459,6.112,2.804c2.316,1.716,4.652,2.319,7.166,3.577l4.324,1.929c0.868,0.387,2.094,0.935,2.699,1.649
		c0.332,0.394,0.191,1.233,0.338,1.75c0.293,1.031,0.928,1.646,1.489,2.504c0.539,0.828,0.067,2.145,0.556,3.021
		c1.504,0.802,1.155,3.286-0.576,3.36c-1.096,0.048-2.136-0.098-2.6,1.174c-0.331,0.906,0.469,1.738-0.396,2.604
		c-0.84,0.842-2.861,1.321-2.262,3.063c0.444,1.295,2.774,1.566,1.447,3.499c-0.557,0.534-1.788,0.823-1.984,1.353
		c-0.229,0.614-0.113,1.577-1.012,1.748c-0.598,0.114-1.015-0.084-1.191,0.577c-0.303,1.132-1.203,1.874-1.41,3.121
		c-0.313,1.899-0.521,2.802-1.963,4.175c-0.883,0.838,0.342,0.965,0.693,1.57c0.28,0.479-0.83,1.025-1.111,1.451
		c-0.772,0.441-0.272,1.349-0.713,1.888c-0.252,0.306-0.715,0.541-1.033,0.776C136.661,176.826,136.325,177.311,136.063,177.805
		L136.063,177.805L136.063,177.805z"/>
</g>
<g id="Margibi" display="none">
	<text transform="matrix(1 0 0 1 20 23.6113)" display="inline" fill="#474747" font-family="'Arial-BoldMT'" font-size="15">Margibi</text>
	<path display="inline" fill="#F2F2F2" stroke="#8D8D8D" d="M83.634,55.402c2.343-0.086,4.991-0.37,7.274,0.126
		c3.176,0.689,5.984,3.202,9.399,2.292c1.5-0.401,3.051-1.583,4.578-2.17c1.993-0.764,4.185-1.106,6.253-1.677
		c1.359-0.292,4.339-1.386,4.577-3.072c1.67-0.666,3.201-1.516,5.108-0.244c0,2.166,0.016,3.521,0.532,5.647
		c0.351,1.445-0.19,2.607,0.082,3.974c0.479,2.414,1.555,3.312,1.104,6.013c-0.333,1.993-0.67,3.541-0.49,5.49
		c1.512,1.083,5.549,0.571,7.52,0.571c3.092,0,6.599-0.559,9.645-0.079c4.286,0,4.123-0.256,4.945,3.438
		c0.038,0.162,0.359,5.139,1.229,3.887c2.301-3.335,2.225-8.222,7.723-8.392c4.471-0.138,6.099,3.166,9.563,3.725
		c4.195,0.682,5.476-2.146,8.992-3.233c2.289-0.708,3.397,0.803,5.517,1.024c9.254,0.961,10.758-2.028,15.162-8.966
		c0.801-0.91,1.109-2.197,1.555-3.316c0.957-2.414,1.186-1.551,2.899-0.41c2.269,1.512,5.093,3.174,7.644,4.135
		c1.957,0.737,3.584,3.056,3.72,5.12l0,0l-0.979,6.505c-1.186,3.564-1.224,7.584-3.229,10.888c-1.839,3.028-4.326,5.076-7.153,7.084
		c-1.822,1.292-4.186,0.792-5.966,1.843c-2.666,1.571-4.276,6.269-7.479,6.547c-4.332,2.679-11.25,5.832-16.349,4.668
		c-6.028-1.379-9.845,2.291-12.056-5.241c-0.355-1.217-3.51-5.328-4.699-3.233c-0.781,1.375-1.686,3.89-2.941,4.788
		c-1.267,2.816-1.771,6.285-4.539,8.271c-1.674,1.201-5.352,2.06-7.354,1.391c-1.515-0.504-2.024-2.461-3.72-3.066
		c-2.73-0.978-4.127-0.701-5.926-3.359c-1.311-1.938-3.269-6.714-6.213-3.766c-1.53,1.532-2.005-0.92-3.269-1.312
		c-1.765-0.543-3.831,2.149-5.926,2.005c-3.986-0.271-2.248-0.326-2.248,2.992c0,3.292,2.728,3.631,3.024,6.223
		c0.253,2.291,2.325,2.901,0.49,5.563c-1.05,1.528-3.129,3.323-4.619,4.462c-4.535,3.479-1.532,7.006-2.697,11.829
		c-0.565,2.343-3.934,4.269-5.68,5.935c-1.063,1.016-1.003,2.997-1.594,4.262c-0.376,1.977,1.737,3.517-0.286,5.114
		c-1.363,1.079-3.327,0.177-3.76,2.741c-0.632,3.756-5.593,6.65-4.086,10.889c0.518,1.461,1.872,5.146-0.367,5.895l-2.558,4.383l0,0
		l-0.246,0.398c0.049,0.664,0,1.012,0,1.678h-0.813c-0.347,0-0.495-0.197-0.815-0.297c-0.593-0.172-0.987-0.271-1.58-0.495
		c-0.939-0.343-1.581-0.445-2.47-0.886c-0.666-0.323-0.988-0.744-1.581-1.187c-0.295-0.226-0.593-0.271-0.79-0.595
		c-0.37-0.618-0.295-1.232-0.888-1.678c-0.272-0.196-0.567-0.248-0.89-0.295c-0.986-0.197-1.727,0.047-2.567-0.496
		c-0.295-0.174-0.418-0.469-0.691-0.689c-0.518-0.443-0.938-0.57-1.58-0.791c-2.221-0.814-3.555-1.261-5.431-2.666l0.099,0.492
		c0.321,0.865,0.272,1.729,1.086,2.174c0.815,0.443,1.729,0.047,2.273,0.791c0.395,0.544,0.443,1.012,0.79,1.579
		c0.617,1.012,1.457,1.579,2.666,1.579c0.346,0,0.569,0,0.89-0.1c0.32-0.098,0.443-0.394,0.79-0.394
		c0.494,0,0.741,0.196,1.186,0.394c0.667,0.297,1.036,0.596,1.479,1.187c0.347,0.469,0.446,0.987,0.987,1.187
		c0.273,0.099,0.521,0.051,0.791,0.099c0.495,0.073,0.791,0.421,1.285,0.491c0.592,0.074,1.136-0.095,1.581,0.299
		c0.74,0.643,0.395,1.557,0.492,2.568c0.1,0.838,0.396,1.26,0.592,2.07c-1.011-0.74-1.58-1.331-2.765-1.775
		c-0.616-0.221-0.987-0.295-1.58-0.591c-1.16-0.595-1.727-1.261-2.962-1.678c-2.148-0.744-3.407-1.235-5.532-2.079
		c-0.79-0.296-1.233-0.689-2.072-0.886c-1.481-0.37-2.371-0.67-3.753-1.284c-1.135-0.52-1.777-0.913-2.961-1.283
		c-2.644-0.814-4.124-1.457-6.815-2.174c-0.814-0.197-1.259-0.521-2.073-0.693c-2.543-0.543-4.1-0.369-6.618-0.983
		c-1.258-0.521-1.876-0.693-3.26-0.89c-1.135-0.174-1.752-0.422-2.864-0.693c-0.295-0.071-0.493-0.244-0.791-0.297
		c-0.79-0.148-1.308-0.121-2.073-0.394c-1.062-0.382-1.768-0.681-2.737-0.925l0,0l1.643-2.607c0.603-0.838-3.856-7.567-3.558-10.479
		c0.367-3.579,3.266-6.458,5.231-9.25c1.269-1.805,1.79-5.639,3.31-6.962c1.263-1.095,10.881-0.339,13.038-0.122
		c2.121,0.217,4.598,1.143,6.702,0.861c2.499-0.334,5.056-1.395,7.603-1.395c1.376-0.113,2.529,0.276,3.555-0.691
		c1.063-1.01,4.466-0.457,4.74-1.844c0.254-1.275-1.182-2.434-1.103-3.848c0.075-1.323,3.071-4.198,4.005-5.241
		c1.832-2.048,2.625-5.041,3.516-7.616c1.5-3.599,0.897-8.524,1.307-12.399c0.203-1.921,0.083-5.43-0.939-7.08
		c-0.872-1.41-2.018-2.5-3.066-3.725c-1.851-2.166-1.602-3.556-4.087-5.241c-1.96-1.327-6.012-1.354-3.27-5.237
		c1.127-0.906,1.304-2.453,2.33-3.481c1.549-1.552,3.735-1.544,5.272-3.398c2.142-2.583,4.039-5.828,3.596-9.29
		c-0.187-1.461,0.308-2.847,0.245-4.3L83.634,55.402L83.634,55.402L83.634,55.402z"/>
</g>
<g id="Maryland" display="none">
	<text transform="matrix(1 0 0 1 20 23.6113)" display="inline" fill="#474747" font-family="'Arial-BoldMT'" font-size="15">Maryland</text>
	<path display="inline" fill="#F2F2F2" stroke="#8D8D8D" d="M116.813,167.173l3.563-2.091c2.878-0.956,7.214-9.227,6.688-12.271
		c-0.42-2.459,0.621-10.994-0.762-12.377c-3.76-0.467-6.981,2.068-5.854-4.261c0.508-1.313,2.602-1.933,2.654-3.278
		c0.209-5.338-3.087-8.936-4.582-13.58c-1.601-4.987-10.34-7.32-14.069-10.088c-1.056,0.066-6.706-2.906-8.107-3.531
		c-7.377-3.299-15.071-5.862-23.157-5.862l-0.073-0.07c0-1.509,2.585-6.087,3.418-7.538c2.172-3.769,2.144-5.002,2.144-9.43
		c0.039,0.504,0.161-0.746,0.184-0.911c0.17-1.254,0.499-1.636,1.161-2.624c0.704-1.044,1.359-2.133,1.02-3.458
		c-0.378-1.488-0.543-3.18-0.543-4.735l1.089-3.24l0,0c2.207-0.603,1.299-1.065,2.617-2.112c0.581-0.462,2.466,0.624,3.527,0.33
		c2.808-0.785,4.764-2.904,6.943-4.589c2.326-1.797,3.408-2.957,4.291-5.751c0.563-1.793,2.547-1.944,3.634-3.313
		c0.961-1.208,7.095-2.589,8.654-2.368c4.112,0.585,10.274,1.64,6.469,6.81c-1.73,2.347-3.429,3.089-3.709,6.298
		c-0.252,2.918,1.368,6.217,2.329,8.883c0.485,2.515,2.894,3.79,2.252,6.774c-1.002,4.655-4.771,6.75-2.909,11.836
		c0.699,1.902-0.601,6.284,1.564,7.135c0.648,0.252,6.837-1.083,7.562-1.492c2.414-1.373,3.328-1.664,5.998-1.604
		c3.151,0.073,6.023-2.918,8.363,0.147c0.771,1.012,1.48,2.112,2.942,2.112c1.604,0,2.978-0.89,3.782,1.054
		c1.121,0.953,1.355,2.701,2.504,3.46c1.734,1.143,4.611,1.313,6.606,1.814l0,0c0.306,0.994,1.033,1.732,1.951,2.432
		c1.146,0.869,3.163,0.612,3.163,2.104c0,0.879-0.704,1.229-0.704,2.112c0,1.404,0.711,2.104,0.876,3.51
		c0.314,2.592,0.704,4.087,0.704,6.676c0,1.541-0.834,2.375-1.051,3.867c-0.138,0.921,0.175,1.492,0.175,2.459
		s-0.057,1.622-0.525,2.462c-0.317,0.563-1.408,0.526-1.408,1.229c0,0.612,0.617,0.922,0.879,1.404
		c0.264,0.483,0.568,0.922,0.881,1.404c0.875,1.361,1.138,2.505,1.138,4.176c0,3.071,0,6.146,0,9.223
		c0,0.305-0.385,0.396-0.438,0.657c-0.209,1.056-0.174,1.714-0.174,2.813c0,1.976-0.033,3.117,0.174,5.094
		c0.054,0.525,0.352,0.879,0.352,1.408c0,2.324-0.704,3.643-0.704,5.972c0,1.271-0.039,2.368,0.879,3.159
		c0.403,0.348,1.013,0.176,1.408,0.529c0.925,0.83,1.229,1.846,1.229,3.162c0,0.438-0.52,0.533-0.701,0.879
		c-0.432,0.797-0.661,1.447-1.232,2.105c-0.529,0.616-1.404,0.879-1.404,1.76c0,0.569,0.133,1.053,0.525,1.407
		c0.833,0.742,1.839,0.364,2.813,0.88c0.52,0.272,0.604,0.883,0.879,1.4c0.467,0.886,1.752,1.541,2.193,2.462l0,0h-3.775
		c-1.101-0.088-1.709-0.267-2.813-0.267c-0.938,0-1.491,0.092-2.438,0.092c-0.459,0-0.699,0.175-1.162,0.175
		c-1.096,0-1.668-0.31-2.721-0.616c-1.563-0.463-2.463-0.703-4.062-0.703c-1.433,0-2.222-0.084-3.649-0.084
		c-1.759,0-2.746-0.334-4.5-0.441c-0.922-0.042-1.473-0.042-2.375-0.176c-0.701-0.111-1.143-0.264-1.844-0.354
		c-2.24-0.325-3.579-0.021-5.797-0.524c-0.967-0.218-1.496-0.463-2.462-0.705c-1.359-0.324-2.109-0.657-3.427-1.138
		c-0.658-0.241-1.055-0.375-1.754-0.354c-0.441,0-0.727,0.179-1.144,0.088c-0.153-0.021-0.153-0.218-0.267-0.351
		c-0.176-0.222-0.35-0.396-0.35-0.705c0-0.35,0.262-0.524,0.262-0.879c0-0.613-0.813-0.634-1.402-0.787
		c-0.745-0.222-1.121-0.463-1.846-0.705c-1.072-0.351-1.69-0.699-2.81-0.875c-0.396-0.066-0.637-0.267-1.054-0.267
		c-0.154,0-0.2,0.175-0.352,0.175c-0.177,0-0.198-0.221-0.352-0.263c0.417-0.746,0.856-1.032,1.317-1.755
		C116.421,168.073,116.813,167.789,116.813,167.173L116.813,167.173L116.813,167.173z"/>
</g>
<g id="Montserrado" display="none">
	<text transform="matrix(1 0 0 1 20 23.6113)" display="inline" fill="#474747" font-family="'Arial-BoldMT'" font-size="15">Montserrado</text>
	<path display="inline" fill="#F2F2F2" stroke="#8D8D8D" d="M155.964,51.927L158.408,50l0,0c-0.156,0.29,2.303,3.134,2.924,3.85
		c1.73,1.998,1.8,5.326,4.891,5.86c3.207,0.551,6.079,1.157,8.95,2.975l4.499,1.965l0,0l0.217,4.943
		c0.067,1.553-0.461,3.033-0.261,4.594c0.472,3.698-1.555,7.165-3.843,9.924c-1.645,1.981-3.979,1.973-5.635,3.63
		c-1.096,1.098-1.282,2.751-2.487,3.719c-2.931,4.148,1.397,4.177,3.494,5.595c2.653,1.8,2.39,3.286,4.366,5.599
		c1.119,1.309,2.344,2.474,3.274,3.979c1.093,1.763,1.22,5.511,1.004,7.563c-0.438,4.14,0.206,9.402-1.397,13.248
		c-0.949,2.75-1.797,5.947-3.756,8.137c-0.998,1.113-4.198,4.186-4.278,5.6c-0.084,1.51,1.448,2.748,1.178,4.109
		c-0.292,1.48-3.927,0.893-5.063,1.97c-1.096,1.034-2.328,0.618-3.799,0.74c-2.72,0-5.455,1.132-8.121,1.489
		c-2.248,0.299-4.896-0.69-7.16-0.922c-2.305-0.231-12.579-1.039-13.93,0.131c-1.623,1.412-2.18,5.511-3.535,7.438
		c-2.101,2.983-5.196,6.059-5.59,9.883c-0.318,3.108,4.444,10.299,3.801,11.194L126.396,180l0,0
		c-0.239-0.059-0.492-0.118-0.771-0.173c-2.558-0.525-4.011-0.736-6.543-1.371c-1.872-0.45-2.953-0.53-4.853-0.842
		c-0.87-0.134-1.556-0.188-2.215-0.74c-0.159-0.135-0.184-0.29-0.317-0.425c-0.685-0.686-1.187-1.133-1.581-2.004
		c-0.211-0.5-0.317-0.844-0.633-1.266c-0.686-0.871-1.478-0.977-2.534-1.267c-1.265-0.345-1.872-0.841-3.061-1.371
		c-1.422-0.636-2.373-0.74-3.797-1.372c-1.609-0.711-2.216-1.74-3.8-2.531c-0.948-0.477-1.608-0.637-2.531-1.162
		c-1.344-0.766-1.952-1.502-3.271-2.322c-0.712-0.42-1.135-0.791-1.584-1.477c-0.184-0.289-0.314-0.58-0.526-0.842
		c-0.237-0.29-0.739-0.345-0.739-0.74c0-0.604,0.608-0.766,0.951-1.267c0.291-0.45,0.448-0.767,0.633-1.267
		c0.87,1.162,1.661,1.662,2.532,2.849c0.501,0.716,0.369,1.347,0.843,2.112c0.316,0.529,0.845,0.74,1.478,0.74
		c1.267,0,1.9-0.637,3.166-0.637c0.896,0,1.398,0.426,2.11,0.951c0.949,0.711,1.557,1.081,2.533,1.792
		c0.29,0.211,0.553,0.315,0.737,0.631c0.318,0.556,0.134,1.11,0.422,1.69c0.08,0.187,0.265,0.211,0.422,0.315
		c0.609,0.476,1.109,0.741,1.899,0.741c0.977,0,1.557-0.45,2.216-1.161c0.16-0.187,0.423-0.267,0.423-0.53
		c0-1.343-1.056-1.896-1.689-3.059l0.316-1.268c-0.394-0.711-0.579-1.267-1.266-1.687c-0.948-0.581-1.608-0.716-2.637-1.161
		c-1.372-0.605-2.058-1.188-3.376-1.902c-0.475-0.234-0.712-0.734-1.267-0.734c-1.162,0-1.872,0.234-2.953,0.631
		c-1.266,0.477-1.609,1.796-2.956,1.796c-0.659,0-0.923-0.659-1.161-1.266c-0.211-0.556-0.527-0.871-0.527-1.478
		c0-0.609,0.449-0.926,0.633-1.478c0.422-1.136,0.449-1.876,0.633-3.063c0.105-0.631,0.316-1.025,0.316-1.687
		c0-1.611-0.66-2.479-1.373-3.904c-0.395-0.815-0.685-1.347-1.161-2.112c-0.211-0.341-0.474-0.471-0.633-0.841
		c-0.869-2.032-1.159-3.483-2.847-4.96c-0.74-0.632-1.398-0.766-2.111-1.477c-1.267-1.268-1.688-2.243-2.85-3.59
		c-0.263-0.314-0.343-0.551-0.633-0.842c-0.553-0.555-1.055-0.74-1.688-1.16c-1.029-0.687-1.477-1.347-2.533-2.008
		c-0.5-0.289-0.845-0.524-1.267-0.949c-0.817-0.816-1.449-1.188-2.425-1.793c-1.397-0.871-2.111-1.53-3.377-2.637
		c-0.895-0.767-1.608-0.978-2.531-1.688c-0.502-0.37-0.66-0.816-1.162-1.161c-0.765-0.501-1.319-0.711-2.11-1.161
		c-1.343-0.767-1.924-1.606-3.271-2.428l0,0c0.395-1.679,1.664-4.909,2.419-6.421c0.418-0.84,1.051-2.502,1.746-3.021
		c0.674-0.5,1.901-0.563,2.708-0.438c1.259,0.193,2.745-0.644,3.842-0.307c1.619,0.5,2.343,2.672,2.49,4.245
		c1.155,2.522,3.526,5.456,3.144,8.31c-0.34,2.531,0.326,6.365,3.755,5.553c4.839-1.148,9.647,1.404,11.396-5.424
		c0.224-0.875-0.536-3.705,0.174-4.197c0.543-0.374,4.295,0.318,5.415,0.173c5.449-0.703,11.483-0.013,13.273-6.471
		c3.895-4.203,7.069-4.806,12.007-7.085c4.75-2.191,4.238-7.101,6.943-10.715c1.052-1.405,3.643-3.399,4.018-5.069
		c0.295-1.313-0.117-2.251,1.049-3.239c1.557-1.317,0.398-2.243,1.223-3.584c0.949-1.552,2.842-2.091,1.79-4.199
		c0.073-1.472,0.845-5.898,1.614-7.126c1.354-2.163,1.192-4.005,1.485-6.386c0.22-1.792,1.177-1.775,2.095-3.017
		C145.469,55.831,159.521,59.512,155.964,51.927L155.964,51.927L155.964,51.927z"/>
</g>
<g id="Nimba" display="none">
	<text transform="matrix(1 0 0 1 20 23.6113)" display="inline" fill="#474747" font-family="'Arial-BoldMT'" font-size="15">Nimba</text>
	<path display="inline" fill="#F2F2F2" stroke="#8D8D8D" d="M96.334,179.917l1.024,0.044l0,0c0.496-0.281,0.648-0.714,1.039-0.995
		c0.031-0.022,0.708,0.522,0.921,0.63c0.257,0.127,2.271,0.336,2.488,0.19c1.062-0.72,1.091-0.05,2.048,0.19
		c0.66,0.164,1.305-0.574,1.989-0.674c1.284-0.189,1.858,1.192,3.146-0.295c0.33-0.382,1.354-1.47,1.375-1.919
		c0.024-0.536-0.452-0.753-0.321-1.421c0.111-0.575,0.215-1.682-0.645-1.715c-0.609-0.023-1.735,1.332-1.975,0.189
		c0.022-0.512-0.627-1.26-0.351-1.699c0.527-0.84,1.826-1.483,1.61-2.739c-0.12-0.696-0.553-1.205-0.82-1.861
		c-0.374-0.916,0.329-0.856,1.039-1.01c1.004-0.218,1.91-0.635,2.94-0.819c0.636-0.117,1.721-0.654,1.815-1.394
		c0.059-0.043,0.059-0.104,0.116-0.147c0.041-0.451,0.342-0.888,0.367-1.421c0.118-0.425-0.045-0.733-0.03-1.157
		c0.03-0.816,0.454-0.719,0.043-1.642c-0.165-0.371,0.541-1.043,0.747-1.349c0.386-0.571-0.25-2.036,0.614-2.036
		c1.321,0,1.102-0.404,1.609-1.289c0.35-0.61,1.949-0.616,2.633-0.703c1.287-0.164,1.043-1.717,1.668-2.345
		c0.519-0.373,0.358-0.948,0.541-1.494c0.132-0.393,0.538-0.648,0.556-1.069c0.047-1.118,0.414-1.358,1.17-2.17
		c0.389-0.413,0.867-0.851,0.951-1.435c0.176-1.188,0.875-1.301,1.625-2.051c0.787-0.789,0.838-1.338,0.789-2.463
		c0.155-0.149,0.545-1.785,0.57-2.095c0.063-0.794,0.038-1.155,0.746-1.598c0.359-0.224,1.302-1.813,1.302-2.242
		c0-0.341-0.255-0.667-0.351-0.995c-0.156-0.531,0.24-1.678,0.595-2.054l0,0c0.069-0.474,0.062-0.964,0.212-1.415
		c0.03-0.092,0.188-0.047,0.283-0.07c0.355-0.089,0.335,0.637,0.707,0.637c0.316,0,0.354-0.354,0.494-0.637
		c0.105-0.212,0.3-0.326,0.354-0.564c0.232-1.029,1.148-1.168,1.697-2.051c0.494-0.796-0.061-2.49,0.85-2.264
		c0.094,0.023,0.188,0.048,0.282,0.07c0.22,0.055,0.205,0.479,0.425,0.425c0.92-0.229,1.236-0.884,1.907-1.556
		c0.46-0.461,0.995-0.422,1.414-0.918c0.233-0.279,0.34-0.547,0.638-0.778c0.532-0.42,1.006-0.601,1.342-1.202
		c0.179-0.316,0.246-0.55,0.426-0.85c0.297-0.495,0.724-0.711,1.271-0.918c0.336-0.127,0.707-0.267,0.707-0.637
		c0-0.283-0.212-0.425-0.212-0.707c0-0.283,0.353-0.248,0.565-0.425c0.212-0.177,0.296-0.319,0.425-0.565
		c0.261-0.498,0.579-0.709,0.849-1.201c0.174-0.319,0.141-0.637,0.354-0.92c0.212-0.282,0.514-0.264,0.848-0.354
		c0.32-0.086,0.588,0.071,0.85-0.141c0.234-0.19-0.07-0.53,0.07-0.778c0.07-0.122,0.182-0.287,0.283-0.211
		c0.094,0.07,0.167,0.235,0.283,0.211c0.094-0.019,0.047-0.188,0.07-0.28c0.104-0.426-0.213-0.691-0.213-1.133
		c0-0.354,0.215-0.547,0.354-0.849c0.091-0.193,0.068-0.409,0.213-0.565c0.229-0.25,0.564-0.213,0.777-0.494
		c0.266-0.354,0.195-0.707,0.283-1.133c0.018-0.087-0.02-0.193,0-0.281c0.121-0.549,0.705-0.707,0.705-1.272
		c0-0.529-0.304-0.795-0.494-1.272c-0.16-0.406-0.164-0.688-0.211-1.131c-0.023-0.213-0.143-0.354-0.143-0.566
		c0-0.37,0.548-0.213,0.919-0.213c0.177,0,0.283-0.176,0.283-0.353c0-0.513-0.292-0.799-0.425-1.272
		c-0.237-0.852-0.106-1.379-0.213-2.263c-0.055-0.459-0.354-0.653-0.354-1.112c0-0.176-0.104-0.411,0.07-0.442
		c0.562-0.102,0.97,0.031,1.414-0.282c0.209-0.146,0.229-0.372,0.425-0.565c0.424-0.424,0.849-0.725,0.849-1.345
		c0-0.335-0.121-0.512-0.142-0.847c-0.033-0.548,0.016-0.884-0.071-1.415c-0.107-0.67-0.361-1.041-0.564-1.696
		c-0.026-0.086,0.021-0.196,0-0.283c-0.156-0.672-0.143-1.079-0.143-1.768c0-0.795-0.042-1.271,0.071-2.051
		c0.026-0.193,0.119-0.354,0.142-0.565c0.103-0.954,0.504-1.462,0.989-2.262c0.115-0.19,0.354-0.317,0.354-0.565
		c0-0.689-0.529-1.043-1.133-1.343c-0.67-0.335-1.043-0.544-1.695-0.919c-0.639-0.368-1.094-0.622-1.414-1.273
		c-0.244-0.496-0.53-0.743-0.92-1.132c-0.317-0.317-0.635-0.53-0.635-0.989c0-0.565,0.424-0.849,0.424-1.414
		c0-0.565-0.459-0.813-0.85-1.202c-0.479-0.477-0.813-0.725-1.201-1.273c-0.652-0.919-0.545-1.636-0.777-2.757
		c-0.117-0.565-0.299-1.122-0.354-1.697c-0.063-0.663,0-1.331,0-1.997c0-0.689-0.235-1.093-0.565-1.679
		c-0.166-0.296-0.424-0.478-0.424-0.832c0-0.571-0.035-1.143,0-1.714c0.013-0.193,0.096-0.376,0.143-0.565
		c0.139-0.556-0.137-0.94-0.426-1.414c-0.348-0.569-0.553-0.916-0.989-1.414c-0.074-0.086-0.037-0.241-0.142-0.284
		c-0.324-0.132-0.582-0.244-0.875-0.255c-0.135-0.056-0.555-0.333-0.681-0.453c-0.442-0.406-0.424-0.919-0.778-1.414
		c-0.265-0.371-0.563-0.583-0.563-1.043c0-0.123,0.142-0.176,0.142-0.3l0,0c-0.707-0.23-1.062-0.479-1.697-0.849
		c-0.301-0.159-0.565-0.159-0.85-0.353c-0.088-0.053-0.053-0.212-0.141-0.283c-0.178-0.142-0.371-0.229-0.564-0.354
		c-0.654-0.424-1.098-0.619-1.697-1.131c-0.565-0.478-1.062-0.867-1.062-1.626c0-0.337,0.177-0.513,0.212-0.849
		c0.036-0.389,0-0.6,0-0.989c0-0.725-0.07-1.132-0.212-1.838c-0.071-0.408-0.301-0.778-0.707-0.849
		c-0.528-0.107-0.866-0.019-1.413-0.072c-0.654-0.071-1.043-0.211-1.697-0.211c-0.549,0-0.883-0.036-1.414,0.07
		c-0.688,0.141-1.024,0.424-1.696,0.637c-0.089,0.017-0.194-0.036-0.283,0c-0.14,0.069-0.382,0.341-0.459,0.455
		c0.103,0.131,0.177,0.278,0.177,0.464c0,0.282-0.445,0.183-0.566,0.424c-0.092,0.188-0.188,0.376-0.28,0.565
		c-0.085,0.169-0.067,0.391-0.144,0.565c-0.207,0.496-0.601,0.637-0.848,1.132c-0.318,0.636-0.352,1.025-0.566,1.697
		c-0.314,0.989-0.988,1.484-0.988,2.544c0,1.097,1.271,1.449,1.271,2.546c0,1.803-1.557,2.403-2.404,3.959
		c-0.461,0.847-0.455,1.703-1.272,2.263c-0.526,0.359-1.32-0.415-1.697,0.141c-0.556,0.819,0.432,1.652,0,2.546
		c-0.185,0.383-0.743,0.069-1.132,0.141c-0.176,0.034-0.424-0.141-0.565,0c-0.354,0.354-0.424,0.778-0.707,1.132
		c-0.849,1.06-1.979,1.59-1.979,2.97c0,0.989,0.661,1.595,0.424,2.544c-0.094,0.378-0.332,0.746-0.283,1.132
		c0.051,0.419,0.446,0.728,0.566,1.132c0.073,0.248,0,0.518,0,0.777c0,1.097-1.697,0.072-2.793,0.072
		c-1.626,0-2.369-1.132-3.995-1.132c-0.248,0-0.437,0.11-0.566,0.283c-0.148,0.197,0.283,0.317,0.283,0.565
		c0,0.283-0.218,0.41-0.424,0.565c-0.172,0.128-0.318-0.282-0.566-0.282c-0.671,0-0.601,0.919-1.131,1.271
		c-0.318,0.211-0.707,0-1.131,0c-1.52,0-2.013,1.245-3.394,1.839c-1.659,0.712-2.409,1.582-3.959,2.403
		c-0.107,0.056-0.22,0.103-0.335,0.145l0,0l-0.14,2.213c-0.095,0.611-0.41,1.048-0.41,1.7c0,1.121-0.917,1.822-0.951,3.004
		c-0.034,1.178-0.231,1.404-1.141,2.051c-0.423,0.3-1.13,0.571-1.024,1.23c0.066,0.417,0.614,0.65,0.614,1.07
		c0,0.838-1.13,0.692-1.17,1.567c-0.019,0.428,1.477,1.013,0.38,1.67c-0.202,0.139-1.476,0.552-1.185,0.879
		c0.583,0.656,1.568,1.447,2.004,2.154c0.172,0.278,0.232,0.711,0.307,1.039c0.049,0.217,0.839,1.658,0.98,1.817
		c0.337,0.38,0.927,0.345,1.287,0.776c0.515,0.617,0.44,1.266,0.44,2.021c0,0.912,0.381,1.186,1.009,1.742
		c0.831,1.083,0.636,1.729-0.542,2.58c-0.374,0.271-0.655,0.604-1.024,0.863c-0.623,0.439-1.572,0.656-0.937,1.613
		c0.442,0.662,0.442,0.812-0.087,1.316c-0.365,0.35-0.089,0.627-0.234,1.012c-0.262,0.688-1.346,0.254-1.346,1.23
		c0,0.294,0.264,0.429,0.264,0.718c0,0.433-0.1,0.776-0.278,1.173c-0.176,0.176-0.512,0.338-0.512,0.614
		c0,0.315,0.28,0.593,0.38,0.894c0.072,0.219,0.037,0.336-0.03,0.543c-0.07,0.227-0.116,0.469-0.189,0.688l-0.264,0.88l0,0
		c-0.167,0.639,0.161,1.545,0.146,2.229l-0.059,2.843c-0.016,0.796-0.342,1.84-0.132,2.577c0.407,1.43,0.241,2.351,1.843,2.844
		c0.775,0.238,1.242,0.527,1.917,0.924c0.776,0.455,1.62,0.706,2.383,1.2c0.586,0.374,1.201,0.899,1.844,1.144
		c0.727,0.274,1.939,0.791,1.185,1.743c-0.44,0.556-1.252,0.238-1.595,0.601c-0.357,0.379,0.084,1.047,0.132,1.48
		c0.033,0.297-0.094,1.686-0.351,1.787c-0.785,0.314-2.033,0.279-2.883,0.396c-0.261,0.135-0.736,0.102-1.038,0.116
		c-0.582,0.03-1.148,0.185-1.726,0.25c-0.324,0.036-0.66,0.114-0.98,0.177c-0.308,0.058-0.758,0.065-1.024,0.22l0,0
		c1.36,1.836,3.686,2.911,5.69,3.954c2.715,1.414,1.001,2.824,0.367,4.896c-0.204,0.96-0.736,1.692-1.068,2.563
		c-0.379,0.99-0.737,2.346-1.888,2.521c-1.564,0.238-3.038,0.957-4.461,1.567c-0.904,0.451-1.794,0.252-2.327,1.217
		c-0.418,0.757,0.057,1.202,0.805,1.202c0.573,0,1.347-0.392,1.917-0.543c0.833-0.224,1.443,0.993,2.063,1.392
		c0.35,0.227,0.624,0.639,0.98,0.879c0.215,0.146,0.375,0.346,0.614,0.471c0.295,0.151,0.683,0.119,0.994,0.248
		c0.976,0.057,3.989,3.193,2.034,3.193c-1.151,0-0.613,0.354-0.791,1.362c-0.139,0.798,1.005,1.042,0.908,1.817
		c-1.35,0.771,0.607,3.266,1.112,3.955c0.038,0.258,0.19,0.473-0.059,0.631c-0.298,0.189-0.712,0.263-0.732,0.703
		c-0.012,0.279-0.033,0.532-0.102,0.806c-0.107,0.42-0.566,0.491-0.864,0.733C96.477,179.029,96.334,179.439,96.334,179.917
		L96.334,179.917L96.334,179.917z"/>
</g>
<g id="Rivercess" display="none">
	<text transform="matrix(1 0 0 1 20 23.6113)" display="inline" fill="#474747" font-family="'Arial-BoldMT'" font-size="15">Rivercess</text>
	<path display="inline" fill="#F2F2F2" stroke="#8D8D8D" d="M146.938,56.183c2.306,3.117,6.252,4.941,9.651,6.71
		c4.603,2.395,1.697,4.788,0.619,8.3c-0.343,1.628-1.246,2.871-1.81,4.349c-0.645,1.681-1.254,3.978-3.201,4.274
		c-2.653,0.404-5.151,1.623-7.568,2.658c-1.529,0.767-3.042,0.43-3.943,2.063c-0.709,1.284,0.097,2.037,1.363,2.037
		c0.975,0,2.284-0.66,3.25-0.918c1.414-0.38,2.449,1.686,3.499,2.359c0.593,0.383,1.06,1.083,1.661,1.492
		c0.366,0.249,0.639,0.586,1.043,0.796c0.502,0.258,1.158,0.203,1.688,0.42c1.654,0.096,6.766,5.419,3.449,5.419
		c-1.951,0-1.039,0.598-1.341,2.31c-0.235,1.355,1.704,1.767,1.539,3.082c-2.29,1.313,1.028,5.539,1.886,6.71
		c0.065,0.438,0.323,0.799-0.1,1.068c-0.506,0.322-1.208,0.441-1.24,1.192c-0.021,0.474-0.056,0.903-0.175,1.365
		c-0.183,0.713-0.959,0.835-1.463,1.243c-0.627,0.507-0.869,1.201-0.869,2.013l0,0l-2.108,2.013l-1.092,1.939
		c-0.396,0.363-0.604,1.001-1.042,1.293c-0.337,0.225-0.76,0.134-1.093,0.373c-0.781,0.564-0.368,1.234-0.792,1.886
		c-0.276,0.427-0.813,0.565-1.067,1.021c-0.996,1.779,2.725,3.838,1.563,4.695c-0.618,0.459-3.031,1.615-3.771,1.764
		c-0.756,0.154-0.947-0.687-1.838-0.346c-1.023,0.389-1.629,1.465-2.604,1.963l-3.746,1.912c-1.364,0.697-2.651,1.729-4.02,2.338
		c-1.094,0.955-1.412,1.699-2.209,2.807c-0.502,0.699-1.789,0.466-2.455,1.219c-1.832,2.068-3.201,0.023-3.201,3.43
		c0,4.285,1.965,7.805,2.877,11.805c0,3.293,0.604,6.894-1.166,9.865c-1.141,1.918-5.016,5.168-5.209,7.33
		c-0.549,0.385-0.809,2.35-1.513,2.957l-2.59,4.611l0,0c-0.345-0.232-0.705-0.477-1.115-0.779c-0.54-0.404-0.929-0.522-1.438-0.959
		c-0.27-0.225-0.376-0.464-0.66-0.658c-0.269-0.181-0.494-0.271-0.659-0.541c-0.315-0.494-0.256-1.035-0.72-1.377
		c-0.51-0.393-0.884-0.467-1.439-0.781c-0.345-0.239-0.661-0.523-0.661-0.959c0-0.239,0.12-0.358,0.12-0.601
		c0-0.12-0.164-0.12-0.24-0.18c-0.149-0.136-0.315-0.21-0.479-0.299c-0.344-0.21-0.449-0.513-0.539-0.898
		c-0.136-0.541-0.541-0.72-0.959-1.081c-0.255-0.21-0.42-0.375-0.719-0.539v-1.213c0-1.05,0.089-1.846-0.6-2.625
		c-0.285-0.33-0.585-0.435-0.96-0.66c-0.375-0.225-0.615-0.39-0.959-0.656c-0.181-0.137-0.21-0.301-0.36-0.48
		c-0.449-0.523-0.734-0.87-1.26-1.318c-0.24-0.196-0.449-0.299-0.72-0.479c-0.688-0.451-1.183-0.571-1.918-0.961
		c-0.644-0.345-1.003-0.567-1.679-0.839c-0.703-0.284-1.167-0.418-1.918-0.54c-0.463-0.074-0.763-0.103-1.198-0.3
		c-0.254-0.104-0.54-0.195-0.54-0.479c0-0.299,0.285-0.403,0.419-0.657c0.165-0.314,0.226-0.779,0.6-0.779
		c0.105,0,0.136,0.119,0.24,0.119c0.12,0,0.18-0.06,0.3-0.06v-1.456c0-0.959-0.705-1.349-1.38-2.021
		c-0.329-0.33-0.584-0.465-0.959-0.721c-0.48-0.33-0.704-0.6-1.2-0.897c-0.374-0.226-0.555-0.466-0.959-0.66
		c-0.269-0.136-0.494-0.179-0.778-0.299c-0.675-0.315-1.05-0.513-1.679-0.901c-0.51-0.313-0.72-0.613-1.199-0.958
		c-0.09-0.06-0.09-0.18-0.181-0.239c-0.344-0.225-0.614-0.271-0.959-0.479c-0.389-0.241-0.584-0.464-0.959-0.72
		c-0.898-0.614-1.183-1.319-2.159-1.799c-0.883-0.435-1.288-0.854-2.158-1.318c-0.658-0.346-1.048-0.51-1.679-0.898
		c-0.269-0.164-0.48-0.302-0.599-0.601l0,0l0.346-2.034c0.263-0.741,1.336-0.811,1.96-1.243c1.245-0.864,0.259-2.752,1.364-3.553
		c1.59-1.154,4.092-1.042,3.946-3.702l-0.149-2.709c-0.074-1.355-1.044-2.066-1.414-3.182c-0.247-0.789-0.749-1.584-1.042-2.41
		c-0.567-1.598,1.608-1.271,1.861-2.858c0.153-0.956-0.084-1.674-0.62-2.434c-0.853-1.21,0.024-2.767,0.024-4.177
		c0-0.729,0.731-1.197,0.918-1.912c0.229-0.879-0.109-1.674,0.175-2.609c0.639-0.459,1.233-1.494,1.265-2.287
		c0.035-0.839,0.569-1.382,0.596-2.087c0.053-1.382-1.19-2.556-1.415-3.853c-0.165-0.961,1.347-1.356,0.918-2.385
		c-0.936-2.248,1.067-2.019,1.067-3.929c0-1.001,0.411-1.241,0.719-2.111c0.379-1.071-0.74-1.922-0.793-2.933
		c0.357-2.281,0.652-3.029,3.299-3.626c3.85-0.87,0.295-6.039,4.318-6.039c2.625,0,4.226-0.421,5.88,1.664
		c0.289,0.366,1.756,3.373,2.257,1.84c0.265-0.815-0.115-1.769,0.446-2.933l0.993-2.063c0.485-1.009,1.543-2.108,2.208-3.105
		c1.027-1.544,3.082-1.308,4.688-1.568c-0.008,0.002,4.044,0.793,3.896-0.918c-0.101-1.152,0.325-2.398-0.025-3.455
		c-0.548-1.652,0.037-3.638,0.1-5.367c0.068-1.896,0.094-4.446-0.223-6.313c0.179-1.511-1.266-2.67-1.266-4.423
		c0.544-0.312,2.511-0.104,3.275-0.246c2.132-0.406,3.8-1.738,6.003-2.188c2.135-0.437,8.098-0.136,9.43-1.962
		c1.97-2.706,5.631-0.435,8.41-0.672c-0.17,0.024-0.123-0.045-0.1,0.074c0.594,0,1.205,0.088,1.811,0.074
		c1.014-0.024,1.037,0.395,1.067,1.317c0.015,0.421-0.172,0.871-0.299,1.267c-0.198,0.634-0.183,0.957-0.048,1.616L146.938,56.183
		L146.938,56.183L146.938,56.183z"/>
</g>
<g id="River_Gee" display="none">
	<text transform="matrix(1 0 0 1 20 23.6113)" display="inline" fill="#474747" font-family="'Arial-BoldMT'" font-size="15">River Gee</text>
	<path display="inline" fill="#F2F2F2" stroke="#8D8D8D" d="M43.104,60.987c-0.905,2.116-0.539,5.067-0.942,7.378
		c-0.808,4.64,1.137,7.332,2.163,11.577c0.498,2.059,0.676,3.994,0.875,6.086c0.244,2.544,1.939,2.611,4.049,3.496
		c1.879,1.622,4.303,1.79,4.437,4.828c0.064,1.531-0.436,3.028-0.209,4.512c0.266,1.739,1.669,1.706,2.687,2.833
		c1.095,1.207,1.798,3.305,1.398,4.93c-0.585,2.382-2.19,2.382-4.26,2.902l-2.236,1.889l0,0c2.724,1.241,5.424,3.682,8.1,5.211
		c2.823,1.612,1.835,11.359,4.786,11.823c5.997,0.942,11.938,2.032,17.353,5.106c4.451,2.614,8.408,7.217,9.394,12.416l0,0
		c2.12-0.582,1.252-1.026,2.517-2.029c0.555-0.443,2.367,0.6,3.385,0.313c2.7-0.75,4.578-2.789,6.672-4.406
		c2.231-1.724,3.272-2.838,4.118-5.525c0.543-1.723,2.446-1.867,3.493-3.184c0.925-1.16,6.813-2.485,8.31-2.271
		c3.951,0.56,9.871,1.571,6.214,6.537c-1.658,2.254-3.292,2.968-3.561,6.053c-0.242,2.804,1.313,5.97,2.234,8.532
		c0.47,2.416,2.779,3.641,2.165,6.504c-0.961,4.471-4.581,6.482-2.793,11.368c0.672,1.829-0.58,6.036,1.501,6.854
		c0.624,0.245,6.564-1.039,7.263-1.434c2.319-1.316,3.197-1.596,5.761-1.538c3.027,0.067,5.787-2.804,8.033,0.138
		c0.74,0.973,1.424,2.029,2.828,2.029c1.543,0,2.861-0.854,3.633,1.016c1.076,0.912,1.301,2.592,2.408,3.321
		c1.662,1.097,4.428,1.265,6.342,1.746l0,0c-0.098-0.319-0.15-0.663-0.15-1.043c0-1.478,1.521-2.024,1.521-3.503
		c0-1.153,0-2.305,0-3.458c0-0.845-0.646-1.263-1.014-1.985c-0.474-0.922-0.677-1.646-0.677-2.697c0-1.729,0.488-2.631,1.689-3.883
		c0.516-0.543,0.926,1.021,1.686,1.18c0.252,0.055,0.381,0.341,0.677,0.341c0.591,0,0.801-0.636,1.181-1.013
		c0.633-0.633,1.014-1.145,1.857-1.521c0.757-0.34,1.262-0.387,2.025-0.673c0.457-0.175,1.012-0.341,1.012-0.845
		c0-0.592-0.467-0.846-0.676-1.354c-0.295-0.713-0.336-1.222-0.336-2.021c0-0.805-0.17-1.226-0.17-2.025
		c0-0.508,0.245-0.925,0-1.354c-0.558-0.965-2.6,0.125-2.701-1.013c-0.219-2.448,2.025-3.583,2.025-6.071
		c0-1.183-1.688-1.354-1.688-2.535c0-1.221,0.845-1.813,0.845-3.037c0-1.772-1.183-2.614-1.183-4.387
		c0-0.93,0.885-1.272,1.689-1.687c0.585-0.303,0.843-0.636,1.35-1.013c0.799-0.596,1.394-0.973,2.025-1.689
		c0.333-0.38,0.464-1.013,1.014-1.013c0.715,0,0.797,1.013,1.516,1.013c0.762,0,1.139-0.592,1.521-1.181
		c0.795-1.226,1.012-2.193,2.023-3.206c1.306-1.307,2.699-2.026,2.699-3.883c0-0.338-0.373-0.385-0.506-0.674
		c-0.287-0.637-0.676-0.973-0.676-1.688c0-1.519,0.799-2.281,1.182-3.711c0.203-0.761,0-1.269,0-2.069c0-0.773,0-1.544,0-2.318
		c0-1.855,1.857-2.532,1.857-4.391c0-2.445-1.098-3.535-1.689-5.904c-0.053-0.226-0.111-0.45-0.168-0.676
		c-0.191-0.773,1.307-0.172,2.025-0.505c0.461-0.216,0.633-0.845,1.182-0.845c1.055,0,1.644,0.505,2.701,0.505
		c1.266,0,1.439-3.062,2.361-2.194c1.896,1.796-0.182,6.729,2.361,6.246c2.332-0.445,1.951-3.287,2.531-5.568
		c0.515-2.022,1.734-2.783,2.869-4.556c0.133-0.205,0.205-0.468,0.338-0.676c0.164-0.256,0.674-0.168,0.674-0.505
		c0-0.72-0.541-1.02-1.012-1.521c-0.835-0.892-1.688-1.605-1.688-2.87c0-0.673,0.506-1.013,0.506-1.686
		c0-0.548-0.396-0.841-0.506-1.349c-0.1-0.464-0.006-0.885-0.17-1.354c-0.088-0.252-0.412-0.4-0.674-0.336
		c-0.226,0.057-0.451,0.114-0.676,0.168c-1.418,0.357,0.098,3.738-1.35,3.543c-1.826-0.242-1.696-2.523-3.039-3.711
		c-1.188-1.05-1.855-1.773-2.869-3.038c-0.505-0.633-1.182-0.885-1.182-1.686c0-0.636,0.643-0.872,1.182-1.185
		c0.854-0.488,1.346-0.935,2.025-1.518c0.203-0.175,0.537-0.091,0.676-0.336c0.495-0.892-0.234-1.645-0.168-2.702
		c0.059-0.925,0.505-1.433,0.505-2.362c0-0.972-0.675-1.393-0.675-2.362c0-0.592,0.84-0.478,1.351-0.676
		c0.458-0.178,0.875-0.431,1.183-0.845c0.873-1.188,1.953-1.763,2.192-3.206c0.068-0.411-0.34-0.724-0.764-1.003l0,0
		c-2.595,0.084-5.427,0.626-7.972,1.07c-2.229,0.39-4.537,1.083-6.807,1.083c-5.063,0-10.349-0.986-15.262-2.167
		c-10.428-0.986-23.881-0.703-31.391-8.882c-1.899-2.069-5.422-1.457-7.961-2.661c-4.706-0.936-9.945,0.491-14.562-0.663
		c-1.339-0.333-2.143-1.46-3.422-1.888c-5.876-1.961-16.422,0.142-21.963,2.483c-4.386,2.012-5.38,3.485-9.498,1.013
		c-1.487-0.892-8.433,0.114-9.918,1.083c-1.824,1.195-3.822,3.52-5.76,4.303c-2.335,0.942-7.252,1.447-9.813,1.679
		C46.787,61.495,44.882,60.987,43.104,60.987L43.104,60.987L43.104,60.987z"/>
</g>
<g id="Sinoe" display="none">
	<text transform="matrix(1 0 0 1 20 23.6113)" display="inline" fill="#474747" font-family="'Arial-BoldMT'" font-size="15">Sinoe</text>
	<path display="inline" fill="#F2F2F2" stroke="#8D8D8D" d="M86.189,52.644l1.865,0.08l0,0c1.471,1.966,3.567,1.71,5.57,2.724
		c1.712,0.865,3.363,4.285,4.048,6.005c0.282,2.69,3.017,2.449,5.117,2.562c3.176,0.169,7.467,1.712,10.604,2.588
		c3.445,0.96,6.625,3.342,10.125,3.843c1.106,1.487,7.485,1.602,9.272,1.253c8.103-1.582,13.813-9.196,19.558-14.651
		c2.06-0.626,4.324-3.479,5.861-4.962c6.07-5.856,14.91,1.99,18.865,6.857c0.492,1.438,1.357,2.76,1.865,4.244
		c0.727,2.134,1.094,4.465,1.357,6.698c0.275,2.339,1.053,4.842,1.146,7.152l1.063,10.569l0,0c-0.688,1.612-0.409,3.867-0.718,5.63
		c-0.617,3.538,0.869,5.594,1.652,8.833c0.377,1.57,0.514,3.049,0.666,4.643c0.186,1.943,1.479,1.995,3.09,2.67
		c1.433,1.238,3.283,1.363,3.385,3.682c0.051,1.168-0.333,2.313-0.16,3.443c0.205,1.329,1.273,1.303,2.051,2.16
		c0.836,0.922,1.371,2.523,1.067,3.764c-0.448,1.818-1.67,1.818-3.252,2.217l-1.706,1.439l0,0c-1.049,1.053-1.604,3.004-1.837,4.432
		c-0.255,1.551-1.406,3.543-2.452,4.725c-0.918,1.033-0.939,2.275-1.491,3.468c-0.434,0.935-0.852,0.894-1.679,1.388
		c-0.939,1.145-0.167,3.868-1.787,4.937c-1.659,1.097-3.641,2.465-4.848,4.085c-0.819,1.099-2.69,1.326-3.117,2.374
		c-0.861,2.11,0.302,3.51-2.876,3.79c-1.452,0.128-2.265,0.729-3.519,1.307c-1.729,1.486-3.229,2.883-5.57,2.883
		c-1.663,0-3.223,0.211-3.811,1.976c-0.693,2.087,0.178,6.834-2.318,7.071c-2.226,0.213-4.912,0.172-6.82,1.522
		c-2.77,1.959-3.463,5.581-6.048,7.685L137.118,180l0,0c-0.998-0.241-1.545-0.467-2.574-0.577c-0.871-0.098-1.466-0.146-2.126-0.709
		c-0.191-0.161-0.307-0.323-0.449-0.516c-0.098-0.13-0.258-0.162-0.258-0.321c0-0.195,0.128-0.322,0.128-0.516
		c0-0.773-0.756-1.094-1.479-1.354c-0.789-0.287-1.239-0.513-2.062-0.706c-0.596-0.146-0.981-0.111-1.546-0.322
		c-0.917-0.34-1.398-0.69-2.316-1.029c-0.178-0.064-0.354-0.064-0.516-0.129c-0.388-0.178-0.467-0.516-0.645-0.9
		c-0.192-0.438-0.369-0.693-0.709-1.031c-0.738-0.74-1.174-1.271-2.125-1.738c-0.643-0.32-0.901-0.709-1.544-1.029
		c-1.143-0.564-1.689-1.048-2.833-1.609c0.098-0.306,0.257-0.451,0.257-0.772c0-0.482-0.401-0.692-0.706-1.029
		c-0.418-0.452-0.726-0.659-1.161-1.096c-0.82-0.819-1.448-1.175-2.511-1.61c-0.82-0.336-1.289-0.675-2.125-0.965
		c-1.208-0.419-1.948-0.531-3.156-0.966c-0.61-0.21-0.947-0.468-1.545-0.708c-0.272-0.113-0.48-0.098-0.771-0.192
		c-1.013-0.339-1.626-0.448-2.705-0.577c-0.932-0.101-1.463-0.244-2.381-0.389c-0.386-0.064-0.643-0.018-1.031-0.128
		c-0.708-0.195-1.062-0.531-1.802-0.58c-0.999-0.241-1.545-0.58-2.575-0.709c-0.612-0.063-1.014,0.017-1.546-0.257
		c-0.113-0.049-0.113-0.161-0.195-0.258c-0.224-0.273-0.385-0.533-0.385-0.902c0-0.257,0.194-0.37,0.194-0.627v-1.578
		c0-0.227-0.225-0.29-0.386-0.436c-0.241-0.226-0.467-0.369-0.773-0.516c-0.498-0.24-0.772-0.434-1.288-0.645
		c-0.997-0.4-1.642-0.627-2.576-1.157c-0.933-0.532-1.545-0.772-2.575-1.158c-0.628-0.226-0.967-0.452-1.545-0.772
		c-0.419-0.227-0.837-0.418-0.837-0.9c0-0.191,0.128-0.32,0.128-0.518c0-0.981-1.093-1.176-1.995-1.545
		c-1.096-0.451-1.707-0.787-2.834-1.158c-1.014-0.338-1.497-0.82-2.382-1.416c-0.868-0.596-1.48-0.854-2.318-1.481
		c-0.417-0.306-0.53-0.675-0.965-0.965c-0.466-0.306-0.804-0.449-1.287-0.709c-1.063-0.563-1.69-0.998-2.834-1.414
		c-0.611-0.229-1.03-0.293-1.61-0.583c-1.094-0.547-1.64-1.125-2.834-1.415c-0.497-0.112-0.819-0.128-1.287-0.323
		c-0.192-0.078-0.321-0.24-0.516-0.32c-0.176-0.063-0.338-0.033-0.515-0.063c-0.24-0.032-0.386-0.257-0.386-0.514
		c0-0.452,0.629-0.421,0.901-0.772c0.339-0.437,0.644-0.727,0.644-1.289c0-0.339-0.289-0.5-0.449-0.771
		c-0.482-0.773-0.999-1.112-1.803-1.547c-1.175-0.629-1.898-0.949-3.09-1.545c-0.71-0.354-1.096-0.676-1.804-1.029
		c-0.29-0.146-0.499-0.21-0.772-0.389c-0.612-0.418-0.933-0.674-1.545-1.092c-0.209-0.13-0.29-0.34-0.515-0.451
		c-0.563-0.308-0.95-0.42-1.545-0.711c0.049-0.191,0.097-0.354,0.193-0.513c0.096-0.162,0.323-0.241,0.323-0.45
		c0-0.549-0.532-0.74-1.03-0.968c-0.627-0.274-1.03-0.45-1.545-0.899c-0.704-0.614-1.277-1.002-1.894-1.418l0,0l2.781-4.953
		c0.757-0.65,1.035-2.762,1.625-3.174c0.208-2.318,4.369-5.813,5.595-7.875c1.9-3.188,1.253-7.055,1.253-10.592
		c-0.981-4.295-3.092-8.074-3.092-12.677c0-3.656,1.472-1.463,3.438-3.684c0.716-0.809,2.097-0.557,2.639-1.307
		c0.855-1.188,1.198-1.987,2.371-3.014c1.47-0.654,2.851-1.761,4.317-2.511l4.023-2.054c1.047-0.534,1.698-1.689,2.798-2.108
		c0.954-0.364,1.161,0.537,1.972,0.373c0.795-0.159,3.386-1.402,4.049-1.895c1.249-0.922-2.747-3.132-1.678-5.042
		c0.273-0.49,0.849-0.639,1.146-1.096c0.455-0.696,0.01-1.419,0.853-2.028c0.355-0.254,0.809-0.157,1.172-0.398
		c0.469-0.313,0.692-0.999,1.118-1.389l1.173-2.082L86.189,52.644L86.189,52.644L86.189,52.644z"/>
</g>
</svg>
