<?xml version="1.0" encoding="utf-8"?>
<!-- Generator: Adobe Illustrator 13.0.0, SVG Export Plug-In . SVG Version: 6.00 Build 14948)  -->
<!DOCTYPE svg PUBLIC "-//W3C//DTD SVG 1.1//EN" "http://www.w3.org/Graphics/SVG/1.1/DTD/svg11.dtd">
<svg version="1.1" id="Layer_1" xmlns="http://www.w3.org/2000/svg" xmlns:xlink="http://www.w3.org/1999/xlink" x="0px" y="0px"
	 width="180px" height="150px" viewBox="0 0 240 200" enable-background="new 0 0 240 200" xml:space="preserve">
<g id="Bong">
	<path fill="#F2F2F2" stroke="#8D8D8D" d="M46.195,131.814c1.524-0.057,3.247-0.24,4.733,0.082c2.066,0.449,3.893,2.084,6.115,1.492
		c0.975-0.263,1.984-1.031,2.979-1.412c1.296-0.498,2.722-0.721,4.068-1.093c0.884-0.188,2.823-0.901,2.977-1.998
		c1.086-0.433,2.083-0.985,3.324-0.157c0,1.407,0.01,2.289,0.346,3.674c0.228,0.938-0.125,1.695,0.052,2.584
		c0.313,1.57,1.012,2.154,0.719,3.912c-0.216,1.297-0.436,2.304-0.319,3.572c0.984,0.703,3.61,0.37,4.892,0.37
		c2.011,0,4.292-0.364,6.274-0.051c2.789,0,2.683-0.167,3.218,2.235c0.024,0.104,0.234,3.344,0.798,2.529
		c1.497-2.171,1.447-5.351,5.025-5.459c2.908-0.091,3.967,2.059,6.222,2.422c2.73,0.443,3.563-1.396,5.85-2.104
		c1.49-0.461,2.211,0.523,3.589,0.667c6.021,0.625,6.999-1.319,9.865-5.834c0.52-0.592,0.721-1.431,1.011-2.157
		c0.623-1.57,0.771-1.009,1.887-0.267c1.476,0.983,3.313,2.065,4.973,2.69c1.273,0.479,2.331,1.987,2.42,3.329l0,0
		c2.219,0.487,3.798,2.496,4.389,4.499c0.287,0.986,0.596,1.01,1.515,1.357c1.59,0.609,2.436,1.679,3.962,2.451
		c3.645,1.849,8.109,3.961,5.529,8.548l-2.604,7.22c-0.991,2.746-4.789,6.243-5.132,8.572c-0.285,1.953,1.093,1.861-0.346,3.755
		c-0.318,0.421-0.479,1.952-0.346,2.478c2.586,0.639,1.504,0.164,2.633-1.437c1.674-2.384,5.674-3.429,7.816-5.701
		c2.059-2.185,3.678-0.425,6.089-0.425c1.759,0,4.044-0.861,4.12-2.902c0.066-1.755,1.87,0.055,2.953-0.428
		c1.018-0.451,1.299-1.43,2.578-1.756c0.677-0.174,1.359,0.175,2.047-0.107c2.313-0.941,1.876-3.488,3.723-4.871
		c0.533-0.324,0.896-1.931,1.383-1.654c0.627,0.356,0.603,1.388,1.756,0.986c1.191-0.412,1.684-3.033,2.604-4.021
		c0.958-1.022,2.738-1.224,3.457-2.237c1.325-1.88-0.258-3.717,2.687-1.306c0.898,0.739-0.771,3.722,2.552,2.479
		c2.628-0.985,7.653-1.368,9.626-3.251c0.372-0.354,1.201-1.187,1.779-0.879c0.83,0.438,0.289,1.709,1.838,1.174
		c1.186-0.412,1.951-1.146,3.296-1.412l0,0l0.478-1.599c0.135-0.401,0.219-0.84,0.346-1.253c0.121-0.379,0.185-0.592,0.055-0.982
		c-0.182-0.55-0.691-1.054-0.691-1.625c0-0.502,0.612-0.8,0.93-1.119c0.326-0.721,0.508-1.349,0.508-2.133
		c0-0.521-0.479-0.771-0.479-1.304c0-1.774,1.971-0.983,2.444-2.235c0.267-0.699-0.238-1.205,0.426-1.841
		c0.966-0.92,0.964-1.186,0.16-2.396c-1.157-1.736,0.567-2.129,1.701-2.928c0.67-0.476,1.181-1.082,1.862-1.573
		c2.139-1.546,2.492-2.718,0.982-4.687c-1.141-1.015-1.837-1.512-1.837-3.169c0-1.376,0.14-2.555-0.797-3.677
		c-0.653-0.784-1.728-0.718-2.339-1.411c-0.258-0.287-1.692-2.907-1.781-3.3c-0.135-0.598-0.246-1.385-0.559-1.891
		c-0.793-1.287-2.582-2.725-3.643-3.918c-0.529-0.595,1.785-1.342,2.151-1.597c1.991-1.194-0.726-2.257-0.69-3.036
		c0.072-1.591,2.127-1.326,2.127-2.852c0-0.764-0.996-1.186-1.115-1.941c-0.193-1.202,1.094-1.694,1.859-2.237
		c1.655-1.179,2.014-1.586,2.075-3.73c0.062-2.147,1.729-3.42,1.729-5.459c0-1.181,0.567-1.976,0.742-3.09l0.256-4.022l0,0
		c-0.033-0.612-0.677-2.254-0.677-2.867c0-1.061,1.027-1.478,1.027-2.536c0-0.451-0.289-0.643-0.515-1.03
		c-0.447-0.771-0.771-1.253-1.155-2.055c-0.546-1.125-0.931-2.442-2.218-2.442h-3.021c-0.448,0-0.644-0.258-1.062-0.387
		c-1.381-0.481-1.989-1.317-2.953-2.441c-0.9-1.058-1.316-1.829-1.93-3.082c-0.256-0.548-0.703-0.869-0.703-1.512
		c0-0.674,0.063-1.027,0.063-1.701c-0.063-0.515,0.129-1.03,0.129-1.542V57.55c0-0.387,0.064-0.707-0.129-0.997
		c-0.547-0.738-1.382-0.643-2.313-0.643c-0.899,0-1.443,0-2.313,0.131c-1.188,0.192-1.862,0.641-3.084,0.641
		c-0.869,0-1.733-0.095-2.058-0.899c-0.576-1.381-0.416-2.441-1.155-3.725c-0.418-0.74-0.835-1.414-1.701-1.414h-2.508
		c-1.027,0-1.573-0.643-2.603-0.643c-1.06,0-1.478,0.933-2.057,1.798c-0.544,0.838-1.284,1.061-1.798,1.929
		c-0.45,0.738-0.802,1.542-1.671,1.542c-0.996,0-1.156-1.255-1.414-2.186c-0.159-0.545-0.192-1.286-0.771-1.286
		c-0.642,0-0.93,0.323-1.541,0.515c-0.609,0.192-0.996,0.192-1.541,0.512c-0.676,0.387-0.74,1.03-1.156,1.673
		c-0.674,1.027-1.414,1.479-2.187,2.442c-0.642,0.835-0.995,1.798-2.056,1.798l0,0c-1.027,1.03-1.277,3.305-1.954,4.583
		c-0.54,1.022-2.162,1.296-3.058,2.157c-2.276,2.193-5.996,3.221-8.906,4.635c-1.016,0.492-1.846,0.307-2.818,0.584
		c-1.146,0.328-1.85,1.207-2.898,1.52c-1.293,1.69-1.117,2.031-0.026,3.702c1.042,1.594-1.25,1.565-1.25,2.716
		c0,1.171-0.14,1.547-1.274,1.998c-1.582,0.623-2.359-0.043-3.724,0.026c-1.685,0.084-2.616,1.417-3.829,2.316
		c-1.303,0.968-5.995,0.671-7.339-0.238c-0.945-0.641-2.527-1.658-3.537-2.104l0,0l-2.1,0.638c-0.629,0.627-1.079,1.742-1.994,2.024
		c-0.497,0.151-1.058,0.261-1.542,0.454c-1.496,0.589-1.688,2.779-3.59,2.395c-3.208,0.464-0.364,1.455-2.26,2.905
		c-1.389,1.061-2.947,1.204-4.333,0.372c-1.683-1.012-7.879,1.755-8.642,3.461c-0.555,1.243-2.89,2.688-4.254,3.064
		c-3.209,0.886-3.238,3.146-5.77,4.74c-1.769,1.111-4.063-6.344-3.67-7.75c1.5-1.235,0.929-1.337,0.346-2.557
		c-0.488-1.017,0.731-1.762,0.452-2.557c-0.238-0.671-0.108-1.066,0.398-1.625c0.469-0.515,1.372-1.57,1.197-2.316
		c-0.162-0.687-1.536-2.026-2.128-2.423c-1.134-0.764-3.524,0.95-4.492,1.545c-1.861,1.14-5.287,2.854-7.446,3.115
		c-1.225,0.148-2.815,0.064-2.951,1.624c0,1.117,1.279,3.392,0.399,4.127c-1.034,0.869-2.74,1.558-3.43,2.665
		c-0.637,1.02-0.723,1.901-1.968,1.811c-2.096-0.154-0.967-1.645-1.542-2.797c-2.966,0-3.583,10.783-6.62,11.984
		c-1.672,0.66-3.602,0.216-5.344,0.587c-0.976,0.207-1.044,1.313-1.809,1.438c-1.038,1.299-1.891,2.647-2.473,4.18
		c-0.383,1.011-1.444,1.082-1.86,2.104c-0.769,1.88-1.797,4.384-3.245,5.831c-0.74,0.743-1.552,2.896-2.419,3.223l0,0
		c-0.094,0.178,1.404,1.908,1.782,2.345c1.053,1.218,1.096,3.243,2.978,3.569c1.952,0.336,3.702,0.703,5.451,1.812L46.195,131.814
		L46.195,131.814L46.195,131.814z"/>
</g>
</svg>
