<?xml version="1.0" encoding="utf-8"?>
<!-- Generator: Adobe Illustrator 13.0.0, SVG Export Plug-In . SVG Version: 6.00 Build 14948)  -->
<!DOCTYPE svg PUBLIC "-//W3C//DTD SVG 1.1//EN" "http://www.w3.org/Graphics/SVG/1.1/DTD/svg11.dtd">
<svg version="1.1" id="Layer_1" xmlns="http://www.w3.org/2000/svg" xmlns:xlink="http://www.w3.org/1999/xlink" x="0px" y="0px"
	 width="180px" height="150px" viewBox="0 0 240 200" enable-background="new 0 0 240 200" xml:space="preserve">
<g id="Grand_Bassa">
	<path fill="#F2F2F2" stroke="#8D8D8D" d="M180.504,60.117c-0.275,1.05,0.264,2.552,0.242,3.679l-0.098,4.694
		c-0.026,1.318-0.565,3.039-0.219,4.261c0.674,2.358,0.397,3.881,3.045,4.694c1.281,0.396,2.053,0.871,3.168,1.528
		c1.281,0.75,2.676,1.164,3.938,1.981c0.969,0.619,1.984,1.488,3.046,1.891c1.201,0.454,3.204,1.306,1.958,2.878
		c-0.729,0.92-2.07,0.394-2.635,0.995c-0.59,0.626,0.139,1.728,0.218,2.442c0.054,0.494-0.155,2.785-0.58,2.955
		c-1.297,0.517-3.356,0.458-4.762,0.654c-0.431,0.221-1.216,0.167-1.716,0.193c-0.959,0.047-1.896,0.301-2.853,0.41
		c-0.534,0.063-1.088,0.191-1.618,0.291c-0.509,0.095-1.252,0.112-1.69,0.363l0,0l-0.193-1.139
		c-0.129-0.643-0.146-0.955,0.048-1.572c0.122-0.387,0.305-0.824,0.291-1.236c-0.029-0.896-0.055-1.307-1.039-1.281
		c-0.592,0.014-1.187-0.072-1.765-0.072c-0.022-0.119-0.067-0.051,0.097-0.075c-2.707,0.231-6.275-1.981-8.193,0.654
		c-1.295,1.779-7.104,1.488-9.182,1.912c-2.146,0.44-3.771,1.734-5.85,2.13c-0.743,0.142-2.66-0.061-3.189,0.242
		c0,1.705,1.406,2.834,1.231,4.308c0.312,1.816,0.285,4.303,0.218,6.147c-0.061,1.685-0.63,3.618-0.097,5.228
		c0.341,1.029-0.073,2.242,0.024,3.367c0.145,1.668-3.804,0.896-3.795,0.895c-1.565,0.252-3.566,0.023-4.566,1.525
		c-0.647,0.974-1.68,2.043-2.151,3.023l-0.967,2.01c-0.546,1.137-0.177,2.065-0.437,2.857c-0.486,1.494-1.914-1.436-2.197-1.791
		c-1.611-2.03-3.172-1.623-5.729-1.623c-3.918,0-0.455,5.033-4.203,5.882c-2.58,0.582-2.865,1.313-3.216,3.535
		c0.052,0.981,1.142,1.812,0.772,2.854c-0.301,0.85-0.7,1.082-0.7,2.059c0,1.857-1.95,1.634-1.038,3.822
		c0.417,1.002-1.055,1.389-0.895,2.324c0.217,1.264,1.429,2.407,1.377,3.754c-0.025,0.685-0.547,1.215-0.58,2.032
		c-0.03,0.771-0.609,1.781-1.232,2.226c-0.275,0.914,0.055,1.687-0.169,2.541c-0.183,0.699-0.894,1.154-0.894,1.865
		c0,1.373-0.856,2.889-0.024,4.064c0.522,0.74,0.752,1.441,0.604,2.373c-0.246,1.544-2.366,1.229-1.813,2.781
		c0.287,0.807,0.776,1.58,1.017,2.351c0.359,1.085,1.305,1.776,1.377,3.099l0.145,2.637c0.145,2.595-2.295,2.482-3.842,3.606
		c-1.077,0.783-0.116,2.62-1.33,3.464c-0.608,0.422-1.653,0.485-1.909,1.209L115.618,180l0,0c-0.073-0.177-0.101-0.309-0.174-0.468
		c-0.19-0.38-0.556-0.425-0.935-0.585c-0.307-0.133-0.439-0.336-0.643-0.584c-0.598-0.699-1.211-0.877-2.044-1.283
		c-0.759-0.382-1.27-0.514-1.869-1.11c-0.365-0.366-0.452-0.715-0.701-1.169c-0.35-0.627-0.759-0.861-1.285-1.342
		c-0.335-0.307-0.496-0.557-0.817-0.878c-0.599-0.599-1.022-0.875-1.577-1.519c-0.204-0.246-0.292-0.469-0.525-0.701
		c-0.161-0.159-0.351-0.219-0.468-0.406c-0.102-0.161-0.176-0.321-0.292-0.469c-0.452-0.525-0.978-0.644-1.343-1.228
		c-0.277-0.452-0.41-0.759-0.76-1.167c-0.612-0.699-1.124-0.964-1.577-1.753c-0.627-0.846-0.963-1.487-1.927-1.926
		c-0.743-0.335-1.285-0.177-2.043-0.468c-0.526-0.205-0.744-0.51-1.168-0.877c-0.321-0.275-0.569-0.424-0.817-0.758
		c-0.321-0.425-0.379-0.789-0.76-1.168c-0.714-0.717-1.314-0.892-2.102-1.521c-0.54-0.425-0.569-0.919-1.051-1.401
		c-0.584-0.584-1.036-0.83-1.577-1.46c-0.146-0.175-0.292-0.263-0.467-0.407c-0.452-0.396-0.628-0.701-1.11-1.053
		c-0.496-0.363-0.86-0.51-1.402-0.816c-0.379-0.219-0.642-0.291-0.993-0.526c-0.189-0.116-0.249-0.335-0.467-0.407
		c-0.161-0.059-0.306-0.059-0.467-0.115c-0.467-0.176-0.627-0.615-0.7-1.111c-0.146-0.92-0.818-1.27-1.519-1.867
		c-0.335-0.277-0.525-0.496-0.876-0.76c-0.642-0.481-0.978-0.789-1.635-1.228c-0.467-0.321-0.686-0.584-1.109-0.934
		c-0.176-0.146-0.467-0.177-0.467-0.41c0-0.465,0.452-0.612,0.583-1.05c0.146-0.514,0.175-0.861,0.175-1.401
		c0-0.599-0.351-0.894-0.642-1.401c-0.292-0.513-0.555-0.789-0.759-1.345c-0.087-0.263-0.234-0.407-0.234-0.7
		c0-0.394,0.191-0.584,0.351-0.934c0.074-0.161,0.103-0.294,0.176-0.469c0.249-0.567,0.672-0.787,0.818-1.401
		c-0.234,0.03-0.351,0.03-0.584,0.06c-0.599,0.088-0.861,0.524-1.46,0.524c-0.424,0-0.54-0.524-0.964-0.524
		c-0.642,0-0.963,0.408-1.605,0.408c-0.642,0-1.051-0.496-1.226-1.109c-0.526-0.395-1.007-0.641-1.578-0.992
		c-0.802-0.496-1.211-0.861-1.985-1.4c-0.891-0.628-1.46-0.935-2.453-1.402c-0.364-0.16-0.627-0.264-0.935-0.523
		c-0.086-0.074-0.086-0.177-0.174-0.234c-0.161-0.117-0.307-0.176-0.468-0.291c-0.394-0.293-0.568-0.57-0.876-0.935
		c-0.409-0.481-0.773-0.659-1.226-1.11c-0.248-0.25-0.496-0.35-0.701-0.644c-0.496-0.685-0.657-1.183-1.168-1.867
		c-0.657-0.892-1.285-1.227-2.161-1.928c-1.138-0.906-1.766-1.519-3.037-2.22c-0.744-0.409-1.168-1.08-1.985-1.344
		c-0.949-0.394-1.547-0.525-2.511-0.875c-1.036-0.379-1.547-0.817-2.569-1.228c-0.335-0.131-0.541-0.161-0.877-0.291
		c-0.67-0.265-0.977-0.599-1.693-0.761c-0.379-0.088-0.701,0.016-0.993-0.231c-0.146-0.119-0.174-0.308-0.292-0.468
		c-0.321-0.452-0.876-0.6-0.876-1.169c0-0.38,0.35-0.556,0.701-0.701c0.264-0.103,0.438-0.202,0.701-0.291
		c0.628-0.233,1.022-0.291,1.694-0.291c0.583,0,0.949,0.072,1.459,0.351c0.409,0.219,0.453,0.627,0.818,0.934
		c0.467,0.408,0.832,0.48,1.343,0.816c0.351,0.234,0.569,0.469,0.992,0.469c0.57,0,0.804-0.469,1.373-0.469
		c0.351,0,0.569,0.219,0.788,0.469c0.366,0.394,0.496,0.73,0.875,1.109c-0.13-0.279-0.043-0.424-0.058-0.701
		c-0.043-0.598-0.131-0.936-0.233-1.518c-0.043-0.294-0.028-0.498-0.176-0.759c-0.146-0.265-0.379-0.353-0.642-0.526
		c-0.278-0.191-0.424-0.38-0.76-0.469c-0.379-0.102-0.642-0.116-0.992-0.291c-0.102-0.044-0.146-0.116-0.233-0.174
		c-0.073-0.045-0.233-0.018-0.233-0.119c0-0.422,0.467-0.568,0.467-0.992c0-0.115-0.087-0.188-0.117-0.291
		c-0.263-0.017-0.422-0.058-0.686-0.058c-0.833,0-1.168,0.7-2,0.7c-0.496,0-0.555-0.57-0.818-0.994
		c-0.189-0.321-0.438-0.526-0.817-0.526c-0.467,0-0.686,0.294-1.11,0.47c-0.351,0.146-0.569,0.203-0.935,0.291
		c-0.058-0.262-0.043-0.438-0.117-0.699c-0.102-0.396-0.335-0.602-0.584-0.937l0,0l1.512-2.592c1.324-0.442,0.523-2.622,0.217-3.486
		c-0.891-2.505,2.042-4.219,2.417-6.438c0.255-1.516,1.417-0.982,2.223-1.621c1.196-0.945-0.053-1.855,0.169-3.024
		c0.349-0.748,0.313-1.919,0.942-2.52c1.033-0.985,3.024-2.124,3.359-3.509c0.688-2.852-1.087-4.938,1.595-6.995
		c0.88-0.673,2.11-1.737,2.731-2.638c1.085-1.576-0.14-1.935-0.29-3.29c-0.174-1.532-1.788-1.732-1.788-3.679
		c0-1.963-1.028-1.93,1.329-1.77c1.239,0.086,2.46-1.507,3.504-1.186c0.747,0.231,1.028,1.682,1.933,0.775
		c1.741-1.744,2.898,1.081,3.674,2.226c1.063,1.572,1.888,1.409,3.504,1.986c1.002,0.359,1.304,1.516,2.199,1.814
		c1.186,0.396,3.36-0.114,4.35-0.822c1.636-1.174,1.934-3.225,2.683-4.89c0.743-0.531,1.277-2.019,1.739-2.832
		c0.704-1.239,2.568,1.192,2.779,1.912c1.308,4.454,3.564,2.282,7.129,3.099c3.014,0.689,7.104-1.176,9.667-2.759
		c1.894-0.166,2.846-2.943,4.422-3.873c1.052-0.622,2.449-0.326,3.527-1.089c1.672-1.188,3.143-2.397,4.23-4.188
		c1.186-1.956,1.209-4.331,1.909-6.438L116.97,50l0,0c2.018,0.442,3.453,2.268,3.987,4.089c0.262,0.896,0.542,0.915,1.378,1.234
		c1.444,0.554,2.213,1.523,3.601,2.229c3.313,1.679,7.369,3.6,5.026,7.768l-2.368,6.562c-0.9,2.496-4.354,5.675-4.664,7.791
		c-0.261,1.777,0.993,1.693-0.313,3.414c-0.29,0.382-0.435,1.772-0.314,2.252c2.351,0.58,1.367,0.149,2.394-1.307
		c1.521-2.165,5.158-3.115,7.104-5.181c1.872-1.986,3.342-0.387,5.534-0.387c1.599,0,3.676-0.785,3.746-2.638
		c0.062-1.595,1.698,0.049,2.683-0.389c0.926-0.41,1.182-1.299,2.346-1.595c0.615-0.158,1.233,0.156,1.859-0.098
		c2.1-0.857,1.704-3.171,3.383-4.429c0.484-0.293,0.813-1.753,1.258-1.502c0.569,0.324,0.545,1.26,1.596,0.896
		c1.082-0.375,1.527-2.757,2.367-3.656c0.871-0.929,2.49-1.111,3.142-2.033c1.205-1.709-0.233-3.379,2.442-1.188
		c0.815,0.673-0.701,3.383,2.318,2.251c2.389-0.894,6.957-1.241,8.748-2.953c0.338-0.323,1.094-1.078,1.62-0.798
		c0.752,0.398,0.261,1.553,1.667,1.066C178.586,61.023,179.281,60.359,180.504,60.117L180.504,60.117L180.504,60.117z"/>
</g>
</svg>
