<?xml version="1.0" encoding="utf-8"?>
<!-- Generator: Adobe Illustrator 13.0.0, SVG Export Plug-In . SVG Version: 6.00 Build 14948)  -->
<!DOCTYPE svg PUBLIC "-//W3C//DTD SVG 1.1//EN" "http://www.w3.org/Graphics/SVG/1.1/DTD/svg11.dtd">
<svg version="1.1" xmlns="http://www.w3.org/2000/svg" xmlns:xlink="http://www.w3.org/1999/xlink" x="0px" y="0px"
     width="180px" height="150px" viewBox="0 0 240 200" enable-background="new 0 0 240 200" xml:space="preserve">
<g id="Grand_Cape_Mount_County">
	<path fill="#F2F2F2" stroke="#8D8D8D" d="M108.938,180l0.14-2.918c0.247-1.088-1.832-2.898-1.109-3.888l2.158-2.951
		c0.818-1.116,4.311,0.059,5.981-1.897c0.59-0.691,0.214-1.729,0.117-2.513c-0.138-1.133,2.292-2.457,2.976-3.449
		c0.764-1.107,1.813-0.354,2.596-1.08c0.88-0.817,1.51-2.99,1.897-4.093c0.505-1.437-1.905-2.571-1.079-4.644
		c0.821-1.31,2.277-3.775,0.438-4.646c-1.296-0.615-2.722-1.726-2.247-3.271c0.431-1.403,1.156-1.471,2.159-2.28
		c1.291-1.043,1.829-2.969,2.363-4.473c0.77-2.164,1.651-3.749,1.751-6.164c0.066-0.354,0.179-0.655,0.028-0.995
		c-0.175-0.394-0.499-0.733-0.642-1.167c-0.222-0.669-0.081-1.365,0.408-1.899l0.816-0.965l0,0c0.307-0.91,0.063-2.094-0.146-2.979
		c-0.176-0.753-2.173-1.72-1.194-2.397c1.549-1.071,4.738-0.194,5.338-2.656c0.527-2.162,1.812-2.777,3.647-3.888
		c1.345-0.815,5.187-2.443,5.951-3.506c0.423-0.59,0.278-1.057,1.138-1.169c0.867-0.115,1.365-0.332,1.604-1.197
		c1.208-0.574,1.201-0.805,2.627-0.908c0.637-0.045,1.203-0.034,1.429-0.729c0.4-1.239,1.939-0.309,2.976-1.343
		c2.96-2.963,3.402-5.783,7.702-7.306c2.547-0.905,5.226-2.063,7.06-4.093c2.045-2.263,5.424-2.732,7.469-4.703
		c1.013-0.298,2.396-1.372,3.238-2.046c0.876-0.7,1.817-1.146,2.713-1.754c1.676-1.133,3.661-2.271,4.989-3.854
		c1.373-1.642,1.181-1.97,0.992-4.064c1.075-2.429-6.733-1.51-8.228-1.695c-1.409-0.174-1.398-0.916-2.362-1.549
		c-1.253-0.818-3.082,0.011-4.29-0.495c-1.473-0.618-0.459-2.957-0.35-3.975c0.217-2.021-1.382-3.646-0.058-5.288
		c0.758-0.941,1.453-1.88,1.05-3.098c-1.433,0-2.73,1.372-4.142,1.313c-1.877-0.076-3.677-0.529-5.253-1.546l-0.146-5.085
		c-0.068-2.358-0.865-2.398-1.81-4.326c-0.475-0.97-1.934-0.413-2.8-0.408l-5.105,0.028c-2.912,0.017-6.072,0.902-8.869,0.644
		c-1.671-0.154-3.222-0.821-4.813-1.141L135.728,50l0,0c-2.256,1.021-3.385,1.973-5.641,2.96c-0.493,0.211-0.635,0.81-1.127,0.987
		c-0.67,0.247-1.094,0.424-1.834,0.424c-0.423,0-0.739-0.177-1.127-0.144c-0.704,0.107-1.059,0.531-1.692,0.846
		c-0.776,0.388-1.48,0.635-1.833,1.411c-0.528,1.164-0.739,2.01-1.692,2.819c-0.986,0.846-1.763,1.201-2.679,2.117
		c-0.388,0.388-0.458,0.739-0.846,1.127c-0.599,0.599-1.021,0.95-1.833,1.127c-0.67,0.141-1.269,0.177-1.691,0.706
		c-0.107,0.141-0.035,0.388-0.142,0.565c-0.597,1.034-1.138,1.706-2.146,2.215c-0.412,0.135-0.86,0.472-1.379,0.604
		c-2.057,0.517-3.561,0.599-5.076,2.114c-0.917,0.917-1.34,1.642-2.115,2.679c-0.688,0.922-1.522,1.372-2.115,2.398
		c-0.323,0.56-0.18,1.057-0.282,1.692c-0.073,0.455-0.319,0.706-0.564,1.127c-0.776,1.338-1.445,2.117-2.679,3.104
		c-0.352,0.281-0.637,0.525-0.987,0.843c-0.46,0.421-0.987,0.635-0.987,1.271c0,0.987,0.104,1.622-0.141,2.538
		c-0.178,0.669-0.186,1.293-0.705,1.692c-0.678,0.517-1.375,0.079-2.257,0.141c-1.162,0.079-1.516,1.408-2.679,1.408
		c-0.494,0-0.635-0.562-1.128-0.562c-0.459,0-0.704,0.287-1.128,0.421c-1.126,0.36-1.763,0.602-2.82,1.13
		c-0.704,0.351-1.164,0.706-1.974,0.706c-0.318,0-0.565-0.183-0.845-0.141c-0.459,0.062-0.744,0.418-1.128,0.703
		c-0.425,0.315-0.835,0.602-0.987,1.127c-0.235,0.813,0.098,1.662-0.563,2.257c-0.352,0.315-0.843-0.32-1.129-0.706
		c-0.419-0.565-0.669-1.268-1.41-1.268c-0.247,0-0.571,0.034-0.563,0.281c0.035,1.231,0.845,1.866,0.845,3.103
		c0,1.512-0.741,2.254-1.268,3.666c-0.422,1.127-0.354,3.117-1.551,2.819c-0.563-0.141-1.128-0.284-1.692-0.424
		c-0.336-0.085-0.423,0.491-0.423,0.846c0,0.565,0.629,0.745,0.987,1.127c0.663,0.711,0.771,1.378,1.128,2.258
		c0.171,0.424,0.423,0.669,0.423,1.127c0,0.883-0.278,1.447-0.564,2.257c-0.313,0.883-0.475,1.471-0.987,2.255
		c-0.085,0.132-0.365,0.191-0.564,0.144c-0.752-0.188-1.492-0.441-2.256-0.565c-0.395-0.064-1.056-0.371-1.199,0
		c-0.373,0.964-0.116,2.074,0,3.101c0.097,0.868,0.424,1.695,0.635,2.538c0.201,0.804-0.614,1.231-0.846,1.974
		c-0.119,0.382,0.078,0.781-0.141,1.13c-0.379,0.604-1.058,0.669-1.692,0.986c-0.916,0.459-1.41,0.847-2.115,1.552
		c-0.352,0.352-0.568,0.734-0.987,0.987c-0.568,0.343-1.34,0.562-1.34,1.268c0,0.564,0.232,0.846,0.212,1.411
		c-0.014,0.422-0.212,0.705-0.212,1.127c0,0.458,0.494,0.669,0.494,1.127c0,0.281-0.176,0.54-0.423,0.565
		c-1.302,0.135-2.324-0.278-3.384,0.422c-0.701,0.464-0.882,1.06-1.41,1.694c-0.352,0.422-0.779,0.633-0.988,1.125
		c-0.178,0.424-0.207,0.781-0.423,1.13c-0.241,0.388-0.706,0.495-0.987,0.846c-0.281,0.352-0.184,0.739-0.431,1.161l0,0
		c0.186,0.172,0.372,0.365,0.572,0.602c0.423,0.495,0.811,0.776,0.987,1.408c0.088,0.335,0.106,0.618,0.354,0.847
		c0.334,0.317,0.705,0.317,1.128,0.494c0.44,0.175,0.705,0.335,1.127,0.563c0.477,0.265,0.635,0.602,1.058,0.916
		c0.194,0.144,0.352,0.178,0.564,0.284c0.476,0.262,0.669,0.563,1.128,0.846c0.441,0.262,0.706,0.495,1.128,0.776
		c1.305,0.88,1.992,1.619,2.82,2.96c0.247,0.404,0.423,0.686,0.635,1.13c0.37,0.739,0.51,1.231,0.846,1.974
		c0.194,0.455,0.458,0.686,0.705,1.127c0.511,0.896,0.757,1.498,0.916,2.538c0.088,0.546,0.16,0.863,0.282,1.411
		c0.141,0.563,0.23,1.037,0.706,1.338c0.388,0.245,0.723,0.245,1.128,0.495c0.67,0.402,0.899,1.127,1.692,1.127
		c0.353,0,0.511-0.193,0.845-0.281c0.318-0.093,0.547-0.039,0.845-0.143c0.142-0.054,0.142-0.211,0.283-0.281
		c0.952-0.479,1.551-0.549,2.539-0.917c0.775-0.283,1.251-0.391,1.973-0.775c0.794-0.422,1.199-1.06,2.115-1.06
		c0.335,0,0.512,0.141,0.846,0.141c0.159,0,0.317,0.09,0.423,0c0.071-0.051,0-0.228,0.071-0.281
		c0.282-0.208,0.476-0.492,0.846-0.492c0.352,0,0.546,0.191,0.846,0.352c0.247,0.124,0.282,0.422,0.564,0.422
		c0.37,0,0.476-0.422,0.846-0.422c0.494,0,0.634,0.564,1.128,0.564c0.229,0,0.335-0.21,0.564-0.21c0.141,0,0.176,0.123,0.282,0.21
		c0.229,0.194,0.282,0.405,0.352,0.703l-0.352,0.708l0.141,0.281c0.67,0.054,1.197,0.054,1.692,0.495
		c0.229,0.404,0.563,0.455,0.916,0.772c0.512,0.459,0.706,0.934,0.706,1.622c0,0.689-0.493,0.97-0.706,1.622
		c0.212-0.02,0.335-0.07,0.547-0.07c0.248,0,0.317,0.23,0.51,0.352c0.195,0.124,0.441,0.16,0.565,0.354
		c0.176,0.281,0.087,0.615,0.352,0.846c0.299,0.245,0.494,0.458,0.846,0.633c0.44,0.214,0.986,0.284,0.986,0.778
		c0,0.228-0.141,0.349-0.21,0.563c-0.176,0.564-0.229,0.97-0.636,1.408c-0.245,0.284-0.545,0.407-0.704,0.775
		c-0.176,0.405-0.088,0.723-0.21,1.131c-0.071,0.261-0.458,0.228-0.564,0.494c-0.106,0.298-0.106,0.525-0.212,0.844
		c-0.088-0.07-0.229-0.054-0.282-0.141c-0.176-0.301-0.229-0.618-0.563-0.776c-0.089-0.036-0.194,0.018-0.283,0
		c-0.634-0.123-1.039-0.07-1.692-0.141c-0.546-0.053-0.862-0.16-1.41-0.21c-0.669-0.07-1.11-0.054-1.691-0.354
		c-0.547-0.281-0.722-0.793-1.339-0.914c-0.264-0.056-0.422,0.088-0.705,0.067c-0.423-0.017-0.652-0.261-0.987-0.491
		c-0.846-0.582-1.235-1.077-2.116-1.622c-0.193-0.107-0.316-0.352-0.563-0.352c-0.141,0-0.159,0.174-0.282,0.208
		c-0.194,0.057-0.354,0.144-0.564,0.144c-0.528,0-0.635-0.531-1.058-0.847c-0.493-0.371-0.881-0.478-1.41-0.775
		c-1.004-0.582-1.621-0.937-2.538-1.622c-0.283,0.284-0.511,0.495-0.916,0.495c-0.441,0-0.634-0.476-0.634-0.917
		c0-0.618,0.353-0.936,0.353-1.552c0-0.247-0.37-0.247-0.564-0.351c-0.423-0.265-0.687-0.461-1.128-0.706
		c-0.476-0.264-0.74-0.512-1.269-0.705l-1.269,0.351l-0.282-0.067c0.035-0.461,0.282-0.691,0.282-1.146
		c0-0.214-0.053-0.335-0.071-0.546c-0.21,0.121-0.439,0.141-0.564,0.352c-0.105,0.175,0.018,0.368,0,0.563
		c-0.051,0.337-0.264,0.531-0.492,0.778c-0.071,0.088-0.053,0.228-0.141,0.281c-0.159,0.104-0.405,0.034-0.564,0.141
		c-0.458,0.335-0.493,0.829-0.493,1.411c0,0.72,0.44,1.107,0.917,1.619c0.07,0.087,0.053,0.214,0.141,0.284
		c0.176,0.157,0.423,0.174,0.564,0.352c0.299,0.351,0.282,0.686,0.423,1.13c0.44,1.335,1.479,1.883,2.819,2.324
		c0.969,0.315,1.586,0.352,2.539,0.706c0.458,0.157,0.704,0.401,1.127,0.635c1.198,0.633,1.975,0.914,3.172,1.552
		c1.164,0.613,1.939,0.807,3.173,1.268c0.917,0.332,1.357,0.757,2.257,1.128c0.563,0.23,0.915,0.334,1.48,0.562
		c0.563,0.23,0.845,0.476,1.41,0.709c0.793,0.314,1.216,0.612,1.973,0.986c0.406,0.191,0.705,0.191,1.128,0.352
		c0.883,0.314,1.375,0.599,2.256,0.916c2.027,0.756,3.138,1.357,5.076,2.325c0.67,0.337,1.076,0.545,1.763,0.846
		c1.357,0.618,2.255,0.739,3.666,1.2c1.234,0.405,1.886,0.896,3.101,1.338C106.699,178.78,107.511,179.292,108.938,180L108.938,180
		L108.938,180z"/>
</g>
</svg>
