<?xml version="1.0" encoding="utf-8"?>
<!-- Generator: Adobe Illustrator 13.0.0, SVG Export Plug-In . SVG Version: 6.00 Build 14948)  -->
<!DOCTYPE svg PUBLIC "-//W3C//DTD SVG 1.1//EN" "http://www.w3.org/Graphics/SVG/1.1/DTD/svg11.dtd">
<svg version="1.1" id="Layer_1" xmlns="http://www.w3.org/2000/svg" xmlns:xlink="http://www.w3.org/1999/xlink" x="0px" y="0px"
	 width="180px" height="150px" viewBox="0 0 240 200" enable-background="new 0 0 240 200" xml:space="preserve">
<g id="Gbarpolu">
	<path fill="#F2F2F2" stroke="#8D8D8D" d="M98.29,178.646l1.327-1.045l0,0c0.772-0.291,1.497-2.211,2.157-2.873
		c1.291-1.291,2.208-3.522,2.892-5.199c0.372-0.911,1.318-0.977,1.659-1.875c0.52-1.366,1.28-2.57,2.205-3.729
		c0.683-0.108,0.742-1.097,1.612-1.28c1.554-0.332,3.275,0.065,4.765-0.523c2.708-1.071,3.257-10.686,5.903-10.686
		c0.512,1.027-0.495,2.356,1.375,2.494c1.108,0.079,1.186-0.705,1.754-1.615c0.615-0.986,2.138-1.602,3.059-2.375
		c0.784-0.655-0.355-2.685-0.355-3.681c0.121-1.392,1.539-1.315,2.633-1.448c1.924-0.232,4.978-1.761,6.638-2.776
		c0.862-0.53,2.995-2.06,4.007-1.378c0.525,0.354,1.752,1.549,1.896,2.16c0.156,0.666-0.648,1.605-1.066,2.065
		c-0.453,0.497-0.566,0.851-0.355,1.447c0.25,0.709-0.836,1.373-0.402,2.28c0.52,1.086,1.029,1.179-0.309,2.279
		c-0.352,1.254,1.694,7.9,3.271,6.909c2.257-1.421,2.283-3.437,5.145-4.226c1.217-0.336,3.299-1.624,3.793-2.732
		c0.68-1.521,6.203-3.988,7.705-3.086c1.236,0.742,2.625,0.614,3.864-0.331c1.69-1.293-0.847-2.177,2.015-2.591
		c1.696,0.343,1.866-1.609,3.2-2.137c0.433-0.17,0.933-0.27,1.375-0.403c0.816-0.251,1.22-1.244,1.778-1.804l1.873-0.569l0,0
		c0.314-0.592,0.715-1.169,1.256-1.565c0.381-0.281,0.936-0.563,1.232-0.929c0.527-0.646-0.069-1.727,0.854-2.255
		c0.336-0.507,1.662-1.16,1.326-1.732c-0.42-0.726-1.883-0.875-0.829-1.875c1.726-1.642,1.974-2.72,2.347-4.987
		c0.248-1.489,1.323-2.375,1.685-3.728c0.21-0.791,0.709-0.554,1.422-0.689c1.071-0.204,0.937-1.354,1.21-2.088
		c0.234-0.631,1.707-0.979,2.371-1.615c1.585-2.311-1.198-2.635-1.73-4.18c-0.716-2.08,1.699-2.652,2.702-3.657
		c1.031-1.033,0.079-2.026,0.474-3.111c0.554-1.517,1.797-1.343,3.105-1.399c2.066-0.09,2.482-3.058,0.688-4.015
		c-0.582-1.048-0.02-2.62-0.662-3.609c-0.672-1.025-1.43-1.759-1.778-2.99c-0.175-0.617-0.007-1.622-0.403-2.09
		c-0.725-0.856-2.188-1.51-3.225-1.971l-5.168-2.302c-3-1.503-5.79-2.225-8.559-4.274c-2.168-1.606-4.934-2.115-7.302-3.349
		c-1.435-0.745-2.347-1.997-3.509-2.993c-0.611-0.524-1.154,0.254-1.896,0.215c-1.867,0.818-8.787,4.58-9.72,0.807
		c-0.974,0-1.546,0.935-2.917,0.76c-1.167-0.149-2.945,0.171-3.982-0.237c-1.137-0.45,1.426-3.317,1.826-3.396
		c0.013-0.048,0.023-0.063,0.023-0.119c-0.729-0.246-2.736-0.333-3.604-0.333c-1.358,0-3.199,1.768-4.244,0.167
		c-0.68-1.042-0.695-0.456-2.038-0.333c-2.287,0.455-3.517-0.715-2.726-2.8c0.7-1.854,0.418-2.826-0.451-4.417
		c-0.532-0.975,1.26-1.41,1.328-2.232c0.178-2.193-0.192-2.105-1.969-1.164c-1.99,1.056-4.271,2.208-5.999,3.751
		c-0.495,0.444-3.321,3.079-3.248,1.497c0.039-0.802,0.796-2.649-0.307-2.92c-2.168-0.536-1.997-0.732-3.153-2.471
		c-1.1-1.651,1.258-1.546,2.11-3.038c0-2.398-2.822-0.821-3.272-2.208c-0.282-0.873-1.599-2.275-0.426-3.086
		c0.776-0.538,4.305-5.827,3.248-6.412c-0.207-0.114-2.068-0.546-2.276-0.546c-0.593,0-1.496,0.996-2.086,1.307l-3.627,1.898
		c-1.835,0.962-3.267-0.304-5.026,0.19c-0.742,0.039-1.247,0.226-1.849-0.261c-0.276-0.224-0.463-0.514-0.853-0.498
		c-1.186,0.048-2.078,1.305-3.367,1.305c-0.548,0-1.191,0.374-1.683,0.594c-1.142,0.511-1.922,1.194-3.176,1.639
		c-0.582,0.257-1.499,0.24-1.944-0.263c-0.335-0.377-0.894-0.497-1.185-0.949c-0.375-0.581-0.146-1.609-1.115-1.283
		c-0.532,0.181-1.414,0.546-1.944,0.546c-0.626,0-1.172,0.767-1.778,0.999l-3.313,0.023l0,0v20.124c-0.945,0-1.461,0.086-2.406,0.23
		c-0.229,0.027-0.344,0.229-0.573,0.229c-0.458,0-0.687-0.171-1.146-0.114c-0.516,0.057-0.715,0.458-1.146,0.688
		c-0.888,0.487-1.403,0.859-2.292,1.374c-0.517,0.287-0.86,0.545-1.375,0.802c-0.344,0.172-0.773,0.229-0.917,0.573
		c-0.114,0.315-0.114,0.602-0.229,0.917c-0.372,1.03-1.117,1.375-1.948,2.063c-0.944,0.802-1.26,1.604-1.948,2.634
		c-0.373,0.546-0.774,0.747-1.26,1.146c-1.002,0.859-1.089,1.748-1.948,2.75c-1.06,1.231-2.09,1.918-2.292,3.552
		c-0.115,0.943-0.257,1.862-1.146,2.177c-0.715,0.258-1.318,0.229-1.833,0.802c-0.63,0.715-0.229,1.604-0.917,2.291
		c-0.487,0.487-1.117,0.345-1.833,0.345c-0.028,0.543,0.115,0.886-0.115,1.373c-0.172,0.373-0.516,0.517-0.802,0.804
		c-1.118,1.117-2.091,1.403-3.552,2.06l0,0l1.885,1.217c1.293,0.26,2.553,0.802,3.912,0.927c2.272,0.211,4.84-0.509,7.207-0.522
		l4.149-0.022c0.704-0.004,1.889-0.459,2.276,0.331c0.767,1.566,1.415,1.598,1.47,3.514l0.119,4.133
		c1.279,0.828,2.743,1.196,4.267,1.258c1.147,0.049,2.203-1.068,3.366-1.068c0.328,0.992-0.237,1.755-0.853,2.518
		c-1.075,1.334,0.223,2.656,0.047,4.299c-0.089,0.826-0.913,2.729,0.284,3.23c0.98,0.408,2.468-0.263,3.485,0.401
		c0.784,0.515,0.775,1.116,1.92,1.259c1.215,0.15,7.56-0.596,6.686,1.378c0.154,1.699,0.31,1.97-0.807,3.3
		c-1.078,1.289-2.692,2.213-4.054,3.135c-0.727,0.494-1.492,0.854-2.205,1.426c-0.684,0.549-1.808,1.421-2.631,1.66
		c-1.661,1.604-4.407,1.984-6.068,3.824c-1.491,1.648-3.668,2.59-5.737,3.323c-3.494,1.24-3.854,3.531-6.259,5.937
		c-0.842,0.844-2.092,0.088-2.418,1.093c-0.184,0.565-0.644,0.558-1.162,0.594c-1.157,0.085-1.151,0.271-2.134,0.735
		c-0.195,0.705-0.598,0.88-1.304,0.976c-0.699,0.092-0.582,0.472-0.924,0.948c-0.622,0.865-3.743,2.188-4.836,2.851
		c-1.492,0.902-2.535,1.4-2.963,3.156c-0.488,2.001-3.08,1.289-4.339,2.161c-0.794,0.551,0.828,1.334,0.972,1.947
		c0.169,0.721,0.368,1.681,0.119,2.422l0,0c2.054,0.479,2.858,0.209,4.718,1.378c2.031,1.276,4.507,2.312,6.566,0.569
		c1.894-1.603,1.504-2.778,3.532-0.902l2.798,2.588c0.833,0.77,2.834,2.576,2.845,3.609l0.024,2.35
		c0.009,0.906-0.499,1.663-0.499,2.54c0.938,1.88,1.416,5.133,3.793,2.446c1.916-2.164,4.24-5.019,6.567-6.694
		c1.086-0.784,3.646,0.231,4.86,0.476c2.319,0.463,3.631,1.795,5.713,2.61c1.057,0.229,2.084,0.08,3.011,0.761
		c0.906,0.662,1.524,1.467,2.537,2.042C95.883,178.771,97.113,178.575,98.29,178.646L98.29,178.646L98.29,178.646z"/>
</g>
</svg>
