<?xml version="1.0" encoding="utf-8"?>
<!-- Generator: Adobe Illustrator 13.0.0, SVG Export Plug-In . SVG Version: 6.00 Build 14948)  -->
<!DOCTYPE svg PUBLIC "-//W3C//DTD SVG 1.1//EN" "http://www.w3.org/Graphics/SVG/1.1/DTD/svg11.dtd">
<svg version="1.1" xmlns="http://www.w3.org/2000/svg" xmlns:xlink="http://www.w3.org/1999/xlink" x="0px" y="0px"
     width="180px" height="150px" viewBox="0 0 240 200" enable-background="new 0 0 240 200" xml:space="preserve">
<g id="Grand_Gedeh">
	<path fill="#F2F2F2" stroke="#8D8D8D" d="M9.987,139.012c0.936-0.532,1.225-1.348,1.964-1.883c0.059-0.043,1.337,0.99,1.741,1.193
		c0.484,0.239,4.292,0.634,4.701,0.356c2.007-1.358,2.062-0.09,3.871,0.362c1.247,0.31,2.464-1.087,3.759-1.275
		c2.427-0.354,3.513,2.256,5.946-0.555c0.624-0.719,2.561-2.776,2.598-3.626c0.047-1.015-0.853-1.423-0.607-2.688
		c0.21-1.085,0.406-3.179-1.217-3.24c-1.151-0.042-3.28,2.518-3.732,0.362c0.044-0.97-1.186-2.382-0.664-3.216
		c0.997-1.588,3.45-2.803,3.042-5.176c-0.227-1.316-1.044-2.278-1.549-3.517c-0.706-1.732,0.62-1.62,1.963-1.913
		c1.896-0.41,3.609-1.199,5.558-1.551c1.2-0.216,3.253-1.233,3.429-2.63c0.111-0.079,0.111-0.199,0.221-0.276
		c0.077-0.858,0.647-1.679,0.691-2.688c0.224-0.802-0.084-1.386-0.056-2.188c0.056-1.542,0.858-1.355,0.084-3.101
		c-0.313-0.701,1.022-1.974,1.411-2.547c0.731-1.082-0.474-3.85,1.16-3.85c2.498,0,2.082-0.765,3.042-2.438
		c0.662-1.154,3.685-1.164,4.977-1.33c2.432-0.309,1.971-3.245,3.154-4.43c0.978-0.706,0.678-1.796,1.023-2.824
		c0.245-0.743,1.017-1.231,1.05-2.022c0.088-2.115,0.78-2.568,2.211-4.1c0.733-0.783,1.636-1.606,1.798-2.715
		c0.331-2.243,1.652-2.457,3.069-3.876c1.486-1.489,1.585-2.525,1.492-4.651c0.293-0.285,1.033-3.378,1.079-3.959
		c0.12-1.5,0.072-2.182,1.411-3.021c0.678-0.424,2.46-3.424,2.46-4.236c0-0.645-0.481-1.26-0.664-1.883
		c-0.295-1.002,0.456-3.168,1.125-3.882l0,0l6.647,0.267c1.471,0,2.206,1.036,2.975,2.272c0.534,0.903,1.168,1.236,1.87,2.003
		c1.67,1.806,2.373,3.141,4.677,4.276c0.334-0.802,0.402-1.335,0.802-2.137c0.802-1.638,1.737-2.305,2.672-3.876
		c0.234-0.432,0.368-0.802,0.669-1.201c0.602,0.833,0.869,1.572,1.737,2.136c0.602,0.402,1.07,0.605,1.604,1.071
		c0.602,0.501,0.903,0.967,1.604,1.334c1.001,0.536,1.77,0.738,2.539,1.604c-1.348,0-2.286,0.711-2.539,2.006
		c-0.088,0.453,0.806,0.197,1.068,0.533c0.104,0.13-0.066,0.37,0,0.535c0.232,0.568,0.402,0.967,0.402,1.604
		c0,1.037,0.035,1.705-0.268,2.672c-0.198,0.637-0.581,0.964-0.802,1.604c-0.079,0.229-0.401,0.267-0.401,0.533
		c0,0.269,0.332,0.304,0.401,0.535c0.132,0.435,0.339,0.666,0.534,1.068c0.274,0.565,0.2,1.138,0.668,1.604
		c0.301,0.301,0.755,0.685,1.068,0.402c0.89-0.802,0.935-2.272,2.139-2.272c0.936,0,1.538,0.024,2.405,0.266
		c0.803,0.227,1.269,0.669,2.138,0.669c0.669,0,0.935-0.533,1.604-0.533c0.634,0,0.97,0.331,1.604,0.4
		c1.503,0.165,2.659-0.746,3.875,0.133c0.921,0.666-0.975,2.36,0,2.941c1.842,1.092,3.408,0.301,5.479,0.802
		c1.103,0.266,1.665,0.578,2.671,1.068c0.163,0.077,0.373,0.056,0.535,0.133c0.605,0.291,0.903,0.802,1.604,0.802
		c0.535,0,0.802-0.4,1.337-0.4c0.333,0,0.435,0.331,0.666,0.533c0.57,0.499,0.871,0.901,1.338,1.471
		c0.437,0.533,0.962,0.714,1.604,1.068c0.563,0.312,0.936,0.669,1.604,0.669c0.834,0,1.303-0.344,2.137-0.4
		c0.637-0.045,1.074,0.168,1.604-0.136c0.871-0.498,1.001-1.337,1.736-2.003c0.299-0.269,0.501-0.669,0.936-0.669
		s0.475,0.563,0.802,0.802c0.674,0.493,1.303,0.535,2.14,0.535c0.9,0,1.335-0.575,2.137-0.935c2.171-0.975,3.509-1.873,5.914-1.873
		c0.435,0,0.868,0,1.303,0c1.474,0-0.12,2.531,0.669,3.743c0.08,0.125,0.359,0.221,0.532,0.133c0.357-0.178,0.715-0.357,1.071-0.535
		c1.098-0.546,1.449,1.769,2.672,1.737c0.435-0.008,0.102-0.802,0.4-1.068c0.269-0.234,0.703-0.202,1.07-0.266
		c0.2-0.035,0.299-0.267,0.533-0.267c0.97,0,1.036,1.468,2.006,1.468c0.267,0,0.267-0.399,0.533-0.399
		c0.234,0,0.069,0.463,0.269,0.533c0.368,0.13,0.666,0.269,1.068,0.269c0.333,0,0.467-0.269,0.803-0.269
		c1.47,0,2.077,1.268,2.938,2.406c0.607,0.799,1.169,1.172,1.872,1.873c0.533,0.533,0.669,1.068,1.202,1.601
		c1.103,1.103,1.972,1.572,3.074,2.675c0.936,0.933,2.004,1.468,2.004,2.805c0,0.567-0.637,0.77-0.669,1.337
		c-0.032,0.634,0.17,1.002,0,1.601c-0.194,0.704-0.997,0.872-1.202,1.604c-0.226,0.805-0.029,1.372-0.269,2.139
		c-0.194,0.637-0.53,0.97-0.666,1.604c-0.131,0.602-0.066,0.97-0.134,1.604c-0.133,1.233-0.434,1.937-0.434,3.173
		c0,0.634-0.24,1.063,0.032,1.636c0.146,0.307,0.469,0.27,0.802,0.27c0.903,0,1.204-0.938,1.604-1.737
		c0.301-0.603,0.549-1.101,1.201-1.338c0.203-0.071,0.43,0.106,0.536,0.267c0.227,0.339,0.304,0.762,0.668,0.938
		c0.539,0.259,1.068,0.104,1.604,0.4c1.033,0.569,1.198,1.574,1.604,2.672c0.762,2.072,1.591,3.216,2.004,5.347
		c0.09,0.453-0.768,0.203-1.068,0.533c-0.397,0.437-0.104,1.002-0.27,1.604c-0.202,0.768-0.935,1.068-0.935,1.87
		c0,1.037,0.663,1.577,1.204,2.406c1.526,2.342,2.936,3.383,5.211,5.077c0.594,0.442,1.108,0.632,1.604,1.205
		c0.139,0.159,0.102,0.399,0.267,0.532c0.538,0.435,1.01,0.49,1.604,0.802c1.444,0.757,2.177,1.372,3.743,1.873
		c0.24,0.077,0.352-0.307,0.399-0.535c0.187-0.871,0.006-1.438,0.267-2.272c0.203-0.634,0.703-0.967,0.936-1.604
		c0.136-0.364-0.066-0.77,0.136-1.067c0.365-0.536,1.18-1.063,1.601-0.536c0.587,0.73-0.133,1.506-0.133,2.44
		c0,0.299-0.133,0.535,0,0.768c0.333,0.567,1.002,0.506,1.604,0.802c1.034,0.506,1.569,1.111,2.673,1.471
		c1.67,0.541,2.811,0.6,4.278,1.604c1.804,1.233,2.778,2.201,3.74,4.143c0.709,1.431,0.936,3.208,2.539,3.208
		c0.301,0,0.632,0.062,0.802-0.136c0.264-0.301,0.234-0.666,0.399-1.068c0.168-0.399,0.603-0.669,1.071-0.669
		c0.735,0,1.101,0.567,1.604,1.071c0.532,0.532,0.772,0.996,1.201,1.601c0.141,0.197,0.407,0.2,0.535,0.402
		c0.205,0.328,0.165,0.772,0.399,1.068c0.432,0.538,1.002,0.504,1.604,0.802c0.402,0.2,0.602,0.536,1.068,0.536
		c0.567,0,0.567-0.805,0.668-1.338c0.2-1.033,0.568-1.638,0.803-2.672c0.33-1.438,0.333-2.286,0.535-3.74
		c0.029-0.2,0.301,0.267,0.533,0.267c0.202,0,0.37-0.174,0.535-0.134c0.671,0.16,0.9,0.706,1.471,1.068
		c0.532,0.339,1.004,0.299,1.604,0.536c0.669,0.264,1.463,0.386,1.604,1.067c0.137,0.661-0.591,1.042-0.938,1.604
		c-0.82,1.343-1.601,2.171-1.601,3.74c0,1.505,1.068,2.24,1.068,3.743c0,0.669-0.432,0.938-0.803,1.471
		c-0.562,0.805-1.068,1.401-1.068,2.403c0,0.333,0.174,0.501,0.267,0.802c0.339,1.068,0.57,1.67,1.068,2.675
		c0.501,0.999,0.653,1.644,1.068,2.672c0.789,1.942,1.682,2.901,2.539,4.809c0.347,0.765,0.447,1.335,0.669,2.14
		c0.111,0.396,0.239,0.7,0.402,1.068c0.071,0.165,0.002,0.432,0.133,0.535c0.469,0.365,0.97-0.069,1.604,0
		c1.17,0.128,1.199,1.503,1.335,2.673c0.099,0.836,0.27,1.303,0.27,2.139c0,1.036-0.567,2.137-1.604,2.137
		c-0.335,0-0.469-0.267-0.802-0.267c-0.434,0-0.935,0.234-0.935,0.669c0,0.666,0.461,0.936,0.532,1.604
		c0.097,0.834-0.093,1.303,0,2.137c0.139,1.202,1.471,1.569,1.471,2.773c0,0.368,0,0.735,0,1.104c0,1.05-1.939-0.733-2.672,0
		c-0.29,0.29,0.165,0.527,0.6,0.807l0,0c-2.055,0.069-4.298,0.498-6.312,0.851c-1.767,0.309-3.592,0.857-5.39,0.857
		c-4.01,0-8.195-0.78-12.085-1.719c-8.256-0.78-18.91-0.554-24.856-7.033c-1.502-1.639-4.292-1.153-6.306-2.104
		c-3.722-0.743-7.873,0.387-11.53-0.524c-1.061-0.267-1.694-1.159-2.707-1.498c-4.651-1.55-13.004,0.112-17.395,1.967
		c-3.469,1.593-4.257,2.763-7.521,0.805c-1.175-0.709-6.677,0.088-7.852,0.857c-1.443,0.946-3.029,2.787-4.563,3.405
		c-1.846,0.745-5.74,1.147-7.769,1.329c-1.397,0.128-2.905-0.277-4.314-0.277l0,0l-1.104-10.966c-0.099-2.4-0.902-4.998-1.191-7.422
		c-0.273-2.318-0.655-4.737-1.409-6.951c-0.523-1.54-1.423-2.912-1.934-4.403c-4.103-5.052-13.278-13.196-19.578-7.116
		c-1.595,1.537-3.947,4.5-6.083,5.149c-5.963,5.662-11.887,13.563-20.295,15.205c-1.854,0.362-8.476,0.242-9.622-1.303
		c-3.632-0.518-6.932-2.989-10.507-3.988c-3.255-0.909-7.708-2.507-11.004-2.684c-2.179-0.117-5.017,0.134-5.308-2.661
		c-0.713-1.782-2.424-5.331-4.204-6.231C13.688,140.786,11.514,141.053,9.987,139.012L9.987,139.012L9.987,139.012z"/>
</g>
</svg>
