<?xml version="1.0" encoding="utf-8"?>
<!-- Generator: Adobe Illustrator 13.0.0, SVG Export Plug-In . SVG Version: 6.00 Build 14948)  -->
<!DOCTYPE svg PUBLIC "-//W3C//DTD SVG 1.1//EN" "http://www.w3.org/Graphics/SVG/1.1/DTD/svg11.dtd">
<svg version="1.1" xmlns="http://www.w3.org/2000/svg" xmlns:xlink="http://www.w3.org/1999/xlink" x="0px" y="0px"
     width="180px" height="150px" viewBox="0 0 240 200" enable-background="new 0 0 240 200" xml:space="preserve">
<g id="Grand_Kru">
	<path fill="#F2F2F2" stroke="#8D8D8D" d="M112.046,50c2.721,1.242,5.423,3.681,8.101,5.212c2.821,1.612,1.836,11.36,4.786,11.825
		c5.997,0.942,11.941,2.032,17.357,5.108c4.451,2.615,8.409,7.218,9.395,12.417l0,0l-1.05,3.112c0,1.494,0.158,3.12,0.525,4.546
		c0.326,1.272-0.304,2.318-0.979,3.325c-0.635,0.945-0.952,1.312-1.114,2.517c-0.023,0.158-0.141,1.363-0.178,0.875
		c0,4.253,0.026,5.438-2.06,9.059c-0.801,1.393-3.282,5.791-3.282,7.241l0.07,0.07c7.768,0,15.159,2.464,22.244,5.63
		c1.346,0.603,6.773,3.456,7.79,3.396c3.58,2.655,11.978,4.896,13.514,9.688c1.438,4.462,4.604,7.918,4.403,13.05
		c-0.052,1.292-2.063,1.884-2.551,3.146c-1.083,6.08,2.011,3.644,5.623,4.092c1.329,1.332,0.328,9.532,0.731,11.895
		c0.505,2.921-3.661,10.866-6.425,11.784L185.523,180l0,0c0-0.148-0.145-0.212-0.169-0.34c-0.231-0.821-0.506-1.245-0.845-2.022
		c-0.296-0.677-0.38-1.12-0.844-1.689c-0.085-0.128-0.104-0.275-0.253-0.34c-0.21-0.104-0.442-0.104-0.675-0.168
		c-0.506-0.148-0.822-0.293-1.351-0.421c-1.602-0.4-2.574-0.508-4.136-1.013c-1.497-0.484-2.362-0.801-3.88-1.265
		c-1.12-0.337-1.605-0.949-2.702-1.35c-1.581-0.593-2.53-0.805-4.136-1.269c-0.396-0.104-0.735-0.021-1.013-0.337
		c-0.336-0.4,0.064-1.117-0.421-1.35c-0.992-0.484-1.709-0.528-2.786-0.845c-1.477-0.443-2.278-0.908-3.711-1.433
		c-0.633-0.232-1.057-0.212-1.689-0.425c-0.526-0.168-0.885-0.336-1.434-0.42c-1.562-0.232-2.49-0.276-4.052-0.509
		c-0.548-0.084-0.885-0.292-1.434-0.42c-0.78-0.192-1.267-0.212-2.025-0.421c-0.78-0.212-1.267-0.276-2.025-0.592
		c-2.132-0.528-3.355-0.737-5.485-1.266c-0.696-0.168-1.077-0.34-1.773-0.424c-2.51-0.357-3.987-0.316-6.498-0.758
		c-0.971-0.168-1.477-0.487-2.447-0.676c-1.182-0.232-1.92-0.168-3.123-0.337c-1.012-0.147-1.604-0.147-2.616-0.336
		c-0.781-0.151-1.224-0.36-2.025-0.424c-0.782-0.064-1.287,0.043-2.027-0.169c-1.053-0.296-1.666-0.633-2.699-1.013
		c-1.289-0.464-2.238-0.275-3.377-1.013c-0.527-0.337-0.654-0.761-1.011-1.266c-0.612-0.845-1.309-1.057-2.28-1.437
		c-0.696-0.272-1.159-0.377-1.856-0.673c-0.296-0.128-0.676-0.168-0.676-0.509c0-0.252,0.148-0.44,0.084-0.673
		c-0.126-0.424-0.484-0.531-0.843-0.76c-0.422-0.276-0.654-0.569-1.013-0.929c-0.971-0.97-1.562-1.582-2.701-2.362
		c-0.717-0.485-1.225-0.549-2.025-0.845c-1.309-0.484-2.09-0.737-3.459-0.929c-1.605-0.232-2.448-0.737-3.967-1.266
		c-0.696-0.232-1.161-0.275-1.857-0.508c-2.11-0.717-3.375-1.073-5.485-1.771c-0.929-0.296-1.434-0.592-2.362-0.929
		c-0.654-0.231-1.161-0.168-1.689-0.592c-0.464-0.356-0.464-0.865-0.843-1.35c-0.486-0.633-0.865-0.992-1.604-1.35
		c-0.38-0.191-0.801-0.212-1.013-0.592c-0.252-0.484-0.252-0.845-0.506-1.35c-0.294-0.612-0.719-0.864-1.267-1.265
		c-0.717-0.528-1.201-0.825-2.024-1.182c-0.464-0.191-0.612-0.572-1.013-0.845c-0.358-0.232-0.635-0.316-1.013-0.508
		c-0.781-0.421-1.245-0.757-2.026-1.182c-0.802-0.42-1.181-0.885-2.024-1.265c-1.161-0.528-1.877-0.696-3.039-1.266
		c-1.245-0.612-1.941-0.761-3.123-1.35c-0.697-0.34-1.013-0.72-1.689-1.097c-0.885-0.487-1.454-0.74-2.362-1.185
		c-0.76-0.377-1.265-0.524-2.025-0.925c-0.823-0.425-1.265-0.845-2.11-1.185c-0.358-0.145-0.633-0.169-1.013-0.253
		c-0.865-0.191-1.329-0.464-2.194-0.589c-1.223-0.168-1.855-0.548-3.039-0.929c-1.602-0.528-2.552-0.78-4.22-1.181l0,0l4.316-2.985
		c3.388-2.759,4.295-7.507,7.928-10.074c2.5-1.767,6.023-1.716,8.939-1.992c3.274-0.313,2.13-6.535,3.039-9.271
		c0.771-2.312,2.813-2.591,4.996-2.591c3.07,0,5.032-1.831,7.3-3.775c1.642-0.76,2.71-1.548,4.61-1.716
		c4.166-0.367,2.645-2.201,3.771-4.967c0.561-1.373,3.014-1.672,4.085-3.112c1.583-2.12,4.181-3.917,6.356-5.351
		c2.125-1.4,1.108-4.973,2.34-6.471c1.085-0.646,1.634-0.596,2.201-1.82c0.723-1.558,0.75-3.187,1.957-4.546
		c1.368-1.548,2.88-4.159,3.212-6.191C109.941,53.937,110.668,51.38,112.046,50L112.046,50L112.046,50z"/>
</g>
</svg>
