<?xml version="1.0" encoding="utf-8"?>
<!-- Generator: Adobe Illustrator 13.0.0, SVG Export Plug-In . SVG Version: 6.00 Build 14948)  -->
<!DOCTYPE svg PUBLIC "-//W3C//DTD SVG 1.1//EN" "http://www.w3.org/Graphics/SVG/1.1/DTD/svg11.dtd">
<svg version="1.1" xmlns="http://www.w3.org/2000/svg" xmlns:xlink="http://www.w3.org/1999/xlink" x="0px" y="0px"
     width="180px" height="150px" viewBox="0 0 240 200" enable-background="new 0 0 240 200" xml:space="preserve">
<g id="Lofa">
	<path fill="#F2F2F2" stroke="#8D8D8D" d="M136.062,177.805c0.754,0.333,1.934,1.092,2.64,1.57c1.003,0.679,4.506,0.9,5.478,0.178
		c0.905-0.671,1.602-1.666,2.859-1.729c1.019-0.052,1.598,0.445,2.778-0.02c0.85-0.336,0.952-0.617,0.952-1.491
		c0-0.859,1.711-0.838,0.934-2.027c-0.814-1.245-0.944-1.501,0.02-2.764c0.783-0.233,1.307-0.889,2.163-1.134
		c0.727-0.206,1.348-0.068,2.103-0.436c2.174-1.056,4.951-1.823,6.65-3.46c0.668-0.643,1.879-0.847,2.282-1.61
		c0.504-0.954,0.69-2.652,1.459-3.421l0,0c-0.169,0-0.24-0.168-0.384-0.191l-0.114-0.277c0.033-0.124,0.069-0.256,0.114-0.394
		c0.146-0.455,0.171-0.72,0.385-1.151c0.434-0.886,1.341-1.224,1.341-2.231c0-0.559,0-1.119,0-1.68c0-0.525-0.095-0.935,0.192-1.365
		c0.288-0.433,0.678-0.547,1.056-0.864c0.82-0.688,1.462-0.983,2.11-1.822c0.502-0.648,0.572-1.201,0.96-1.918
		c0.571-1.058,1.21-1.53,1.63-2.686c0.155-0.428,0.376-0.698,0.479-1.151c0.303-1.321,0.319-2.18,0.767-3.453
		c0.127-0.357,0.404-0.435,0.577-0.768c0.283-0.552,0.441-0.956,0.671-1.535c0.178-0.451,0.383-0.792,0.671-1.151
		c0.215-0.264,0.672-0.312,0.672-0.671c0-0.455-0.407-0.626-0.672-0.958c-0.189-0.241-0.29-0.528-0.479-0.77
		c-0.075-0.094-0.314,0.025-0.384-0.095c-0.219-0.383-0.072-0.696-0.097-1.151c-0.023-0.455,0.079-0.722,0-1.151
		c-0.136-0.744-0.479-1.149-0.479-1.918c0-0.599-0.013-0.979,0.191-1.534c0.059-0.164,0.281-0.174,0.384-0.289
		c0.52-0.579,1.028-0.769,1.438-1.438c0.501-0.817,0.358-1.486,0.863-2.303c0.304-0.759,0.287-1.807,0.287-2.782
		c0-1.415-0.239-2.71-1.535-3.261c-0.935-0.407-1.414-0.814-2.302-1.343c-0.431-0.239-0.743-0.432-0.96-0.864
		c-0.359-0.744-0.43-1.295-0.959-1.918c-0.383-0.455-0.887-0.552-1.151-1.056c-0.287-0.525-0.359-0.936-0.479-1.533
		c-0.168-0.888-0.384-1.391-0.384-2.303c0-0.288-0.048-0.503,0-0.767c0.049-0.289,0.288-0.457,0.288-0.769
		c0-0.6-0.12-0.959-0.288-1.534c-0.048-0.169-0.192-0.264-0.192-0.456v-1.967c0-1.127,1.128-1.343,1.631-2.373l-1.822-4.605
		c0.072-0.694,0.479-1.031,0.479-1.726c0-0.168-0.168-0.24-0.192-0.383c-0.863,0.072-1.271,0.576-2.134,0.576
		c-0.215,0-0.336-0.073-0.552-0.097c0.024-0.456,0.192-0.719,0.48-1.055c0.191-0.503,0.479-0.887,0.479-1.439
		c0-0.719-0.456-1.055-0.672-1.727c-0.024-0.12,0.023-0.264,0-0.384c-0.096-0.312-0.288-0.456-0.384-0.767
		c-0.455-1.272-0.479-2.087-0.575-3.454c-0.072-0.96-0.144-1.703-0.863-2.303c-0.456-0.383-0.983-0.119-1.535-0.287
		c-0.312-0.097-0.455-0.385-0.767-0.48c-0.696-0.239-1.176-0.144-1.919-0.192l-0.096-0.479c0.168-1.056,0.264-1.704,0.575-2.687
		c0.168-0.527,0.672-0.767,0.672-1.342c0-0.744-0.623-1.031-1.055-1.631c1.008-1.006,1.822-1.342,2.781-2.398
		c-0.768-0.863-1.535-1.416-1.535-2.589c0-0.287,0.12-0.48,0.096-0.767c0-0.168-0.144-0.239-0.192-0.384
		c-0.215-0.671-0.574-1.006-1.149-1.438c0.742-0.744,1.462-0.792,2.205-1.536c0.72-0.719,1.007-1.295,1.247-2.302
		c0.072-0.288,0.288-0.456,0.288-0.768c0-1.006-1.415-0.815-2.398-0.959c-0.575-0.096-0.935-0.264-1.534-0.288
		c-0.48-0.024-0.792,0.096-1.247,0c-0.48-0.12-0.719-0.455-1.151-0.671c-0.552-0.264-0.959-0.408-1.343-0.864
		c-0.431-0.504-0.575-0.911-0.768-1.535c-0.168-0.528-0.383-1.151-0.959-1.151c-0.768,0-1.007,0.744-1.438,1.343
		c-0.288,0.407-0.672,0.625-1.151,0.768c-0.983,0.312-1.654-0.192-2.687,0c-0.312,0.049-0.455,0.384-0.79,0.384h-0.744
		c-0.047-0.264-0.12-0.503-0.191-0.767c-0.048-0.168-0.288-0.191-0.288-0.384c0-0.671,0.672-0.935,1.247-1.247
		c0.575-0.311,0.983-0.623,1.343-1.151c0.145-0.215,0.384-0.312,0.384-0.576c0-1.15-0.96-1.558-1.823-2.302
		c-0.525-0.456-0.91-0.719-1.534-1.055c-0.479-0.264-0.743-0.528-1.15-0.864c-0.144-0.119-0.169-0.382-0.385-0.382
		c-0.6,0-0.888,0.382-1.343,0.767c-0.383,0.336-0.768,0.407-0.959,0.863c-0.216,0.552-0.072,0.983-0.287,1.535
		c-0.192,0.48-0.48,0.72-0.864,1.056c-0.719-0.504-1.055-1.008-1.534-1.727c-0.264-0.407-0.432-0.744-0.671-1.151
		c-0.217-0.359-0.576-0.528-0.576-0.96c0-0.551,0.384-0.79,0.384-1.342c0-0.936-0.288-1.463-0.672-2.303
		c-0.191-0.431-0.335-0.719-0.479-1.15C140.336,50.48,140.24,50,139.809,50c-0.983,0-1.391,0.624-2.303,0.959
		c-0.099,0.037-0.311,0.02-0.548,0.049c-0.619,1.119-0.03,2.108-0.699,3.117c-0.65,0.98-1.727,0.862-2.901,0.862
		c-0.287,0-0.453-0.121-0.743-0.096c-0.515,0.046-0.815,0.192-1.343,0.192c-1.199,0-1.87-0.479-3.07-0.479
		c-1.606,0-2.541,0.218-4.028,0.862c-1.39,0.603-1.559,1.848-2.878,2.589c-0.383,0.216-0.717,0.15-1.15,0.289
		c-0.766,0.245-1.299,0.378-1.919,0.862c-0.579,0.451-0.499,1.209-1.151,1.536c-0.259,0.129-0.478,0.196-0.768,0.287
		c-0.693,0.22-1.175,0.142-1.918,0.193c-0.648,0.044-1.08,0.215-1.535,0.671c-0.287,0.287-0.431,0.671-0.863,0.671
		c-0.384,0-0.576-0.457-0.576-0.839c0-0.384,0.14-0.6,0.096-0.983c-0.047-0.416-0.218-0.836-0.144-1.248
		c0.249-1.369,0.736-2.686,1.103-4.028c0.27-0.988-1.275-1.025-2.207-1.438c-1.01-0.449-1.583-0.864-2.686-0.864
		c-1.055,0-1.63,0.192-2.685,0.192c-0.6,0-1.104,0.097-1.535-0.288c-0.24-0.214-0.107-0.583-0.384-0.767
		c-0.127-0.086-0.304,0.077-0.384,0.191c-0.616,0.891-0.741,1.805-1.727,2.207c-0.428,0.174-0.743,0.146-1.151,0.383
		c-0.622,0.36-0.784,0.871-1.343,1.342c-0.368,0.311-0.575,0.48-1.055,0.48c-0.767,0-1.197-0.246-1.918-0.48
		c-1.125-0.364-1.871-0.523-3.07-0.479c-0.302,0.01-0.567,0.067-0.82,0.107l0,0c-0.12,0.6-0.139,1.067-0.139,1.69v1.391
		c0,1.175-1.055,1.679-1.055,2.854c0,0.455,0.168,0.694,0.192,1.151c0.072,0.887,0,1.487,0.288,2.303
		c0.216,0.575,0.479,0.91,0.479,1.534c0,1.031-0.887,1.392-1.343,2.302c-0.432,0.864-0.816,1.343-0.959,2.303
		c-0.145,0.862-0.023,1.415-0.096,2.301c-0.072,0.888-0.192,1.392-0.192,2.279v1.966c0,1.176,0.959,1.679,0.959,2.853
		c0,0.696-0.24,1.08-0.479,1.727c-0.432,1.151-0.959,1.727-1.822,2.59c-0.528,0.528-0.72,0.959-1.151,1.535
		c-0.743,1.008-1.75,1.104-2.974,1.342c-1.151,0.241-1.607,0.912-2.686,1.344l-5.755-1.535c-0.912,0.288-1.439,0.432-2.302,0.863
		c-0.456,0.215-0.672,0.552-1.151,0.768c-0.743,0.336-1.271,0.311-1.918,0.767c-0.863,0.624-1.104,1.319-1.535,2.302
		c-0.336,0.767-0.599,1.174-0.959,1.918c-0.241,0.503-0.552,0.744-0.959,1.151c-0.695,0.694-1.079,1.174-1.918,1.63
		c-0.576,0.312-0.936,0.479-1.535,0.768c-0.288,0.143-0.599,0.215-0.768,0.48c-0.048,0.096,0.024,0.263,0,0.382
		c-0.192,0.553-0.144,0.936-0.192,1.536c-0.048,0.743-0.048,1.15-0.048,1.894c0,1.055-0.048,1.847-0.048,2.902v1.568l0,0l2.774-0.02
		c0.507-0.194,0.964-0.836,1.489-0.836c0.444,0,1.183-0.306,1.627-0.457c0.812-0.273,0.619,0.587,0.933,1.074
		c0.244,0.379,0.712,0.479,0.992,0.794c0.374,0.421,1.141,0.437,1.627,0.221c1.051-0.373,1.704-0.945,2.659-1.372
		c0.412-0.185,0.95-0.498,1.41-0.498c1.08,0,1.825-1.053,2.818-1.093c0.326-0.013,0.484,0.229,0.714,0.417
		c0.504,0.407,0.927,0.251,1.548,0.218c1.473-0.413,2.671,0.646,4.208-0.158l3.037-1.589c0.495-0.261,1.25-1.095,1.746-1.095
		c0.175,0,1.732,0.362,1.906,0.458c0.885,0.489-2.069,4.917-2.719,5.367c-0.982,0.68,0.121,1.854,0.357,2.584
		c0.376,1.162,2.739-0.159,2.739,1.85c-0.713,1.248-2.688,1.16-1.767,2.543c0.968,1.455,0.824,1.621,2.64,2.068
		c0.923,0.228,0.29,1.773,0.258,2.445c-0.063,1.325,2.303-0.881,2.719-1.253c1.446-1.293,3.355-2.257,5.021-3.142
		c1.486-0.787,1.798-0.861,1.647,0.975c-0.056,0.688-1.557,1.053-1.111,1.868c0.728,1.333,0.964,2.147,0.377,3.699
		c-0.662,1.746,0.367,2.725,2.283,2.344c1.124-0.102,1.138-0.593,1.706,0.279c0.875,1.341,2.416-0.14,3.553-0.14
		c0.725,0,2.407,0.073,3.017,0.278c0,0.047-0.01,0.06-0.021,0.1c-0.336,0.066-2.48,2.466-1.528,2.843
		c0.868,0.343,2.356,0.074,3.335,0.199c1.146,0.147,1.626-0.637,2.441-0.637c0.781,3.159,6.573,0.009,8.136-0.676
		c0.621,0.033,1.076-0.617,1.589-0.18c0.973,0.834,1.737,1.882,2.938,2.506c1.982,1.032,4.298,1.459,6.112,2.803
		c2.317,1.716,4.653,2.32,7.166,3.578l4.325,1.928c0.868,0.387,2.094,0.934,2.699,1.65c0.332,0.393,0.191,1.233,0.338,1.75
		c0.293,1.031,0.928,1.645,1.489,2.503c0.539,0.828,0.068,2.145,0.555,3.021c1.504,0.802,1.156,3.286-0.575,3.36
		c-1.096,0.048-2.136-0.098-2.6,1.174c-0.331,0.907,0.468,1.739-0.397,2.604c-0.839,0.841-2.861,1.321-2.262,3.062
		c0.445,1.295,2.775,1.566,1.448,3.499c-0.556,0.534-1.788,0.824-1.984,1.353c-0.23,0.614-0.114,1.577-1.012,1.748
		c-0.598,0.114-1.015-0.084-1.191,0.577c-0.303,1.132-1.203,1.874-1.41,3.121c-0.313,1.899-0.521,2.802-1.964,4.175
		c-0.883,0.838,0.342,0.964,0.694,1.57c0.28,0.479-0.83,1.026-1.111,1.451c-0.773,0.441-0.273,1.349-0.714,1.888
		c-0.251,0.306-0.715,0.541-1.033,0.776C136.661,176.826,136.325,177.31,136.062,177.805L136.062,177.805L136.062,177.805z"/>
</g>
</svg>
