<?xml version="1.0" encoding="utf-8"?>
<!-- Generator: Adobe Illustrator 13.0.0, SVG Export Plug-In . SVG Version: 6.00 Build 14948)  -->
<svg version="1.1" id="Layer_1" xmlns="http://www.w3.org/2000/svg" xmlns:xlink="http://www.w3.org/1999/xlink" x="0px" y="0px"
     width="420px" height="420px" viewBox="0 0 420 420" enable-background="new 0 0 420 420" xml:space="preserve">
<style>
    .county:hover {
        fill: #D9D9D9;
        stroke: #8D8D8D;
    }
</style>
<a xlink:href="/counties/lofa">
<path class="county" fill="#F2F2F2" stroke="#8D8D8D" d="M168.922,141.529c0.77,0.34,1.975,1.115,2.696,1.604c1.024,0.693,4.602,0.92,5.595,0.182
    c0.925-0.686,1.636-1.7,2.919-1.766c1.04-0.053,1.632,0.456,2.838-0.02c0.867-0.344,0.973-0.63,0.973-1.523
    c0-0.876,1.748-0.854,0.953-2.07c-0.832-1.271-0.965-1.532,0.02-2.822c0.801-0.238,1.335-0.908,2.21-1.157
    c0.742-0.212,1.376-0.071,2.148-0.446c2.22-1.078,5.056-1.86,6.792-3.533c0.682-0.656,1.919-0.865,2.331-1.645
    c0.515-0.975,0.706-2.709,1.489-3.494l0,0c-0.171,0-0.245-0.172-0.392-0.195l-0.116-0.283c0.033-0.127,0.07-0.262,0.116-0.402
    c0.149-0.465,0.175-0.734,0.392-1.176c0.444-0.904,1.371-1.25,1.371-2.278c0-0.571,0-1.144,0-1.715c0-0.538-0.097-0.956,0.196-1.396
    c0.293-0.441,0.692-0.558,1.078-0.882c0.837-0.703,1.493-1.005,2.155-1.861c0.513-0.662,0.584-1.228,0.98-1.96
    c0.583-1.079,1.236-1.563,1.665-2.742c0.159-0.438,0.384-0.713,0.489-1.176c0.31-1.35,0.326-2.227,0.784-3.527
    c0.129-0.365,0.413-0.442,0.588-0.783c0.29-0.564,0.452-0.976,0.686-1.567c0.181-0.461,0.39-0.81,0.686-1.176
    c0.218-0.271,0.685-0.318,0.685-0.686c0-0.466-0.416-0.639-0.685-0.979c-0.194-0.246-0.297-0.539-0.49-0.784
    c-0.076-0.096-0.321,0.025-0.392-0.098c-0.224-0.391-0.074-0.711-0.098-1.176c-0.024-0.466,0.08-0.737,0-1.176
    c-0.139-0.761-0.49-1.175-0.49-1.959c0-0.612-0.012-1,0.196-1.567c0.061-0.168,0.288-0.178,0.392-0.294
    c0.531-0.593,1.05-0.786,1.469-1.47c0.512-0.834,0.366-1.518,0.882-2.351c0.311-0.775,0.293-1.846,0.293-2.841
    c0-1.445-0.244-2.768-1.567-3.331c-0.955-0.416-1.445-0.833-2.351-1.372c-0.44-0.245-0.759-0.44-0.98-0.882
    c-0.367-0.76-0.44-1.322-0.979-1.959c-0.392-0.465-0.906-0.563-1.176-1.078c-0.294-0.538-0.367-0.956-0.49-1.567
    c-0.171-0.906-0.392-1.42-0.392-2.351c0-0.294-0.048-0.514,0-0.784c0.05-0.294,0.294-0.466,0.294-0.784
    c0-0.612-0.123-0.98-0.294-1.568c-0.048-0.171-0.196-0.27-0.196-0.465v-2.008c0-1.151,1.151-1.371,1.666-2.424L204,61.061
    c0.074-0.71,0.49-1.054,0.49-1.763c0-0.172-0.171-0.245-0.196-0.392c-0.882,0.074-1.298,0.588-2.18,0.588
    c-0.22,0-0.343-0.074-0.563-0.098c0.024-0.465,0.196-0.734,0.49-1.078c0.196-0.514,0.49-0.906,0.49-1.469
    c0-0.734-0.465-1.078-0.686-1.764c-0.024-0.122,0.024-0.27,0-0.392c-0.098-0.318-0.294-0.466-0.392-0.784
    c-0.465-1.298-0.49-2.131-0.588-3.527c-0.074-0.98-0.146-1.739-0.882-2.351c-0.465-0.392-1.004-0.122-1.567-0.294
    c-0.318-0.098-0.465-0.392-0.784-0.49c-0.71-0.244-1.2-0.146-1.959-0.196l-0.098-0.49c0.172-1.078,0.27-1.739,0.588-2.743
    c0.171-0.539,0.686-0.784,0.686-1.372c0-0.759-0.636-1.053-1.078-1.666c1.029-1.028,1.861-1.371,2.841-2.449
    c-0.784-0.881-1.567-1.445-1.567-2.645c0-0.293,0.123-0.49,0.098-0.784c0-0.172-0.146-0.244-0.196-0.392
    c-0.22-0.686-0.587-1.028-1.175-1.47c0.759-0.76,1.494-0.808,2.253-1.567c0.735-0.734,1.029-1.322,1.274-2.351
    c0.073-0.294,0.293-0.466,0.293-0.784c0-1.028-1.445-0.833-2.449-0.98c-0.588-0.098-0.956-0.27-1.568-0.294
    c-0.49-0.024-0.808,0.098-1.273,0c-0.49-0.122-0.734-0.465-1.176-0.686c-0.563-0.27-0.979-0.416-1.371-0.882
    c-0.44-0.514-0.588-0.93-0.784-1.567c-0.171-0.539-0.392-1.176-0.979-1.176c-0.784,0-1.028,0.759-1.469,1.372
    c-0.294,0.416-0.686,0.637-1.176,0.784c-1.004,0.318-1.69-0.196-2.743,0c-0.318,0.049-0.465,0.392-0.808,0.392h-0.759
    c-0.048-0.27-0.123-0.514-0.196-0.784c-0.048-0.172-0.294-0.196-0.294-0.392c0-0.686,0.686-0.956,1.273-1.273
    s1.004-0.636,1.372-1.176c0.147-0.22,0.392-0.318,0.392-0.588c0-1.175-0.98-1.591-1.862-2.351c-0.538-0.465-0.93-0.734-1.567-1.078
    c-0.49-0.27-0.759-0.539-1.175-0.882c-0.146-0.122-0.172-0.392-0.392-0.392c-0.612,0-0.906,0.392-1.372,0.784
    c-0.392,0.343-0.784,0.416-0.979,0.882c-0.221,0.563-0.074,1.004-0.294,1.567c-0.196,0.49-0.49,0.735-0.882,1.078
    c-0.734-0.514-1.078-1.028-1.567-1.764c-0.27-0.416-0.44-0.759-0.686-1.175c-0.221-0.368-0.588-0.539-0.588-0.98
    c0-0.563,0.392-0.808,0.392-1.371c0-0.956-0.294-1.494-0.686-2.352c-0.196-0.441-0.342-0.735-0.49-1.175
    C173.287,11.49,173.189,11,172.748,11c-1.004,0-1.42,0.636-2.351,0.979c-0.101,0.037-0.318,0.02-0.56,0.049
    c-0.632,1.144-0.031,2.154-0.713,3.184c-0.664,1.001-1.764,0.882-2.963,0.882c-0.294,0-0.463-0.125-0.76-0.098
    c-0.525,0.047-0.832,0.196-1.371,0.196c-1.225,0-1.91-0.49-3.135-0.49c-1.641,0-2.595,0.223-4.115,0.881
    c-1.418,0.615-1.591,1.887-2.939,2.646c-0.391,0.221-0.733,0.153-1.175,0.294c-0.782,0.25-1.326,0.388-1.959,0.881
    c-0.591,0.461-0.51,1.235-1.176,1.568c-0.264,0.132-0.488,0.201-0.784,0.294c-0.708,0.224-1.2,0.144-1.959,0.196
    c-0.662,0.045-1.103,0.22-1.568,0.686c-0.293,0.293-0.44,0.686-0.881,0.686c-0.392,0-0.588-0.466-0.588-0.857
    s0.143-0.612,0.098-1.004c-0.048-0.424-0.223-0.854-0.146-1.274c0.254-1.398,0.751-2.743,1.126-4.115
    c0.275-1.008-1.302-1.046-2.253-1.469c-1.031-0.458-1.616-0.882-2.743-0.882c-1.078,0-1.665,0.196-2.743,0.196
    c-0.612,0-1.127,0.099-1.568-0.294c-0.245-0.219-0.109-0.595-0.392-0.784c-0.13-0.087-0.311,0.079-0.392,0.196
    c-0.629,0.911-0.757,1.844-1.763,2.253c-0.438,0.178-0.759,0.15-1.176,0.392c-0.635,0.369-0.801,0.89-1.372,1.371
    c-0.376,0.317-0.587,0.49-1.078,0.49c-0.784,0-1.223-0.251-1.959-0.49c-1.149-0.373-1.911-0.534-3.135-0.49
    c-0.308,0.011-0.579,0.068-0.837,0.11l0,0c-0.123,0.612-0.142,1.09-0.142,1.727v1.42c0,1.201-1.078,1.715-1.078,2.915
    c0,0.466,0.171,0.71,0.196,1.176c0.074,0.906,0,1.519,0.294,2.352c0.22,0.587,0.49,0.931,0.49,1.567
    c0,1.053-0.906,1.421-1.372,2.352c-0.441,0.882-0.833,1.372-0.979,2.351c-0.147,0.882-0.024,1.445-0.098,2.351
    c-0.073,0.906-0.196,1.421-0.196,2.327v2.008c0,1.201,0.979,1.715,0.979,2.915c0,0.71-0.245,1.102-0.49,1.764
    c-0.441,1.176-0.979,1.763-1.861,2.645c-0.539,0.539-0.735,0.98-1.175,1.567c-0.759,1.029-1.788,1.127-3.037,1.372
    c-1.176,0.246-1.641,0.931-2.743,1.372l-5.878-1.567c-0.931,0.294-1.47,0.441-2.351,0.882c-0.465,0.22-0.686,0.563-1.176,0.784
    c-0.759,0.343-1.298,0.318-1.959,0.784c-0.882,0.637-1.127,1.347-1.567,2.351c-0.343,0.784-0.612,1.2-0.979,1.959
    c-0.246,0.514-0.563,0.76-0.98,1.176c-0.71,0.71-1.102,1.2-1.959,1.666c-0.588,0.318-0.956,0.49-1.568,0.784
    c-0.294,0.147-0.612,0.22-0.784,0.49c-0.049,0.098,0.024,0.269,0,0.392c-0.196,0.564-0.147,0.956-0.196,1.567
    c-0.049,0.759-0.049,1.175-0.049,1.935c0,1.078-0.049,1.886-0.049,2.963v1.603l0,0l2.833-0.021c0.518-0.198,0.985-0.853,1.52-0.853
    c0.454,0,1.208-0.313,1.663-0.467c0.829-0.28,0.632,0.599,0.953,1.096c0.249,0.387,0.727,0.49,1.014,0.812
    c0.381,0.43,1.165,0.444,1.662,0.224c1.073-0.38,1.74-0.964,2.716-1.401c0.421-0.188,0.97-0.508,1.439-0.508
    c1.103,0,1.864-1.076,2.878-1.117c0.333-0.014,0.494,0.235,0.73,0.426c0.515,0.417,0.946,0.256,1.581,0.223
    c1.504-0.423,2.729,0.66,4.298-0.162l3.101-1.624c0.505-0.265,1.277-1.117,1.784-1.117c0.178,0,1.769,0.37,1.946,0.467
    c0.904,0.5-2.113,5.022-2.777,5.482c-1.003,0.694,0.123,1.894,0.365,2.639c0.384,1.187,2.797-0.162,2.797,1.888
    c-0.728,1.276-2.745,1.186-1.804,2.599c0.989,1.486,0.842,1.655,2.696,2.112c0.943,0.232,0.296,1.811,0.264,2.497
    c-0.064,1.354,2.352-0.899,2.777-1.279c1.477-1.32,3.427-2.306,5.129-3.208c1.518-0.805,1.836-0.88,1.682,0.995
    c-0.058,0.703-1.59,1.075-1.135,1.909c0.744,1.361,0.984,2.192,0.385,3.776c-0.675,1.784,0.375,2.784,2.332,2.396
    c1.147-0.105,1.162-0.606,1.743,0.284c0.894,1.37,2.467-0.143,3.629-0.143c0.74,0,2.458,0.074,3.081,0.285
    c0,0.048-0.01,0.061-0.021,0.102c-0.344,0.068-2.533,2.519-1.561,2.903c0.887,0.35,2.407,0.075,3.406,0.203
    c1.171,0.15,1.661-0.65,2.494-0.65c0.797,3.227,6.712,0.01,8.311-0.69c0.633,0.034,1.098-0.631,1.622-0.183
    c0.994,0.851,1.774,1.921,3,2.559c2.025,1.054,4.389,1.489,6.243,2.862c2.366,1.753,4.751,2.37,7.318,3.654l4.418,1.969
    c0.886,0.396,2.138,0.953,2.757,1.686c0.338,0.4,0.195,1.26,0.345,1.787c0.298,1.053,0.947,1.68,1.521,2.558
    c0.55,0.845,0.07,2.189,0.567,3.086c1.535,0.817,1.18,3.354-0.588,3.431c-1.119,0.049-2.182-0.1-2.655,1.199
    c-0.338,0.927,0.477,1.775-0.406,2.659c-0.857,0.858-2.923,1.35-2.311,3.126c0.456,1.322,2.835,1.6,1.479,3.574
    c-0.567,0.545-1.826,0.842-2.026,1.381c-0.235,0.628-0.117,1.611-1.034,1.786c-0.61,0.116-1.036-0.087-1.216,0.589
    c-0.309,1.156-1.229,1.914-1.439,3.188c-0.321,1.939-0.532,2.861-2.006,4.264c-0.901,0.855,0.349,0.984,0.709,1.604
    c0.286,0.491-0.848,1.049-1.135,1.482c-0.79,0.452-0.279,1.377-0.729,1.929c-0.255,0.312-0.729,0.552-1.055,0.792
    C169.534,140.529,169.191,141.023,168.922,141.529L168.922,141.529L168.922,141.529z"
    data-powertiptarget="lofa-county"/>
</a>
<a xlink:href="/counties/cpmt">
<path class="county" fill="#F2F2F2" stroke="#8D8D8D" d="M48.723,199.49l0.097-2.027c0.171-0.755-1.273-2.014-0.771-2.7l1.5-2.051
    c0.568-0.776,2.995,0.04,4.156-1.319c0.41-0.48,0.148-1.2,0.081-1.746c-0.096-0.786,1.593-1.707,2.068-2.396
    c0.531-0.769,1.259-0.245,1.804-0.75c0.611-0.567,1.049-2.078,1.318-2.843c0.351-0.999-1.324-1.787-0.75-3.228
    c0.57-0.91,1.582-2.622,0.304-3.229c-0.9-0.428-1.891-1.199-1.561-2.273c0.299-0.975,0.803-1.021,1.5-1.584
    c0.897-0.725,1.271-2.063,1.642-3.106c0.535-1.504,1.147-2.605,1.216-4.284c0.046-0.246,0.124-0.455,0.02-0.69
    c-0.122-0.274-0.347-0.511-0.446-0.812c-0.154-0.464-0.057-0.949,0.284-1.32l0.567-0.67l0,0c0.213-0.633,0.043-1.455-0.102-2.07
    c-0.123-0.523-1.51-1.195-0.831-1.665c1.077-0.745,3.292-0.136,3.709-1.847c0.366-1.502,1.259-1.93,2.534-2.701
    c0.935-0.565,3.604-1.697,4.135-2.436c0.293-0.409,0.193-0.733,0.791-0.813c0.603-0.08,0.948-0.23,1.115-0.832
    c0.84-0.398,0.835-0.558,1.825-0.63c0.443-0.032,0.836-0.023,0.993-0.507c0.279-0.861,1.348-0.215,2.067-0.934
    c2.057-2.059,2.364-4.018,5.352-5.076c1.77-0.629,3.631-1.434,4.906-2.843c1.421-1.572,3.769-1.899,5.189-3.269
    c0.704-0.207,1.665-0.953,2.25-1.422c0.608-0.486,1.263-0.796,1.885-1.218c1.164-0.788,2.544-1.579,3.466-2.679
    c0.954-1.141,0.821-1.369,0.689-2.823c0.747-1.688-4.678-1.049-5.717-1.178c-0.979-0.122-0.972-0.638-1.642-1.076
    c-0.87-0.569-2.142,0.007-2.98-0.345c-1.023-0.43-0.319-2.055-0.243-2.762c0.15-1.404-0.96-2.533-0.041-3.674
    c0.527-0.654,1.01-1.306,0.73-2.152c-0.996,0-1.898,0.953-2.878,0.913c-1.304-0.053-2.555-0.367-3.649-1.075l-0.102-3.533
    c-0.047-1.639-0.601-1.666-1.257-3.005c-0.331-0.675-1.344-0.287-1.946-0.284l-3.547,0.02c-2.024,0.012-4.219,0.627-6.162,0.447
    c-1.161-0.107-2.239-0.57-3.345-0.792l-1.612-1.038l0,0c-1.567,0.71-2.351,1.371-3.918,2.057c-0.343,0.147-0.441,0.563-0.784,0.686
    c-0.465,0.172-0.759,0.295-1.274,0.295c-0.294,0-0.514-0.123-0.784-0.099c-0.489,0.073-0.735,0.368-1.175,0.588
    c-0.539,0.27-1.029,0.441-1.274,0.979c-0.367,0.809-0.514,1.396-1.175,1.959c-0.686,0.588-1.225,0.834-1.861,1.471
    c-0.27,0.27-0.318,0.514-0.588,0.783c-0.416,0.416-0.71,0.661-1.273,0.783c-0.465,0.099-0.881,0.123-1.175,0.49
    c-0.074,0.098-0.024,0.27-0.098,0.393c-0.415,0.719-0.791,1.187-1.491,1.539c-0.287,0.094-0.598,0.329-0.958,0.42
    c-1.429,0.359-2.474,0.417-3.527,1.47c-0.637,0.636-0.931,1.14-1.469,1.86c-0.478,0.642-1.058,0.953-1.47,1.666
    c-0.225,0.39-0.125,0.734-0.196,1.176c-0.051,0.317-0.222,0.49-0.392,0.783c-0.539,0.93-1.004,1.471-1.861,2.156
    c-0.245,0.195-0.442,0.365-0.686,0.587c-0.32,0.292-0.686,0.44-0.686,0.882c0,0.686,0.072,1.127-0.098,1.764
    c-0.124,0.465-0.129,0.898-0.49,1.176c-0.471,0.359-0.956,0.056-1.568,0.098c-0.808,0.056-1.053,0.979-1.861,0.979
    c-0.343,0-0.441-0.392-0.784-0.392c-0.319,0-0.489,0.2-0.784,0.294c-0.782,0.249-1.225,0.417-1.959,0.784
    c-0.489,0.244-0.809,0.49-1.372,0.49c-0.221,0-0.393-0.126-0.587-0.098c-0.319,0.044-0.517,0.292-0.784,0.489
    c-0.295,0.218-0.581,0.418-0.686,0.783c-0.164,0.564,0.068,1.153-0.392,1.567c-0.244,0.22-0.586-0.223-0.784-0.49
    c-0.292-0.393-0.465-0.881-0.979-0.881c-0.171,0-0.397,0.023-0.392,0.195c0.024,0.855,0.587,1.298,0.587,2.156
    c0,1.051-0.515,1.567-0.881,2.547c-0.293,0.783-0.246,2.166-1.078,1.959c-0.392-0.098-0.784-0.197-1.176-0.295
    c-0.233-0.058-0.294,0.343-0.294,0.588c0,0.393,0.437,0.519,0.686,0.784c0.46,0.493,0.536,0.956,0.784,1.568
    c0.119,0.294,0.294,0.464,0.294,0.783c0,0.612-0.193,1.005-0.392,1.567c-0.217,0.613-0.33,1.021-0.686,1.567
    c-0.06,0.091-0.254,0.132-0.392,0.099c-0.522-0.131-1.036-0.307-1.567-0.392c-0.274-0.046-0.733-0.259-0.833,0
    c-0.259,0.669-0.081,1.44,0,2.154c0.067,0.603,0.294,1.177,0.441,1.764c0.14,0.559-0.426,0.854-0.588,1.371
    c-0.083,0.266,0.054,0.543-0.098,0.784c-0.264,0.42-0.735,0.466-1.176,0.687c-0.636,0.318-0.979,0.587-1.469,1.077
    c-0.245,0.244-0.395,0.51-0.686,0.686c-0.395,0.239-0.931,0.392-0.931,0.881c0,0.393,0.161,0.588,0.147,0.98
    c-0.01,0.293-0.147,0.49-0.147,0.783c0,0.318,0.343,0.465,0.343,0.784c0,0.195-0.122,0.374-0.294,0.392
    c-0.904,0.095-1.615-0.192-2.351,0.294c-0.487,0.321-0.613,0.735-0.979,1.177c-0.245,0.294-0.541,0.439-0.686,0.782
    c-0.124,0.294-0.144,0.542-0.294,0.784c-0.167,0.271-0.49,0.344-0.686,0.588s-0.128,0.514-0.3,0.808l0,0
    c0.129,0.119,0.258,0.254,0.397,0.417c0.294,0.344,0.563,0.539,0.686,0.979c0.062,0.233,0.074,0.43,0.246,0.588
    c0.232,0.221,0.49,0.221,0.784,0.344c0.306,0.122,0.49,0.232,0.783,0.392c0.331,0.184,0.441,0.417,0.735,0.637
    c0.135,0.099,0.245,0.122,0.392,0.196c0.331,0.183,0.465,0.392,0.784,0.588c0.307,0.183,0.49,0.344,0.784,0.539
    c0.907,0.612,1.384,1.126,1.959,2.058c0.171,0.281,0.294,0.477,0.441,0.784c0.257,0.514,0.354,0.855,0.588,1.371
    c0.135,0.317,0.318,0.477,0.49,0.783c0.355,0.624,0.526,1.041,0.636,1.764c0.062,0.379,0.111,0.6,0.196,0.98
    c0.098,0.391,0.16,0.721,0.49,0.93c0.27,0.171,0.502,0.171,0.784,0.344c0.465,0.28,0.625,0.783,1.176,0.783
    c0.245,0,0.355-0.135,0.587-0.195c0.221-0.063,0.38-0.026,0.587-0.099c0.098-0.037,0.098-0.147,0.196-0.195
    c0.662-0.332,1.078-0.382,1.764-0.638c0.539-0.196,0.87-0.271,1.371-0.539c0.552-0.293,0.833-0.735,1.47-0.735
    c0.233,0,0.355,0.098,0.588,0.098c0.11,0,0.221,0.063,0.294,0c0.049-0.036,0-0.158,0.049-0.195c0.196-0.146,0.331-0.342,0.588-0.342
    c0.244,0,0.379,0.133,0.587,0.243c0.172,0.086,0.196,0.294,0.392,0.294c0.257,0,0.331-0.294,0.587-0.294
    c0.343,0,0.441,0.393,0.784,0.393c0.159,0,0.233-0.146,0.392-0.146c0.098,0,0.122,0.085,0.196,0.146
    c0.159,0.135,0.196,0.281,0.244,0.489l-0.244,0.491l0.098,0.195c0.465,0.037,0.832,0.037,1.175,0.344
    c0.159,0.281,0.392,0.317,0.636,0.538c0.356,0.317,0.49,0.648,0.49,1.127c0,0.478-0.343,0.673-0.49,1.126
    c0.147-0.013,0.233-0.049,0.38-0.049c0.172,0,0.22,0.16,0.354,0.245c0.135,0.085,0.307,0.11,0.393,0.245
    c0.122,0.196,0.061,0.428,0.245,0.588c0.208,0.17,0.343,0.318,0.587,0.44c0.306,0.147,0.686,0.196,0.686,0.54
    c0,0.158-0.098,0.243-0.146,0.392c-0.123,0.392-0.159,0.673-0.442,0.979c-0.17,0.196-0.379,0.282-0.489,0.539
    c-0.123,0.281-0.062,0.502-0.146,0.784c-0.049,0.183-0.318,0.158-0.392,0.344c-0.074,0.207-0.074,0.365-0.147,0.587
    c-0.061-0.05-0.159-0.037-0.196-0.098c-0.123-0.209-0.159-0.43-0.392-0.539c-0.062-0.025-0.135,0.012-0.196,0
    c-0.441-0.086-0.722-0.049-1.176-0.099c-0.379-0.037-0.599-0.11-0.979-0.146c-0.465-0.05-0.771-0.038-1.175-0.246
    c-0.38-0.196-0.502-0.551-0.931-0.636c-0.184-0.038-0.293,0.061-0.49,0.048c-0.294-0.013-0.453-0.183-0.686-0.343
    c-0.588-0.404-0.858-0.748-1.47-1.127c-0.134-0.074-0.22-0.244-0.392-0.244c-0.098,0-0.11,0.122-0.196,0.146
    c-0.135,0.038-0.246,0.099-0.392,0.099c-0.367,0-0.441-0.368-0.735-0.588c-0.342-0.257-0.612-0.331-0.979-0.538
    c-0.698-0.404-1.126-0.65-1.764-1.127c-0.196,0.196-0.355,0.344-0.636,0.344c-0.307,0-0.441-0.331-0.441-0.638
    c0-0.43,0.245-0.649,0.245-1.078c0-0.172-0.257-0.172-0.392-0.244c-0.294-0.184-0.478-0.319-0.784-0.489
    c-0.331-0.185-0.514-0.356-0.882-0.49l-0.881,0.244l-0.196-0.048c0.024-0.32,0.196-0.479,0.196-0.797
    c0-0.147-0.037-0.232-0.05-0.379c-0.146,0.085-0.305,0.098-0.392,0.244c-0.073,0.122,0.013,0.257,0,0.392
    c-0.036,0.233-0.183,0.368-0.342,0.54c-0.049,0.061-0.037,0.158-0.098,0.196c-0.11,0.071-0.282,0.023-0.392,0.098
    c-0.318,0.231-0.343,0.575-0.343,0.979c0,0.501,0.306,0.771,0.637,1.126c0.049,0.061,0.037,0.147,0.098,0.196
    c0.122,0.109,0.294,0.121,0.392,0.245c0.208,0.244,0.196,0.477,0.294,0.784c0.306,0.929,1.028,1.309,1.959,1.615
    c0.673,0.22,1.102,0.245,1.764,0.49c0.318,0.11,0.489,0.28,0.783,0.441c0.833,0.44,1.372,0.636,2.204,1.078
    c0.809,0.427,1.347,0.562,2.205,0.881c0.637,0.231,0.943,0.525,1.568,0.783c0.392,0.16,0.636,0.232,1.028,0.392
    c0.392,0.16,0.587,0.33,0.979,0.491c0.551,0.22,0.845,0.427,1.371,0.686c0.282,0.133,0.49,0.133,0.784,0.244
    c0.613,0.22,0.956,0.416,1.568,0.638c1.408,0.524,2.18,0.942,3.527,1.615c0.465,0.233,0.748,0.379,1.225,0.588
    c0.943,0.429,1.567,0.514,2.547,0.834c0.857,0.28,1.311,0.623,2.155,0.929C47.167,198.643,47.731,198.999,48.723,199.49
    L48.723,199.49L48.723,199.49z" data-powertiptarget="cpmt-county"/>
</a>
<a xlink:href="/counties/gbpl">
<path class="county" fill="#F2F2F2" stroke="#8D8D8D" d="M104.442,174.642l1.135-0.894l0,0c0.661-0.248,1.28-1.892,1.845-2.457
    c1.104-1.104,1.888-3.012,2.473-4.445c0.318-0.779,1.127-0.834,1.419-1.604c0.444-1.169,1.094-2.198,1.885-3.188
    c0.583-0.094,0.635-0.938,1.378-1.096c1.329-0.283,2.8,0.057,4.075-0.447c2.315-0.915,2.785-9.136,5.047-9.136
    c0.438,0.878-0.422,2.015,1.176,2.132c0.949,0.069,1.014-0.603,1.5-1.381c0.526-0.843,1.828-1.369,2.615-2.031
    c0.671-0.561-0.304-2.294-0.304-3.146c0.103-1.189,1.316-1.125,2.25-1.238c1.646-0.198,4.257-1.505,5.676-2.375
    c0.739-0.453,2.562-1.76,3.426-1.178c0.451,0.303,1.499,1.324,1.622,1.848c0.133,0.568-0.555,1.373-0.912,1.766
    c-0.387,0.426-0.485,0.728-0.304,1.238c0.213,0.605-0.716,1.175-0.345,1.95c0.444,0.929,0.88,1.007-0.264,1.949
    c-0.3,1.071,1.449,6.756,2.797,5.907c1.93-1.214,1.953-2.938,4.399-3.613c1.041-0.287,2.821-1.389,3.243-2.336
    c0.581-1.301,5.305-3.41,6.588-2.639c1.057,0.636,2.245,0.525,3.304-0.283c1.445-1.105-0.723-1.861,1.723-2.214
    c1.45,0.292,1.596-1.377,2.737-1.827c0.369-0.146,0.797-0.229,1.175-0.346c0.699-0.215,1.042-1.064,1.521-1.543l1.602-0.486l0,0
    c0.269-0.506,0.612-1,1.074-1.34c0.325-0.24,0.799-0.48,1.054-0.792c0.451-0.552-0.06-1.478,0.73-1.929
    c0.288-0.434,1.421-0.991,1.134-1.482c-0.36-0.619-1.61-0.748-0.709-1.604c1.475-1.402,1.686-2.324,2.006-4.264
    c0.211-1.273,1.131-2.031,1.44-3.188c0.18-0.676,0.606-0.473,1.216-0.59c0.917-0.174,0.799-1.157,1.034-1.785
    c0.201-0.539,1.459-0.836,2.027-1.381c1.355-1.975-1.024-2.252-1.479-3.574c-0.612-1.776,1.453-2.268,2.311-3.126
    c0.882-0.884,0.067-1.732,0.406-2.66c0.473-1.298,1.536-1.149,2.655-1.198c1.768-0.076,2.123-2.613,0.588-3.431
    c-0.498-0.896-0.017-2.241-0.567-3.086c-0.573-0.878-1.223-1.505-1.521-2.558c-0.149-0.527-0.006-1.387-0.344-1.787
    c-0.619-0.732-1.871-1.29-2.757-1.686l-4.419-1.969c-2.565-1.284-4.951-1.901-7.317-3.654c-1.854-1.373-4.218-1.809-6.243-2.862
    c-1.226-0.638-2.006-1.708-3-2.559c-0.523-0.449-0.988,0.216-1.622,0.183c-1.598,0.7-7.513,3.917-8.311,0.69
    c-0.833,0-1.322,0.799-2.494,0.65c-0.999-0.128-2.519,0.146-3.405-0.203c-0.973-0.384,1.217-2.835,1.561-2.903
    c0.01-0.041,0.02-0.053,0.02-0.102c-0.623-0.21-2.34-0.285-3.081-0.285c-1.162,0-2.735,1.512-3.628,0.143
    c-0.581-0.891-0.595-0.389-1.743-0.284c-1.956,0.389-3.007-0.611-2.331-2.396c0.6-1.584,0.359-2.416-0.385-3.776
    c-0.456-0.833,1.077-1.206,1.135-1.909c0.154-1.875-0.164-1.8-1.683-0.995c-1.702,0.903-3.652,1.888-5.128,3.208
    c-0.425,0.379-2.841,2.633-2.777,1.279c0.033-0.686,0.679-2.265-0.263-2.497c-1.854-0.458-1.707-0.626-2.696-2.112
    c-0.941-1.413,1.076-1.322,1.804-2.599c0-2.05-2.413-0.702-2.797-1.888c-0.241-0.746-1.368-1.945-0.365-2.639
    c0.664-0.459,3.681-4.982,2.777-5.482c-0.177-0.098-1.768-0.467-1.946-0.467c-0.507,0-1.279,0.853-1.784,1.117l-3.102,1.624
    c-1.569,0.822-2.793-0.261-4.297,0.162c-0.635,0.033-1.066,0.193-1.581-0.223c-0.236-0.191-0.396-0.44-0.729-0.426
    c-1.014,0.041-1.776,1.117-2.879,1.117c-0.469,0-1.019,0.319-1.439,0.508c-0.977,0.437-1.643,1.021-2.716,1.401
    c-0.497,0.22-1.281,0.206-1.663-0.224c-0.286-0.322-0.764-0.425-1.013-0.812c-0.321-0.498-0.125-1.376-0.953-1.096
    c-0.455,0.153-1.209,0.467-1.662,0.467c-0.535,0-1.002,0.655-1.52,0.853l-2.833,0.021l0,0v17.207c-0.808,0-1.249,0.074-2.057,0.196
    c-0.196,0.024-0.294,0.196-0.49,0.196c-0.392,0-0.587-0.146-0.979-0.098c-0.441,0.049-0.612,0.392-0.979,0.588
    c-0.759,0.416-1.2,0.735-1.959,1.175c-0.441,0.246-0.735,0.466-1.176,0.686c-0.294,0.147-0.661,0.196-0.784,0.49
    c-0.098,0.27-0.098,0.514-0.196,0.784c-0.318,0.882-0.956,1.176-1.666,1.764c-0.808,0.686-1.078,1.371-1.666,2.253
    c-0.318,0.466-0.662,0.638-1.078,0.979c-0.857,0.735-0.931,1.494-1.666,2.352c-0.906,1.053-1.787,1.641-1.959,3.037
    c-0.098,0.808-0.22,1.592-0.98,1.861c-0.612,0.221-1.127,0.195-1.567,0.686c-0.539,0.612-0.196,1.371-0.784,1.959
    c-0.416,0.416-0.955,0.295-1.567,0.295c-0.024,0.465,0.098,0.759-0.098,1.175c-0.147,0.318-0.441,0.441-0.686,0.687
    c-0.956,0.955-1.788,1.199-3.037,1.763l0,0l1.612,1.039c1.105,0.222,2.183,0.685,3.345,0.792c1.943,0.18,4.138-0.436,6.162-0.447
    l3.547-0.02c0.602-0.004,1.615-0.392,1.946,0.283c0.656,1.34,1.21,1.366,1.257,3.005l0.102,3.533
    c1.094,0.708,2.345,1.022,3.648,1.076c0.981,0.04,1.883-0.914,2.878-0.914c0.28,0.847-0.203,1.499-0.729,2.152
    c-0.919,1.141,0.191,2.271,0.041,3.675c-0.076,0.706-0.78,2.332,0.243,2.762c0.838,0.351,2.11-0.225,2.979,0.345
    c0.67,0.438,0.663,0.954,1.642,1.075c1.039,0.129,6.464-0.509,5.716,1.178c0.132,1.454,0.265,1.684-0.689,2.822
    c-0.922,1.102-2.302,1.892-3.466,2.68c-0.622,0.422-1.276,0.731-1.885,1.219c-0.585,0.469-1.546,1.215-2.25,1.42
    c-1.42,1.371-3.768,1.697-5.189,3.27c-1.274,1.41-3.136,2.215-4.906,2.843c-2.987,1.06-3.295,3.019-5.352,5.075
    c-0.72,0.721-1.789,0.074-2.067,0.935c-0.157,0.484-0.55,0.476-0.994,0.507c-0.989,0.072-0.984,0.231-1.824,0.629
    c-0.167,0.604-0.512,0.753-1.115,0.834c-0.598,0.079-0.498,0.403-0.791,0.812c-0.532,0.739-3.201,1.871-4.135,2.437
    c-1.275,0.771-2.167,1.198-2.534,2.699c-0.417,1.712-2.633,1.103-3.71,1.848c-0.679,0.471,0.708,1.142,0.831,1.666
    c0.145,0.615,0.314,1.436,0.102,2.07l0,0c1.756,0.408,2.444,0.178,4.034,1.178c1.737,1.092,3.854,1.978,5.615,0.486
    c1.619-1.369,1.286-2.375,3.02-0.771l2.393,2.214c0.712,0.658,2.423,2.203,2.432,3.086l0.021,2.01
    c0.007,0.774-0.426,1.422-0.426,2.172c0.802,1.606,1.21,4.388,3.244,2.092c1.638-1.85,3.625-4.291,5.615-5.726
    c0.929-0.669,3.118,0.199,4.156,0.406c1.982,0.396,3.105,1.535,4.885,2.232c0.903,0.198,1.782,0.069,2.575,0.65
    c0.774,0.567,1.303,1.254,2.169,1.746C102.385,174.749,103.436,174.58,104.442,174.642L104.442,174.642L104.442,174.642z"
    data-powertiptarget="gbpl-county"/>
</a>
<a xlink:href="/counties/mgbi">
<path class="county" fill="#F2F2F2" stroke="#8D8D8D" d="M115.449,180.549c1.162-0.044,2.476-0.184,3.608,0.062
    c1.575,0.342,2.968,1.589,4.662,1.138c0.744-0.199,1.513-0.786,2.271-1.076c0.988-0.38,2.076-0.55,3.102-0.833
    c0.674-0.144,2.152-0.688,2.27-1.523c0.828-0.329,1.587-0.752,2.534-0.12c0,1.074,0.008,1.746,0.264,2.801
    c0.174,0.717-0.094,1.292,0.041,1.97c0.238,1.197,0.771,1.644,0.547,2.983c-0.165,0.988-0.332,1.756-0.243,2.722
    c0.75,0.538,2.752,0.283,3.73,0.283c1.533,0,3.272-0.276,4.783-0.039c2.125,0,2.045-0.127,2.453,1.705
    c0.018,0.081,0.179,2.55,0.608,1.929c1.142-1.654,1.104-4.078,3.831-4.162c2.217-0.069,3.024,1.569,4.744,1.848
    c2.081,0.337,2.716-1.065,4.459-1.604c1.136-0.351,1.686,0.398,2.736,0.508c4.59,0.477,5.336-1.005,7.521-4.446
    c0.396-0.451,0.55-1.091,0.771-1.645c0.475-1.197,0.588-0.771,1.439-0.203c1.125,0.75,2.525,1.573,3.791,2.051
    c0.971,0.365,1.778,1.516,1.845,2.538l0,0l-0.486,3.228c-0.587,1.768-0.606,3.761-1.602,5.4c-0.912,1.501-2.146,2.518-3.547,3.513
    c-0.904,0.642-2.077,0.393-2.959,0.914c-1.322,0.78-2.121,3.109-3.709,3.248c-2.149,1.328-5.58,2.893-8.108,2.314
    c-2.991-0.684-4.883,1.138-5.979-2.6c-0.177-0.604-1.74-2.643-2.332-1.604c-0.388,0.683-0.835,1.93-1.459,2.375
    c-0.627,1.396-0.877,3.118-2.25,4.102c-0.831,0.596-2.654,1.021-3.648,0.69c-0.751-0.25-1.004-1.222-1.845-1.522
    c-1.354-0.483-2.047-0.347-2.939-1.665c-0.65-0.961-1.621-3.331-3.082-1.867c-0.759,0.759-0.995-0.457-1.622-0.65
    c-0.875-0.27-1.9,1.065-2.939,0.994c-1.977-0.135-1.115-0.163-1.115,1.483c0,1.634,1.353,1.802,1.5,3.086
    c0.125,1.138,1.153,1.439,0.243,2.76c-0.521,0.758-1.552,1.648-2.291,2.213c-2.25,1.725-0.76,3.475-1.338,5.867
    c-0.28,1.162-1.951,2.117-2.817,2.943c-0.527,0.504-0.498,1.486-0.791,2.113c-0.187,0.98,0.861,1.744-0.142,2.537
    c-0.676,0.535-1.65,0.088-1.865,1.359c-0.313,1.863-2.774,3.299-2.027,5.4c0.257,0.725,0.929,2.553-0.182,2.924l-1.269,2.174l0,0
    l-0.122,0.197c0.024,0.33,0,0.502,0,0.832h-0.403c-0.172,0-0.246-0.098-0.404-0.146c-0.294-0.086-0.49-0.135-0.784-0.246
    c-0.466-0.17-0.784-0.221-1.225-0.439c-0.33-0.16-0.49-0.369-0.784-0.588c-0.146-0.111-0.294-0.135-0.392-0.295
    c-0.184-0.307-0.146-0.611-0.44-0.832c-0.135-0.098-0.281-0.123-0.441-0.146c-0.489-0.098-0.856,0.023-1.273-0.246
    c-0.146-0.086-0.208-0.232-0.343-0.342c-0.257-0.221-0.465-0.283-0.784-0.393c-1.102-0.404-1.763-0.625-2.694-1.322l0.049,0.244
    c0.159,0.43,0.135,0.857,0.539,1.078c0.404,0.221,0.857,0.023,1.127,0.393c0.196,0.27,0.22,0.502,0.392,0.783
    c0.306,0.502,0.723,0.783,1.322,0.783c0.171,0,0.282,0,0.441-0.049c0.159-0.049,0.22-0.195,0.392-0.195
    c0.245,0,0.367,0.098,0.588,0.195c0.331,0.146,0.514,0.295,0.734,0.588c0.172,0.232,0.221,0.49,0.49,0.588
    c0.135,0.049,0.258,0.025,0.392,0.049c0.245,0.037,0.392,0.209,0.637,0.244c0.294,0.037,0.563-0.047,0.784,0.148
    c0.367,0.318,0.196,0.771,0.244,1.273c0.05,0.416,0.196,0.625,0.294,1.027c-0.501-0.367-0.784-0.66-1.372-0.881
    c-0.306-0.109-0.49-0.146-0.784-0.293c-0.575-0.295-0.856-0.625-1.469-0.832c-1.065-0.369-1.69-0.613-2.744-1.031
    c-0.392-0.146-0.612-0.342-1.028-0.439c-0.735-0.184-1.176-0.332-1.862-0.637c-0.563-0.258-0.881-0.453-1.469-0.637
    c-1.311-0.404-2.045-0.723-3.38-1.078c-0.404-0.098-0.625-0.258-1.028-0.344c-1.261-0.27-2.033-0.184-3.282-0.488
    c-0.624-0.258-0.931-0.344-1.617-0.441c-0.563-0.086-0.869-0.209-1.42-0.344c-0.146-0.035-0.245-0.121-0.392-0.146
    c-0.392-0.074-0.649-0.061-1.028-0.195c-0.527-0.189-0.877-0.338-1.357-0.459l0,0l0.815-1.293c0.299-0.416-1.913-3.754-1.765-5.197
    c0.182-1.775,1.62-3.203,2.595-4.588c0.629-0.895,0.888-2.797,1.642-3.453c0.626-0.543,5.397-0.168,6.466-0.061
    c1.052,0.107,2.281,0.566,3.324,0.428c1.239-0.166,2.508-0.691,3.771-0.691c0.683-0.057,1.254,0.137,1.763-0.344
    c0.527-0.5,2.215-0.227,2.351-0.914c0.126-0.633-0.586-1.207-0.547-1.908c0.037-0.656,1.523-2.082,1.986-2.6
    c0.909-1.016,1.302-2.5,1.744-3.777c0.744-1.786,0.445-4.229,0.648-6.15c0.101-0.953,0.041-2.693-0.466-3.513
    c-0.432-0.698-1-1.239-1.521-1.848c-0.918-1.074-0.794-1.764-2.027-2.6c-0.972-0.658-2.982-0.671-1.622-2.597
    c0.559-0.449,0.646-1.218,1.155-1.728c0.769-0.77,1.853-0.765,2.615-1.685c1.063-1.282,2.003-2.892,1.784-4.608
    c-0.093-0.725,0.153-1.412,0.122-2.132L115.449,180.549L115.449,180.549L115.449,180.549z"
    data-powertiptarget="mgbi-county"/>
</a>
<a xlink:href="/counties/bomi">
<path class="county" fill="#F2F2F2" stroke="#8D8D8D" d="M61.752,162.46c1.756,0.408,2.444,0.178,4.034,1.178c1.737,1.092,3.854,1.978,5.615,0.486
    c1.619-1.369,1.286-2.375,3.02-0.771l2.393,2.214c0.712,0.658,2.423,2.203,2.432,3.086l0.021,2.01
    c0.007,0.774-0.426,1.423-0.426,2.172c0.801,1.606,1.21,4.388,3.243,2.092c1.638-1.85,3.625-4.291,5.615-5.726
    c0.929-0.669,3.118,0.199,4.156,0.406c1.982,0.396,3.105,1.535,4.885,2.232c0.903,0.198,1.782,0.069,2.574,0.651
    c0.774,0.566,1.303,1.253,2.169,1.745c0.903,0.513,1.954,0.344,2.96,0.406l0,0c1.653,3.522-4.872,1.813-6.163,3.554
    c-0.427,0.575-0.871,0.567-0.973,1.4c-0.135,1.105-0.06,1.961-0.689,2.964c-0.357,0.57-0.716,2.625-0.75,3.309
    c0.488,0.979-0.39,1.229-0.831,1.95c-0.382,0.623,0.155,1.052-0.568,1.664c-0.541,0.458-0.35,0.895-0.486,1.503
    c-0.174,0.775-1.377,1.702-1.865,2.354c-1.256,1.677-1.019,3.957-3.224,4.975c-2.292,1.059-3.766,1.338-5.574,3.288
    c-0.831,2.998-3.632,2.679-6.162,3.005c-0.52,0.067-2.262-0.255-2.514-0.081c-0.33,0.229,0.023,1.544-0.081,1.949
    c-0.812,3.17-3.044,1.985-5.291,2.518c-1.592,0.378-1.901-1.402-1.743-2.577c0.178-1.324-0.923-2.687-1.459-3.858
    c-0.068-0.729-0.404-1.737-1.156-1.97c-0.509-0.157-1.199,0.232-1.784,0.143c-0.375-0.059-0.944-0.029-1.257,0.203
    c-0.323,0.24-0.616,1.011-0.811,1.401c-0.351,0.702-0.939,2.202-1.123,2.981l0,0c-0.465-0.281-0.771-0.416-1.175-0.783
    c-0.956-0.882-1.849-0.943-2.891-1.715c-0.501-0.184-0.734-0.307-1.224-0.539c-0.147-0.061-0.294-0.061-0.441-0.146
    c-0.318-0.185-0.49-0.368-0.833-0.49c-0.722-0.271-1.09-0.54-1.812-0.784c-0.343-0.11-0.552-0.245-0.882-0.393
    c-0.379-0.171-0.624-0.244-0.98-0.44c-0.367-0.208-0.599-0.355-0.979-0.539l0,0l0.097-2.025c0.171-0.756-1.273-2.014-0.771-2.7
    l1.5-2.051c0.568-0.777,2.995,0.04,4.156-1.319c0.41-0.48,0.148-1.2,0.081-1.747c-0.096-0.785,1.593-1.707,2.068-2.396
    c0.531-0.769,1.259-0.245,1.804-0.751c0.611-0.567,1.049-2.077,1.318-2.842c0.351-0.999-1.324-1.788-0.75-3.229
    c0.57-0.909,1.582-2.622,0.304-3.228c-0.9-0.428-1.891-1.2-1.561-2.274c0.299-0.974,0.803-1.02,1.5-1.583
    c0.897-0.726,1.271-2.063,1.642-3.106c0.535-1.505,1.147-2.606,1.216-4.284c0.046-0.246,0.124-0.455,0.02-0.69
    c-0.122-0.275-0.347-0.513-0.446-0.812c-0.154-0.465-0.057-0.949,0.284-1.32L61.752,162.46L61.752,162.46L61.752,162.46z"
    data-powertiptarget="bomi-county"/>
</a>
<a xlink:href="/counties/mont">
<path class="county" fill="#F2F2F2" stroke="#8D8D8D" d="M104.442,174.642l1.135-0.894l0,0c-0.072,0.134,1.07,1.454,1.358,1.786
    c0.803,0.928,0.836,2.474,2.271,2.722c1.489,0.256,2.822,0.536,4.155,1.38l2.088,0.913l0,0l0.101,2.295
    c0.031,0.72-0.214,1.407-0.122,2.132c0.219,1.717-0.721,3.326-1.784,4.608c-0.763,0.92-1.847,0.915-2.615,1.685
    c-0.509,0.51-0.596,1.278-1.155,1.728c-1.36,1.926,0.649,1.938,1.622,2.597c1.233,0.836,1.109,1.526,2.027,2.6
    c0.52,0.608,1.088,1.149,1.521,1.848c0.507,0.819,0.566,2.56,0.466,3.513c-0.203,1.922,0.096,4.364-0.648,6.15
    c-0.441,1.276-0.835,2.761-1.744,3.777c-0.463,0.518-1.949,1.943-1.986,2.6c-0.04,0.701,0.673,1.275,0.547,1.908
    c-0.136,0.688-1.824,0.414-2.351,0.914c-0.509,0.48-1.081,0.287-1.763,0.344c-1.263,0-2.532,0.525-3.771,0.691
    c-1.043,0.139-2.272-0.32-3.324-0.428c-1.069-0.107-5.84-0.482-6.466,0.061c-0.754,0.656-1.012,2.559-1.642,3.453
    c-0.975,1.385-2.413,2.813-2.595,4.588c-0.148,1.443,2.063,4.781,1.765,5.197l-0.815,1.293l0,0c-0.111-0.027-0.229-0.055-0.357-0.08
    c-1.188-0.244-1.862-0.342-3.038-0.637c-0.869-0.209-1.371-0.246-2.253-0.391c-0.404-0.063-0.722-0.088-1.028-0.344
    c-0.074-0.063-0.085-0.135-0.147-0.197c-0.318-0.318-0.551-0.525-0.734-0.93c-0.098-0.232-0.147-0.393-0.294-0.588
    c-0.318-0.404-0.686-0.453-1.176-0.588c-0.587-0.16-0.869-0.391-1.421-0.637c-0.66-0.295-1.102-0.344-1.763-0.637
    c-0.747-0.33-1.029-0.809-1.764-1.176c-0.44-0.221-0.747-0.295-1.175-0.539c-0.624-0.355-0.906-0.697-1.519-1.078
    c-0.331-0.195-0.527-0.367-0.735-0.686c-0.085-0.135-0.146-0.27-0.244-0.391c-0.11-0.135-0.343-0.16-0.343-0.344
    c0-0.281,0.282-0.355,0.441-0.588c0.135-0.209,0.208-0.355,0.294-0.588c0.404,0.539,0.771,0.771,1.175,1.322
    c0.233,0.332,0.171,0.625,0.392,0.98c0.147,0.246,0.392,0.344,0.686,0.344c0.588,0,0.882-0.295,1.47-0.295
    c0.416,0,0.649,0.197,0.979,0.441c0.44,0.33,0.723,0.502,1.176,0.832c0.135,0.098,0.257,0.146,0.342,0.293
    c0.147,0.258,0.062,0.516,0.196,0.785c0.037,0.086,0.123,0.098,0.196,0.146c0.283,0.221,0.515,0.344,0.882,0.344
    c0.454,0,0.723-0.209,1.029-0.539c0.074-0.086,0.196-0.123,0.196-0.246c0-0.623-0.49-0.881-0.784-1.42l0.147-0.588
    c-0.183-0.33-0.269-0.588-0.588-0.783c-0.44-0.27-0.747-0.332-1.224-0.539c-0.637-0.281-0.956-0.551-1.567-0.883
    c-0.22-0.109-0.331-0.342-0.588-0.342c-0.54,0-0.869,0.109-1.371,0.293c-0.588,0.221-0.747,0.834-1.372,0.834
    c-0.306,0-0.429-0.307-0.539-0.588c-0.098-0.258-0.245-0.404-0.245-0.686c0-0.283,0.208-0.43,0.294-0.686
    c0.196-0.527,0.208-0.871,0.294-1.422c0.049-0.293,0.147-0.477,0.147-0.783c0-0.748-0.306-1.15-0.637-1.813
    c-0.183-0.379-0.318-0.625-0.539-0.98c-0.098-0.158-0.22-0.219-0.294-0.391c-0.403-0.943-0.538-1.617-1.322-2.303
    c-0.343-0.293-0.649-0.355-0.98-0.686c-0.588-0.588-0.784-1.041-1.323-1.666c-0.122-0.146-0.159-0.256-0.294-0.391
    c-0.257-0.258-0.49-0.344-0.784-0.539c-0.478-0.318-0.686-0.625-1.176-0.931c-0.232-0.135-0.392-0.245-0.588-0.441
    c-0.379-0.379-0.673-0.551-1.126-0.832c-0.649-0.404-0.98-0.711-1.568-1.225c-0.416-0.355-0.747-0.453-1.175-0.784
    c-0.233-0.171-0.307-0.379-0.54-0.539c-0.355-0.232-0.612-0.33-0.979-0.538c-0.624-0.355-0.894-0.747-1.519-1.127l0,0
    c0.184-0.779,0.772-2.279,1.123-2.981c0.194-0.391,0.488-1.161,0.811-1.401c0.313-0.232,0.882-0.262,1.257-0.203
    c0.584,0.09,1.274-0.3,1.784-0.143c0.751,0.232,1.088,1.24,1.156,1.97c0.536,1.172,1.637,2.534,1.459,3.858
    c-0.158,1.175,0.151,2.955,1.743,2.577c2.247-0.532,4.479,0.652,5.291-2.518c0.104-0.405-0.249-1.72,0.081-1.949
    c0.252-0.174,1.994,0.148,2.514,0.081c2.53-0.326,5.331-0.007,6.162-3.005c1.808-1.95,3.282-2.229,5.574-3.288
    c2.205-1.018,1.967-3.298,3.224-4.975c0.488-0.652,1.69-1.579,1.865-2.354c0.137-0.608-0.055-1.045,0.486-1.503
    c0.723-0.612,0.186-1.041,0.568-1.664c0.441-0.722,1.319-0.971,0.831-1.95c0.034-0.684,0.393-2.738,0.75-3.309
    c0.629-1.003,0.554-1.858,0.689-2.964c0.102-0.833,0.546-0.825,0.973-1.4C99.57,176.455,106.095,178.164,104.442,174.642
    L104.442,174.642L104.442,174.642z" data-powertiptarget="mont-county"/>
</a>
<a xlink:href="/counties/bong">
<path class="county" fill="#F2F2F2" stroke="#8D8D8D" d="M115.449,180.549c1.162-0.044,2.476-0.184,3.608,0.062
    c1.575,0.342,2.968,1.589,4.662,1.138c0.744-0.199,1.513-0.786,2.271-1.076c0.988-0.38,2.076-0.55,3.102-0.833
    c0.674-0.144,2.152-0.688,2.27-1.523c0.828-0.329,1.587-0.752,2.534-0.12c0,1.074,0.008,1.746,0.264,2.801
    c0.174,0.717-0.094,1.292,0.041,1.97c0.238,1.197,0.771,1.644,0.547,2.983c-0.165,0.988-0.332,1.756-0.243,2.722
    c0.75,0.538,2.752,0.283,3.73,0.283c1.533,0,3.272-0.276,4.783-0.039c2.125,0,2.045-0.127,2.453,1.705
    c0.018,0.081,0.179,2.55,0.608,1.929c1.142-1.654,1.104-4.078,3.831-4.162c2.217-0.069,3.024,1.569,4.744,1.848
    c2.081,0.337,2.716-1.065,4.459-1.604c1.136-0.351,1.686,0.398,2.736,0.508c4.59,0.477,5.336-1.005,7.521-4.446
    c0.396-0.451,0.55-1.091,0.771-1.645c0.475-1.197,0.588-0.771,1.439-0.203c1.125,0.75,2.525,1.573,3.791,2.051
    c0.971,0.365,1.778,1.516,1.845,2.538l0,0c1.692,0.371,2.896,1.903,3.345,3.431c0.22,0.751,0.455,0.769,1.156,1.035
    c1.212,0.464,1.856,1.278,3.02,1.869c2.778,1.408,6.182,3.02,4.216,6.516l-1.986,5.503c-0.756,2.094-3.651,4.76-3.913,6.536
    c-0.218,1.49,0.833,1.42-0.263,2.863c-0.243,0.32-0.364,1.488-0.264,1.889c1.972,0.486,1.147,0.125,2.007-1.096
    c1.278-1.816,4.327-2.613,5.96-4.346c1.57-1.666,2.803-0.324,4.642-0.324c1.34,0,3.083-0.657,3.142-2.213
    c0.051-1.338,1.425,0.041,2.25-0.325c0.776-0.344,0.99-1.09,1.966-1.339c0.516-0.133,1.036,0.133,1.561-0.081
    c1.762-0.72,1.43-2.66,2.838-3.716c0.406-0.246,0.681-1.47,1.054-1.26c0.479,0.271,0.458,1.057,1.338,0.752
    c0.909-0.314,1.284-2.313,1.986-3.066c0.73-0.779,2.088-0.931,2.636-1.705c1.011-1.433-0.196-2.833,2.048-0.995
    c0.686,0.563-0.588,2.838,1.945,1.89c2.003-0.751,5.835-1.043,7.338-2.478c0.284-0.271,0.916-0.904,1.357-0.67
    c0.633,0.334,0.221,1.302,1.4,0.894c0.904-0.314,1.487-0.872,2.513-1.076l0,0l0.364-1.218c0.103-0.308,0.166-0.642,0.264-0.955
    c0.092-0.29,0.14-0.451,0.041-0.75c-0.139-0.418-0.527-0.804-0.527-1.239c0-0.383,0.467-0.609,0.709-0.853
    c0.248-0.549,0.386-1.028,0.386-1.625c0-0.399-0.364-0.588-0.364-0.994c0-1.354,1.502-0.751,1.864-1.706
    c0.202-0.532-0.182-0.917,0.324-1.401c0.735-0.701,0.734-0.905,0.122-1.826c-0.882-1.324,0.434-1.624,1.297-2.233
    c0.511-0.36,0.9-0.823,1.42-1.198c1.631-1.179,1.9-2.073,0.75-3.572c-0.87-0.774-1.4-1.153-1.4-2.417
    c0-1.048,0.106-1.946-0.607-2.802c-0.498-0.599-1.316-0.548-1.783-1.076c-0.196-0.22-1.29-2.217-1.358-2.517
    c-0.103-0.454-0.188-1.055-0.425-1.441c-0.604-0.979-1.969-2.076-2.777-2.985c-0.404-0.454,1.361-1.024,1.641-1.218
    c1.518-0.91-0.553-1.721-0.526-2.314c0.055-1.213,1.621-1.011,1.621-2.173c0-0.582-0.759-0.905-0.851-1.481
    c-0.147-0.916,0.834-1.291,1.418-1.705c1.262-0.897,1.535-1.209,1.582-2.843c0.047-1.638,1.318-2.608,1.318-4.162
    c0-0.901,0.434-1.507,0.566-2.356l0.195-3.066l0,0c-0.025-0.466-0.516-1.719-0.516-2.186c0-0.808,0.783-1.126,0.783-1.934
    c0-0.343-0.221-0.49-0.392-0.784c-0.342-0.588-0.588-0.955-0.882-1.567c-0.416-0.857-0.709-1.861-1.689-1.861h-2.303
    c-0.342,0-0.49-0.196-0.809-0.294c-1.053-0.368-1.518-1.005-2.252-1.861c-0.687-0.808-1.004-1.396-1.471-2.351
    c-0.195-0.417-0.537-0.662-0.537-1.152c0-0.514,0.048-0.783,0.048-1.297c-0.048-0.393,0.099-0.784,0.099-1.176v-1.396
    c0-0.294,0.049-0.539-0.099-0.759c-0.417-0.563-1.054-0.49-1.764-0.49c-0.686,0-1.101,0-1.763,0.099
    c-0.906,0.146-1.42,0.489-2.352,0.489c-0.662,0-1.322-0.073-1.567-0.686c-0.44-1.054-0.318-1.862-0.882-2.841
    c-0.318-0.564-0.637-1.078-1.297-1.078h-1.912c-0.783,0-1.199-0.49-1.983-0.49c-0.808,0-1.126,0.711-1.567,1.372
    c-0.416,0.638-0.979,0.808-1.372,1.47c-0.342,0.563-0.611,1.176-1.273,1.176c-0.759,0-0.882-0.956-1.078-1.666
    c-0.122-0.416-0.146-0.979-0.588-0.979c-0.49,0-0.709,0.245-1.176,0.392c-0.465,0.147-0.759,0.147-1.175,0.392
    c-0.515,0.294-0.563,0.784-0.882,1.274c-0.514,0.783-1.078,1.127-1.666,1.861c-0.49,0.637-0.759,1.371-1.567,1.371l0,0
    c-0.784,0.785-0.974,2.52-1.489,3.494c-0.412,0.779-1.649,0.988-2.332,1.645c-1.735,1.673-4.571,2.455-6.79,3.533
    c-0.773,0.375-1.407,0.234-2.148,0.446c-0.875,0.249-1.41,0.919-2.21,1.157c-0.985,1.29-0.852,1.55-0.021,2.822
    c0.794,1.216-0.953,1.194-0.953,2.07c0,0.894-0.106,1.18-0.973,1.523c-1.205,0.476-1.798-0.033-2.838,0.02
    c-1.284,0.065-1.994,1.08-2.919,1.766c-0.993,0.738-4.57,0.512-5.595-0.182c-0.72-0.488-1.926-1.264-2.696-1.604l0,0l-1.601,0.486
    c-0.479,0.479-0.822,1.328-1.521,1.543c-0.378,0.116-0.807,0.2-1.176,0.346c-1.141,0.45-1.287,2.119-2.737,1.827
    c-2.446,0.353-0.277,1.108-1.723,2.214c-1.059,0.809-2.247,0.919-3.304,0.283c-1.283-0.771-6.007,1.338-6.588,2.639
    c-0.422,0.947-2.203,2.049-3.243,2.336c-2.446,0.676-2.468,2.399-4.398,3.613c-1.349,0.849-3.098-4.836-2.798-5.907
    c1.144-0.942,0.708-1.021,0.264-1.949c-0.372-0.775,0.558-1.345,0.345-1.95c-0.181-0.511-0.083-0.813,0.304-1.238
    c0.358-0.393,1.046-1.197,0.913-1.766c-0.124-0.523-1.171-1.545-1.622-1.848c-0.864-0.582-2.687,0.725-3.425,1.178
    c-1.419,0.87-4.03,2.177-5.676,2.375c-0.934,0.113-2.147,0.049-2.25,1.238c0,0.853,0.975,2.586,0.304,3.146
    c-0.788,0.662-2.089,1.188-2.615,2.031c-0.485,0.778-0.551,1.45-1.5,1.381c-1.598-0.117-0.738-1.254-1.176-2.132
    c-2.262,0-2.732,8.221-5.047,9.136c-1.274,0.504-2.746,0.164-4.074,0.447c-0.744,0.158-0.795,1.002-1.379,1.096
    c-0.791,0.99-1.441,2.02-1.885,3.188c-0.292,0.77-1.101,0.824-1.418,1.604c-0.585,1.434-1.37,3.342-2.473,4.445
    c-0.564,0.565-1.184,2.209-1.845,2.457l0,0c-0.072,0.134,1.07,1.454,1.358,1.786c0.803,0.928,0.835,2.474,2.271,2.722
    c1.488,0.256,2.822,0.536,4.155,1.38L115.449,180.549L115.449,180.549L115.449,180.549z" data-powertiptarget="bong-county"/>
</a>
<a xlink:href="/counties/rcss">
<path class="county" fill="#F2F2F2" stroke="#8D8D8D" d="M230.038,224.363c1.884,2.547,5.107,4.037,7.886,5.482
    c3.761,1.957,1.387,3.912,0.506,6.781c-0.28,1.33-1.018,2.346-1.479,3.553c-0.525,1.373-1.023,3.25-2.615,3.492
    c-2.168,0.33-4.209,1.326-6.184,2.172c-1.25,0.627-2.485,0.352-3.223,1.686c-0.578,1.049,0.079,1.664,1.115,1.664
    c0.795,0,1.866-0.539,2.655-0.75c1.155-0.311,2.001,1.377,2.858,1.928c0.484,0.313,0.865,0.885,1.357,1.219
    c0.299,0.203,0.521,0.479,0.852,0.65c0.41,0.211,0.946,0.166,1.379,0.344c1.352,0.078,5.527,4.428,2.818,4.428
    c-1.595,0-0.85,0.488-1.096,1.887c-0.193,1.107,1.393,1.443,1.258,2.518c-1.871,1.072,0.84,4.525,1.54,5.482
    c0.054,0.357,0.265,0.652-0.081,0.873c-0.413,0.264-0.987,0.361-1.014,0.975c-0.017,0.387-0.045,0.738-0.143,1.115
    c-0.148,0.582-0.783,0.682-1.195,1.016c-0.512,0.414-0.71,0.982-0.71,1.645l0,0l-1.723,1.645l-0.892,1.584
    c-0.324,0.297-0.494,0.818-0.852,1.057c-0.275,0.184-0.621,0.109-0.893,0.305c-0.639,0.461-0.301,1.01-0.647,1.541
    c-0.227,0.348-0.665,0.463-0.872,0.834c-0.813,1.453,2.227,3.135,1.277,3.836c-0.505,0.375-2.477,1.32-3.081,1.441
    c-0.617,0.125-0.774-0.561-1.501-0.283c-0.836,0.318-1.331,1.197-2.128,1.604l-3.061,1.563c-1.114,0.57-2.166,1.412-3.284,1.91
    c-0.893,0.781-1.152,1.389-1.805,2.293c-0.41,0.572-1.461,0.381-2.006,0.996c-1.496,1.689-2.615,0.02-2.615,2.801
    c0,3.502,1.605,6.377,2.352,9.645c0,2.691,0.492,5.633-0.953,8.061c-0.933,1.566-4.098,4.223-4.256,5.988
    c-0.449,0.314-0.66,1.92-1.236,2.416l-2.115,3.768l0,0c-0.282-0.189-0.576-0.389-0.911-0.637c-0.441-0.33-0.759-0.428-1.175-0.783
    c-0.221-0.184-0.307-0.379-0.54-0.539c-0.22-0.146-0.403-0.221-0.538-0.441c-0.257-0.404-0.209-0.846-0.588-1.125
    c-0.417-0.32-0.723-0.381-1.176-0.639c-0.282-0.195-0.54-0.428-0.54-0.783c0-0.195,0.098-0.293,0.098-0.49
    c0-0.098-0.134-0.098-0.196-0.146c-0.122-0.111-0.257-0.172-0.392-0.244c-0.281-0.172-0.367-0.418-0.44-0.734
    c-0.111-0.441-0.442-0.588-0.784-0.883c-0.208-0.172-0.344-0.307-0.588-0.441v-0.99c0-0.857,0.073-1.508-0.49-2.145
    c-0.233-0.27-0.478-0.355-0.784-0.539c-0.307-0.184-0.502-0.318-0.784-0.537c-0.147-0.111-0.171-0.246-0.294-0.393
    c-0.367-0.428-0.6-0.711-1.029-1.078c-0.196-0.16-0.367-0.244-0.588-0.391c-0.563-0.369-0.966-0.467-1.567-0.785
    c-0.526-0.281-0.82-0.465-1.372-0.686c-0.575-0.232-0.954-0.342-1.567-0.441c-0.379-0.061-0.624-0.084-0.979-0.244
    c-0.208-0.086-0.441-0.16-0.441-0.393c0-0.244,0.233-0.33,0.342-0.537c0.135-0.258,0.185-0.637,0.49-0.637
    c0.086,0,0.111,0.098,0.196,0.098c0.098,0,0.147-0.049,0.246-0.049v-1.189c0-0.783-0.576-1.102-1.127-1.652
    c-0.269-0.27-0.477-0.379-0.784-0.588c-0.392-0.27-0.575-0.49-0.98-0.734c-0.305-0.184-0.453-0.381-0.784-0.539
    c-0.22-0.111-0.403-0.146-0.636-0.244c-0.551-0.258-0.858-0.418-1.372-0.736c-0.417-0.256-0.588-0.502-0.979-0.783
    c-0.074-0.049-0.074-0.146-0.148-0.195c-0.281-0.184-0.501-0.221-0.784-0.393c-0.318-0.197-0.477-0.379-0.784-0.588
    c-0.734-0.502-0.967-1.078-1.764-1.469c-0.722-0.355-1.052-0.699-1.763-1.078c-0.538-0.281-0.856-0.416-1.372-0.734
    c-0.22-0.135-0.392-0.246-0.49-0.49l0,0l0.283-1.662c0.214-0.605,1.091-0.662,1.601-1.016c1.017-0.707,0.211-2.248,1.114-2.902
    c1.299-0.943,3.343-0.852,3.224-3.025l-0.122-2.213c-0.061-1.107-0.853-1.689-1.155-2.6c-0.201-0.645-0.611-1.293-0.852-1.969
    c-0.463-1.305,1.314-1.039,1.521-2.336c0.125-0.781-0.069-1.367-0.506-1.988c-0.697-0.988,0.02-2.26,0.02-3.412
    c0-0.596,0.598-0.979,0.75-1.563c0.187-0.717-0.089-1.367,0.143-2.131c0.522-0.375,1.007-1.221,1.033-1.869
    c0.028-0.686,0.465-1.129,0.487-1.705c0.043-1.129-0.973-2.088-1.156-3.146c-0.135-0.785,1.101-1.109,0.75-1.949
    c-0.765-1.836,0.872-1.648,0.872-3.209c0-0.818,0.336-1.014,0.587-1.725c0.31-0.875-0.605-1.57-0.648-2.396
    c0.292-1.863,0.533-2.475,2.695-2.963c3.145-0.711,0.241-4.934,3.528-4.934c2.145,0,3.453-0.344,4.804,1.359
    c0.236,0.299,1.435,2.756,1.844,1.504c0.217-0.666-0.094-1.445,0.365-2.396l0.811-1.686c0.396-0.824,1.261-1.723,1.804-2.537
    c0.839-1.262,2.518-1.068,3.831-1.281c-0.006,0.002,3.304,0.648,3.183-0.75c-0.082-0.941,0.266-1.959-0.021-2.822
    c-0.448-1.35,0.03-2.973,0.081-4.385c0.056-1.549,0.077-3.633-0.182-5.158c0.146-1.234-1.034-2.182-1.034-3.613
    c0.445-0.254,2.052-0.084,2.676-0.201c1.742-0.332,3.105-1.42,4.905-1.787c1.743-0.357,6.616-0.111,7.703-1.604
    c1.609-2.211,4.602-0.355,6.872-0.549c-0.139,0.02-0.101-0.037-0.081,0.061c0.485,0,0.984,0.072,1.479,0.061
    c0.827-0.02,0.847,0.322,0.872,1.076c0.012,0.344-0.141,0.711-0.244,1.035c-0.162,0.518-0.148,0.781-0.039,1.32L230.038,224.363
    L230.038,224.363L230.038,224.363z" data-powertiptarget="rcss-county"/>
</a>
<a xlink:href="/counties/bssa">
<path class="county" fill="#F2F2F2" stroke="#8D8D8D" d="M230.505,195.919c-0.231,0.882,0.222,2.141,0.203,3.086l-0.081,3.938
    c-0.022,1.104-0.475,2.549-0.184,3.573c0.564,1.979,0.334,3.256,2.555,3.938c1.074,0.331,1.721,0.73,2.656,1.281
    c1.075,0.629,2.244,0.977,3.303,1.662c0.813,0.52,1.664,1.248,2.555,1.586c1.008,0.381,2.688,1.096,1.643,2.414
    c-0.61,0.771-1.736,0.33-2.21,0.834c-0.495,0.525,0.116,1.449,0.183,2.049c0.045,0.414-0.131,2.336-0.486,2.479
    c-1.088,0.434-2.816,0.385-3.994,0.549c-0.361,0.186-1.02,0.141-1.439,0.162c-0.805,0.039-1.59,0.252-2.392,0.344
    c-0.448,0.053-0.913,0.16-1.357,0.244c-0.427,0.08-1.051,0.094-1.419,0.305l0,0l-0.162-0.955c-0.108-0.539-0.122-0.801,0.04-1.318
    c0.103-0.324,0.255-0.691,0.243-1.037c-0.023-0.752-0.045-1.096-0.871-1.074c-0.496,0.012-0.995-0.061-1.479-0.061
    c-0.02-0.1-0.058-0.043,0.081-0.063c-2.271,0.193-5.264-1.662-6.873,0.549c-1.086,1.492-5.96,1.248-7.702,1.604
    c-1.8,0.369-3.163,1.455-4.905,1.787c-0.624,0.119-2.231-0.051-2.676,0.203c0,1.43,1.18,2.377,1.034,3.613
    c0.26,1.523,0.239,3.609,0.183,5.156c-0.051,1.412-0.529,3.035-0.081,4.385c0.286,0.863-0.062,1.881,0.02,2.824
    c0.122,1.398-3.189,0.752-3.183,0.75c-1.313,0.211-2.992,0.02-3.831,1.279c-0.543,0.816-1.408,1.715-1.804,2.537l-0.811,1.686
    c-0.458,0.953-0.147,1.732-0.365,2.396c-0.409,1.254-1.607-1.203-1.844-1.502c-1.351-1.703-2.66-1.361-4.804-1.361
    c-3.287,0-0.382,4.223-3.527,4.934c-2.163,0.488-2.403,1.102-2.696,2.965c0.042,0.824,0.957,1.52,0.648,2.395
    c-0.252,0.713-0.588,0.908-0.588,1.727c0,1.559-1.636,1.371-0.872,3.207c0.35,0.84-0.885,1.164-0.75,1.949
    c0.182,1.061,1.198,2.02,1.156,3.148c-0.021,0.574-0.459,1.02-0.487,1.705c-0.026,0.646-0.511,1.494-1.034,1.867
    c-0.232,0.766,0.045,1.414-0.142,2.131c-0.152,0.586-0.75,0.969-0.75,1.564c0,1.152-0.717,2.424-0.02,3.41
    c0.438,0.621,0.631,1.209,0.507,1.99c-0.207,1.295-1.984,1.029-1.521,2.334c0.24,0.676,0.651,1.324,0.852,1.971
    c0.302,0.91,1.094,1.49,1.155,2.598l0.122,2.213c0.12,2.176-1.925,2.082-3.223,3.025c-0.903,0.656-0.097,2.197-1.115,2.904
    c-0.51,0.354-1.387,0.408-1.601,1.014l-0.283,1.664l0,0c-0.061-0.148-0.085-0.258-0.146-0.393c-0.159-0.318-0.466-0.355-0.784-0.49
    c-0.257-0.111-0.368-0.281-0.54-0.49c-0.501-0.586-1.016-0.734-1.714-1.076c-0.637-0.32-1.065-0.43-1.567-0.932
    c-0.306-0.307-0.379-0.6-0.588-0.98c-0.293-0.525-0.637-0.723-1.078-1.125c-0.281-0.258-0.416-0.467-0.686-0.736
    c-0.502-0.502-0.857-0.734-1.323-1.273c-0.171-0.207-0.245-0.393-0.44-0.588c-0.135-0.135-0.294-0.184-0.392-0.342
    c-0.085-0.135-0.147-0.27-0.245-0.393c-0.379-0.441-0.82-0.539-1.126-1.029c-0.232-0.379-0.343-0.637-0.637-0.979
    c-0.514-0.588-0.943-0.809-1.322-1.471c-0.526-0.709-0.808-1.248-1.617-1.615c-0.624-0.281-1.078-0.148-1.714-0.393
    c-0.441-0.172-0.625-0.428-0.98-0.734c-0.269-0.232-0.477-0.355-0.686-0.637c-0.27-0.355-0.318-0.662-0.637-0.979
    c-0.599-0.602-1.102-0.748-1.763-1.275c-0.453-0.355-0.478-0.771-0.882-1.176c-0.49-0.49-0.869-0.697-1.322-1.225
    c-0.123-0.146-0.245-0.221-0.392-0.342c-0.379-0.332-0.527-0.588-0.931-0.883c-0.416-0.305-0.722-0.428-1.176-0.686
    c-0.318-0.184-0.539-0.244-0.833-0.441c-0.159-0.098-0.208-0.281-0.392-0.342c-0.135-0.049-0.257-0.049-0.392-0.098
    c-0.392-0.146-0.526-0.516-0.587-0.932c-0.122-0.771-0.686-1.064-1.274-1.566c-0.281-0.232-0.441-0.416-0.735-0.637
    c-0.539-0.404-0.82-0.662-1.372-1.029c-0.392-0.27-0.575-0.49-0.93-0.783c-0.147-0.123-0.392-0.148-0.392-0.344
    c0-0.391,0.379-0.514,0.49-0.881c0.123-0.43,0.146-0.723,0.146-1.176c0-0.502-0.294-0.748-0.538-1.176
    c-0.246-0.43-0.465-0.662-0.637-1.127c-0.073-0.221-0.196-0.342-0.196-0.588c0-0.33,0.16-0.49,0.294-0.783
    c0.062-0.135,0.086-0.246,0.147-0.393c0.208-0.477,0.564-0.66,0.686-1.176c-0.196,0.025-0.294,0.025-0.49,0.049
    c-0.502,0.074-0.722,0.441-1.225,0.441c-0.355,0-0.453-0.441-0.809-0.441c-0.538,0-0.808,0.344-1.347,0.344
    c-0.539,0-0.882-0.416-1.028-0.932c-0.441-0.33-0.845-0.537-1.323-0.832c-0.673-0.416-1.016-0.723-1.665-1.176
    c-0.747-0.525-1.225-0.783-2.058-1.176c-0.306-0.135-0.526-0.221-0.784-0.439c-0.073-0.063-0.073-0.148-0.146-0.197
    c-0.135-0.098-0.257-0.146-0.392-0.244c-0.331-0.246-0.477-0.479-0.735-0.783c-0.343-0.404-0.649-0.553-1.028-0.932
    c-0.208-0.209-0.416-0.293-0.588-0.539c-0.416-0.574-0.551-0.992-0.979-1.566c-0.551-0.748-1.078-1.029-1.813-1.617
    c-0.954-0.76-1.481-1.273-2.547-1.861c-0.624-0.344-0.98-0.906-1.666-1.127c-0.796-0.33-1.298-0.441-2.106-0.734
    c-0.869-0.318-1.298-0.686-2.155-1.029c-0.281-0.109-0.453-0.135-0.735-0.244c-0.563-0.221-0.819-0.502-1.42-0.637
    c-0.318-0.074-0.588,0.012-0.833-0.195c-0.122-0.1-0.146-0.258-0.245-0.393c-0.27-0.379-0.735-0.502-0.735-0.98
    c0-0.318,0.294-0.465,0.588-0.588c0.221-0.086,0.368-0.17,0.588-0.244c0.527-0.195,0.857-0.244,1.421-0.244
    c0.49,0,0.796,0.061,1.224,0.293c0.343,0.184,0.38,0.527,0.686,0.783c0.392,0.344,0.698,0.404,1.127,0.686
    c0.294,0.197,0.477,0.393,0.832,0.393c0.478,0,0.674-0.393,1.152-0.393c0.294,0,0.478,0.184,0.661,0.393
    c0.307,0.33,0.416,0.613,0.734,0.932c-0.109-0.234-0.036-0.355-0.049-0.588c-0.037-0.502-0.11-0.785-0.196-1.273
    c-0.037-0.246-0.024-0.418-0.147-0.637c-0.122-0.221-0.318-0.295-0.538-0.441c-0.233-0.16-0.355-0.318-0.637-0.393
    c-0.318-0.086-0.539-0.098-0.833-0.244c-0.085-0.037-0.122-0.098-0.196-0.146c-0.061-0.037-0.196-0.014-0.196-0.1
    c0-0.354,0.392-0.477,0.392-0.832c0-0.098-0.073-0.158-0.098-0.244c-0.22-0.014-0.354-0.049-0.575-0.049
    c-0.698,0-0.979,0.588-1.678,0.588c-0.416,0-0.465-0.479-0.686-0.834c-0.159-0.27-0.367-0.441-0.686-0.441
    c-0.392,0-0.575,0.246-0.931,0.393c-0.294,0.123-0.477,0.172-0.784,0.244c-0.049-0.219-0.036-0.367-0.098-0.586
    c-0.085-0.332-0.281-0.504-0.49-0.785l0,0l1.269-2.174c1.11-0.371,0.438-2.199,0.182-2.924c-0.747-2.102,1.713-3.539,2.027-5.4
    c0.214-1.271,1.189-0.824,1.865-1.359c1.003-0.793-0.044-1.557,0.142-2.537c0.293-0.627,0.263-1.609,0.79-2.113
    c0.867-0.826,2.537-1.781,2.818-2.943c0.578-2.393-0.912-4.143,1.338-5.867c0.738-0.564,1.77-1.457,2.291-2.213
    c0.911-1.322-0.117-1.623-0.243-2.76c-0.146-1.284-1.5-1.452-1.5-3.086c0-1.646-0.862-1.618,1.115-1.483
    c1.039,0.071,2.063-1.264,2.939-0.994c0.626,0.193,0.863,1.409,1.622,0.65c1.46-1.464,2.431,0.906,3.082,1.867
    c0.892,1.318,1.584,1.181,2.939,1.665c0.841,0.301,1.094,1.272,1.844,1.522c0.995,0.331,2.818-0.096,3.649-0.69
    c1.373-0.983,1.623-2.705,2.25-4.102c0.623-0.445,1.071-1.692,1.459-2.375c0.591-1.039,2.154,1,2.331,1.604
    c1.097,3.737,2.989,1.915,5.98,2.6c2.528,0.578,5.959-0.986,8.108-2.314c1.588-0.139,2.387-2.469,3.709-3.248
    c0.883-0.521,2.055-0.272,2.959-0.914c1.402-0.995,2.636-2.012,3.548-3.513c0.995-1.641,1.014-3.633,1.601-5.4l0.487-3.228l0,0
    c1.692,0.371,2.896,1.903,3.345,3.431c0.22,0.751,0.455,0.768,1.155,1.035c1.212,0.464,1.856,1.277,3.02,1.868
    c2.779,1.408,6.182,3.021,4.216,6.517l-1.986,5.503c-0.756,2.094-3.651,4.76-3.913,6.536c-0.218,1.49,0.833,1.42-0.263,2.863
    c-0.243,0.32-0.364,1.486-0.263,1.889c1.971,0.486,1.146,0.125,2.007-1.096c1.277-1.816,4.327-2.613,5.959-4.346
    c1.57-1.666,2.803-0.324,4.642-0.324c1.34,0,3.083-0.658,3.142-2.213c0.051-1.338,1.425,0.041,2.25-0.325
    c0.776-0.344,0.991-1.09,1.966-1.339c0.517-0.133,1.036,0.132,1.561-0.081c1.762-0.72,1.43-2.66,2.838-3.716
    c0.406-0.246,0.681-1.47,1.055-1.26c0.478,0.271,0.458,1.057,1.338,0.752c0.908-0.314,1.283-2.313,1.985-3.066
    c0.73-0.779,2.09-0.931,2.636-1.705c1.011-1.433-0.196-2.833,2.048-0.995c0.686,0.563-0.588,2.838,1.945,1.889
    c2.003-0.751,5.836-1.042,7.338-2.477c0.284-0.271,0.917-0.904,1.359-0.67c0.631,0.334,0.219,1.302,1.398,0.894
    C228.896,196.68,229.479,196.124,230.505,195.919L230.505,195.919L230.505,195.919z" data-powertiptarget="bssa-county"/>
</a>
<a xlink:href="/counties/ggdh">
<path class="county" fill="#F2F2F2" stroke="#8D8D8D" d="M237.943,272.582c0.686-0.391,0.897-0.988,1.439-1.381c0.043-0.031,0.98,0.727,1.276,0.875
    c0.354,0.176,3.146,0.465,3.446,0.262c1.472-0.996,1.512-0.066,2.838,0.266c0.914,0.227,1.807-0.797,2.756-0.936
    c1.779-0.26,2.575,1.654,4.359-0.406c0.457-0.527,1.877-2.035,1.904-2.658c0.034-0.744-0.625-1.043-0.445-1.971
    c0.154-0.795,0.298-2.33-0.893-2.375c-0.844-0.031-2.404,1.846-2.736,0.266c0.032-0.711-0.869-1.746-0.486-2.357
    c0.73-1.164,2.529-2.055,2.23-3.795c-0.166-0.965-0.766-1.67-1.136-2.578c-0.518-1.27,0.454-1.188,1.439-1.402
    c1.39-0.301,2.646-0.879,4.074-1.137c0.88-0.158,2.385-0.904,2.514-1.928c0.081-0.059,0.081-0.146,0.162-0.203
    c0.057-0.629,0.475-1.23,0.507-1.971c0.164-0.588-0.062-1.016-0.041-1.604c0.041-1.131,0.629-0.994,0.062-2.273
    c-0.229-0.514,0.749-1.447,1.034-1.867c0.536-0.793-0.348-2.822,0.851-2.822c1.831,0,1.526-0.561,2.229-1.787
    c0.485-0.846,2.701-0.854,3.648-0.975c1.783-0.227,1.445-2.379,2.313-3.248c0.717-0.518,0.497-1.316,0.75-2.07
    c0.18-0.545,0.745-0.902,0.77-1.482c0.064-1.551,0.572-1.883,1.621-3.006c0.537-0.574,1.199-1.178,1.318-1.99
    c0.242-1.645,1.211-1.801,2.25-2.842c1.09-1.092,1.162-1.852,1.094-3.41c0.215-0.209,0.757-2.477,0.791-2.902
    c0.088-1.1,0.053-1.6,1.034-2.215c0.497-0.311,1.804-2.51,1.804-3.105c0-0.473-0.353-0.924-0.486-1.38
    c-0.217-0.734,0.334-2.323,0.824-2.847l0,0l4.873,0.196c1.078,0,1.617,0.76,2.181,1.665c0.392,0.662,0.856,0.906,1.371,1.47
    c1.225,1.324,1.739,2.302,3.429,3.134c0.245-0.588,0.295-0.979,0.588-1.566c0.588-1.201,1.273-1.69,1.959-2.841
    c0.172-0.317,0.27-0.588,0.49-0.882c0.441,0.612,0.637,1.152,1.273,1.567c0.441,0.294,0.784,0.442,1.176,0.784
    c0.441,0.368,0.662,0.709,1.176,0.979c0.734,0.393,1.298,0.541,1.861,1.176c-0.988,0-1.676,0.521-1.861,1.471
    c-0.064,0.332,0.591,0.145,0.783,0.391c0.076,0.096-0.049,0.271,0,0.393c0.17,0.416,0.295,0.709,0.295,1.176
    c0,0.76,0.025,1.25-0.196,1.959c-0.146,0.467-0.426,0.707-0.588,1.176c-0.058,0.168-0.294,0.195-0.294,0.391
    c0,0.197,0.243,0.223,0.294,0.393c0.097,0.318,0.249,0.488,0.392,0.783c0.201,0.414,0.146,0.834,0.49,1.176
    c0.221,0.221,0.554,0.502,0.783,0.295c0.652-0.588,0.686-1.666,1.568-1.666c0.686,0,1.127,0.018,1.763,0.195
    c0.589,0.166,0.931,0.49,1.567,0.49c0.49,0,0.686-0.391,1.176-0.391c0.465,0,0.711,0.242,1.176,0.293
    c1.102,0.121,1.949-0.547,2.841,0.098c0.675,0.488-0.715,1.73,0,2.156c1.351,0.801,2.498,0.221,4.017,0.588
    c0.809,0.195,1.221,0.424,1.959,0.783c0.118,0.057,0.273,0.041,0.393,0.098c0.443,0.213,0.661,0.588,1.176,0.588
    c0.392,0,0.588-0.293,0.979-0.293c0.245,0,0.319,0.242,0.489,0.391c0.418,0.365,0.639,0.66,0.98,1.078
    c0.319,0.391,0.705,0.523,1.176,0.783c0.411,0.229,0.686,0.49,1.175,0.49c0.612,0,0.956-0.252,1.567-0.293
    c0.466-0.033,0.787,0.123,1.176-0.1c0.639-0.365,0.733-0.98,1.273-1.469c0.219-0.197,0.367-0.49,0.686-0.49s0.348,0.412,0.588,0.588
    c0.494,0.361,0.955,0.393,1.568,0.393c0.66,0,0.978-0.422,1.566-0.686c1.591-0.715,2.572-1.373,4.336-1.373c0.318,0,0.637,0,0.955,0
    c1.08,0-0.088,1.855,0.49,2.744c0.059,0.092,0.264,0.162,0.391,0.098c0.262-0.131,0.523-0.262,0.784-0.393
    c0.806-0.4,1.063,1.297,1.96,1.273c0.318-0.006,0.073-0.588,0.293-0.783c0.196-0.172,0.515-0.148,0.784-0.195
    c0.147-0.025,0.22-0.195,0.392-0.195c0.711,0,0.76,1.076,1.47,1.076c0.196,0,0.196-0.293,0.392-0.293
    c0.172,0,0.051,0.34,0.196,0.391c0.27,0.096,0.489,0.197,0.784,0.197c0.244,0,0.342-0.197,0.588-0.197
    c1.077,0,1.522,0.93,2.154,1.764c0.444,0.586,0.857,0.859,1.372,1.373c0.392,0.391,0.491,0.783,0.882,1.174
    c0.809,0.809,1.445,1.152,2.253,1.961c0.687,0.684,1.47,1.076,1.47,2.057c0,0.416-0.467,0.564-0.49,0.98
    c-0.024,0.465,0.124,0.734,0,1.174c-0.144,0.516-0.73,0.639-0.881,1.176c-0.166,0.59-0.021,1.006-0.197,1.568
    c-0.143,0.467-0.389,0.711-0.489,1.176c-0.095,0.441-0.048,0.711-0.098,1.176c-0.097,0.904-0.318,1.42-0.318,2.326
    c0,0.465-0.175,0.779,0.024,1.199c0.107,0.225,0.343,0.197,0.588,0.197c0.661,0,0.883-0.688,1.176-1.273
    c0.221-0.441,0.402-0.807,0.881-0.98c0.147-0.053,0.314,0.078,0.393,0.195c0.165,0.248,0.223,0.559,0.49,0.688
    c0.395,0.189,0.783,0.076,1.175,0.293c0.758,0.418,0.88,1.154,1.176,1.959c0.56,1.52,1.167,2.357,1.47,3.92
    c0.065,0.332-0.563,0.148-0.784,0.391c-0.29,0.32-0.076,0.734-0.196,1.176c-0.149,0.563-0.686,0.783-0.686,1.371
    c0,0.76,0.485,1.156,0.882,1.764c1.12,1.717,2.152,2.48,3.821,3.723c0.436,0.324,0.813,0.463,1.176,0.883
    c0.102,0.117,0.074,0.293,0.195,0.391c0.394,0.318,0.739,0.359,1.176,0.588c1.058,0.555,1.596,1.006,2.743,1.373
    c0.177,0.057,0.259-0.225,0.294-0.393c0.136-0.639,0.003-1.055,0.195-1.666c0.148-0.465,0.516-0.709,0.686-1.176
    c0.1-0.268-0.05-0.564,0.099-0.783c0.268-0.393,0.866-0.779,1.175-0.393c0.43,0.535-0.098,1.104-0.098,1.789
    c0,0.219-0.098,0.393,0,0.563c0.244,0.416,0.733,0.371,1.176,0.588c0.758,0.371,1.15,0.814,1.959,1.078
    c1.224,0.396,2.06,0.439,3.136,1.176c1.322,0.904,2.038,1.613,2.743,3.037c0.52,1.049,0.686,2.352,1.861,2.352
    c0.221,0,0.463,0.045,0.588-0.1c0.193-0.221,0.171-0.488,0.293-0.783c0.123-0.293,0.441-0.49,0.784-0.49
    c0.539,0,0.808,0.416,1.176,0.785c0.392,0.391,0.567,0.73,0.882,1.174c0.103,0.145,0.299,0.146,0.392,0.295
    c0.151,0.24,0.121,0.566,0.294,0.783c0.315,0.395,0.734,0.369,1.176,0.588c0.294,0.146,0.441,0.393,0.783,0.393
    c0.416,0,0.416-0.59,0.49-0.98c0.146-0.758,0.415-1.201,0.588-1.959c0.242-1.055,0.244-1.676,0.392-2.742
    c0.021-0.146,0.221,0.195,0.392,0.195c0.147,0,0.271-0.127,0.393-0.098c0.491,0.117,0.66,0.518,1.077,0.783
    c0.391,0.248,0.736,0.219,1.176,0.393c0.491,0.193,1.073,0.283,1.176,0.783c0.101,0.484-0.434,0.764-0.687,1.176
    c-0.603,0.984-1.175,1.592-1.175,2.742c0,1.104,0.784,1.643,0.784,2.744c0,0.49-0.316,0.688-0.588,1.078
    c-0.412,0.59-0.784,1.027-0.784,1.762c0,0.244,0.127,0.367,0.196,0.588c0.248,0.783,0.418,1.225,0.783,1.961
    c0.367,0.732,0.479,1.205,0.783,1.959c0.578,1.424,1.232,2.127,1.861,3.525c0.254,0.561,0.328,0.979,0.49,1.568
    c0.082,0.291,0.176,0.514,0.294,0.783c0.054,0.121,0.003,0.316,0.099,0.393c0.344,0.268,0.711-0.051,1.176,0
    c0.856,0.094,0.879,1.102,0.979,1.959c0.072,0.613,0.196,0.955,0.196,1.568c0,0.76-0.416,1.566-1.175,1.566
    c-0.246,0-0.344-0.195-0.588-0.195c-0.318,0-0.687,0.172-0.687,0.49c0,0.488,0.339,0.686,0.392,1.176
    c0.069,0.611-0.068,0.955,0,1.566c0.102,0.881,1.078,1.15,1.078,2.033c0,0.27,0,0.539,0,0.809c0,0.77-1.422-0.537-1.959,0
    c-0.213,0.213,0.121,0.387,0.439,0.592l0,0c-1.507,0.051-3.15,0.365-4.627,0.623c-1.296,0.227-2.634,0.629-3.951,0.629
    c-2.939,0-6.009-0.572-8.859-1.26c-6.054-0.572-13.863-0.406-18.223-5.156c-1.103-1.201-3.147-0.846-4.623-1.543
    c-2.729-0.545-5.771,0.283-8.453-0.385c-0.777-0.195-1.242-0.85-1.984-1.098c-3.411-1.137-9.534,0.082-12.752,1.441
    c-2.544,1.168-3.121,2.025-5.514,0.59c-0.861-0.52-4.895,0.064-5.757,0.629c-1.058,0.693-2.22,2.043-3.345,2.496
    c-1.354,0.547-4.208,0.842-5.695,0.975c-1.024,0.094-2.13-0.203-3.163-0.203l0,0l-0.81-8.039c-0.072-1.76-0.661-3.664-0.873-5.441
    c-0.2-1.699-0.48-3.473-1.033-5.096c-0.384-1.129-1.043-2.135-1.418-3.229c-3.008-3.703-9.734-9.674-14.353-5.217
    c-1.169,1.127-2.894,3.299-4.459,3.775c-4.372,4.15-8.715,9.943-14.879,11.146c-1.359,0.266-6.214,0.178-7.054-0.955
    c-2.663-0.379-5.082-2.191-7.703-2.924c-2.387-0.666-5.65-1.838-8.067-1.967c-1.598-0.086-3.678,0.098-3.892-1.951
    c-0.522-1.307-1.777-3.908-3.082-4.568C240.656,273.883,239.063,274.078,237.943,272.582L237.943,272.582L237.943,272.582z"
    data-powertiptarget="ggdh-county"/>
</a>
<a xlink:href="/counties/snoe">
<path class="county" fill="#F2F2F2" stroke="#8D8D8D" d="M236.525,272.52l1.419,0.061l0,0c1.119,1.496,2.714,1.301,4.237,2.072
    c1.303,0.658,2.559,3.26,3.08,4.568c0.215,2.047,2.295,1.863,3.893,1.949c2.416,0.129,5.681,1.303,8.067,1.969
    c2.621,0.73,5.04,2.543,7.702,2.924c0.842,1.131,5.695,1.219,7.055,0.953c6.164-1.203,10.508-6.996,14.879-11.146
    c1.566-0.477,3.29-2.646,4.459-3.775c4.619-4.455,11.344,1.514,14.353,5.217c0.374,1.094,1.033,2.1,1.419,3.229
    c0.553,1.623,0.832,3.396,1.033,5.096c0.21,1.779,0.801,3.684,0.873,5.441l0.809,8.041l0,0c-0.524,1.227-0.313,2.941-0.546,4.283
    c-0.47,2.691,0.661,4.256,1.257,6.721c0.287,1.193,0.391,2.318,0.507,3.531c0.141,1.479,1.126,1.518,2.351,2.031
    c1.09,0.941,2.498,1.037,2.575,2.801c0.038,0.889-0.254,1.76-0.122,2.619c0.156,1.012,0.969,0.992,1.561,1.645
    c0.635,0.701,1.043,1.92,0.812,2.863c-0.341,1.383-1.271,1.383-2.474,1.686l-1.298,1.096l0,0c-0.798,0.801-1.22,2.285-1.397,3.371
    c-0.194,1.18-1.07,2.695-1.866,3.594c-0.698,0.787-0.715,1.732-1.134,2.639c-0.33,0.711-0.648,0.68-1.277,1.055
    c-0.715,0.871-0.127,2.943-1.359,3.756c-1.263,0.834-2.77,1.875-3.688,3.107c-0.623,0.836-2.047,1.01-2.371,1.807
    c-0.655,1.605,0.229,2.67-2.188,2.883c-1.104,0.098-1.723,0.555-2.676,0.994c-1.316,1.131-2.456,2.193-4.238,2.193
    c-1.266,0-2.451,0.16-2.898,1.502c-0.528,1.588,0.135,5.199-1.764,5.381c-1.693,0.162-3.738,0.131-5.189,1.158
    c-2.107,1.49-2.635,4.246-4.602,5.846l-2.504,1.732l0,0c-0.76-0.184-1.176-0.355-1.959-0.439c-0.662-0.074-1.115-0.111-1.617-0.539
    c-0.146-0.123-0.232-0.246-0.342-0.393c-0.074-0.098-0.196-0.123-0.196-0.244c0-0.148,0.098-0.246,0.098-0.393
    c0-0.588-0.575-0.832-1.126-1.029c-0.601-0.219-0.943-0.391-1.568-0.537c-0.453-0.111-0.746-0.086-1.176-0.246
    c-0.697-0.258-1.064-0.525-1.763-0.783c-0.135-0.049-0.27-0.049-0.392-0.098c-0.295-0.135-0.355-0.393-0.49-0.686
    c-0.146-0.332-0.281-0.527-0.539-0.785c-0.563-0.563-0.894-0.967-1.617-1.322c-0.489-0.244-0.686-0.539-1.175-0.783
    c-0.869-0.43-1.285-0.797-2.155-1.225c0.074-0.232,0.195-0.344,0.195-0.588c0-0.367-0.305-0.527-0.537-0.783
    c-0.318-0.344-0.552-0.502-0.883-0.834c-0.624-0.623-1.102-0.893-1.91-1.225c-0.624-0.256-0.98-0.514-1.616-0.734
    c-0.919-0.318-1.482-0.404-2.401-0.734c-0.464-0.16-0.721-0.355-1.176-0.539c-0.207-0.086-0.365-0.074-0.587-0.146
    c-0.771-0.258-1.237-0.342-2.058-0.439c-0.709-0.076-1.113-0.186-1.812-0.295c-0.294-0.049-0.489-0.014-0.784-0.098
    c-0.539-0.148-0.808-0.404-1.371-0.441c-0.76-0.184-1.176-0.441-1.959-0.539c-0.466-0.049-0.771,0.012-1.176-0.195
    c-0.086-0.037-0.086-0.123-0.148-0.195c-0.17-0.209-0.293-0.406-0.293-0.688c0-0.195,0.147-0.281,0.147-0.477v-1.201
    c0-0.172-0.171-0.221-0.294-0.33c-0.184-0.172-0.355-0.281-0.588-0.393c-0.379-0.184-0.588-0.33-0.979-0.49
    c-0.759-0.305-1.249-0.477-1.96-0.881c-0.71-0.404-1.176-0.588-1.959-0.881c-0.478-0.172-0.735-0.344-1.176-0.588
    c-0.318-0.172-0.637-0.318-0.637-0.686c0-0.146,0.098-0.244,0.098-0.393c0-0.748-0.832-0.895-1.518-1.176
    c-0.834-0.344-1.299-0.6-2.156-0.881c-0.771-0.258-1.139-0.625-1.813-1.078c-0.66-0.453-1.126-0.65-1.764-1.127
    c-0.317-0.232-0.403-0.514-0.734-0.734c-0.354-0.232-0.611-0.342-0.979-0.539c-0.809-0.43-1.286-0.76-2.156-1.076
    c-0.465-0.174-0.783-0.223-1.225-0.443c-0.832-0.416-1.248-0.855-2.156-1.076c-0.378-0.086-0.623-0.098-0.979-0.246
    c-0.146-0.061-0.244-0.184-0.393-0.244c-0.134-0.049-0.257-0.025-0.392-0.049c-0.183-0.025-0.294-0.195-0.294-0.391
    c0-0.344,0.479-0.32,0.686-0.588c0.258-0.332,0.49-0.553,0.49-0.98c0-0.258-0.22-0.381-0.342-0.588
    c-0.367-0.588-0.76-0.846-1.372-1.176c-0.894-0.479-1.444-0.723-2.351-1.176c-0.54-0.27-0.834-0.514-1.372-0.783
    c-0.221-0.111-0.38-0.16-0.588-0.295c-0.466-0.318-0.71-0.514-1.176-0.832c-0.159-0.098-0.22-0.258-0.392-0.342
    c-0.429-0.234-0.723-0.32-1.176-0.541c0.037-0.146,0.074-0.27,0.146-0.391c0.073-0.123,0.246-0.184,0.246-0.342
    c0-0.418-0.404-0.564-0.784-0.736c-0.478-0.209-0.784-0.344-1.176-0.686c-0.536-0.467-0.971-0.762-1.44-1.078l0,0l2.116-3.768
    c0.576-0.496,0.788-2.102,1.236-2.416c0.159-1.764,3.324-4.422,4.257-5.99c1.445-2.426,0.953-5.367,0.953-8.059
    c-0.746-3.268-2.353-6.143-2.353-9.645c0-2.781,1.12-1.113,2.615-2.803c0.545-0.615,1.596-0.424,2.008-0.994
    c0.65-0.904,0.911-1.512,1.804-2.293c1.118-0.498,2.169-1.34,3.284-1.91l3.061-1.563c0.797-0.406,1.292-1.285,2.129-1.604
    c0.726-0.277,0.883,0.408,1.5,0.283c0.604-0.121,2.576-1.066,3.08-1.441c0.95-0.701-2.09-2.383-1.276-3.836
    c0.208-0.373,0.646-0.486,0.872-0.834c0.346-0.529,0.008-1.08,0.648-1.543c0.271-0.193,0.615-0.119,0.892-0.303
    c0.356-0.238,0.526-0.76,0.851-1.057l0.893-1.584L236.525,272.52L236.525,272.52L236.525,272.52z"
    data-powertiptarget="snoe-county"/>
</a>
<a xlink:href="/counties/nmba">
<path class="county" fill="#F2F2F2" stroke="#8D8D8D" d="M236.525,272.52l1.419,0.061l0,0c0.687-0.391,0.897-0.988,1.439-1.379
    c0.043-0.031,0.981,0.725,1.276,0.873c0.355,0.176,3.146,0.465,3.447,0.264c1.472-0.996,1.512-0.068,2.838,0.264
    c0.914,0.229,1.808-0.795,2.756-0.934c1.779-0.262,2.574,1.654,4.359-0.406c0.457-0.529,1.876-2.037,1.904-2.66
    c0.033-0.742-0.626-1.043-0.445-1.969c0.154-0.797,0.298-2.33-0.893-2.375c-0.845-0.033-2.404,1.846-2.736,0.264
    c0.031-0.709-0.869-1.746-0.486-2.355c0.73-1.164,2.529-2.057,2.23-3.797c-0.166-0.965-0.766-1.67-1.137-2.578
    c-0.518-1.27,0.455-1.188,1.439-1.4c1.391-0.301,2.646-0.879,4.074-1.137c0.881-0.16,2.385-0.906,2.515-1.93
    c0.081-0.059,0.081-0.145,0.161-0.203c0.057-0.627,0.475-1.23,0.508-1.969c0.163-0.59-0.063-1.018-0.041-1.605
    c0.041-1.131,0.629-0.994,0.061-2.273c-0.229-0.514,0.749-1.445,1.035-1.867c0.535-0.793-0.348-2.822,0.851-2.822
    c1.831,0,1.526-0.561,2.229-1.787c0.484-0.846,2.701-0.854,3.648-0.975c1.782-0.227,1.445-2.379,2.312-3.248
    c0.718-0.518,0.497-1.314,0.75-2.07c0.181-0.545,0.745-0.9,0.771-1.482c0.064-1.551,0.572-1.883,1.621-3.006
    c0.537-0.572,1.199-1.178,1.317-1.988c0.242-1.646,1.211-1.803,2.251-2.842c1.09-1.094,1.161-1.854,1.094-3.412
    c0.215-0.207,0.756-2.475,0.79-2.902c0.089-1.1,0.054-1.6,1.034-2.213c0.498-0.311,1.804-2.512,1.804-3.107
    c0-0.473-0.353-0.923-0.485-1.379c-0.217-0.735,0.334-2.324,0.824-2.846l0,0c0.098-0.654,0.085-1.334,0.293-1.961
    c0.043-0.127,0.262-0.064,0.393-0.098c0.494-0.123,0.465,0.883,0.979,0.883c0.44,0,0.491-0.491,0.686-0.883
    c0.147-0.293,0.415-0.452,0.489-0.783c0.322-1.426,1.592-1.617,2.352-2.842c0.685-1.102-0.082-3.449,1.176-3.135
    c0.131,0.033,0.262,0.066,0.393,0.098c0.305,0.076,0.284,0.664,0.588,0.589c1.274-0.319,1.714-1.225,2.645-2.155
    c0.637-0.638,1.379-0.583,1.959-1.273c0.324-0.387,0.471-0.755,0.882-1.078c0.739-0.582,1.396-0.832,1.861-1.665
    c0.245-0.44,0.34-0.762,0.588-1.176c0.411-0.688,1.003-0.985,1.764-1.274c0.464-0.176,0.979-0.367,0.979-0.881
    c0-0.392-0.294-0.588-0.294-0.979c0-0.393,0.489-0.344,0.784-0.589c0.293-0.244,0.41-0.442,0.588-0.783
    c0.361-0.688,0.803-0.982,1.176-1.665c0.24-0.442,0.195-0.882,0.489-1.274c0.294-0.392,0.712-0.364,1.175-0.489
    c0.443-0.119,0.814,0.097,1.176-0.196c0.326-0.263-0.098-0.733,0.099-1.077c0.098-0.171,0.251-0.399,0.392-0.294
    c0.131,0.098,0.232,0.326,0.393,0.294c0.131-0.026,0.065-0.262,0.098-0.392c0.146-0.588-0.294-0.956-0.294-1.568
    c0-0.489,0.297-0.758,0.489-1.175c0.125-0.269,0.096-0.566,0.295-0.783c0.314-0.346,0.783-0.296,1.077-0.687
    c0.367-0.489,0.271-0.979,0.392-1.567c0.024-0.122-0.025-0.271,0-0.392c0.168-0.761,0.979-0.979,0.979-1.764
    c0-0.734-0.421-1.101-0.686-1.763c-0.224-0.563-0.228-0.955-0.294-1.567c-0.031-0.294-0.195-0.491-0.195-0.785
    c0-0.514,0.759-0.294,1.273-0.294c0.244,0,0.392-0.244,0.392-0.489c0-0.71-0.404-1.106-0.588-1.763
    c-0.329-1.18-0.148-1.91-0.294-3.135c-0.075-0.638-0.49-0.907-0.49-1.544c0-0.244-0.144-0.568,0.098-0.612
    c0.778-0.142,1.344,0.042,1.96-0.392c0.29-0.203,0.318-0.515,0.588-0.783c0.588-0.588,1.176-1.004,1.176-1.862
    c0-0.466-0.169-0.71-0.196-1.175c-0.045-0.76,0.021-1.225-0.098-1.96c-0.15-0.929-0.502-1.441-0.783-2.351
    c-0.037-0.119,0.027-0.271,0-0.393c-0.217-0.931-0.197-1.493-0.197-2.449c0-1.102-0.058-1.762,0.099-2.842
    c0.038-0.267,0.165-0.49,0.196-0.782c0.141-1.323,0.697-2.026,1.371-3.135c0.159-0.264,0.49-0.44,0.49-0.784
    c0-0.955-0.734-1.445-1.568-1.861c-0.929-0.465-1.447-0.754-2.351-1.273c-0.885-0.51-1.515-0.86-1.96-1.764
    c-0.338-0.688-0.734-1.028-1.273-1.567c-0.44-0.44-0.881-0.734-0.881-1.371c0-0.784,0.588-1.177,0.588-1.96
    s-0.637-1.127-1.176-1.665c-0.662-0.661-1.127-1.005-1.666-1.764c-0.904-1.274-0.754-2.269-1.077-3.821
    c-0.163-0.783-0.413-1.555-0.49-2.352c-0.087-0.918,0-1.844,0-2.767c0-0.955-0.327-1.514-0.784-2.327
    c-0.229-0.41-0.588-0.662-0.588-1.151c0-0.792-0.049-1.585,0-2.375c0.018-0.269,0.133-0.522,0.197-0.784
    c0.192-0.77-0.189-1.303-0.588-1.959c-0.481-0.789-0.766-1.27-1.372-1.959c-0.103-0.118-0.052-0.334-0.196-0.393
    c-0.449-0.183-0.807-0.337-1.212-0.354c-0.187-0.078-0.769-0.461-0.942-0.627c-0.613-0.563-0.588-1.272-1.078-1.958
    c-0.367-0.515-0.783-0.809-0.783-1.446c0-0.17,0.195-0.244,0.195-0.416l0,0c-0.979-0.318-1.47-0.661-2.352-1.175
    c-0.416-0.221-0.783-0.221-1.176-0.489c-0.122-0.074-0.073-0.295-0.195-0.393c-0.245-0.196-0.515-0.318-0.783-0.49
    c-0.906-0.588-1.52-0.857-2.352-1.566c-0.784-0.662-1.47-1.201-1.47-2.254c0-0.466,0.245-0.711,0.294-1.176
    c0.049-0.538,0-0.832,0-1.371c0-1.004-0.098-1.568-0.294-2.547c-0.099-0.564-0.417-1.078-0.979-1.176
    c-0.734-0.147-1.2-0.025-1.959-0.099c-0.906-0.099-1.445-0.294-2.352-0.294c-0.76,0-1.225-0.049-1.959,0.098
    c-0.955,0.196-1.421,0.588-2.352,0.883c-0.123,0.023-0.27-0.049-0.393,0c-0.192,0.096-0.529,0.473-0.637,0.631
    c0.143,0.183,0.245,0.385,0.245,0.643c0,0.392-0.616,0.254-0.784,0.588c-0.129,0.261-0.26,0.522-0.391,0.783
    c-0.117,0.235-0.094,0.541-0.197,0.783c-0.287,0.688-0.832,0.883-1.175,1.568c-0.44,0.881-0.487,1.421-0.784,2.352
    c-0.438,1.371-1.371,2.057-1.371,3.526c0,1.519,1.764,2.008,1.764,3.526c0,2.498-2.157,3.33-3.331,5.486
    c-0.639,1.174-0.631,2.36-1.764,3.135c-0.729,0.499-1.829-0.573-2.351,0.196c-0.771,1.135,0.598,2.288,0,3.526
    c-0.256,0.531-1.029,0.097-1.568,0.196c-0.244,0.046-0.588-0.195-0.783,0c-0.49,0.489-0.588,1.077-0.979,1.567
    c-1.176,1.469-2.743,2.204-2.743,4.115c0,1.371,0.916,2.212,0.588,3.526c-0.13,0.522-0.459,1.033-0.392,1.567
    c0.071,0.58,0.618,1.008,0.784,1.568c0.102,0.344,0,0.717,0,1.077c0,1.519-2.352,0.099-3.87,0.099c-2.253,0-3.282-1.568-5.535-1.568
    c-0.343,0-0.605,0.153-0.784,0.393c-0.205,0.273,0.393,0.439,0.393,0.783c0,0.393-0.303,0.569-0.588,0.783
    c-0.238,0.178-0.441-0.391-0.784-0.391c-0.931,0-0.833,1.273-1.567,1.762c-0.441,0.294-0.979,0-1.567,0
    c-2.106,0-2.789,1.725-4.702,2.549c-2.299,0.987-3.338,2.192-5.486,3.33c-0.148,0.078-0.305,0.143-0.465,0.201l0,0l-0.194,3.066
    c-0.132,0.849-0.567,1.454-0.567,2.355c0,1.554-1.271,2.525-1.318,4.162c-0.047,1.633-0.32,1.946-1.58,2.842
    c-0.586,0.416-1.566,0.791-1.42,1.705c0.092,0.578,0.852,0.9,0.852,1.482c0,1.162-1.566,0.959-1.622,2.172
    c-0.026,0.594,2.046,1.405,0.527,2.314c-0.28,0.194-2.046,0.766-1.642,1.219c0.809,0.91,2.173,2.007,2.777,2.984
    c0.238,0.388,0.322,0.987,0.425,1.442c0.068,0.3,1.163,2.297,1.358,2.517c0.467,0.527,1.285,0.478,1.783,1.076
    c0.714,0.856,0.609,1.754,0.609,2.803c0,1.264,0.528,1.642,1.398,2.415c1.151,1.5,0.882,2.395-0.75,3.573
    c-0.519,0.375-0.908,0.838-1.419,1.198c-0.863,0.609-2.179,0.909-1.298,2.233c0.613,0.92,0.613,1.125-0.121,1.827
    c-0.506,0.484-0.123,0.868-0.324,1.401c-0.363,0.954-1.865,0.351-1.865,1.705c0,0.406,0.365,0.594,0.365,0.995
    c0,0.597-0.139,1.075-0.385,1.624c-0.244,0.243-0.71,0.47-0.71,0.853c0,0.437,0.388,0.82,0.526,1.238
    c0.1,0.3,0.051,0.462-0.041,0.752c-0.098,0.313-0.161,0.647-0.263,0.953l-0.365,1.219l0,0c-0.23,0.882,0.223,2.14,0.203,3.086
    l-0.081,3.938c-0.022,1.104-0.475,2.549-0.183,3.573c0.563,1.98,0.334,3.255,2.554,3.938c1.074,0.33,1.721,0.731,2.656,1.28
    c1.075,0.631,2.244,0.979,3.303,1.664c0.813,0.518,1.664,1.246,2.556,1.584c1.007,0.381,2.687,1.096,1.642,2.416
    c-0.609,0.77-1.735,0.33-2.21,0.832c-0.495,0.525,0.116,1.449,0.183,2.051c0.045,0.412-0.131,2.336-0.486,2.477
    c-1.088,0.436-2.816,0.387-3.994,0.549c-0.361,0.188-1.02,0.141-1.438,0.162c-0.806,0.041-1.591,0.254-2.392,0.346
    c-0.449,0.051-0.914,0.158-1.358,0.244c-0.427,0.08-1.051,0.092-1.419,0.305l0,0c1.885,2.543,5.107,4.035,7.885,5.48
    c3.762,1.957,1.388,3.912,0.508,6.781c-0.282,1.33-1.02,2.346-1.48,3.553c-0.524,1.373-1.021,3.25-2.615,3.492
    c-2.167,0.33-4.209,1.326-6.182,2.172c-1.252,0.627-2.486,0.35-3.224,1.686c-0.579,1.049,0.079,1.666,1.115,1.666
    c0.794,0,1.866-0.541,2.655-0.752c1.154-0.311,2,1.377,2.858,1.928c0.484,0.313,0.864,0.885,1.358,1.219
    c0.298,0.203,0.52,0.479,0.851,0.65c0.409,0.211,0.946,0.166,1.378,0.344c1.352,0.078,5.527,4.426,2.818,4.426
    c-1.595,0-0.85,0.49-1.096,1.889c-0.193,1.105,1.393,1.443,1.258,2.518c-1.871,1.07,0.841,4.525,1.541,5.482
    c0.053,0.355,0.264,0.652-0.081,0.873c-0.413,0.264-0.987,0.363-1.015,0.975c-0.016,0.387-0.045,0.738-0.141,1.115
    c-0.148,0.582-0.784,0.682-1.197,1.016C236.723,271.291,236.525,271.857,236.525,272.52L236.525,272.52L236.525,272.52z"
    data-powertiptarget="nmba-county"/>
</a>
<a xlink:href="/counties/myld">
<path class="county" fill="#F2F2F2" stroke="#8D8D8D" d="M357.074,403.848l1.986-1.166c1.604-0.533,4.023-5.145,3.73-6.842
    c-0.235-1.371,0.346-6.131-0.426-6.902c-2.097-0.26-3.893,1.154-3.264-2.375c0.283-0.732,1.45-1.078,1.48-1.828
    c0.117-2.977-1.722-4.982-2.555-7.572c-0.893-2.781-5.766-4.082-7.845-5.625c-0.589,0.037-3.739-1.621-4.521-1.969
    c-4.113-1.84-8.403-3.27-12.912-3.27l-0.041-0.039c0-0.842,1.441-3.395,1.906-4.203c1.211-2.102,1.195-2.789,1.195-5.258
    c0.021,0.281,0.09-0.416,0.103-0.508c0.095-0.699,0.278-0.912,0.647-1.463c0.393-0.582,0.758-1.189,0.568-1.928
    c-0.211-0.83-0.303-1.773-0.303-2.641l0.607-1.807l0,0c1.23-0.336,0.725-0.594,1.459-1.178c0.324-0.258,1.375,0.348,1.967,0.184
    c1.565-0.438,2.656-1.619,3.871-2.559c1.297-1.002,1.9-1.648,2.393-3.207c0.313-1,1.42-1.084,2.026-1.848
    c0.536-0.674,3.956-1.443,4.825-1.32c2.293,0.326,5.729,0.914,3.607,3.797c-0.965,1.309-1.912,1.723-2.068,3.512
    c-0.141,1.627,0.763,3.467,1.299,4.953c0.271,1.402,1.613,2.113,1.256,3.777c-0.559,2.596-2.66,3.764-1.622,6.6
    c0.39,1.061-0.335,3.504,0.872,3.979c0.361,0.141,3.813-0.604,4.217-0.832c1.345-0.766,1.855-0.928,3.344-0.895
    c1.758,0.041,3.359-1.627,4.663,0.082c0.431,0.564,0.827,1.178,1.642,1.178c0.895,0,1.66-0.496,2.108,0.588
    c0.626,0.531,0.757,1.506,1.397,1.93c0.967,0.637,2.57,0.732,3.684,1.012l0,0c0.17,0.555,0.575,0.967,1.088,1.355
    c0.639,0.484,1.764,0.342,1.764,1.174c0,0.49-0.393,0.686-0.393,1.178c0,0.783,0.396,1.174,0.488,1.957
    c0.175,1.445,0.393,2.279,0.393,3.723c0,0.859-0.465,1.324-0.586,2.156c-0.076,0.514,0.098,0.832,0.098,1.371
    s-0.032,0.904-0.294,1.373c-0.178,0.314-0.784,0.293-0.784,0.686c0,0.342,0.344,0.514,0.49,0.783c0.146,0.27,0.316,0.514,0.49,0.783
    c0.488,0.76,0.635,1.396,0.635,2.328c0,1.713,0,3.428,0,5.143c0,0.17-0.216,0.221-0.245,0.367c-0.116,0.588-0.098,0.955-0.098,1.568
    c0,1.102-0.017,1.738,0.098,2.84c0.03,0.293,0.196,0.49,0.196,0.785c0,1.297-0.393,2.031-0.393,3.33c0,0.709-0.021,1.32,0.49,1.762
    c0.224,0.193,0.564,0.098,0.785,0.295c0.515,0.463,0.686,1.029,0.686,1.764c0,0.244-0.289,0.297-0.392,0.49
    c-0.24,0.443-0.368,0.807-0.687,1.174c-0.295,0.344-0.784,0.49-0.784,0.98c0,0.318,0.075,0.588,0.294,0.785
    c0.465,0.414,1.025,0.203,1.568,0.49c0.289,0.152,0.336,0.492,0.49,0.781c0.26,0.494,0.977,0.859,1.222,1.373l0,0h-2.104
    c-0.613-0.049-0.954-0.148-1.568-0.148c-0.524,0-0.832,0.051-1.359,0.051c-0.256,0-0.391,0.098-0.648,0.098
    c-0.611,0-0.931-0.172-1.519-0.344c-0.87-0.258-1.372-0.393-2.264-0.393c-0.798,0-1.237-0.047-2.034-0.047
    c-0.98,0-1.531-0.186-2.511-0.246c-0.513-0.023-0.82-0.023-1.323-0.098c-0.391-0.063-0.637-0.146-1.027-0.197
    c-1.25-0.182-1.996-0.012-3.233-0.293c-0.539-0.121-0.833-0.258-1.372-0.393c-0.759-0.182-1.176-0.367-1.91-0.635
    c-0.367-0.135-0.588-0.209-0.979-0.197c-0.245,0-0.404,0.1-0.637,0.049c-0.085-0.012-0.085-0.121-0.147-0.195
    c-0.098-0.123-0.195-0.221-0.195-0.393c0-0.195,0.146-0.293,0.146-0.49c0-0.342-0.453-0.354-0.783-0.439
    c-0.415-0.123-0.625-0.258-1.029-0.393c-0.598-0.195-0.942-0.391-1.566-0.488c-0.221-0.037-0.355-0.148-0.588-0.148
    c-0.086,0-0.111,0.098-0.196,0.098c-0.099,0-0.11-0.123-0.196-0.146c0.232-0.416,0.478-0.576,0.734-0.979
    C356.855,404.35,357.074,404.191,357.074,403.848L357.074,403.848L357.074,403.848z" data-powertiptarget="myld-county"/>
</a>
<a xlink:href="/counties/gkru">
<path class="county" fill="#F2F2F2" stroke="#8D8D8D" d="M314.425,328.393c1.579,0.721,3.147,2.137,4.702,3.025
    c1.637,0.936,1.065,6.594,2.777,6.863c3.48,0.547,6.931,1.18,10.074,2.965c2.584,1.518,4.881,4.189,5.453,7.207l0,0l-0.609,1.807
    c0,0.867,0.092,1.811,0.305,2.639c0.189,0.738-0.176,1.346-0.568,1.93c-0.368,0.549-0.553,0.762-0.646,1.461
    c-0.014,0.092-0.082,0.791-0.104,0.508c0,2.469,0.016,3.156-1.195,5.258c-0.465,0.809-1.905,3.361-1.905,4.203l0.041,0.041
    c4.509,0,8.799,1.43,12.911,3.268c0.781,0.35,3.932,2.006,4.521,1.971c2.078,1.541,6.952,2.842,7.844,5.623
    c0.834,2.59,2.672,4.596,2.556,7.574c-0.03,0.75-1.197,1.094-1.48,1.826c-0.629,3.529,1.167,2.115,3.264,2.375
    c0.771,0.773,0.19,5.533,0.425,6.904c0.293,1.695-2.125,6.307-3.729,6.84l-1.987,1.168l0,0c0-0.086-0.084-0.123-0.098-0.197
    c-0.135-0.477-0.294-0.723-0.49-1.174c-0.172-0.393-0.221-0.65-0.49-0.98c-0.049-0.074-0.061-0.16-0.146-0.197
    c-0.122-0.061-0.257-0.061-0.392-0.098c-0.294-0.086-0.478-0.17-0.784-0.244c-0.93-0.232-1.494-0.295-2.4-0.588
    c-0.869-0.281-1.371-0.465-2.252-0.734c-0.65-0.195-0.932-0.551-1.568-0.783c-0.918-0.344-1.469-0.467-2.4-0.736
    c-0.23-0.061-0.427-0.012-0.588-0.195c-0.195-0.232,0.037-0.648-0.244-0.783c-0.576-0.281-0.992-0.307-1.617-0.49
    c-0.857-0.258-1.322-0.527-2.154-0.832c-0.367-0.135-0.613-0.123-0.98-0.246c-0.306-0.098-0.514-0.195-0.832-0.244
    c-0.906-0.135-1.445-0.16-2.352-0.295c-0.318-0.049-0.514-0.17-0.832-0.244c-0.453-0.111-0.735-0.123-1.176-0.244
    c-0.453-0.123-0.735-0.16-1.176-0.344c-1.237-0.307-1.947-0.428-3.184-0.734c-0.404-0.098-0.625-0.197-1.029-0.246
    c-1.457-0.207-2.314-0.184-3.771-0.439c-0.563-0.098-0.857-0.283-1.421-0.393c-0.686-0.135-1.114-0.098-1.813-0.195
    c-0.587-0.086-0.931-0.086-1.519-0.195c-0.453-0.088-0.71-0.209-1.176-0.246c-0.453-0.037-0.746,0.025-1.176-0.098
    c-0.611-0.172-0.967-0.367-1.566-0.588c-0.748-0.27-1.299-0.16-1.96-0.588c-0.306-0.195-0.38-0.441-0.587-0.734
    c-0.355-0.49-0.76-0.613-1.323-0.834c-0.404-0.158-0.673-0.219-1.077-0.391c-0.172-0.074-0.393-0.098-0.393-0.295
    c0-0.146,0.086-0.256,0.049-0.391c-0.073-0.246-0.281-0.309-0.489-0.441c-0.245-0.16-0.38-0.33-0.588-0.539
    c-0.563-0.563-0.906-0.918-1.567-1.371c-0.416-0.281-0.711-0.318-1.176-0.49c-0.76-0.281-1.213-0.428-2.008-0.539
    c-0.932-0.135-1.421-0.428-2.303-0.734c-0.404-0.135-0.674-0.16-1.078-0.295c-1.225-0.416-1.959-0.623-3.184-1.027
    c-0.539-0.172-0.832-0.344-1.371-0.539c-0.38-0.135-0.674-0.098-0.98-0.344c-0.27-0.207-0.27-0.502-0.489-0.783
    c-0.282-0.367-0.502-0.576-0.931-0.783c-0.221-0.111-0.465-0.123-0.588-0.344c-0.146-0.281-0.146-0.49-0.294-0.783
    c-0.171-0.355-0.417-0.502-0.735-0.734c-0.416-0.307-0.697-0.479-1.175-0.686c-0.27-0.111-0.355-0.332-0.588-0.49
    c-0.208-0.135-0.368-0.184-0.588-0.295c-0.453-0.244-0.723-0.439-1.176-0.686c-0.466-0.244-0.686-0.514-1.175-0.734
    c-0.674-0.307-1.09-0.404-1.764-0.734c-0.723-0.355-1.127-0.441-1.813-0.783c-0.404-0.197-0.588-0.418-0.98-0.637
    c-0.514-0.283-0.844-0.43-1.371-0.688c-0.441-0.219-0.734-0.305-1.176-0.537c-0.478-0.246-0.734-0.49-1.225-0.688
    c-0.208-0.084-0.367-0.098-0.588-0.146c-0.502-0.111-0.771-0.27-1.273-0.342c-0.71-0.098-1.077-0.318-1.764-0.539
    c-0.93-0.307-1.481-0.453-2.449-0.686l0,0l2.505-1.732c1.967-1.602,2.493-4.357,4.602-5.848c1.451-1.025,3.496-0.996,5.188-1.156
    c1.9-0.182,1.236-3.793,1.764-5.381c0.447-1.342,1.633-1.504,2.899-1.504c1.782,0,2.921-1.063,4.237-2.191
    c0.953-0.441,1.573-0.898,2.676-0.996c2.418-0.213,1.535-1.277,2.188-2.883c0.325-0.797,1.749-0.971,2.371-1.807
    c0.919-1.23,2.427-2.273,3.689-3.105c1.233-0.813,0.644-2.887,1.358-3.756c0.63-0.375,0.948-0.346,1.277-1.057
    c0.42-0.904,0.436-1.85,1.136-2.639c0.794-0.898,1.672-2.414,1.864-3.594C313.203,330.678,313.625,329.193,314.425,328.393
    L314.425,328.393L314.425,328.393z" data-powertiptarget="gkru-county"/>
</a>
<a xlink:href="/counties/rgee">
<path class="county" fill="#F2F2F2" stroke="#8D8D8D" d="M309.803,299.117c-0.525,1.229-0.313,2.941-0.547,4.283
    c-0.469,2.693,0.66,4.256,1.256,6.721c0.289,1.195,0.393,2.318,0.508,3.533c0.142,1.477,1.126,1.516,2.351,2.029
    c1.091,0.941,2.498,1.039,2.575,2.803c0.037,0.889-0.253,1.758-0.121,2.619c0.154,1.01,0.969,0.99,1.56,1.645
    c0.636,0.701,1.044,1.918,0.812,2.861c-0.34,1.383-1.271,1.383-2.473,1.686l-1.298,1.096l0,0c1.581,0.721,3.148,2.137,4.702,3.025
    c1.639,0.936,1.065,6.594,2.778,6.863c3.481,0.547,6.93,1.18,10.073,2.965c2.584,1.518,4.881,4.189,5.453,7.207l0,0
    c1.23-0.338,0.727-0.596,1.461-1.178c0.322-0.258,1.374,0.348,1.965,0.182c1.567-0.436,2.657-1.619,3.873-2.559
    c1.295-1,1.899-1.646,2.391-3.207c0.315-1,1.42-1.084,2.027-1.848c0.537-0.674,3.955-1.443,4.824-1.318
    c2.293,0.324,5.73,0.912,3.607,3.795c-0.963,1.309-1.911,1.723-2.067,3.514c-0.141,1.627,0.763,3.465,1.298,4.953
    c0.272,1.402,1.613,2.113,1.257,3.775c-0.558,2.596-2.659,3.764-1.621,6.6c0.39,1.063-0.337,3.504,0.871,3.979
    c0.362,0.143,3.812-0.604,4.216-0.832c1.347-0.764,1.856-0.926,3.344-0.893c1.758,0.039,3.359-1.627,4.664,0.08
    c0.43,0.564,0.826,1.178,1.642,1.178c0.896,0,1.661-0.496,2.108,0.59c0.625,0.529,0.756,1.504,1.398,1.928
    c0.965,0.637,2.57,0.734,3.682,1.014l0,0c-0.057-0.186-0.088-0.385-0.088-0.605c0-0.857,0.883-1.176,0.883-2.033
    c0-0.67,0-1.338,0-2.008c0-0.49-0.374-0.732-0.588-1.152c-0.275-0.535-0.393-0.955-0.393-1.566c0-1.004,0.283-1.527,0.98-2.254
    c0.299-0.314,0.537,0.594,0.979,0.686c0.146,0.031,0.221,0.197,0.393,0.197c0.343,0,0.465-0.369,0.686-0.588
    c0.367-0.367,0.588-0.664,1.078-0.883c0.439-0.197,0.732-0.225,1.176-0.391c0.266-0.102,0.588-0.197,0.588-0.49
    c0-0.344-0.271-0.49-0.393-0.785c-0.172-0.414-0.195-0.709-0.195-1.174c0-0.467-0.099-0.711-0.099-1.176
    c0-0.295,0.143-0.537,0-0.785c-0.323-0.561-1.509,0.072-1.567-0.588c-0.127-1.422,1.176-2.08,1.176-3.525
    c0-0.686-0.98-0.785-0.98-1.471c0-0.709,0.49-1.053,0.49-1.764c0-1.029-0.686-1.518-0.686-2.547c0-0.539,0.513-0.738,0.98-0.979
    c0.34-0.176,0.489-0.369,0.783-0.588c0.464-0.346,0.809-0.564,1.176-0.98c0.193-0.221,0.27-0.588,0.588-0.588
    c0.416,0,0.463,0.588,0.881,0.588c0.441,0,0.66-0.344,0.883-0.686c0.461-0.711,0.587-1.273,1.175-1.861
    c0.758-0.758,1.567-1.176,1.567-2.254c0-0.195-0.217-0.223-0.294-0.391c-0.167-0.369-0.392-0.564-0.392-0.98
    c0-0.881,0.463-1.324,0.686-2.154c0.118-0.441,0-0.736,0-1.201c0-0.449,0-0.896,0-1.346c0-1.078,1.078-1.471,1.078-2.549
    c0-1.42-0.637-2.053-0.98-3.428c-0.031-0.131-0.065-0.262-0.098-0.393c-0.111-0.449,0.758-0.1,1.176-0.293
    c0.268-0.125,0.367-0.49,0.686-0.49c0.612,0,0.954,0.293,1.568,0.293c0.734,0,0.836-1.777,1.371-1.273
    c1.102,1.043-0.105,3.906,1.371,3.625c1.354-0.258,1.133-1.908,1.47-3.232c0.298-1.174,1.007-1.615,1.665-2.645
    c0.077-0.119,0.119-0.271,0.196-0.393c0.095-0.148,0.392-0.098,0.392-0.293c0-0.418-0.314-0.592-0.588-0.883
    c-0.484-0.518-0.979-0.932-0.979-1.666c0-0.391,0.294-0.588,0.294-0.979c0-0.318-0.229-0.488-0.294-0.783
    c-0.058-0.27-0.003-0.514-0.098-0.785c-0.052-0.146-0.24-0.232-0.392-0.195c-0.131,0.033-0.262,0.066-0.393,0.098
    c-0.823,0.207,0.057,2.17-0.783,2.057c-1.06-0.141-0.984-1.465-1.764-2.154c-0.689-0.609-1.078-1.029-1.666-1.764
    c-0.293-0.367-0.686-0.514-0.686-0.979c0-0.369,0.373-0.506,0.686-0.688c0.495-0.283,0.781-0.543,1.176-0.881
    c0.118-0.102,0.313-0.053,0.393-0.195c0.287-0.518-0.137-0.955-0.098-1.568c0.033-0.537,0.293-0.832,0.293-1.371
    c0-0.564-0.392-0.809-0.392-1.371c0-0.344,0.487-0.277,0.784-0.393c0.266-0.104,0.508-0.25,0.686-0.49
    c0.508-0.689,1.135-1.023,1.273-1.861c0.04-0.238-0.197-0.42-0.443-0.582l0,0c-1.506,0.049-3.15,0.363-4.627,0.621
    c-1.295,0.227-2.634,0.629-3.951,0.629c-2.939,0-6.008-0.572-8.859-1.258c-6.054-0.572-13.863-0.408-18.223-5.156
    c-1.103-1.201-3.147-0.846-4.621-1.545c-2.731-0.543-5.773,0.285-8.453-0.385c-0.777-0.193-1.244-0.848-1.986-1.096
    c-3.411-1.139-9.533,0.082-12.75,1.441c-2.546,1.168-3.123,2.023-5.514,0.588c-0.863-0.518-4.896,0.066-5.758,0.629
    c-1.059,0.693-2.219,2.043-3.344,2.498c-1.355,0.547-4.21,0.84-5.696,0.975C311.94,299.412,310.835,299.117,309.803,299.117
    L309.803,299.117L309.803,299.117z" data-powertiptarget="rgee-county"/>
</a>
</svg>
