<?xml version="1.0" encoding="utf-8"?>
<!-- Generator: Adobe Illustrator 13.0.0, SVG Export Plug-In . SVG Version: 6.00 Build 14948)  -->
<!DOCTYPE svg PUBLIC "-//W3C//DTD SVG 1.1//EN" "http://www.w3.org/Graphics/SVG/1.1/DTD/svg11.dtd">
<svg version="1.1" xmlns="http://www.w3.org/2000/svg" xmlns:xlink="http://www.w3.org/1999/xlink" x="0px" y="0px"
     width="180px" height="150px" viewBox="0 0 240 200" enable-background="new 0 0 240 200" xml:space="preserve">
<g id="Margibi">
	<path fill="#F2F2F2" stroke="#8D8D8D" d="M83.634,55.402c2.343-0.086,4.991-0.37,7.274,0.126c3.176,0.689,5.984,3.202,9.399,2.292
		c1.5-0.401,3.051-1.583,4.578-2.17c1.993-0.764,4.185-1.106,6.253-1.677c1.359-0.292,4.339-1.386,4.577-3.072
		c1.67-0.666,3.201-1.516,5.108-0.244c0,2.166,0.016,3.521,0.532,5.647c0.351,1.445-0.19,2.607,0.082,3.974
		c0.479,2.414,1.555,3.312,1.104,6.013c-0.333,1.993-0.67,3.541-0.49,5.49c1.512,1.083,5.548,0.571,7.52,0.571
		c3.091,0,6.598-0.559,9.644-0.079c4.286,0,4.123-0.256,4.945,3.438c0.038,0.162,0.36,5.139,1.228,3.887
		c2.301-3.335,2.225-8.222,7.724-8.392c4.47-0.138,6.098,3.166,9.563,3.725c4.195,0.682,5.476-2.146,8.992-3.233
		c2.289-0.708,3.397,0.803,5.517,1.024c9.254,0.961,10.758-2.028,15.162-8.966c0.8-0.91,1.109-2.197,1.554-3.316
		c0.957-2.414,1.186-1.551,2.9-0.41c2.269,1.512,5.092,3.174,7.644,4.135c1.957,0.737,3.583,3.056,3.719,5.12l0,0l-0.98,6.505
		c-1.185,3.564-1.223,7.584-3.229,10.888c-1.839,3.028-4.326,5.076-7.153,7.084c-1.823,1.292-4.186,0.792-5.966,1.843
		c-2.666,1.571-4.276,6.269-7.479,6.548c-4.332,2.678-11.251,5.832-16.349,4.667c-6.028-1.379-9.845,2.292-12.056-5.241
		c-0.356-1.217-3.509-5.328-4.699-3.233c-0.782,1.375-1.686,3.891-2.942,4.788c-1.266,2.816-1.77,6.285-4.538,8.27
		c-1.674,1.201-5.352,2.06-7.355,1.391c-1.515-0.504-2.024-2.461-3.72-3.067c-2.73-0.977-4.127-0.701-5.925-3.359
		c-1.311-1.938-3.269-6.714-6.214-3.765c-1.53,1.532-2.005-0.921-3.269-1.312c-1.765-0.543-3.831,2.15-5.926,2.005
		c-3.986-0.271-2.248-0.327-2.248,2.992c0,3.292,2.728,3.631,3.024,6.223c0.253,2.291,2.325,2.901,0.49,5.563
		c-1.05,1.528-3.129,3.324-4.619,4.462c-4.535,3.478-1.532,7.006-2.697,11.829c-0.565,2.343-3.934,4.269-5.68,5.935
		c-1.063,1.016-1.003,2.997-1.594,4.261c-0.376,1.977,1.737,3.517-0.286,5.115c-1.363,1.079-3.327,0.177-3.76,2.741
		c-0.632,3.756-5.593,6.65-4.086,10.888c0.518,1.461,1.872,5.146-0.367,5.895l-2.558,4.383l0,0l-0.246,0.398
		c0.049,0.665,0,1.012,0,1.678h-0.813c-0.347,0-0.495-0.197-0.815-0.296c-0.593-0.173-0.987-0.271-1.58-0.496
		c-0.939-0.343-1.581-0.445-2.47-0.886c-0.666-0.323-0.988-0.744-1.581-1.186c-0.295-0.225-0.593-0.271-0.79-0.595
		c-0.37-0.618-0.295-1.232-0.888-1.678c-0.272-0.196-0.567-0.248-0.89-0.295c-0.986-0.197-1.727,0.047-2.567-0.496
		c-0.295-0.174-0.418-0.469-0.691-0.689c-0.518-0.444-0.938-0.571-1.58-0.791c-2.221-0.815-3.555-1.261-5.431-2.666l0.099,0.492
		c0.321,0.866,0.272,1.729,1.086,2.174c0.815,0.444,1.729,0.047,2.273,0.791c0.395,0.544,0.443,1.012,0.79,1.579
		c0.617,1.012,1.457,1.579,2.666,1.579c0.346,0,0.569,0,0.89-0.099c0.32-0.098,0.443-0.394,0.79-0.394
		c0.494,0,0.741,0.197,1.186,0.394c0.667,0.296,1.036,0.595,1.479,1.186c0.347,0.469,0.446,0.988,0.987,1.186
		c0.273,0.099,0.521,0.051,0.791,0.099c0.495,0.074,0.791,0.421,1.285,0.492c0.592,0.074,1.136-0.095,1.581,0.299
		c0.74,0.642,0.395,1.556,0.492,2.567c0.1,0.839,0.396,1.261,0.592,2.071c-1.011-0.74-1.58-1.331-2.765-1.775
		c-0.616-0.221-0.987-0.296-1.58-0.591c-1.16-0.595-1.727-1.261-2.962-1.678c-2.148-0.744-3.407-1.236-5.532-2.079
		c-0.79-0.296-1.233-0.689-2.072-0.886c-1.481-0.37-2.371-0.67-3.753-1.284c-1.135-0.52-1.777-0.913-2.961-1.283
		c-2.644-0.815-4.124-1.457-6.815-2.174c-0.814-0.197-1.259-0.521-2.073-0.693c-2.543-0.543-4.1-0.37-6.618-0.984
		c-1.258-0.52-1.876-0.693-3.26-0.89c-1.135-0.174-1.752-0.422-2.864-0.693c-0.295-0.071-0.493-0.244-0.791-0.296
		c-0.79-0.149-1.308-0.122-2.073-0.394c-1.062-0.382-1.768-0.681-2.737-0.925l0,0l1.643-2.607c0.603-0.839-3.856-7.568-3.558-10.479
		c0.367-3.579,3.266-6.458,5.231-9.25c1.269-1.804,1.79-5.639,3.31-6.962c1.263-1.095,10.881-0.339,13.038-0.122
		c2.121,0.217,4.598,1.142,6.702,0.862c2.499-0.335,5.056-1.395,7.603-1.395c1.376-0.114,2.529,0.276,3.555-0.692
		c1.063-1.009,4.466-0.457,4.74-1.843c0.254-1.276-1.182-2.434-1.103-3.848c0.075-1.323,3.071-4.198,4.005-5.241
		c1.832-2.048,2.625-5.041,3.516-7.616c1.5-3.599,0.897-8.525,1.307-12.4c0.203-1.921,0.083-5.43-0.939-7.08
		c-0.872-1.41-2.018-2.5-3.066-3.725c-1.851-2.166-1.602-3.556-4.087-5.241c-1.96-1.327-6.012-1.354-3.27-5.237
		c1.127-0.906,1.304-2.453,2.33-3.481c1.549-1.552,3.735-1.544,5.272-3.398c2.142-2.583,4.039-5.828,3.596-9.29
		c-0.187-1.461,0.308-2.847,0.245-4.3L83.634,55.402L83.634,55.402L83.634,55.402z"/>
</g>
</svg>
