<?xml version="1.0" encoding="utf-8"?>
<!-- Generator: Adobe Illustrator 13.0.0, SVG Export Plug-In . SVG Version: 6.00 Build 14948)  -->
<!DOCTYPE svg PUBLIC "-//W3C//DTD SVG 1.1//EN" "http://www.w3.org/Graphics/SVG/1.1/DTD/svg11.dtd">
<svg version="1.1" xmlns="http://www.w3.org/2000/svg" xmlns:xlink="http://www.w3.org/1999/xlink" x="0px" y="0px"
     width="180px" height="150px" viewBox="0 0 240 200" enable-background="new 0 0 240 200" xml:space="preserve">
<g id="Montserrado">
	<path fill="#F2F2F2" stroke="#8D8D8D" d="M155.964,51.927L158.408,50l0,0c-0.156,0.29,2.303,3.134,2.924,3.85
		c1.73,1.998,1.8,5.326,4.891,5.86c3.207,0.551,6.079,1.157,8.95,2.975l4.499,1.965l0,0l0.217,4.943
		c0.067,1.553-0.461,3.033-0.261,4.594c0.471,3.698-1.555,7.165-3.843,9.924c-1.644,1.981-3.979,1.973-5.634,3.63
		c-1.096,1.098-1.283,2.751-2.488,3.719c-2.93,4.148,1.398,4.177,3.494,5.595c2.654,1.8,2.39,3.286,4.366,5.599
		c1.119,1.309,2.344,2.474,3.275,3.98c1.092,1.763,1.22,5.511,1.004,7.563c-0.438,4.14,0.206,9.403-1.397,13.248
		c-0.95,2.751-1.798,5.948-3.757,8.137c-0.997,1.114-4.198,4.186-4.278,5.6c-0.084,1.51,1.449,2.747,1.178,4.109
		c-0.292,1.481-3.927,0.893-5.063,1.97c-1.096,1.034-2.329,0.618-3.799,0.74c-2.72,0-5.455,1.132-8.122,1.489
		c-2.248,0.299-4.895-0.69-7.16-0.922c-2.304-0.231-12.579-1.039-13.93,0.131c-1.623,1.413-2.179,5.511-3.535,7.438
		c-2.1,2.983-5.196,6.059-5.589,9.883c-0.318,3.108,4.444,10.299,3.801,11.194L126.396,180l0,0c-0.239-0.059-0.492-0.118-0.77-0.173
		c-2.558-0.525-4.011-0.736-6.543-1.371c-1.872-0.45-2.953-0.53-4.853-0.842c-0.87-0.134-1.556-0.188-2.215-0.74
		c-0.159-0.135-0.184-0.29-0.317-0.425c-0.685-0.686-1.187-1.132-1.581-2.003c-0.211-0.5-0.317-0.845-0.633-1.266
		c-0.686-0.871-1.478-0.977-2.534-1.267c-1.265-0.345-1.872-0.841-3.061-1.371c-1.422-0.636-2.373-0.74-3.797-1.372
		c-1.609-0.711-2.216-1.741-3.8-2.532c-0.948-0.476-1.608-0.636-2.531-1.161c-1.344-0.766-1.952-1.502-3.271-2.322
		c-0.712-0.421-1.135-0.791-1.584-1.477c-0.184-0.29-0.314-0.581-0.526-0.842c-0.237-0.29-0.739-0.345-0.739-0.74
		c0-0.605,0.608-0.766,0.951-1.267c0.291-0.45,0.448-0.766,0.633-1.266c0.87,1.161,1.661,1.661,2.532,2.848
		c0.501,0.716,0.369,1.347,0.843,2.112c0.316,0.53,0.845,0.74,1.478,0.74c1.267,0,1.9-0.636,3.166-0.636
		c0.896,0,1.398,0.426,2.11,0.951c0.949,0.711,1.557,1.081,2.533,1.792c0.29,0.211,0.553,0.315,0.737,0.631
		c0.318,0.556,0.134,1.111,0.422,1.691c0.08,0.186,0.265,0.211,0.422,0.315c0.609,0.476,1.109,0.741,1.899,0.741
		c0.977,0,1.557-0.45,2.216-1.161c0.16-0.186,0.423-0.266,0.423-0.53c0-1.343-1.056-1.897-1.689-3.059l0.316-1.267
		c-0.394-0.711-0.579-1.267-1.266-1.687c-0.948-0.581-1.608-0.716-2.637-1.161c-1.372-0.606-2.058-1.187-3.376-1.902
		c-0.475-0.235-0.712-0.735-1.267-0.735c-1.162,0-1.872,0.235-2.953,0.631c-1.266,0.476-1.609,1.796-2.956,1.796
		c-0.659,0-0.923-0.66-1.161-1.266c-0.211-0.556-0.527-0.871-0.527-1.478c0-0.609,0.449-0.925,0.633-1.477
		c0.422-1.136,0.449-1.876,0.633-3.063c0.105-0.631,0.316-1.026,0.316-1.687c0-1.611-0.66-2.479-1.373-3.904
		c-0.395-0.816-0.685-1.347-1.161-2.112c-0.211-0.341-0.474-0.471-0.633-0.841c-0.869-2.032-1.159-3.483-2.847-4.96
		c-0.74-0.632-1.398-0.766-2.111-1.477c-1.267-1.267-1.688-2.243-2.85-3.589c-0.263-0.315-0.343-0.551-0.633-0.842
		c-0.553-0.555-1.055-0.74-1.688-1.161c-1.029-0.686-1.477-1.346-2.533-2.007c-0.5-0.29-0.845-0.525-1.267-0.95
		c-0.817-0.816-1.449-1.187-2.425-1.792c-1.397-0.871-2.111-1.531-3.377-2.638c-0.895-0.766-1.608-0.977-2.531-1.688
		c-0.502-0.37-0.66-0.816-1.162-1.161c-0.765-0.501-1.319-0.711-2.11-1.161c-1.343-0.766-1.924-1.607-3.271-2.428l0,0
		c0.395-1.678,1.664-4.909,2.419-6.42c0.418-0.841,1.051-2.503,1.746-3.021c0.674-0.5,1.901-0.563,2.708-0.438
		c1.259,0.193,2.745-0.644,3.842-0.307c1.619,0.5,2.343,2.671,2.49,4.245c1.155,2.523,3.526,5.456,3.144,8.309
		c-0.34,2.532,0.326,6.365,3.755,5.553c4.839-1.148,9.647,1.405,11.396-5.423c0.224-0.875-0.536-3.706,0.174-4.198
		c0.543-0.374,4.295,0.319,5.415,0.173c5.449-0.703,11.483-0.013,13.273-6.471c3.895-4.203,7.069-4.805,12.007-7.085
		c4.75-2.191,4.238-7.101,6.943-10.715c1.052-1.405,3.642-3.399,4.018-5.069c0.295-1.313-0.117-2.251,1.048-3.239
		c1.557-1.317,0.399-2.243,1.223-3.584c0.95-1.552,2.842-2.091,1.79-4.199c0.073-1.472,0.845-5.898,1.615-7.126
		c1.354-2.163,1.192-4.005,1.485-6.386c0.219-1.792,1.176-1.775,2.095-3.017C145.469,55.831,159.522,59.512,155.964,51.927
		L155.964,51.927L155.964,51.927z"/>
</g>
</svg>
