<?xml version="1.0" encoding="utf-8"?>
<!-- Generator: Adobe Illustrator 13.0.0, SVG Export Plug-In . SVG Version: 6.00 Build 14948)  -->
<!DOCTYPE svg PUBLIC "-//W3C//DTD SVG 1.1//EN" "http://www.w3.org/Graphics/SVG/1.1/DTD/svg11.dtd">
<svg version="1.1" xmlns="http://www.w3.org/2000/svg" xmlns:xlink="http://www.w3.org/1999/xlink" x="0px" y="0px"
     width="180px" height="150px" viewBox="0 0 240 200" enable-background="new 0 0 240 200" xml:space="preserve">
<g id="Maryland">
	<path fill="#F2F2F2" stroke="#8D8D8D" d="M116.813,167.173l3.563-2.091c2.878-0.956,7.214-9.227,6.689-12.271
		c-0.42-2.459,0.62-10.995-0.763-12.378c-3.759-0.466-6.98,2.069-5.853-4.26c0.508-1.313,2.602-1.933,2.654-3.278
		c0.21-5.338-3.087-8.936-4.581-13.58c-1.601-4.988-10.34-7.321-14.069-10.088c-1.056,0.066-6.706-2.907-8.107-3.531
		c-7.377-3.299-15.071-5.863-23.157-5.863l-0.073-0.07c0-1.509,2.585-6.087,3.418-7.538c2.172-3.769,2.144-5.002,2.144-9.43
		c0.039,0.504,0.161-0.746,0.184-0.911c0.17-1.254,0.499-1.636,1.161-2.624c0.704-1.044,1.359-2.133,1.02-3.458
		c-0.378-1.488-0.543-3.18-0.543-4.735l1.089-3.24l0,0c2.207-0.603,1.299-1.065,2.617-2.112c0.581-0.462,2.466,0.624,3.527,0.33
		c2.808-0.785,4.764-2.904,6.943-4.589c2.326-1.797,3.408-2.957,4.291-5.751c0.563-1.793,2.547-1.944,3.634-3.313
		c0.961-1.208,7.095-2.589,8.654-2.368c4.112,0.585,10.274,1.64,6.469,6.81c-1.73,2.347-3.429,3.089-3.709,6.298
		c-0.252,2.918,1.368,6.217,2.329,8.883c0.485,2.515,2.894,3.79,2.252,6.774c-1.002,4.655-4.771,6.75-2.909,11.836
		c0.699,1.902-0.601,6.284,1.564,7.135c0.648,0.252,6.837-1.083,7.562-1.492c2.413-1.373,3.328-1.664,5.997-1.604
		c3.152,0.073,6.024-2.918,8.364,0.147c0.771,1.012,1.481,2.112,2.942,2.112c1.604,0,2.978-0.89,3.783,1.054
		c1.121,0.953,1.355,2.701,2.504,3.461c1.734,1.142,4.61,1.313,6.606,1.814l0,0c0.305,0.994,1.033,1.733,1.951,2.431
		c1.146,0.869,3.163,0.613,3.163,2.105c0,0.879-0.704,1.229-0.704,2.112c0,1.404,0.711,2.104,0.876,3.51
		c0.315,2.592,0.704,4.087,0.704,6.676c0,1.541-0.834,2.375-1.051,3.867c-0.137,0.921,0.175,1.492,0.175,2.459
		s-0.056,1.622-0.525,2.462c-0.318,0.564-1.408,0.526-1.408,1.229c0,0.613,0.616,0.922,0.879,1.405s0.567,0.921,0.88,1.404
		c0.875,1.362,1.138,2.505,1.138,4.176c0,3.071,0,6.146,0,9.222c0,0.305-0.385,0.396-0.438,0.658
		c-0.21,1.055-0.175,1.713-0.175,2.813c0,1.976-0.032,3.118,0.175,5.094c0.053,0.525,0.351,0.879,0.351,1.408
		c0,2.325-0.704,3.643-0.704,5.972c0,1.271-0.039,2.368,0.879,3.159c0.403,0.348,1.013,0.176,1.408,0.529
		c0.925,0.83,1.229,1.846,1.229,3.163c0,0.438-0.519,0.532-0.7,0.879c-0.432,0.796-0.662,1.447-1.233,2.105
		c-0.529,0.616-1.404,0.879-1.404,1.759c0,0.57,0.133,1.054,0.525,1.408c0.833,0.742,1.839,0.364,2.813,0.879
		c0.519,0.273,0.603,0.883,0.879,1.401c0.466,0.886,1.752,1.541,2.193,2.462l0,0h-3.776c-1.1-0.088-1.709-0.266-2.813-0.266
		c-0.938,0-1.492,0.091-2.438,0.091c-0.459,0-0.7,0.175-1.162,0.175c-1.097,0-1.668-0.309-2.722-0.616
		c-1.563-0.463-2.463-0.704-4.061-0.704c-1.433,0-2.221-0.084-3.649-0.084c-1.759,0-2.746-0.333-4.501-0.441
		c-0.921-0.042-1.472-0.042-2.375-0.176c-0.7-0.111-1.142-0.263-1.843-0.354c-2.241-0.325-3.579-0.021-5.797-0.525
		c-0.967-0.217-1.496-0.462-2.462-0.704c-1.359-0.325-2.109-0.658-3.426-1.138c-0.659-0.242-1.055-0.375-1.755-0.354
		c-0.441,0-0.726,0.179-1.143,0.088c-0.154-0.021-0.154-0.217-0.266-0.351c-0.176-0.221-0.351-0.396-0.351-0.704
		c0-0.35,0.263-0.525,0.263-0.879c0-0.613-0.813-0.634-1.403-0.788c-0.745-0.221-1.121-0.463-1.846-0.704
		c-1.072-0.351-1.69-0.7-2.81-0.876c-0.396-0.066-0.637-0.266-1.054-0.266c-0.154,0-0.2,0.175-0.352,0.175
		c-0.177,0-0.198-0.221-0.352-0.263c0.417-0.746,0.856-1.033,1.317-1.755C116.421,168.073,116.813,167.789,116.813,167.173
		L116.813,167.173L116.813,167.173z"/>
</g>
</svg>
