<?xml version="1.0" encoding="utf-8"?>
<!-- Generator: Adobe Illustrator 13.0.0, SVG Export Plug-In . SVG Version: 6.00 Build 14948)  -->
<!DOCTYPE svg PUBLIC "-//W3C//DTD SVG 1.1//EN" "http://www.w3.org/Graphics/SVG/1.1/DTD/svg11.dtd">
<svg version="1.1" xmlns="http://www.w3.org/2000/svg" xmlns:xlink="http://www.w3.org/1999/xlink" x="0px" y="0px"
     width="180px" height="150px" viewBox="0 0 240 200" enable-background="new 0 0 240 200" xml:space="preserve">
<g id="Nimba">
	<path fill="#F2F2F2" stroke="#8D8D8D" d="M96.334,179.917l1.024,0.044l0,0c0.496-0.282,0.648-0.714,1.039-0.995
		c0.031-0.022,0.708,0.522,0.921,0.63c0.257,0.127,2.271,0.335,2.488,0.19c1.062-0.719,1.091-0.05,2.048,0.19
		c0.66,0.164,1.305-0.574,1.989-0.674c1.284-0.189,1.858,1.193,3.146-0.294c0.33-0.382,1.354-1.47,1.375-1.919
		c0.024-0.536-0.452-0.753-0.321-1.421c0.111-0.575,0.215-1.682-0.645-1.715c-0.609-0.023-1.735,1.332-1.975,0.19
		c0.022-0.512-0.627-1.26-0.351-1.699c0.527-0.841,1.826-1.484,1.61-2.74c-0.12-0.696-0.553-1.205-0.82-1.861
		c-0.374-0.916,0.329-0.856,1.039-1.01c1.004-0.218,1.91-0.635,2.94-0.82c0.636-0.116,1.721-0.654,1.815-1.393
		c0.059-0.043,0.059-0.104,0.116-0.147c0.041-0.452,0.342-0.888,0.367-1.421c0.118-0.425-0.045-0.734-0.03-1.158
		c0.03-0.816,0.454-0.718,0.043-1.641c-0.165-0.371,0.541-1.043,0.747-1.348c0.386-0.572-0.25-2.037,0.614-2.037
		c1.321,0,1.102-0.404,1.609-1.289c0.35-0.61,1.949-0.616,2.633-0.703c1.287-0.164,1.043-1.717,1.668-2.345
		c0.518-0.373,0.358-0.948,0.541-1.494c0.131-0.393,0.538-0.649,0.556-1.069c0.047-1.119,0.413-1.359,1.17-2.17
		c0.388-0.413,0.866-0.85,0.951-1.435c0.175-1.188,0.874-1.301,1.624-2.051c0.787-0.789,0.839-1.338,0.79-2.463
		c0.155-0.149,0.545-1.785,0.57-2.094c0.063-0.794,0.038-1.155,0.746-1.598c0.359-0.224,1.302-1.813,1.302-2.242
		c0-0.341-0.255-0.667-0.351-0.995c-0.156-0.531,0.241-1.678,0.595-2.054l0,0c0.07-0.473,0.062-0.963,0.212-1.415
		c0.03-0.092,0.188-0.047,0.283-0.07c0.356-0.089,0.335,0.637,0.707,0.637c0.317,0,0.354-0.355,0.494-0.637
		c0.106-0.212,0.3-0.327,0.354-0.565c0.232-1.029,1.148-1.167,1.697-2.051c0.494-0.795-0.06-2.489,0.849-2.263
		c0.094,0.024,0.188,0.048,0.283,0.07c0.22,0.055,0.205,0.479,0.424,0.425c0.92-0.23,1.237-0.884,1.908-1.555
		c0.46-0.461,0.995-0.422,1.414-0.919c0.234-0.279,0.34-0.546,0.637-0.778c0.533-0.42,1.007-0.601,1.343-1.202
		c0.178-0.317,0.246-0.55,0.425-0.849c0.297-0.496,0.724-0.711,1.272-0.919c0.335-0.127,0.707-0.266,0.707-0.636
		c0-0.283-0.212-0.425-0.212-0.708s0.353-0.248,0.565-0.424c0.212-0.177,0.296-0.32,0.425-0.565
		c0.261-0.498,0.579-0.709,0.849-1.202c0.173-0.319,0.141-0.636,0.353-0.919s0.514-0.264,0.848-0.354
		c0.32-0.086,0.588,0.071,0.849-0.141c0.235-0.19-0.07-0.53,0.071-0.778c0.07-0.122,0.182-0.287,0.283-0.211
		c0.094,0.07,0.167,0.235,0.283,0.211c0.094-0.019,0.047-0.188,0.07-0.281c0.105-0.425-0.212-0.691-0.212-1.132
		c0-0.354,0.214-0.547,0.353-0.849c0.091-0.193,0.069-0.409,0.213-0.565c0.228-0.25,0.565-0.213,0.777-0.495
		c0.266-0.354,0.195-0.707,0.283-1.132c0.018-0.087-0.019-0.194,0-0.281c0.121-0.55,0.706-0.708,0.706-1.273
		c0-0.529-0.304-0.795-0.494-1.272c-0.161-0.406-0.164-0.689-0.212-1.131c-0.023-0.213-0.142-0.354-0.142-0.566
		c0-0.371,0.548-0.213,0.919-0.213c0.177,0,0.283-0.176,0.283-0.353c0-0.513-0.292-0.799-0.425-1.272
		c-0.237-0.852-0.106-1.379-0.212-2.263c-0.055-0.459-0.354-0.653-0.354-1.113c0-0.176-0.104-0.41,0.07-0.442
		c0.562-0.102,0.97,0.031,1.414-0.282c0.21-0.146,0.23-0.372,0.425-0.565c0.424-0.424,0.849-0.725,0.849-1.345
		c0-0.335-0.122-0.512-0.142-0.847c-0.033-0.548,0.016-0.884-0.071-1.415c-0.108-0.67-0.361-1.041-0.564-1.696
		c-0.027-0.086,0.02-0.196,0-0.283c-0.157-0.672-0.143-1.079-0.143-1.768c0-0.795-0.042-1.271,0.071-2.051
		c0.027-0.193,0.119-0.354,0.142-0.565c0.102-0.954,0.503-1.462,0.989-2.262c0.115-0.19,0.354-0.317,0.354-0.565
		c0-0.689-0.529-1.043-1.132-1.343c-0.67-0.335-1.044-0.544-1.696-0.919c-0.639-0.368-1.093-0.622-1.414-1.273
		c-0.244-0.496-0.53-0.743-0.919-1.132c-0.318-0.317-0.636-0.53-0.636-0.989c0-0.565,0.424-0.849,0.424-1.414
		c0-0.565-0.459-0.813-0.849-1.202c-0.478-0.477-0.813-0.725-1.202-1.273c-0.652-0.919-0.544-1.636-0.777-2.757
		c-0.117-0.565-0.298-1.122-0.354-1.697c-0.063-0.663,0-1.331,0-1.997c0-0.689-0.236-1.093-0.566-1.679
		c-0.165-0.296-0.424-0.478-0.424-0.832c0-0.571-0.035-1.143,0-1.714c0.013-0.193,0.096-0.376,0.143-0.565
		c0.139-0.556-0.137-0.94-0.425-1.414c-0.348-0.569-0.553-0.916-0.99-1.414c-0.074-0.086-0.037-0.241-0.142-0.284
		c-0.324-0.132-0.582-0.244-0.874-0.255c-0.135-0.056-0.555-0.333-0.681-0.453c-0.442-0.406-0.424-0.919-0.778-1.414
		c-0.265-0.371-0.564-0.583-0.564-1.043c0-0.123,0.141-0.176,0.141-0.3l0,0c-0.707-0.23-1.061-0.478-1.697-0.849
		c-0.3-0.159-0.565-0.159-0.849-0.353c-0.088-0.053-0.053-0.212-0.141-0.283c-0.177-0.142-0.371-0.229-0.565-0.354
		c-0.654-0.424-1.097-0.619-1.697-1.131c-0.565-0.478-1.061-0.867-1.061-1.626c0-0.337,0.177-0.513,0.212-0.849
		c0.036-0.389,0-0.6,0-0.989c0-0.725-0.07-1.132-0.212-1.838c-0.071-0.408-0.301-0.778-0.707-0.849
		c-0.529-0.107-0.866-0.019-1.413-0.072c-0.654-0.071-1.043-0.211-1.697-0.211c-0.549,0-0.884-0.036-1.414,0.07
		c-0.689,0.141-1.025,0.424-1.697,0.637c-0.089,0.017-0.194-0.036-0.283,0c-0.139,0.069-0.382,0.341-0.459,0.455
		c0.103,0.131,0.177,0.278,0.177,0.464c0,0.282-0.445,0.183-0.566,0.424c-0.093,0.188-0.188,0.376-0.281,0.565
		c-0.085,0.169-0.068,0.391-0.143,0.565c-0.207,0.496-0.601,0.637-0.848,1.132c-0.318,0.636-0.352,1.025-0.566,1.697
		c-0.315,0.989-0.989,1.484-0.989,2.544c0,1.097,1.272,1.449,1.272,2.546c0,1.803-1.557,2.403-2.404,3.959
		c-0.461,0.847-0.455,1.703-1.272,2.263c-0.526,0.359-1.32-0.415-1.697,0.141c-0.556,0.819,0.432,1.652,0,2.546
		c-0.185,0.383-0.743,0.069-1.132,0.141c-0.176,0.034-0.424-0.141-0.565,0c-0.354,0.354-0.424,0.778-0.707,1.132
		c-0.849,1.06-1.979,1.59-1.979,2.97c0,0.989,0.661,1.595,0.424,2.544c-0.094,0.378-0.332,0.746-0.283,1.132
		c0.051,0.419,0.446,0.728,0.566,1.132c0.073,0.248,0,0.518,0,0.777c0,1.097-1.697,0.072-2.793,0.072
		c-1.626,0-2.369-1.132-3.995-1.132c-0.248,0-0.437,0.11-0.566,0.283c-0.148,0.197,0.283,0.317,0.283,0.565
		c0,0.283-0.218,0.41-0.424,0.565c-0.172,0.128-0.318-0.282-0.566-0.282c-0.671,0-0.601,0.919-1.131,1.271
		c-0.318,0.211-0.707,0-1.131,0c-1.52,0-2.013,1.245-3.394,1.839c-1.659,0.712-2.409,1.582-3.959,2.403
		c-0.107,0.056-0.22,0.103-0.335,0.145l0,0l-0.14,2.213c-0.095,0.611-0.41,1.048-0.41,1.7c0,1.121-0.917,1.822-0.951,3.004
		c-0.034,1.178-0.231,1.404-1.141,2.051c-0.423,0.3-1.13,0.571-1.024,1.23c0.066,0.417,0.614,0.65,0.614,1.07
		c0,0.838-1.13,0.692-1.17,1.567c-0.019,0.428,1.477,1.013,0.38,1.67c-0.202,0.139-1.476,0.552-1.185,0.879
		c0.583,0.657,1.568,1.448,2.004,2.154c0.172,0.279,0.232,0.712,0.307,1.04c0.049,0.217,0.839,1.658,0.98,1.817
		c0.337,0.38,0.927,0.344,1.287,0.776c0.515,0.617,0.44,1.266,0.44,2.022c0,0.912,0.381,1.185,1.009,1.742
		c0.831,1.083,0.636,1.729-0.542,2.58c-0.374,0.271-0.655,0.604-1.024,0.863c-0.623,0.44-1.572,0.657-0.937,1.613
		c0.442,0.663,0.442,0.812-0.087,1.317c-0.365,0.35-0.089,0.627-0.234,1.012c-0.262,0.688-1.346,0.253-1.346,1.23
		c0,0.294,0.264,0.429,0.264,0.718c0,0.432-0.1,0.776-0.278,1.173c-0.176,0.175-0.512,0.338-0.512,0.614
		c0,0.316,0.28,0.593,0.38,0.894c0.072,0.218,0.037,0.335-0.03,0.543c-0.07,0.226-0.116,0.468-0.189,0.688l-0.264,0.88l0,0
		c-0.167,0.638,0.161,1.545,0.146,2.228l-0.059,2.843c-0.016,0.796-0.342,1.84-0.132,2.578c0.407,1.429,0.241,2.35,1.843,2.843
		c0.775,0.238,1.242,0.527,1.917,0.924c0.776,0.455,1.62,0.706,2.383,1.2c0.586,0.374,1.201,0.899,1.844,1.144
		c0.727,0.274,1.939,0.791,1.185,1.743c-0.44,0.556-1.252,0.238-1.595,0.601c-0.357,0.379,0.084,1.046,0.132,1.48
		c0.033,0.297-0.094,1.686-0.351,1.787c-0.785,0.314-2.033,0.279-2.883,0.396c-0.261,0.136-0.736,0.102-1.038,0.117
		c-0.582,0.03-1.148,0.184-1.726,0.25c-0.324,0.036-0.66,0.114-0.98,0.176c-0.308,0.058-0.758,0.066-1.024,0.22l0,0
		c1.36,1.836,3.686,2.912,5.69,3.955c2.715,1.413,1.001,2.823,0.367,4.895c-0.204,0.96-0.736,1.692-1.068,2.563
		c-0.379,0.991-0.737,2.346-1.888,2.521c-1.564,0.238-3.038,0.957-4.461,1.567c-0.904,0.452-1.794,0.252-2.327,1.217
		c-0.418,0.757,0.057,1.202,0.805,1.202c0.573,0,1.347-0.391,1.917-0.543c0.833-0.224,1.443,0.994,2.063,1.392
		c0.35,0.226,0.624,0.639,0.98,0.879c0.215,0.146,0.375,0.346,0.614,0.47c0.295,0.152,0.683,0.12,0.994,0.248
		c0.976,0.057,3.989,3.194,2.034,3.194c-1.151,0-0.613,0.354-0.791,1.362c-0.139,0.798,1.005,1.042,0.908,1.817
		c-1.35,0.772,0.607,3.266,1.112,3.956c0.038,0.257,0.19,0.472-0.059,0.631c-0.298,0.189-0.712,0.262-0.732,0.703
		c-0.012,0.279-0.033,0.532-0.102,0.805c-0.107,0.42-0.566,0.492-0.864,0.733C96.477,179.03,96.334,179.439,96.334,179.917
		L96.334,179.917L96.334,179.917z"/>
</g>
</svg>
