<?xml version="1.0" encoding="utf-8"?>
<!-- Generator: Adobe Illustrator 13.0.0, SVG Export Plug-In . SVG Version: 6.00 Build 14948)  -->
<!DOCTYPE svg PUBLIC "-//W3C//DTD SVG 1.1//EN" "http://www.w3.org/Graphics/SVG/1.1/DTD/svg11.dtd">
<svg version="1.1" xmlns="http://www.w3.org/2000/svg" xmlns:xlink="http://www.w3.org/1999/xlink" x="0px" y="0px"
     width="180px" height="150px" viewBox="0 0 240 200" enable-background="new 0 0 240 200" xml:space="preserve">
<g id="Rivercess">
	<path fill="#F2F2F2" stroke="#8D8D8D" d="M146.937,56.183c2.306,3.117,6.252,4.941,9.652,6.71c4.603,2.395,1.697,4.788,0.619,8.3
		c-0.343,1.628-1.246,2.871-1.81,4.349c-0.644,1.681-1.253,3.978-3.201,4.274c-2.653,0.404-5.151,1.623-7.568,2.658
		c-1.53,0.767-3.042,0.43-3.944,2.063c-0.708,1.284,0.097,2.037,1.364,2.037c0.974,0,2.284-0.66,3.25-0.918
		c1.414-0.38,2.449,1.686,3.499,2.359c0.593,0.383,1.059,1.083,1.661,1.492c0.366,0.249,0.639,0.586,1.043,0.796
		c0.502,0.258,1.158,0.203,1.688,0.42c1.654,0.096,6.765,5.419,3.449,5.419c-1.952,0-1.04,0.598-1.341,2.31
		c-0.236,1.355,1.704,1.767,1.539,3.082c-2.29,1.313,1.028,5.539,1.886,6.71c0.065,0.438,0.323,0.799-0.1,1.068
		c-0.506,0.323-1.208,0.442-1.24,1.193c-0.021,0.473-0.056,0.903-0.175,1.365c-0.182,0.713-0.959,0.835-1.463,1.243
		c-0.627,0.507-0.869,1.202-0.869,2.013l0,0l-2.108,2.013l-1.092,1.939c-0.396,0.363-0.604,1.001-1.042,1.293
		c-0.337,0.225-0.76,0.134-1.093,0.373c-0.781,0.564-0.368,1.235-0.792,1.886c-0.277,0.426-0.814,0.566-1.067,1.021
		c-0.996,1.778,2.725,3.837,1.563,4.694c-0.618,0.459-3.031,1.616-3.771,1.765c-0.755,0.153-0.947-0.687-1.837-0.347
		c-1.023,0.39-1.629,1.466-2.604,1.963l-3.746,1.912c-1.364,0.698-2.651,1.729-4.02,2.338c-1.093,0.956-1.411,1.7-2.209,2.807
		c-0.502,0.7-1.788,0.466-2.455,1.219c-1.831,2.068-3.201,0.024-3.201,3.429c0,4.286,1.965,7.805,2.878,11.805
		c0,3.294,0.603,6.894-1.166,9.865c-1.142,1.918-5.017,5.169-5.21,7.33c-0.549,0.385-0.808,2.35-1.513,2.957L117.801,180l0,0
		c-0.345-0.232-0.705-0.476-1.115-0.779c-0.54-0.404-0.929-0.523-1.438-0.959c-0.27-0.225-0.376-0.464-0.66-0.659
		c-0.269-0.18-0.494-0.271-0.659-0.541c-0.315-0.494-0.256-1.035-0.72-1.377c-0.51-0.392-0.884-0.466-1.439-0.781
		c-0.345-0.239-0.661-0.523-0.661-0.959c0-0.239,0.12-0.358,0.12-0.6c0-0.12-0.164-0.12-0.24-0.18
		c-0.149-0.136-0.315-0.21-0.479-0.299c-0.344-0.21-0.449-0.512-0.539-0.898c-0.136-0.541-0.541-0.72-0.959-1.081
		c-0.255-0.21-0.42-0.375-0.719-0.54v-1.212c0-1.05,0.089-1.846-0.6-2.625c-0.285-0.33-0.585-0.435-0.96-0.66
		c-0.375-0.225-0.615-0.39-0.959-0.657c-0.181-0.136-0.21-0.301-0.36-0.48c-0.449-0.523-0.734-0.87-1.26-1.319
		c-0.24-0.196-0.449-0.299-0.72-0.479c-0.688-0.451-1.183-0.571-1.918-0.961c-0.644-0.344-1.003-0.568-1.679-0.839
		c-0.703-0.284-1.167-0.418-1.918-0.54c-0.463-0.074-0.763-0.103-1.198-0.299c-0.254-0.105-0.54-0.196-0.54-0.48
		c0-0.299,0.285-0.404,0.419-0.657c0.165-0.315,0.226-0.779,0.6-0.779c0.105,0,0.136,0.119,0.24,0.119c0.12,0,0.18-0.06,0.3-0.06
		v-1.456c0-0.959-0.705-1.349-1.38-2.022c-0.329-0.33-0.584-0.464-0.959-0.72c-0.48-0.33-0.704-0.6-1.2-0.898
		c-0.374-0.225-0.555-0.466-0.959-0.66c-0.269-0.136-0.494-0.179-0.778-0.299c-0.675-0.315-1.05-0.512-1.679-0.901
		c-0.51-0.313-0.72-0.614-1.199-0.958c-0.09-0.06-0.09-0.18-0.181-0.239c-0.344-0.225-0.614-0.271-0.959-0.48
		c-0.389-0.241-0.584-0.464-0.959-0.72c-0.898-0.614-1.183-1.319-2.159-1.798c-0.883-0.435-1.288-0.855-2.158-1.319
		c-0.658-0.345-1.048-0.509-1.679-0.898c-0.269-0.165-0.48-0.302-0.599-0.601l0,0l0.346-2.034c0.263-0.741,1.336-0.811,1.96-1.243
		c1.245-0.865,0.259-2.752,1.364-3.553c1.59-1.154,4.092-1.042,3.946-3.702l-0.149-2.709c-0.074-1.355-1.044-2.067-1.414-3.182
		c-0.247-0.789-0.749-1.583-1.042-2.41c-0.567-1.597,1.608-1.271,1.861-2.858c0.153-0.957-0.084-1.674-0.62-2.434
		c-0.853-1.21,0.024-2.767,0.024-4.177c0-0.729,0.731-1.197,0.918-1.912c0.229-0.878-0.109-1.674,0.175-2.609
		c0.639-0.459,1.233-1.494,1.265-2.287c0.035-0.839,0.569-1.382,0.596-2.087c0.053-1.382-1.19-2.556-1.415-3.852
		c-0.165-0.961,1.347-1.357,0.918-2.386c-0.936-2.247,1.067-2.018,1.067-3.928c0-1.001,0.411-1.241,0.719-2.111
		c0.379-1.071-0.74-1.922-0.793-2.933c0.357-2.281,0.652-3.029,3.299-3.626c3.85-0.87,0.295-6.039,4.318-6.039
		c2.625,0,4.226-0.421,5.88,1.664c0.289,0.366,1.756,3.373,2.257,1.84c0.265-0.815-0.115-1.769,0.446-2.933l0.993-2.063
		c0.485-1.009,1.543-2.108,2.208-3.105c1.027-1.544,3.082-1.308,4.688-1.568c-0.008,0.002,4.044,0.793,3.896-0.918
		c-0.101-1.152,0.325-2.398-0.025-3.455c-0.548-1.652,0.037-3.638,0.1-5.367c0.068-1.896,0.094-4.446-0.223-6.313
		c0.179-1.511-1.266-2.67-1.266-4.423c0.544-0.311,2.511-0.103,3.275-0.246c2.131-0.406,3.8-1.738,6.003-2.188
		c2.134-0.437,8.098-0.136,9.429-1.962c1.97-2.706,5.632-0.435,8.411-0.672c-0.17,0.024-0.124-0.045-0.1,0.074
		c0.594,0,1.205,0.088,1.811,0.074c1.013-0.024,1.036,0.395,1.067,1.317c0.015,0.421-0.172,0.871-0.299,1.267
		c-0.198,0.634-0.182,0.957-0.048,1.616L146.937,56.183L146.937,56.183L146.937,56.183z"/>
</g>
</svg>
