<?xml version="1.0" encoding="utf-8"?>
<!-- Generator: Adobe Illustrator 13.0.0, SVG Export Plug-In . SVG Version: 6.00 Build 14948)  -->
<!DOCTYPE svg PUBLIC "-//W3C//DTD SVG 1.1//EN" "http://www.w3.org/Graphics/SVG/1.1/DTD/svg11.dtd">
<svg version="1.1" xmlns="http://www.w3.org/2000/svg" xmlns:xlink="http://www.w3.org/1999/xlink" x="0px" y="0px"
     width="180px" height="150px" viewBox="0 0 240 200" enable-background="new 0 0 240 200" xml:space="preserve">
<g id="River_Gee">
	<path fill="#F2F2F2" stroke="#8D8D8D" d="M43.104,60.987c-0.905,2.116-0.539,5.067-0.942,7.378
		c-0.808,4.64,1.137,7.332,2.163,11.577c0.498,2.059,0.676,3.994,0.875,6.086c0.244,2.544,1.939,2.611,4.049,3.496
		c1.879,1.622,4.303,1.79,4.437,4.828c0.064,1.531-0.436,3.028-0.209,4.512c0.266,1.739,1.669,1.706,2.687,2.833
		c1.095,1.208,1.798,3.305,1.398,4.93c-0.585,2.382-2.19,2.382-4.26,2.903l-2.236,1.888l0,0c2.724,1.241,5.424,3.681,8.1,5.211
		c2.823,1.612,1.835,11.359,4.786,11.823c5.997,0.942,11.938,2.032,17.353,5.107c4.451,2.614,8.408,7.217,9.394,12.415l0,0
		c2.12-0.582,1.252-1.026,2.517-2.029c0.555-0.443,2.367,0.6,3.385,0.313c2.7-0.75,4.578-2.789,6.672-4.407
		c2.231-1.723,3.272-2.837,4.118-5.525c0.543-1.723,2.446-1.867,3.493-3.183c0.925-1.16,6.813-2.486,8.31-2.271
		c3.95,0.559,9.871,1.571,6.214,6.537c-1.658,2.254-3.292,2.968-3.561,6.053c-0.242,2.803,1.313,5.969,2.235,8.532
		c0.47,2.416,2.779,3.641,2.165,6.504c-0.961,4.471-4.581,6.483-2.793,11.368c0.672,1.83-0.58,6.036,1.501,6.854
		c0.624,0.246,6.565-1.039,7.263-1.433c2.319-1.316,3.197-1.596,5.76-1.538c3.028,0.067,5.787-2.803,8.034,0.138
		c0.74,0.973,1.424,2.029,2.828,2.029c1.543,0,2.861-0.854,3.632,1.016c1.077,0.912,1.302,2.591,2.409,3.321
		c1.662,1.097,4.428,1.265,6.342,1.746l0,0c-0.098-0.319-0.151-0.663-0.151-1.043c0-1.478,1.521-2.025,1.521-3.503
		c0-1.153,0-2.305,0-3.458c0-0.845-0.645-1.262-1.014-1.985c-0.474-0.922-0.676-1.646-0.676-2.698c0-1.729,0.488-2.631,1.689-3.883
		c0.515-0.542,0.925,1.022,1.686,1.181c0.252,0.054,0.38,0.34,0.676,0.34c0.591,0,0.801-0.636,1.181-1.013
		c0.633-0.633,1.013-1.144,1.857-1.521c0.757-0.34,1.262-0.387,2.025-0.673c0.458-0.175,1.013-0.34,1.013-0.845
		c0-0.592-0.468-0.845-0.676-1.353c-0.296-0.713-0.337-1.222-0.337-2.021c0-0.805-0.17-1.226-0.17-2.026
		c0-0.508,0.246-0.925,0-1.353c-0.557-0.965-2.599,0.125-2.7-1.013c-0.219-2.449,2.025-3.583,2.025-6.072
		c0-1.182-1.688-1.353-1.688-2.534c0-1.221,0.845-1.813,0.845-3.038c0-1.772-1.182-2.614-1.182-4.387
		c0-0.929,0.884-1.272,1.689-1.686c0.585-0.303,0.843-0.636,1.349-1.013c0.8-0.596,1.394-0.973,2.026-1.689
		c0.333-0.38,0.464-1.013,1.013-1.013c0.716,0,0.797,1.013,1.517,1.013c0.761,0,1.138-0.592,1.521-1.181
		c0.794-1.225,1.011-2.193,2.023-3.206c1.306-1.306,2.7-2.026,2.7-3.883c0-0.337-0.374-0.384-0.507-0.673
		c-0.287-0.637-0.675-0.973-0.675-1.689c0-1.518,0.798-2.281,1.182-3.711c0.203-0.761,0-1.269,0-2.069c0-0.773,0-1.544,0-2.318
		c0-1.856,1.857-2.533,1.857-4.391c0-2.445-1.098-3.536-1.689-5.904c-0.054-0.226-0.112-0.451-0.168-0.677
		c-0.192-0.773,1.306-0.171,2.025-0.504c0.461-0.216,0.632-0.845,1.181-0.845c1.055,0,1.644,0.505,2.702,0.505
		c1.265,0,1.439-3.062,2.361-2.194c1.897,1.796-0.182,6.729,2.362,6.245c2.331-0.444,1.951-3.287,2.531-5.568
		c0.514-2.022,1.734-2.783,2.868-4.556c0.134-0.205,0.206-0.468,0.339-0.676c0.163-0.256,0.674-0.168,0.674-0.505
		c0-0.72-0.541-1.02-1.013-1.521c-0.834-0.892-1.687-1.605-1.687-2.87c0-0.673,0.506-1.013,0.506-1.686
		c0-0.548-0.396-0.841-0.506-1.349c-0.1-0.464-0.006-0.885-0.169-1.353c-0.089-0.252-0.413-0.4-0.674-0.336
		c-0.226,0.057-0.451,0.114-0.677,0.168c-1.418,0.357,0.098,3.738-1.349,3.543c-1.826-0.242-1.696-2.523-3.039-3.711
		c-1.188-1.05-1.856-1.773-2.869-3.038c-0.505-0.633-1.182-0.885-1.182-1.686c0-0.636,0.643-0.872,1.182-1.185
		c0.853-0.488,1.346-0.935,2.025-1.518c0.203-0.175,0.538-0.091,0.676-0.336c0.495-0.892-0.235-1.645-0.168-2.702
		c0.058-0.925,0.505-1.433,0.505-2.362c0-0.972-0.675-1.393-0.675-2.362c0-0.592,0.84-0.478,1.351-0.676
		c0.458-0.178,0.875-0.431,1.182-0.845c0.874-1.188,1.954-1.763,2.193-3.206c0.068-0.411-0.34-0.724-0.764-1.003l0,0
		c-2.595,0.084-5.427,0.626-7.971,1.07c-2.23,0.39-4.537,1.083-6.807,1.083c-5.063,0-10.349-0.986-15.262-2.167
		c-10.428-0.986-23.881-0.703-31.391-8.882c-1.899-2.069-5.422-1.457-7.96-2.661c-4.706-0.936-9.946,0.491-14.562-0.663
		c-1.339-0.333-2.143-1.46-3.422-1.888c-5.876-1.961-16.422,0.142-21.963,2.483c-4.386,2.012-5.38,3.485-9.498,1.013
		c-1.487-0.892-8.433,0.114-9.918,1.083c-1.824,1.195-3.822,3.52-5.76,4.303c-2.335,0.942-7.252,1.447-9.813,1.679
		C46.787,61.495,44.882,60.987,43.104,60.987L43.104,60.987L43.104,60.987z"/>
</g>
</svg>
