<?xml version="1.0" encoding="utf-8"?>
<!-- Generator: Adobe Illustrator 13.0.0, SVG Export Plug-In . SVG Version: 6.00 Build 14948)  -->
<!DOCTYPE svg PUBLIC "-//W3C//DTD SVG 1.1//EN" "http://www.w3.org/Graphics/SVG/1.1/DTD/svg11.dtd">
<svg version="1.1" xmlns="http://www.w3.org/2000/svg" xmlns:xlink="http://www.w3.org/1999/xlink" x="0px" y="0px"
     width="180px" height="150px" viewBox="0 0 240 200" enable-background="new 0 0 240 200" xml:space="preserve">
<g id="Sinoe">
	<path fill="#F2F2F2" stroke="#8D8D8D" d="M86.189,52.644l1.865,0.08l0,0c1.471,1.966,3.567,1.71,5.57,2.724
		c1.712,0.865,3.363,4.285,4.048,6.005c0.282,2.69,3.017,2.449,5.117,2.562c3.176,0.169,7.467,1.712,10.604,2.588
		c3.445,0.96,6.625,3.342,10.125,3.843c1.106,1.487,7.485,1.602,9.272,1.253c8.103-1.582,13.813-9.196,19.558-14.651
		c2.059-0.626,4.324-3.479,5.861-4.962c6.071-5.856,14.91,1.99,18.865,6.857c0.492,1.438,1.358,2.76,1.865,4.244
		c0.727,2.134,1.094,4.465,1.358,6.698c0.275,2.339,1.052,4.842,1.147,7.152l1.063,10.569l0,0c-0.689,1.612-0.41,3.867-0.718,5.63
		c-0.617,3.538,0.869,5.594,1.652,8.833c0.377,1.569,0.514,3.048,0.666,4.642c0.186,1.943,1.48,1.995,3.09,2.67
		c1.433,1.238,3.283,1.363,3.385,3.682c0.051,1.168-0.333,2.313-0.16,3.443c0.205,1.329,1.273,1.303,2.051,2.16
		c0.835,0.922,1.371,2.524,1.067,3.764c-0.448,1.818-1.67,1.818-3.252,2.216l-1.706,1.44l0,0c-1.049,1.053-1.603,3.004-1.837,4.431
		c-0.255,1.551-1.406,3.543-2.452,4.725c-0.918,1.034-0.94,2.276-1.491,3.468c-0.434,0.935-0.852,0.894-1.679,1.387
		c-0.939,1.145-0.167,3.869-1.787,4.937c-1.659,1.097-3.64,2.465-4.848,4.085c-0.819,1.099-2.69,1.327-3.117,2.374
		c-0.861,2.11,0.302,3.51-2.876,3.79c-1.452,0.128-2.265,0.729-3.518,1.307c-1.73,1.486-3.229,2.883-5.571,2.883
		c-1.663,0-3.222,0.211-3.81,1.975c-0.694,2.087,0.178,6.834-2.318,7.072c-2.226,0.213-4.913,0.172-6.821,1.522
		c-2.77,1.959-3.463,5.581-6.048,7.684L137.118,180l0,0c-0.998-0.241-1.545-0.467-2.574-0.577c-0.871-0.098-1.466-0.146-2.126-0.709
		c-0.192-0.161-0.306-0.323-0.449-0.516c-0.098-0.129-0.258-0.162-0.258-0.321c0-0.195,0.128-0.323,0.128-0.516
		c0-0.773-0.756-1.094-1.479-1.354c-0.79-0.287-1.24-0.513-2.062-0.706c-0.596-0.146-0.981-0.112-1.546-0.323
		c-0.917-0.339-1.399-0.69-2.317-1.029c-0.177-0.064-0.354-0.064-0.515-0.129c-0.388-0.177-0.467-0.516-0.645-0.9
		c-0.192-0.437-0.369-0.693-0.708-1.032c-0.739-0.739-1.175-1.271-2.126-1.738c-0.643-0.32-0.901-0.708-1.544-1.029
		c-1.143-0.564-1.689-1.048-2.833-1.609c0.098-0.306,0.257-0.452,0.257-0.773c0-0.482-0.401-0.692-0.706-1.029
		c-0.418-0.452-0.726-0.659-1.161-1.096c-0.82-0.819-1.448-1.174-2.511-1.61c-0.82-0.336-1.289-0.675-2.125-0.965
		c-1.208-0.419-1.948-0.531-3.156-0.966c-0.61-0.21-0.947-0.467-1.545-0.708c-0.272-0.113-0.48-0.098-0.771-0.192
		c-1.013-0.339-1.626-0.449-2.705-0.578c-0.932-0.1-1.463-0.244-2.381-0.388c-0.386-0.064-0.643-0.018-1.031-0.128
		c-0.708-0.195-1.062-0.531-1.802-0.58c-0.999-0.241-1.545-0.58-2.575-0.709c-0.612-0.064-1.014,0.016-1.546-0.257
		c-0.113-0.049-0.113-0.161-0.195-0.257c-0.224-0.274-0.385-0.534-0.385-0.903c0-0.257,0.194-0.37,0.194-0.627v-1.578
		c0-0.227-0.225-0.29-0.386-0.435c-0.241-0.226-0.467-0.369-0.773-0.516c-0.498-0.241-0.772-0.434-1.288-0.645
		c-0.997-0.4-1.642-0.626-2.576-1.157c-0.933-0.532-1.545-0.773-2.575-1.158c-0.628-0.226-0.967-0.452-1.545-0.772
		c-0.419-0.227-0.837-0.419-0.837-0.901c0-0.192,0.128-0.321,0.128-0.517c0-0.982-1.093-1.176-1.995-1.545
		c-1.096-0.452-1.707-0.788-2.834-1.158c-1.014-0.339-1.497-0.821-2.382-1.417c-0.868-0.596-1.48-0.854-2.318-1.481
		c-0.417-0.306-0.53-0.675-0.965-0.965c-0.466-0.306-0.804-0.449-1.287-0.709c-1.063-0.564-1.69-0.998-2.834-1.414
		c-0.611-0.229-1.03-0.293-1.61-0.583c-1.094-0.547-1.64-1.125-2.834-1.415c-0.497-0.112-0.819-0.128-1.287-0.323
		c-0.192-0.079-0.321-0.241-0.516-0.32c-0.176-0.064-0.338-0.034-0.515-0.064c-0.24-0.033-0.386-0.257-0.386-0.514
		c0-0.452,0.629-0.421,0.901-0.772c0.339-0.437,0.644-0.727,0.644-1.289c0-0.339-0.289-0.501-0.449-0.772
		c-0.482-0.773-0.999-1.112-1.803-1.546c-1.175-0.629-1.898-0.95-3.09-1.545c-0.71-0.354-1.096-0.676-1.804-1.03
		c-0.29-0.146-0.499-0.21-0.772-0.388c-0.612-0.418-0.933-0.675-1.545-1.093c-0.209-0.129-0.29-0.339-0.515-0.45
		c-0.563-0.308-0.95-0.421-1.545-0.711c0.049-0.192,0.097-0.354,0.193-0.513c0.096-0.162,0.323-0.242,0.323-0.45
		c0-0.549-0.532-0.741-1.03-0.968c-0.627-0.274-1.03-0.451-1.545-0.9c-0.704-0.614-1.277-1.002-1.894-1.418l0,0l2.781-4.952
		c0.757-0.651,1.035-2.762,1.625-3.175c0.208-2.318,4.369-5.813,5.595-7.874c1.9-3.188,1.253-7.055,1.253-10.592
		c-0.981-4.295-3.092-8.074-3.092-12.677c0-3.656,1.472-1.463,3.438-3.684c0.716-0.809,2.097-0.557,2.639-1.307
		c0.855-1.188,1.198-1.987,2.371-3.014c1.47-0.654,2.851-1.761,4.317-2.511l4.023-2.054c1.047-0.534,1.698-1.689,2.798-2.108
		c0.954-0.364,1.161,0.537,1.972,0.373c0.795-0.159,3.386-1.402,4.049-1.895c1.249-0.922-2.747-3.132-1.678-5.042
		c0.273-0.49,0.849-0.639,1.146-1.096c0.455-0.696,0.01-1.419,0.853-2.028c0.355-0.254,0.809-0.157,1.172-0.398
		c0.469-0.313,0.692-0.999,1.118-1.389l1.173-2.082L86.189,52.644L86.189,52.644L86.189,52.644z"/>
</g>
</svg>
