<?xml version="1.0" encoding="utf-8"?>
<!-- Generator: Adobe Illustrator 13.0.0, SVG Export Plug-In . SVG Version: 6.00 Build 14948)  -->
<!DOCTYPE svg PUBLIC "-//W3C//DTD SVG 1.1//EN" "http://www.w3.org/Graphics/SVG/1.1/DTD/svg11.dtd">
<svg version="1.1" id="Layer_1" xmlns="http://www.w3.org/2000/svg" xmlns:xlink="http://www.w3.org/1999/xlink" x="0px" y="0px"
	 width="180px" height="150px" viewBox="0 0 240 200" enable-background="new 0 0 240 200" xml:space="preserve">
<g id="_x30_1">
	<polyline fill="#F2F2F2" stroke="#8D8D8D" points="76.938,152.992 77.067,152.732 77.132,152.732 77.584,152.281 78.295,151.184
		79.328,150.02 79.264,149.826 79.975,149.438 81.009,149.051 81.913,148.855 83.722,148.855 83.98,148.729 83.98,148.662 
		85.079,148.146 85.596,147.693 86.242,146.918 86.759,146.271 87.275,145.498 87.599,144.916 88.31,143.623 88.567,143.041 
		88.826,141.168 88.438,140.521 87.404,139.486 86.759,138.52 87.211,136.902 87.728,136.451 88.955,136.193 90.183,136.71 
		91.281,137.098 91.928,137.032 92.443,136.58 93.155,136.516 94.124,136.516 94.964,136.645 95.48,136.257 96.191,135.417 
		96.579,134.707 97.031,134.447 97.871,134.318 98.453,133.932 98.905,133.866 99.616,133.866 100.584,133.415 101.425,132.898 
		102.782,132.768 103.233,132.381 103.621,131.799 104.268,131.799 104.525,131.928 104.655,131.928 105.431,132.121 
		105.689,132.252 106.271,132.445 106.916,132.252 107.434,131.541 107.498,131.089 107.757,130.636 107.95,130.313 
		108.854,130.119 110.341,129.73 110.599,129.021 110.729,128.245 111.181,127.857 111.892,127.341 112.279,126.76 112.795,126.178 
		114.023,125.725 115.058,125.791 115.574,125.273 116.479,124.82 116.479,123.658 116.736,122.754 117.771,121.461 
		117.771,121.396 117.771,121.461 116.931,120.428 116.544,119.91 116.414,119.65 115.187,118.555 114.411,117.584 114.217,117.326 
		114.217,116.744 114.347,116.163 113.895,115.258 113.378,114.418 112.731,113.578 113.118,112.674 113.184,111.641 
		112.537,110.93 111.311,110.283 110.534,108.99 109.307,108.797 108.145,108.086 107.498,107.635 106.399,106.924 104.461,105.438 
		103.104,104.402 102.976,103.691 103.104,102.854 102.911,101.818 102.911,100.721 102.717,100.203 102.652,100.074 
		102.394,99.428 102.717,98.136 102.911,96.973 103.169,96.068 103.363,95.357 103.428,95.229 104.074,93.807 104.331,93.16 
		104.331,92.32 104.331,91.416 105.043,90.77 105.495,89.995 105.947,89.154 106.787,88.961 107.691,88.768 108.338,88.768 
		108.726,88.25 108.661,87.41 108.209,86.893 107.886,86.313 107.175,84.955 106.916,84.438 106.335,83.146 105.495,81.918 
		105.624,80.756 106.271,80.69 106.916,80.496 107.239,79.98 107.369,79.527 107.757,79.27 108.726,79.205 109.759,79.011 
		110.986,79.011 111.633,78.494 111.956,77.719 112.149,76.749 112.021,75.844 112.344,74.682 112.149,73.647 111.762,72.873 
		111.892,71.709 112.602,70.934 112.473,69.577 112.407,68.479 112.795,65.83 113.184,65.248 113.636,64.926 114.411,64.537 
		114.799,64.085 114.799,63.31 114.67,62.405 114.799,61.5 115.122,60.854 115.251,59.95 115.768,58.98 116.091,58.076 
		116.865,57.365 117.125,56.913 116.995,56.525 116.672,55.879 117.125,55.557 118.61,55.233 120.032,54.394 121.193,53.877 
		122.357,53.166 123.068,52.777 123.393,52.391 124.038,52.067 124.941,52.003 125.977,52.003 126.299,51.486 126.363,51.098 
		127.204,50.452 128.173,50.064 128.947,50 129.917,50.129 130.111,50 130.111,50.322 130.24,50.969 130.887,51.938 131.339,53.295 
		131.727,53.553 132.824,53.683 133.923,54.717 134.505,55.428 134.827,55.814 135.344,56.461 136.572,57.883 138.381,59.305 
		139.736,60.145 141.159,60.919 142.129,61.694 143.484,62.922 144.002,63.375 144.391,63.956 145.035,64.926 145.617,64.796 
		145.746,64.926 146.846,64.926 148.911,64.86 149.234,64.86 150.462,64.99 150.462,66.023 156.473,65.959 158.926,65.959 
		161.381,65.959 165.839,65.959 165.969,65.959 165.969,66.023 165.969,66.476 166.873,67.252 167.002,67.381 167.454,67.703 
		167.583,67.768 167.648,67.768 166.938,68.802 165.902,70.029 165.773,70.676 165.839,70.805 166.033,71.063 166.484,71.516 
		166.55,71.645 166.229,73.777 165.516,74.553 165.451,74.617 165.581,74.746 165.902,75.199 166.162,75.65 166.162,75.715 
		166.098,76.104 166.098,76.49 166.098,76.943 166.098,77.072 166.033,77.848 166.033,77.912 166.033,78.3 166.033,78.43 
		166.098,78.494 166.55,79.463 165.773,79.915 165.581,80.109 165.451,80.109 164.741,80.432 164.611,80.496 164.418,80.885 
		164.482,81.143 164.029,81.272 163.9,81.596 163.318,82.241 163.514,82.564 162.867,82.822 162.156,83.469 162.092,83.856 
		161.77,84.891 161.833,85.407 161.381,85.73 161.252,86.184 161.316,86.506 161.059,86.506 160.541,87.733 160.605,89.09 
		160.219,89.219 159.96,89.349 159.768,89.414 158.926,89.801 158.796,89.865 157.568,89.865 157.246,90.705 156.277,90.124 
		155.438,91.029 155.309,91.158 154.273,91.545 154.146,91.609 153.628,91.804 153.37,91.934 153.176,91.998 152.596,92.45 
		151.173,92.515 151.044,93.096 150.979,93.484 150.979,93.613 151.497,94.389 151.689,94.711 151.689,94.906 151.432,96.133 
		151.366,96.521 150.785,97.748 149.881,98.782 150.462,99.558 150.27,99.881 150.074,100.656 149.945,100.85 149.881,101.044 
		149.816,101.884 150.012,102.207 150.074,102.336 150.27,102.725 150.592,103.305 150.656,103.434 150.656,103.498 
		150.785,103.691 150.979,104.468 151.044,104.662 151.366,104.727 152.529,104.92 153.757,105.309 154.339,105.502 
		154.598,105.566 155.954,105.889 156.342,106.277 156.473,106.342 156.473,106.664 156.213,106.924 156.02,106.988 
		156.084,107.117 156.277,107.375 156.406,107.375 156.6,107.117 156.794,106.988 156.923,106.988 157.439,107.698 157.439,107.764 
		157.313,108.086 157.313,108.28 157.505,108.344 157.568,108.344 157.828,108.086 157.893,108.086 157.957,108.15 158.279,108.539 
		158.409,108.732 158.409,108.99 158.732,109.314 158.926,109.701 158.861,110.09 159.057,110.348 158.668,110.67 158.861,110.801 
		158.926,110.994 158.99,111.316 159.057,111.381 159.12,111.705 159.314,111.834 159.572,111.898 159.701,111.834 159.83,112.286 
		160.09,112.416 160.348,112.803 160.541,113.191 160.541,113.514 160.541,113.578 160.283,113.837 160.283,113.966 160.479,114.03 
		160.541,114.289 160.541,114.547 160.605,114.611 160.8,114.547 160.994,114.16 161.252,113.966 161.575,113.9 161.77,114.03 
		162.092,114.677 162.479,114.807 162.738,115.129 163.063,115.452 163.384,115.84 163.578,116.098 163.514,116.809 
		163.578,117.003 163.771,117.326 164.029,117.391 164.225,117.52 164.547,117.907 164.611,118.295 164.677,118.359 
		164.807,118.488 164.87,118.488 165.193,118.555 165.451,118.684 165.516,118.877 165.451,119.199 165.323,119.329 
		165.387,119.521 165.451,119.587 165.387,119.91 165.387,120.039 165.516,120.039 165.71,119.91 165.969,119.975 166.162,120.232 
		166.162,120.814 165.902,121.785 166.033,121.979 166.033,122.107 165.902,122.365 165.902,122.561 166.613,123.206 
		166.938,123.723 166.938,123.98 166.809,124.24 166.291,124.109 166.229,124.305 166.355,125.145 166.355,125.209 166.484,125.467 
		166.484,125.531 166.68,125.725 167.262,125.791 167.325,126.049 167.262,126.371 167.391,126.889 167.195,127.341 
		167.262,127.729 167.454,127.922 168.102,128.375 168.229,128.697 167.842,128.633 167.648,128.826 167.52,129.215 
		167.713,129.796 167.777,130.184 167.713,130.313 167.648,130.57 167.842,130.7 167.648,131.152 167.648,131.281 167.713,131.348 
		167.583,131.348 167.454,131.67 167.391,132.188 167.454,132.316 168.294,132.963 168.553,133.35 168.617,133.544 168.553,133.802 
		168.036,134.189 167.583,134.643 167.262,134.771 167.002,135.029 166.873,135.225 166.809,135.287 166.355,136.257 
		166.291,136.839 166.355,137.421 166.55,138.26 166.55,138.775 166.421,138.971 166.229,139.1 165.969,139.164 165.451,139.035 
		164.999,139.295 164.741,139.553 164.741,139.811 164.87,140.134 164.87,140.198 164.936,140.198 165.193,140.521 165.323,141.749 
		165.064,142.523 164.87,142.719 164.354,142.783 164.225,143.234 164.354,143.688 164.225,143.945 163.836,144.463 
		163.771,144.463 163.643,144.723 163.514,144.527 163.063,144.398 162.932,144.398 162.607,144.463 162.544,144.592 
		162.223,144.786 161.963,145.303 161.896,145.498 161.963,145.626 162.156,145.689 162.286,145.82 162.286,146.078 162.286,146.4 
		162.352,146.66 162.025,147.048 162.286,147.111 162.544,147.178 162.803,147.629 162.932,147.822 162.996,148.082 
		163.189,148.275 163.384,148.404 163.384,148.6 163.189,148.922 163.255,149.244 163.318,149.566 163.063,149.891 162.803,149.955 
		162.286,149.955 162.025,150.02 161.77,150.084 161.381,150.213 160.994,150.407 160.67,150.859 160.8,151.118 160.863,151.377 
		161.122,151.57 161.381,151.766 161.252,152.087 161.445,152.475 161.575,152.799 161.641,153.25 161.963,153.574 162.286,153.896 
		162.479,154.221 162.544,154.413 162.803,155.254 163.126,155.383 163.384,155.383 163.384,155.641 163.318,155.9 163.255,156.352 
		163.318,156.545 163.578,156.74 163.9,156.74 164.096,156.674 164.482,156.48 164.87,156.545 165.193,156.674 165.516,157.191 
		165.581,157.45 165.773,158.032 165.969,158.355 166.229,159.001 166.291,159.389 166.355,159.906 166.421,160.164 
		166.873,160.357 167.195,160.357 167.325,160.486 167.325,160.744 167.325,160.874 167.131,160.874 166.809,161.068 
		166.613,161.456 166.291,161.456 166.162,161.327 163.189,160.682 163.189,162.555 162.932,164.105 159.639,164.234 
		156.535,164.299 152.788,164.299 152.271,165.074 152.596,165.914 152.596,166.689 154.727,166.884 156.213,167.078 
		157.313,167.014 159.378,166.947 160.541,166.947 162.025,166.884 163.384,167.014 164.029,167.336 164.029,169.273 
		163.771,171.084 163.189,171.665 163.771,173.279 163.771,174.443 163.643,174.96 162.544,175.734 161.188,176.575 159.83,177.223 
		156.857,177.868 155.566,177.868 153.628,177.932 151.625,177.932 149.299,177.156 147.232,176.511 146.264,176.188 
		144.584,175.994 144.195,175.605 143.55,174.96 143.355,174.702 142.387,174.379 141.547,173.604 140.706,172.764 139.607,173.99 
		139.543,174.055 138.704,174.637 138.51,174.766 137.67,175.348 137.218,175.605 135.796,175.734 131.532,174.766 131.08,174.637 
		131.016,174.637 130.434,174.572 127.85,174.186 127.268,173.926 125.266,173.086 124.104,172.375 123.456,171.729 
		122.939,171.213 122.552,170.889 121.453,170.889 121.064,170.889 120.872,170.889 118.352,170.438 118.223,171.277 
		116.672,171.406 116.155,171.406 115.703,171.535 113.313,171.923 112.86,171.988 111.311,172.375 111.245,172.439 
		110.986,172.698 110.857,172.828 109.694,174.637 109.436,175.154 107.304,177.996 107.175,178.126 106.528,178.449 
		102.782,178.966 101.489,179.482 101.554,179.289 101.166,178.707 100.714,178.707 100.843,178.643 99.487,178.385 98.323,178.126 
		97.419,178.255 97.225,178.514 97.612,178.9 98.13,179.354 98.259,179.871 97.871,180 96.902,179.677 96.063,178.966 
		95.352,178.255 94.317,177.932 93.349,178.771 93.542,178.449 93.93,177.738 93.995,177.027 93.736,176.575 93.349,176.123 
		92.315,176.123 91.151,176.123 90.183,174.766 89.407,173.797 88.632,173.732 87.47,173.475 86.242,173.15 84.885,172.635 
		83.528,172.247 83.012,172.117 81.525,171.6 80.944,171.213 79.651,170.566 78.683,169.92 78.618,169.92 78.101,168.887 
		76.744,167.852 76.356,167.852 75.969,167.465 75.646,167.078 74.806,166.236 73.772,165.914 72.48,165.203 71.77,164.881 
		71.576,164.234 71.382,163.33 71.382,162.555 72.222,162.23 72.803,161.908 73.385,161.844 74.354,162.037 75.193,161.908 
		75.646,161.133 76.421,160.098 76.421,159.906 76.356,159.711 76.033,158.613 75.452,157.773 75.581,156.869 75.969,156.094 
		75.969,154.35 76.551,153.38 76.938,152.992 	"/>
</g>
</svg>
