<?xml version="1.0" encoding="utf-8"?>
<!-- Generator: Adobe Illustrator 13.0.0, SVG Export Plug-In . SVG Version: 6.00 Build 14948)  -->
<!DOCTYPE svg PUBLIC "-//W3C//DTD SVG 1.1//EN" "http://www.w3.org/Graphics/SVG/1.1/DTD/svg11.dtd">
<svg version="1.1" id="Layer_1" xmlns="http://www.w3.org/2000/svg" xmlns:xlink="http://www.w3.org/1999/xlink" x="0px" y="0px"
	 width="180px" height="150px" viewBox="0 0 240 200" enable-background="new 0 0 240 200" xml:space="preserve">
<g id="_x31_0">
	<g>
		<polyline fill="#F2F2F2" stroke="#8D8D8D" points="43,99.426 46.639,94.966 47.312,94.147 47.754,93.63 48.646,92.511 
			49.244,91.99 49.244,91.915 50.582,90.356 52.584,87.834 55.561,84.185 57.047,82.405 59.722,79.133 59.869,78.912 61.056,77.575 
			62.842,75.419 63.138,75.046 64.477,73.411 67.227,70.063 72.728,63.449 75.775,59.587 80.678,53.789 80.608,53.566 
			82.165,51.557 83.506,50 85.809,51.557 88.559,52.968 88.336,55.648 90.343,64.567 90.568,64.417 94.437,65.829 96.587,68.504 
			97.851,69.99 100.378,73.632 108.108,74.603 109.37,75.266 110.336,76.457 110.562,76.683 111.007,78.021 111.151,80.101 
			111.449,81.888 111.524,82.703 110.562,84.413 110.115,85.604 109.891,87.093 110.038,88.572 110.038,89.015 110.19,89.175 
			110.631,89.693 111.151,90.134 111.822,90.879 112.19,92.068 112.19,93.555 111.975,94.746 111.893,94.966 111.449,96.603 
			111.079,97.864 111.079,97.941 110.562,98.98 110.264,100.171 109.521,101.061 108.552,101.655 106.324,102.848 107.143,103.369 
			107.513,103.512 109.295,104.408 109.077,108.718 108.774,111.988 109,113.186 108.702,114.141 108.256,115.557 107.215,117.936 
			107.288,117.936 108.108,116.225 108.329,116.3 110.264,117.118 110.709,114.141 117.183,104.852 122.078,99.351 127.281,94.521 
			131.072,94.521 134.045,95.339 136.127,97.341 137.395,98.534 138.135,97.198 141.035,91.99 146.234,91.99 149.652,96.229 
			148.611,100.396 149.432,101.207 151.508,103.143 151.66,105.967 152.627,106.115 154.932,107.152 156.195,107.674 
			156.195,108.271 156.118,109.979 155.225,110.795 150.99,114.439 148.467,117.563 146.533,119.051 148.238,121.128 
			149.652,122.912 152.329,124.178 152.329,124.251 153.367,124.251 155.154,124.102 155.079,124.477 161.176,129.083 
			166.154,132.206 171.277,135.402 171.357,135.402 174.105,136.884 176.482,138.146 182.43,137.923 182.354,137.854 
			182.209,137.557 182.654,137.489 183.618,137.782 183.841,137.923 184.068,138.077 184.217,138.077 184.363,138.373 
			184.659,138.666 185.104,139.566 185.628,139.932 186.744,139.861 187.71,139.271 188.078,139.271 187.633,142.314 
			187.561,145.953 188.975,145.732 189.564,145.732 190.311,145.732 192.835,145.732 194.023,145.732 197.37,145.66 197.518,145.66 
			197.59,145.807 197.74,146.253 197.814,146.253 197.814,146.331 196.848,147.889 196.775,148.037 196.624,148.333 
			194.925,150.934 194.473,152.422 194.249,152.945 194.023,153.761 194.092,154.057 194.092,154.354 194.177,155.395 
			194.473,155.99 194.404,156.286 196.182,158.072 196.182,158.146 197.74,159.632 198.408,160.229 199.602,163.421 
			199.895,164.166 200.788,166.246 202.05,166.989 202.125,167.438 202.125,167.66 202.572,171.449 203.093,174.645 
			203.314,176.357 203.093,179.257 203.021,180 200.191,177.17 198.264,175.165 192.915,169.294 188.15,166.174 183.548,164.234 
			182.354,163.198 182.282,163.198 178.866,162.087 174.334,160.598 169.354,158.373 168.092,157.85 161.176,155.023 
			154.262,152.572 147.867,150.189 142.664,148.333 142.438,148.333 135.232,145.807 133.675,145.66 131.743,145.215 
			129.215,144.693 128.846,144.469 128.768,144.616 127.945,144.318 124.014,142.984 123.116,142.686 118.134,141.051 
			117.994,140.977 117.476,140.83 111.822,138.891 110.115,138.3 107.884,137.557 102.385,135.479 96.885,133.841 92.723,132.65 
			92.565,132.129 92.565,132.354 89.154,131.536 86.774,130.939 84.024,130.348 80.979,129.677 80.386,129.456 78.671,128.486 
			76.892,127.967 74.737,127.445 72.43,126.557 67.38,124.994 66.344,124.701 63.438,123.807 56.599,121.432 53.33,119.421 
			52.364,118.6 51.178,117.712 49.244,116.3 49.613,113.92 49.244,113.252 47.014,111.615 44.111,110.352 41.588,109.014 
			40.1,107.973 38.47,106.115 36.684,103.292 40.475,99.878 41.883,98.757 41.951,98.68 42.109,98.907 43,99.426 		"/>
	</g>
</g>
</svg>
