<?xml version="1.0" encoding="utf-8"?>
<!-- Generator: Adobe Illustrator 13.0.0, SVG Export Plug-In . SVG Version: 6.00 Build 14948)  -->
<!DOCTYPE svg PUBLIC "-//W3C//DTD SVG 1.1//EN" "http://www.w3.org/Graphics/SVG/1.1/DTD/svg11.dtd">
<svg version="1.1" id="Layer_1" xmlns="http://www.w3.org/2000/svg" xmlns:xlink="http://www.w3.org/1999/xlink" x="0px" y="0px"
	 width="180px" height="150px" viewBox="0 0 240 200" enable-background="new 0 0 240 200" xml:space="preserve">
<g id="_x31_1">
	<polyline fill="#F2F2F2" stroke="#8D8D8D" points="83.471,101.454 83.13,101.454 82.441,101.793 82.099,100.426 81.412,99.394
		80.728,98.708 79.699,98.36 79.354,98.024 78.669,96.993 77.983,96.307 77.641,95.62 77.641,95.278 77.983,94.251 78.669,93.219 
		79.699,92.19 79.699,91.165 80.043,90.817 80.728,90.132 81.756,89.79 81.068,88.414 80.728,87.047 80.728,86.703 80.384,86.703 
		79.699,86.36 78.669,86.36 77.983,86.36 77.641,86.36 76.956,86.016 76.268,85.676 75.581,86.016 74.895,86.36 74.212,86.703 
		73.524,87.392 72.151,87.392 71.467,87.392 70.781,88.759 70.096,90.479 69.752,91.846 69.064,92.533 68.38,92.533 67.009,92.875 
		60.835,91.165 61.862,89.104 61.862,88.759 63.577,87.392 64.95,86.36 67.353,86.36 68.723,86.703 70.781,86.016 73.524,84.648 
		76.612,83.271 79.014,82.584 81.068,82.244 83.13,81.899 84.5,81.899 85.872,82.244 86.558,82.244 86.901,82.584 88.96,83.271 
		90.674,83.617 92.732,83.617 93.417,83.957 96.161,79.158 96.502,78.813 105.078,76.412 105.078,76.069 109.194,64.07 
		110.224,61.321 112.281,56.175 117.083,52.401 120.171,50 123.941,51.028 124.63,51.375 132.52,54.462 134.574,55.146 
		134.574,59.262 135.605,64.07 135.605,64.753 136.635,67.494 146.924,72.641 147.268,72.981 152.411,74.697 158.584,80.874 
		160.302,83.271 160.643,83.617 163.045,83.617 170.246,88.759 172.99,94.251 174.02,96.307 178.479,115.171 179.165,118.258 
		177.792,123.063 176.762,128.549 169.219,133.698 164.073,134.383 163.729,133.698 157.898,131.979 155.84,133.352 
		155.497,133.698 152.754,135.408 152.066,136.094 148.297,140.21 147.609,140.898 147.268,141.241 146.238,141.241 
		145.208,140.898 141.438,140.555 136.635,139.186 135.947,138.84 135.605,135.408 135.264,135.408 135.264,134.725 
		135.264,135.066 134.232,135.751 133.889,136.777 132.859,138.154 132.52,138.154 131.486,138.84 131.146,139.523 130.802,139.523 
		129.773,140.21 129.432,141.583 129.088,141.928 129.088,143.298 129.088,144.67 128.744,145.357 127.715,145.702 127.373,146.043 
		127.373,146.385 127.715,148.102 127.715,148.443 129.088,150.159 127.715,150.846 125.659,152.215 123.257,153.588 
		120.512,155.303 120.171,155.303 120.171,154.617 119.142,154.617 118.455,154.277 117.769,154.277 117.427,154.617 
		117.083,155.303 117.083,155.989 117.083,157.021 116.741,158.047 116.741,158.393 116.057,159.077 115.712,159.077 
		115.368,159.764 115.025,160.107 116.398,160.45 116.398,160.795 116.057,161.479 115.712,162.165 116.741,162.506 
		117.769,163.193 118.111,163.534 118.455,163.882 118.798,163.882 119.829,163.882 120.171,163.882 122.229,163.882 
		122.229,163.534 122.229,163.193 122.572,163.193 122.914,163.534 123.257,163.534 123.941,163.882 124.63,163.534 
		125.314,163.534 126.003,163.193 126.686,163.193 127.373,163.193 128.402,163.534 128.059,164.907 127.373,165.252 
		126.686,165.252 124.973,166.967 122.914,169.71 121.198,171.768 121.543,173.143 121.885,174.51 120.855,174.51 120.512,174.51 
		120.171,174.51 119.485,174.51 119.142,174.173 118.798,174.51 118.111,174.51 117.769,174.51 117.427,174.51 117.427,173.825 
		116.741,173.825 116.057,173.825 115.712,174.173 115.368,174.173 115.368,173.486 114.682,172.455 113.655,171.424 
		113.312,171.084 112.281,171.424 111.938,173.486 112.281,174.173 112.967,175.543 112.967,175.885 112.967,176.916 
		112.967,177.258 112.967,177.602 112.281,180 111.253,179.314 109.194,178.286 107.824,177.258 107.48,176.916 105.078,175.543 
		104.394,175.198 103.021,174.51 103.021,174.173 102.335,173.825 101.306,173.486 100.963,173.143 99.934,172.797 99.591,172.797 
		99.934,172.111 100.276,171.768 100.276,171.424 100.62,170.741 100.62,170.398 100.963,170.398 100.963,170.055 101.306,169.71 
		101.991,169.023 102.335,168.337 101.991,166.282 101.65,165.938 101.306,164.563 100.62,163.193 100.62,162.506 100.276,162.165 
		100.276,161.82 99.934,161.479 99.934,161.136 96.848,161.82 95.818,161.82 93.759,161.479 93.759,160.107 93.759,159.077 
		94.104,158.047 94.104,157.361 94.104,155.989 93.759,155.648 93.759,154.961 94.104,154.277 93.759,154.617 93.074,154.277 
		92.732,154.961 92.39,155.303 91.018,156.336 90.33,155.648 88.617,154.617 88.617,154.277 88.96,153.588 88.96,152.561 
		89.304,152.215 89.988,150.846 91.018,151.529 92.39,151.529 93.417,151.529 93.759,151.529 94.104,151.529 94.446,151.529 
		95.133,151.874 95.477,151.874 95.818,151.874 96.161,151.529 96.161,151.189 95.818,150.504 95.818,150.159 95.818,149.816 
		96.848,149.473 97.533,149.131 97.878,148.443 98.22,148.102 98.563,147.758 98.563,147.416 98.906,147.416 99.249,146.729 
		99.591,146.043 99.934,145.357 100.276,145.014 100.276,144.67 100.276,142.956 100.62,142.613 101.306,141.928 101.991,141.928 
		102.335,141.928 103.021,142.27 103.021,140.898 103.021,140.21 102.676,139.186 102.676,138.84 102.335,138.84 102.335,138.154 
		101.991,137.813 101.306,137.125 101.306,136.777 99.249,136.441 98.906,135.751 98.563,135.751 97.533,134.383 97.878,134.038 
		98.22,134.038 98.22,132.665 98.22,132.323 96.502,130.607 95.818,130.607 94.79,130.607 93.759,130.952 93.759,130.607 
		93.074,129.925 92.732,129.236 92.39,129.236 92.39,128.895 92.045,129.577 91.358,130.607 90.33,130.264 89.988,130.264 
		88.617,128.205 88.96,127.521 89.304,126.838 89.646,126.49 89.988,126.146 89.646,125.803 88.96,125.462 89.304,120.663 
		87.586,113.461 85.528,107.626 85.528,107.283 85.528,106.938 85.528,106.253 84.843,105.225 84.843,104.197 84.5,103.514 
		83.813,102.48 83.471,101.793 83.471,101.454 	"/>
</g>
</svg>
