<?xml version="1.0" encoding="utf-8"?>
<!-- Generator: Adobe Illustrator 13.0.0, SVG Export Plug-In . SVG Version: 6.00 Build 14948)  -->
<!DOCTYPE svg PUBLIC "-//W3C//DTD SVG 1.1//EN" "http://www.w3.org/Graphics/SVG/1.1/DTD/svg11.dtd">
<svg version="1.1" id="Layer_1" xmlns="http://www.w3.org/2000/svg" xmlns:xlink="http://www.w3.org/1999/xlink" x="0px" y="0px"
	 width="180px" height="150px" viewBox="0 0 240 200" enable-background="new 0 0 240 200" xml:space="preserve">
<g id="_x31_2">
	<polyline fill="#F2F2F2" stroke="#8D8D8D" points="70.168,124.051 70.098,124.051 69.821,123.407 67.597,120.116 67.097,119.466
		66.815,119.184 66.311,118.764 64.591,116.823 64.452,116.535 64.167,116.186 63.95,115.038 63.521,113.816 63.445,112.389 
		63.445,111.602 63.445,111.457 63.445,111.24 63.233,110.891 61.942,108.88 61.733,108.521 61.161,107.67 59.94,105.947 
		58.726,102.732 58.584,102.45 58.296,102.089 58.296,101.802 58.372,98.798 58.654,95.716 66.381,96.869 67.597,97.151 
		70.31,97.792 72.67,98.364 72.957,98.435 75.388,99.37 77.754,100.223 78.399,100.507 80.9,101.582 81.904,102.234 82.403,102.521 
		85.339,104.307 86.625,105.092 91.698,108.174 91.915,108.305 92.562,108.665 95.784,110.604 99.718,113.036 102.437,114.748 
		103.723,109.814 103.939,108.378 104.01,107.884 103.581,105.45 103.505,105.163 102.008,102.089 101.796,100.507 101.796,100.366 
		102.008,96.436 102.084,96.291 102.437,95.789 104.438,95.29 104.655,95.572 104.872,95.789 105.366,96.436 107.232,98.435 
		108.589,100.437 108.947,102.016 109.306,101.802 110.233,101.229 111.807,101.582 113.305,101.657 113.521,102.661 
		113.809,102.594 114.672,102.594 116.099,102.661 117.249,101.802 117.89,102.45 117.824,102.732 119.533,102.661 120.038,102.594 
		120.973,102.594 122.686,102.732 121.964,99.875 121.465,96.793 125.116,92.208 129.338,86.563 132.984,82.841 133.201,82.984 
		134.846,82.768 136.495,81.907 136.924,78.904 136.637,78.904 134.704,78.616 133.268,78.616 131.915,78.616 130.262,78.831 
		128.909,78.831 128.48,79.121 127.688,79.762 127.26,79.762 126.045,79.333 125.471,79.188 124.254,78.473 123.9,78.758 
		123.831,79.26 123.831,79.333 123.543,79.91 119.533,79.981 118.671,79.91 116.457,79.693 115.317,79.547 115.101,79.477 
		114.884,79.188 114.384,78.543 111.883,77.26 109.951,76.036 110.233,74.471 111.448,73.18 111.161,72.539 108.155,71.967 
		108.73,70.89 109.805,69.604 110.092,69.39 111.666,67.881 111.953,67.461 112.241,65.236 112.599,63.09 112.811,61.736 
		112.881,61.451 113.305,59.943 113.099,59.655 113.88,59.091 115.247,59.162 116.674,59.943 119.463,60.017 119.246,61.666 
		119.892,61.234 125.616,57.797 130.836,54.718 135.703,51.788 138.709,50.073 138.926,50 139.002,50 139.707,51.147 139.854,51.43 
		141.068,53.508 143.93,54.935 146.576,56.587 146.788,56.446 149.506,58.158 149.441,58.375 152.945,60.445 156.451,63.09 
		158.523,65.45 160.456,70.385 161.105,72.398 161.178,72.398 161.747,73.822 164.107,77.765 165.682,74.759 169.475,73.32 
		173.836,71.68 174.91,71.248 176.913,70.385 179.848,69.68 179.994,69.68 181.134,69.75 180.986,70.531 177.916,78.261 
		179.701,83.128 180.923,83.773 180.635,87.13 181.704,87.919 181.704,92.135 180.275,96.723 178.134,100.223 177.417,103.155 
		177.559,103.73 178.557,109.957 177.775,110.818 173.76,113.465 171.329,113.816 170.255,114.102 169.762,114.031 167.895,113.744 
		167.33,114.463 166.826,115.111 165.604,116.823 165.316,117.686 165.029,118.619 163.825,123.264 163.532,125.836 163.32,125.982 
		163.174,126.126 163.104,126.701 163.033,126.771 162.1,127.768 158.242,129.563 157.016,130.128 156.663,130.346 155.523,130.775 
		154.516,130.775 153.732,130.92 153.021,130.92 151.514,131.422 151.438,131.495 150.081,132.279 149.37,132.702 147.938,133.279 
		146.218,134.141 144.721,134.855 144.146,135.998 143.857,136.503 143.787,136.643 143.212,137.363 143.93,138.003 
		145.583,139.432 146.218,139.938 146.43,139.861 147.867,139.072 148.154,138.932 148.648,139.219 150.299,140.296 
		150.445,140.936 150.656,141.938 150.732,142.084 151.016,143.158 151.091,143.302 150.516,144.441 150.445,144.37 
		150.081,144.943 149.939,145.374 149.295,146.227 149.148,148.52 149.148,148.665 149.148,150.238 149.652,151.739 
		149.799,152.023 149.799,152.313 150.299,153.82 150.299,154.886 149.225,155.314 146.863,155.529 145.438,155.241 
		144.216,155.314 143.001,155.314 142.002,155.174 140.993,157.316 140.781,157.678 140.564,158.036 139.854,158.611 
		139.637,158.898 139.57,158.825 138.491,158.177 136.924,158.25 136.706,158.25 136.061,158.538 135.92,158.682 135.844,158.538 
		133.988,159.748 132.063,161.042 129.768,163.261 127.688,165.188 125.471,165.836 125.328,165.906 122.252,167.979 
		121.042,169.414 119.962,172.206 119.463,174.275 118.323,175.923 116.169,177.499 115.101,177.637 113.027,175.711 
		111.021,174.346 110.092,174.492 108.589,174.634 106.229,175.711 106.012,175.923 103.939,177.783 99.647,180 97.998,179.498 
		98.285,178.215 98.714,175.496 98.497,172.417 99.148,168.766 99.506,167.768 100,166.047 100.934,160.537 91.134,155.746 
		90.06,155.174 89.268,154.886 90.923,159.968 91.628,163.329 90.63,164.908 86.625,164.689 84.048,163.975 81.975,162.9 
		79.762,160.684 78.111,160.537 77.9,160.537 76.967,159.82 75.182,158.682 73.099,157.173 71.313,156.396 71.384,155.389 
		73.099,153.747 73.315,152.957 73.099,152.813 71.817,152.098 71.46,151.169 70.456,151.242 69.387,150.955 70.386,150.238 
		70.597,149.449 69.957,149.016 69.316,148.451 68.236,147.377 68.958,145.229 72.887,143.302 73.315,142.295 72.105,141.721 
		70.027,141.436 68.236,140.369 68.601,138.212 69.028,138.003 69.1,135.423 69.1,135.285 69.1,134.93 69.24,134.93 69.821,133.279 
		70.386,131.709 71.242,129.563 71.242,129.205 71.313,128.418 71.313,127.133 71.242,126.848 71.172,126.195 70.456,124.693 
		70.168,124.051 	"/>
</g>
</svg>
