<?xml version="1.0" encoding="utf-8"?>
<!-- Generator: Adobe Illustrator 13.0.0, SVG Export Plug-In . SVG Version: 6.00 Build 14948)  -->
<!DOCTYPE svg PUBLIC "-//W3C//DTD SVG 1.1//EN" "http://www.w3.org/Graphics/SVG/1.1/DTD/svg11.dtd">
<svg version="1.1" id="Layer_1" xmlns="http://www.w3.org/2000/svg" xmlns:xlink="http://www.w3.org/1999/xlink" x="0px" y="0px"
	 width="180px" height="150px" viewBox="0 0 240 200" enable-background="new 0 0 240 200" xml:space="preserve">
<g id="_x31_3">
	<polyline fill="#F2F2F2" stroke="#8D8D8D" points="53.611,129.945 55.002,127.868 56.391,125.08 57.088,123.689 57.783,120.913
		58.475,120.22 59.174,119.521 59.174,118.829 59.867,118.13 61.956,118.13 64.736,117.438 66.124,117.438 66.822,117.438 
		68.21,117.438 68.904,117.438 70.99,117.438 71.684,117.438 72.381,117.438 74.469,118.829 75.163,118.829 77.252,120.22 
		77.943,120.913 80.029,121.611 80.726,122.303 80.726,121.611 80.726,120.913 80.726,120.22 81.42,119.521 81.42,118.829 
		80.726,118.13 80.726,116.74 80.726,114.654 80.726,113.963 81.42,114.654 82.113,114.654 82.113,116.042 82.812,116.74 
		83.506,117.438 84.199,116.74 84.896,116.74 85.592,117.438 86.288,118.13 86.982,118.13 87.673,118.13 88.369,118.829 
		89.065,118.829 89.76,118.829 90.455,118.829 91.151,116.74 92.542,113.963 92.542,111.872 96.016,107.709 99.494,107.709 
		100.882,108.402 101.58,109.092 102.968,107.709 104.357,106.318 107.138,106.318 105.75,107.005 105.75,109.092 106.447,109.788 
		108.527,108.402 109.92,107.005 109.92,109.788 110.614,111.18 112.703,107.005 114.787,107.005 120.35,106.318 121.043,105.615 
		121.736,102.833 123.826,100.055 127.297,95.189 127.297,90.322 127.993,85.457 130.08,84.063 132.859,82.674 134.943,82.674 
		137.73,83.373 139.119,81.286 139.119,77.813 139.813,74.342 141.202,73.638 143.291,72.936 146.762,73.638 147.459,73.638 
		150.244,72.936 150.936,72.936 156.497,71.549 159.975,71.549 160.667,68.08 158.581,65.988 157.887,64.599 155.801,63.905 
		153.715,61.128 153.715,59.044 155.801,54.173 159.273,51.39 162.061,50 164.145,51.39 162.061,54.173 161.366,55.56 
		164.145,59.732 164.837,59.732 166.922,60.431 168.313,58.34 169.012,56.955 169.012,57.648 169.706,57.648 170.398,59.044 
		171.787,60.431 171.787,61.128 173.876,60.431 175.959,60.431 177.348,60.431 180.828,63.905 180.828,64.599 180.828,67.381 
		180.135,67.381 179.436,68.08 181.525,70.853 182.219,70.853 182.916,72.253 187.082,72.936 187.082,73.638 188.473,75.03 
		189.169,75.724 189.169,77.113 189.859,77.113 189.859,77.813 190.559,79.891 190.559,81.286 190.559,84.063 189.169,83.373 
		188.473,83.373 187.082,83.373 185.691,84.763 184.996,85.457 184.996,88.93 184.996,89.623 184.303,90.322 183.605,91.713 
		182.916,93.105 182.219,94.495 181.525,94.495 181.525,95.189 180.828,95.883 180.135,96.579 179.436,97.972 178.047,98.665 
		175.959,99.361 175.959,100.055 175.959,100.754 176.656,102.145 176.656,102.833 175.959,103.531 175.27,103.531 174.572,103.531 
		173.18,102.833 172.486,102.833 171.787,102.833 171.094,102.833 169.012,102.833 166.229,102.833 164.145,101.447 
		162.756,104.223 162.061,104.922 162.061,107.005 161.366,108.402 161.366,109.092 164.837,111.18 166.229,112.575 169.012,110.48 
		169.706,109.788 170.398,108.402 171.787,109.092 172.486,108.402 171.787,109.788 171.787,111.18 172.486,111.872 
		172.486,114.654 172.486,116.042 171.787,118.13 171.787,120.22 171.787,122.997 175.959,123.689 178.047,123.689 184.303,122.303 
		184.303,122.997 184.996,123.689 184.996,124.391 185.691,125.08 185.691,126.473 187.082,129.25 187.781,132.033 188.473,132.734 
		189.169,136.898 188.473,138.289 187.082,139.682 186.389,140.378 186.389,141.077 185.691,141.077 185.691,141.771 
		184.996,143.156 184.996,143.85 184.303,144.549 183.605,145.938 181.525,145.244 179.436,144.549 176.656,143.85 175.959,143.85 
		168.313,142.467 168.313,145.938 168.313,148.727 168.313,149.409 169.706,152.197 170.398,154.286 171.094,154.979 
		171.787,154.979 172.486,157.063 173.18,157.063 173.18,157.754 173.18,158.453 173.18,159.846 173.18,161.241 173.876,161.93 
		173.876,162.628 175.27,164.707 175.959,164.707 175.959,165.402 176.656,165.402 178.74,168.879 179.436,169.573 179.436,170.268 
		180.135,171.662 180.135,172.355 180.135,173.751 180.135,174.445 179.436,176.523 178.74,177.916 178.047,179.311 178.047,180 
		176.656,179.311 176.656,180 172.486,179.311 171.787,177.916 170.398,175.145 169.706,173.751 167.622,172.355 167.622,171.662 
		166.922,170.964 166.922,170.268 166.229,170.268 165.533,170.268 166.229,171.662 165.533,172.355 164.145,172.355 
		163.449,170.268 163.449,171.662 165.533,173.751 165.533,174.445 161.366,177.223 157.887,177.916 157.191,177.223 
		155.801,176.523 155.104,173.751 155.104,173.047 154.408,173.047 153.715,174.445 153.021,175.145 150.936,175.145 
		148.85,173.047 146.064,169.573 144.68,167.495 144.68,166.104 141.9,166.104 129.387,165.402 125.91,168.186 121.736,168.879 
		118.266,166.796 116.873,166.104 109.92,163.314 107.138,162.628 101.58,161.241 95.324,161.241 89.76,159.846 84.199,160.537 
		84.896,159.146 84.896,157.063 84.199,154.286 83.506,154.286 82.812,152.895 82.812,152.197 82.113,151.503 80.726,150.111 
		79.333,148.727 79.333,147.336 78.64,144.549 79.333,143.156 80.029,141.077 80.029,139.682 81.42,138.988 83.506,136.206 
		84.199,134.122 86.288,132.734 86.288,132.033 84.896,132.033 83.506,132.033 82.113,131.334 81.42,132.033 80.726,131.334 
		77.252,131.334 76.553,131.334 75.163,132.033 73.773,132.033 72.381,132.734 70.99,132.734 69.604,133.423 68.21,134.122 
		64.736,134.818 61.26,136.206 57.783,136.898 55.697,138.289 53.611,138.988 52.918,138.988 52.219,138.988 50.135,138.988 
		49.441,138.988 50.135,137.59 53.611,129.945 	"/>
</g>
</svg>
