<?xml version="1.0" encoding="utf-8"?>
<!-- Generator: Adobe Illustrator 13.0.0, SVG Export Plug-In . SVG Version: 6.00 Build 14948)  -->
<!DOCTYPE svg PUBLIC "-//W3C//DTD SVG 1.1//EN" "http://www.w3.org/Graphics/SVG/1.1/DTD/svg11.dtd">
<svg version="1.1" id="Layer_1" xmlns="http://www.w3.org/2000/svg" xmlns:xlink="http://www.w3.org/1999/xlink" x="0px" y="0px"
	 width="180px" height="150px" viewBox="0 0 240 200" enable-background="new 0 0 240 200" xml:space="preserve">
<g id="_x31_4">
	<g>
		<polyline fill="#F2F2F2" stroke="#8D8D8D" points="50.742,178.27 49.023,176.594 47.311,176.594 38.766,174.874 38.766,173.154 
			35.346,171.448 35.346,166.311 37.059,164.598 40.479,159.464 42.178,156.059 42.178,154.352 43.891,152.619 45.598,154.352 
			45.598,152.619 47.311,150.918 49.023,152.619 50.742,150.918 50.742,149.212 52.443,145.779 54.15,144.073 55.863,140.66 
			59.282,138.959 59.282,135.533 60.982,132.102 62.708,128.676 64.415,123.574 66.128,120.143 66.128,118.423 67.834,116.717 
			69.541,109.884 71.26,108.171 69.541,106.464 74.668,109.884 76.381,106.464 78.1,103.038 84.932,96.192 84.932,94.468 
			86.645,92.786 91.771,89.366 93.49,87.647 96.91,85.928 102.036,79.082 107.162,82.508 108.875,75.676 112.295,72.25 
			114.008,70.537 115.715,68.83 120.841,68.83 122.561,68.83 124.268,68.83 129.398,67.11 134.531,63.691 143.084,61.984 
			151.637,58.571 160.182,56.858 163.607,55.14 167.021,53.445 170.439,53.445 173.866,51.72 177.286,51.72 180.705,50 182.425,50 
			190.971,50 192.677,51.72 194.384,50 197.811,51.72 201.229,51.72 204.654,51.72 204.654,53.445 199.516,56.858 197.811,61.984 
			192.677,68.83 189.257,70.537 189.257,73.969 187.544,79.082 185.838,82.508 187.544,89.366 187.544,92.786 190.971,96.192 
			194.384,99.619 196.104,101.325 196.104,103.038 197.811,106.464 199.516,106.464 201.229,113.297 199.516,118.423 
			196.104,125.27 194.384,126.986 189.257,135.533 184.125,142.366 180.705,144.073 172.159,145.779 167.021,147.492 
			163.607,145.779 160.182,142.366 156.77,137.24 153.343,133.814 148.21,132.102 144.797,130.407 141.371,128.676 139.658,130.407 
			136.232,128.676 134.531,126.986 131.105,125.27 129.398,123.574 127.686,123.574 127.686,126.986 127.686,132.102 
			125.986,133.814 124.268,135.533 122.561,137.24 120.841,138.959 117.428,142.366 114.008,144.073 112.295,144.073 
			110.588,144.073 110.588,145.779 108.875,145.779 105.449,147.492 103.75,147.492 102.036,147.492 100.33,149.212 98.623,149.212 
			96.91,150.918 95.197,150.918 95.197,152.619 93.49,152.619 91.771,152.619 90.064,152.619 86.645,154.352 84.932,154.352 
			83.226,154.352 83.226,156.059 81.52,156.059 79.807,156.059 79.807,157.775 79.807,159.464 78.1,161.171 76.381,162.891 
			76.381,164.598 74.668,164.598 72.967,164.598 69.541,164.598 69.541,166.311 67.834,166.311 66.128,168.029 64.415,168.029 
			60.982,169.723 60.982,171.448 60.982,173.154 59.282,173.154 59.282,174.874 59.282,176.594 57.576,178.27 55.863,178.27 
			55.863,180 54.15,180 52.443,180 50.742,180 50.742,178.27 		"/>
	</g>
</g>
</svg>
