<?xml version="1.0" encoding="utf-8"?>
<!-- Generator: Adobe Illustrator 13.0.0, SVG Export Plug-In . SVG Version: 6.00 Build 14948)  -->
<!DOCTYPE svg PUBLIC "-//W3C//DTD SVG 1.1//EN" "http://www.w3.org/Graphics/SVG/1.1/DTD/svg11.dtd">
<svg version="1.1" id="Layer_1" xmlns="http://www.w3.org/2000/svg" xmlns:xlink="http://www.w3.org/1999/xlink" x="0px" y="0px"
	 width="180px" height="150px" viewBox="0 0 240 200" enable-background="new 0 0 240 200" xml:space="preserve">
<g id="_x31_5">
	<polyline fill="#F2F2F2" stroke="#8D8D8D" points="96.718,153.805 96.234,154.291 96.234,154.773 95.746,155.261 95.264,155.745
		94.777,157.684 94.292,158.652 93.322,160.598 92.353,162.048 89.927,167.382 89.443,168.355 89.927,168.355 89.443,168.841 
		88.957,169.326 87.987,170.298 87.502,172.236 86.046,171.266 84.593,173.206 83.622,173.693 83.136,174.182 81.681,175.15 
		81.195,175.628 81.195,176.117 79.257,178.059 78.77,179.029 78.284,180 76.83,179.029 77.317,176.117 78.284,170.298 
		78.77,169.326 80.712,164.961 82.165,162.536 81.681,162.048 83.136,158.652 84.593,155.745 85.563,152.833 86.532,151.378 
		87.015,150.896 87.015,149.438 87.987,147.016 87.987,144.1 88.473,141.191 87.502,140.223 87.502,139.25 87.015,138.766 
		87.987,135.37 89.443,134.889 89.927,134.4 89.927,133.43 88.957,131.975 87.015,129.063 85.563,126.643 87.015,125.672 
		91.868,123.25 92.353,123.25 94.292,123.25 94.777,123.25 95.746,123.25 96.718,123.73 97.689,123.73 99.629,123.73 101.57,123.73 
		102.055,123.73 102.539,123.73 102.539,123.25 103.023,123.25 103.51,121.301 104.479,121.792 105.448,119.363 106.42,117.913 
		106.42,117.422 107.39,116.452 107.874,115.48 108.359,114.514 108.848,113.544 109.33,113.057 109.815,112.576 110.299,111.604 
		111.271,110.145 111.271,109.664 112.239,108.211 113.211,107.234 114.181,104.814 114.667,104.331 116.119,102.87 
		116.604,101.898 119.516,99.479 120.485,98.499 119.03,95.111 119.516,94.623 119.03,94.623 120.485,92.682 121.457,92.196 
		122.909,90.747 123.883,90.262 123.883,88.804 123.396,86.375 123.396,85.407 122.909,84.438 123.396,83.953 122.909,83.471 
		121.939,83.953 120.485,84.438 119.516,84.921 118.546,84.921 118.546,83.953 119.516,83.471 120.485,83.471 121.939,82.979 
		122.909,82.012 123.396,82.012 122.909,81.042 122.909,80.558 122.426,80.07 121.939,80.07 121.939,79.591 121.457,78.616 
		120.971,79.591 120.485,80.07 120.002,79.591 120.485,78.616 120.002,78.616 119.03,78.616 119.03,78.134 119.516,77.646 
		120.971,77.158 121.457,77.158 121.457,76.192 121.939,75.705 120.971,75.705 119.516,75.705 119.03,75.225 119.516,74.736 
		120.971,74.736 121.457,74.251 120.971,72.793 120.002,70.371 120.002,69.399 120.485,67.938 121.939,66.488 122.426,65.034 
		123.883,64.547 125.335,64.547 125.335,65.034 125.823,65.034 126.307,64.063 127.275,63.093 128.732,62.608 129.218,61.643 
		130.188,61.643 130.67,61.155 132.126,61.155 132.611,61.643 133.098,61.155 135.523,61.155 136.979,60.182 138.919,59.697 
		139.887,59.697 140.857,58.726 141.346,56.793 142.314,54.36 143.284,52.426 144.252,52.426 146.193,52.426 147.165,51.452 
		148.132,50.969 149.102,50.48 150.073,50 151.047,50.48 152.016,50.969 152.499,50.969 153.469,50.969 154.926,50.969 
		155.895,51.452 156.38,51.452 156.38,51.938 156.861,53.873 157.834,55.818 156.38,56.302 155.412,57.271 154.926,57.763 
		154.926,59.213 153.469,60.667 152.499,62.127 152.016,63.58 152.016,64.063 152.499,65.034 153.469,66.004 154.438,67.464 
		154.926,67.938 156.38,68.43 157.348,69.399 158.318,70.859 158.805,72.793 159.777,72.313 160.26,72.313 160.26,72.793 
		160.743,73.767 161.715,75.225 162.199,76.192 162.199,77.646 163.169,79.101 163.169,80.07 163.169,80.558 163.169,81.042 
		160.743,81.042 159.777,81.042 157.834,81.042 156.861,81.529 156.38,82.499 156.861,82.979 157.348,83.471 157.348,83.953 
		156.861,84.438 155.895,84.921 155.895,85.407 155.895,85.895 154.438,85.895 153.469,85.895 152.499,85.895 151.047,86.859 
		149.102,88.32 146.682,88.804 145.708,88.804 144.738,89.771 145.225,92.196 146.193,94.142 147.165,95.595 147.165,97.049 
		147.165,98.99 147.646,99.96 147.646,100.93 148.132,100.93 149.102,101.414 148.132,102.391 146.193,102.87 145.708,104.331 
		147.165,106.266 147.165,106.748 147.646,107.234 147.646,108.211 148.132,109.664 148.619,111.118 150.073,112.085 
		150.561,113.057 149.102,114.029 148.619,114.998 147.165,114.998 146.682,116.452 145.225,116.939 145.225,117.913 
		144.252,118.881 144.252,120.331 144.738,121.301 146.682,121.301 147.165,122.27 148.619,123.73 147.646,124.695 145.225,125.186 
		145.708,125.672 144.738,126.643 143.768,126.152 142.798,125.672 141.83,125.672 140.857,127.122 139.887,128.096 
		139.402,129.063 140.373,130.521 139.402,132.463 139.887,132.945 140.373,133.913 143.284,133.913 143.284,135.854 
		142.798,136.342 142.798,137.313 141.83,137.313 140.373,137.796 139.402,138.279 138.919,137.796 137.952,137.796 
		137.952,137.313 137.465,135.854 136.979,134.4 136.493,135.854 136.009,136.342 136.493,137.796 135.523,138.279 134.555,138.766 
		132.611,138.279 129.218,138.279 128.732,138.279 128.248,138.766 127.275,139.736 124.852,142.163 123.883,142.648 
		123.396,143.13 122.426,144.587 121.939,145.563 121.457,146.041 120.971,147.496 120.002,148.954 119.516,149.438 
		119.516,150.896 118.546,152.833 118.061,154.291 117.574,154.291 117.091,154.291 116.604,154.291 116.119,153.805 
		115.637,153.805 115.152,153.805 114.667,153.318 114.181,152.833 113.695,152.833 113.211,153.318 112.727,152.833 
		112.239,152.346 112.239,151.378 111.756,151.378 111.271,150.896 111.271,151.378 111.271,152.833 111.271,153.805 
		111.756,154.291 111.756,154.773 111.271,155.261 111.271,155.745 111.271,156.232 111.271,156.715 110.785,156.232 
		109.33,155.745 108.848,155.261 107.39,154.291 106.906,154.291 105.448,153.318 104.963,153.318 104.479,153.318 103.023,153.318 
		102.539,153.318 101.57,153.318 101.083,153.318 100.115,153.318 98.176,153.805 96.718,153.805 	"/>
</g>
</svg>
