<?xml version="1.0" encoding="utf-8"?>
<!-- Generator: Adobe Illustrator 13.0.0, SVG Export Plug-In . SVG Version: 6.00 Build 14948)  -->
<!DOCTYPE svg PUBLIC "-//W3C//DTD SVG 1.1//EN" "http://www.w3.org/Graphics/SVG/1.1/DTD/svg11.dtd">
<svg version="1.1" id="Layer_1" xmlns="http://www.w3.org/2000/svg" xmlns:xlink="http://www.w3.org/1999/xlink" x="0px" y="0px"
	 width="180px" height="150px" viewBox="0 0 240 200" enable-background="new 0 0 240 200" xml:space="preserve">
<g id="_x31_6">
	<polyline fill="#F2F2F2" stroke="#8D8D8D" points="163.617,64.527 161.907,67.95 154.21,75.647 148.223,84.204 146.514,96.181
		146.514,104.73 144.803,111.57 147.369,118.418 147.369,126.107 148.223,128.68 149.08,128.68 148.223,129.538 150.79,135.514 
		149.08,137.238 143.945,141.506 143.09,143.219 140.529,145.795 139.673,146.648 137.963,150.916 136.249,152.635 134.542,155.199 
		134.542,156.046 132.829,158.616 131.977,160.332 131.119,161.18 130.27,162.039 129.409,163.749 128.553,165.456 127.699,167.166 
		125.988,168.876 125.988,169.742 124.275,172.3 122.564,176.582 120.857,175.717 119.999,179.152 119.146,179.152 119.146,180 
		118.292,180 117.438,180 114.015,180 110.595,180 108.882,180 107.169,179.152 105.462,179.152 104.604,179.152 101.185,179.152 
		100.331,179.152 98.622,180 97.765,180 96.908,177.424 96.908,175.717 96.908,174.007 96.908,173.152 96.908,171.449 
		96.908,170.59 97.765,168.876 97.765,167.166 97.765,166.313 96.908,164.604 96.908,163.749 96.908,162.896 96.908,161.18 
		96.055,160.332 96.055,159.466 96.055,158.616 95.198,157.764 95.198,156.046 94.345,154.339 93.488,153.484 93.488,152.635 
		92.632,151.77 91.774,150.057 91.774,147.492 90.925,144.93 89.214,142.372 86.647,138.089 84.081,134.672 83.225,133.809 
		81.515,132.096 79.808,129.538 79.808,128.68 80.661,126.107 80.661,123.545 80.661,121.845 80.661,120.988 80.661,120.122 
		80.661,119.281 80.661,118.418 79.808,117.564 79.808,116.705 79.808,115.852 79.808,114.988 78.951,114.135 78.951,112.428 
		78.951,111.57 79.808,110.718 76.382,103.878 90.925,96.181 99.472,87.627 110.595,76.507 117.438,66.244 125.137,56.827 
		141.387,50 155.92,51.706 162.76,59.403 162.76,61.11 163.617,64.527 	"/>
</g>
</svg>
