<?xml version="1.0" encoding="utf-8"?>
<!-- Generator: Adobe Illustrator 13.0.0, SVG Export Plug-In . SVG Version: 6.00 Build 14948)  -->
<!DOCTYPE svg PUBLIC "-//W3C//DTD SVG 1.1//EN" "http://www.w3.org/Graphics/SVG/1.1/DTD/svg11.dtd">
<svg version="1.1" id="Layer_1" xmlns="http://www.w3.org/2000/svg" xmlns:xlink="http://www.w3.org/1999/xlink" x="0px" y="0px"
	 width="180px" height="150px" viewBox="0 0 240 200" enable-background="new 0 0 240 200" xml:space="preserve">
<g id="_x31_7">
	<polyline fill="#F2F2F2" stroke="#8D8D8D" points="129.744,158.915 127.629,163.941 124.63,165.088 121.366,166.059
		117.399,166.234 113.607,167.204 111.58,168.704 111.139,169.232 110.256,168.086 108.052,167.82 105.671,168.969 104.437,170.202 
		103.467,171.79 101.88,173.465 100.47,174.7 98.441,175.846 97.559,174.876 97.295,174.348 96.59,174.259 96.236,174.171 
		95.707,174.083 95.267,173.994 95.179,173.994 94.649,172.936 94.033,171.79 93.415,170.643 92.886,169.585 92.356,168.527 
		92.181,168.086 91.828,167.469 91.475,166.764 90.946,165.882 90.594,165.088 90.241,164.471 89.977,163.941 89.8,163.412 
		89.623,163.236 89.535,162.973 89.535,162.795 89.447,162.529 89.271,161.913 89.006,161.296 88.83,160.502 88.652,160.15 
		88.477,159.62 88.301,159.091 88.213,158.563 87.947,158.033 87.859,157.682 84.333,155.477 79.307,151.949 77.279,148.156 
		74.457,143.836 74.28,143.57 70.753,139.251 67.844,136.252 64.935,133.166 61.937,131.05 58.408,128.491 58.32,128.491 
		54.705,126.199 52.236,124.35 49.062,122.055 45.711,119.674 42.36,117.205 39.363,115.617 39.187,115.177 38.216,114.383 
		35.836,112.797 34.16,111.826 32.838,111.209 32.396,110.768 29.84,109.355 26.665,107.77 23.844,106.271 21.463,105.035 
		15.907,102.126 14.585,100.715 13.527,99.393 12.821,98.775 12.381,97.717 10,96.482 10.97,96.041 11.764,95.336 12.204,93.925 
		12.293,92.603 12.204,92.25 13.174,91.104 13.614,88.898 13.703,88.458 13.527,86.87 13.439,85.636 13.174,85.46 14.408,85.282 
		16.613,84.931 17.936,84.666 19.17,84.666 20.229,81.668 20.405,81.05 20.669,79.904 20.934,79.728 21.11,79.287 20.934,78.934 
		22.345,78.405 23.402,78.052 24.196,78.229 25.343,78.316 27.282,78.581 28.693,78.758 28.958,78.758 28.693,78.493 30.368,78.846 
		33.014,79.375 35.042,79.816 36.453,80.169 37.158,80.345 38.305,82.284 38.569,82.814 39.099,84.226 39.627,85.813 40.421,88.635 
		40.95,89.604 41.832,91.279 42.273,92.25 42.448,92.25 43.154,93.22 44.389,95.159 45.446,96.041 46.417,97.1 47.739,98.511 
		48.445,99.305 49.062,99.921 49.238,99.745 49.943,100.45 52.148,101.598 52.413,101.686 52.501,101.686 53.118,102.566 
		53.823,103.448 53.911,103.361 54,103.361 55.411,105.035 56.381,106.184 55.94,108.211 55.587,109.975 55.234,111.298 
		55.146,111.736 54.882,115.795 55.675,117.559 54.97,118.527 55.234,119.762 55.499,120.909 54.794,121.79 54.617,122.055 
		54.794,122.584 56.381,122.584 56.293,121.879 56.293,121.438 56.646,121.085 57.175,120.557 57.351,121.79 57.703,121.879 
		58.232,121.438 58.85,120.645 59.819,120.909 60.349,121.085 60.084,121.702 59.467,122.408 59.115,122.761 59.379,123.289 
		59.555,123.555 59.819,123.907 60.084,124.35 60.613,123.907 60.613,122.761 61.76,121.79 63.259,120.732 65.728,121.525 
		66.697,122.055 65.728,123.907 66.521,124.789 67.491,123.643 68.901,120.468 69.52,121.438 69.52,122.23 70.313,122.496 
		71.371,121.262 73.046,120.645 74.721,121.702 74.104,122.673 75.251,122.408 74.985,123.73 75.604,124.172 76.485,123.995 
		76.485,125.143 77.19,125.316 78.248,124.172 78.689,123.643 80.453,122.496 80.542,120.115 81.952,118.704 82.128,118.527 
		84.244,116.323 85.038,115.882 87.684,116.323 87.859,116.588 89.623,117.116 90.594,117.116 91.034,116.764 90.946,116.061 
		91.563,115.795 92.975,117.027 93.504,116.5 93.062,115.089 92.356,113.236 92.533,111.475 92.533,110.327 93.768,108.65 
		94.737,107.594 94.033,105.742 94.12,104.419 93.327,102.743 93.591,100.805 91.211,100.45 90.505,98.951 90.241,98.951 
		89.8,99.039 89.271,99.039 88.741,99.039 88.477,99.128 87.859,99.216 87.419,99.305 87.33,99.128 86.979,98.863 86.713,98.599 
		86.449,98.422 85.92,97.981 85.479,97.54 85.038,97.188 84.509,96.747 84.244,96.482 83.892,96.307 83.45,96.041 82.922,95.776 
		82.393,95.425 81.775,95.071 81.334,94.454 81.158,94.189 80.981,93.75 80.718,93.22 80.718,92.69 80.718,92.338 80.718,91.985 
		80.718,91.456 81.07,90.75 81.423,90.222 81.6,89.957 81.246,89.34 80.981,88.986 80.806,88.546 80.629,88.281 80.453,87.929 
		80.276,87.664 80.101,87.311 79.924,86.87 79.748,86.518 79.571,86.253 79.395,85.9 79.131,85.371 78.865,85.018 78.513,84.313 
		78.16,83.695 78.337,83.607 78.777,83.432 79.131,83.607 79.219,83.52 79.748,83.079 80.188,83.167 80.894,83.255 81.423,83.344 
		82.216,83.255 82.569,83.255 82.833,83.255 83.539,83.167 84.244,83.607 84.95,84.578 85.391,84.842 85.303,84.489 85.126,84.049 
		84.95,83.344 84.95,83.255 85.126,82.726 85.391,82.108 85.479,81.756 85.655,81.403 85.655,81.314 85.831,80.785 86.008,80.257 
		86.097,79.816 85.655,79.64 84.156,78.934 83.627,78.141 83.804,77.435 84.95,76.906 85.038,76.554 85.038,76.288 83.804,76.112 
		82.04,76.818 81.423,76.994 81.158,76.024 80.894,74.172 80.453,73.555 80.365,72.673 81.07,72.32 82.216,72.32 82.745,71.968 
		82.745,69.939 82.745,68.793 82.48,67.911 81.775,66.765 82.48,66.236 82.569,65.178 83.01,64.473 83.362,63.767 86.361,63.325 
		87.066,64.031 89.447,62.532 90.858,62.355 91.916,62.62 92.975,62.885 94.297,63.59 94.474,63.767 95.796,64.385 97.383,64.736 
		100.733,65.53 103.202,66.06 105.143,66.236 105.231,66.236 105.76,66.324 106.024,66.412 106.643,66.765 106.995,66.854 
		107.348,67.206 107.435,67.646 107.611,68.44 107.788,68.617 108.052,71.262 108.318,73.467 107.876,78.229 107.876,78.846 
		108.758,79.992 109.639,81.05 110.61,82.902 110.963,84.137 110.433,85.547 108.669,86.077 108.318,86.077 106.643,86.342 
		105.76,86.605 105.671,86.959 105.231,86.782 105.055,86.518 102.057,89.78 103.908,94.454 104.789,94.542 105.495,95.512 
		106.643,94.808 107.171,94.808 107.876,94.983 108.582,95.953 109.993,96.041 110.698,96.041 110.963,96.835 110.522,97.188 
		111.844,97.452 111.844,96.482 112.638,96.041 112.902,95.425 113.784,95.336 114.93,95.512 115.37,94.983 115.813,94.719 
		116.164,94.895 116.253,95.512 116.782,96.041 117.751,96.13 118.986,95.776 120.133,95.512 120.662,95.071 120.133,93.837 
		119.692,92.778 119.779,92.425 120.484,91.81 121.189,92.25 122.072,92.514 124.1,92.161 124.363,92.161 124.982,92.338 
		125.688,92.338 125.953,92.778 125.865,93.484 126.305,93.308 127.01,92.425 127.273,92.161 127.98,91.896 127.629,89.34 
		128.333,87.487 128.688,83.52 132.741,84.049 136.093,85.018 137.943,83.96 139.529,84.401 138.738,82.55 142.971,78.316 
		146.764,75.495 145.968,70.646 145.175,67.911 143.939,65.883 144.471,63.59 144.471,60.327 147.73,58.123 150.816,59.005 
		153.109,59.623 154.08,59.887 157.167,60.417 161.751,61.475 165.632,63.149 167.925,64.648 171.627,64.561 180.709,63.149 
		188.029,63.325 194.555,63.59 203.105,63.855 206.018,57.153 207.427,57.064 213.512,55.478 218.186,54.154 219.859,55.037 
		221.094,56.359 220.918,58.388 220.213,60.239 220.654,60.768 221.447,61.915 222.506,63.502 223.3,65.266 223.034,66.412 
		223.034,67.559 224.27,69.146 225.063,70.204 227.354,72.145 227.443,72.232 227.708,72.673 228.501,73.731 230,75.583 230,75.671 
		229.736,76.112 229.119,76.994 228.061,78.229 227.532,80.081 227.532,82.284 225.68,83.167 224.534,84.489 222.418,84.842 
		220.654,85.107 219.596,85.9 218.45,87.399 217.305,88.104 216.246,89.075 215.979,90.574 215.363,91.896 214.48,92.25 
		213.247,92.603 210.689,93.22 210.426,93.572 210.337,93.925 209.896,94.631 209.721,95.512 209.632,96.041 208.75,97.629 
		207.34,98.157 206.193,97.629 204.958,96.747 204.078,96.307 203.988,96.219 203.9,96.219 203.813,96.13 203.46,96.041 
		202.932,96.041 202.137,96.041 201.784,96.658 201.434,97.188 200.55,97.894 199.139,98.069 197.814,98.246 196.141,99.305 
		194.466,100.098 192.967,100.187 191.996,100.273 190.938,101.066 189.264,101.244 188.382,101.771 187.5,103.271 186.089,104.859 
		185.207,105.564 183.619,105.301 181.68,105.301 180.27,105.564 179.828,105.83 179.124,106.271 177.977,106.447 175.948,105.742 
		173.305,104.771 170.922,105.301 169.953,106.094 168.98,109.27 170.217,111.12 170.568,111.475 172.422,113.325 173.127,114.473 
		172.598,118.175 172.068,119.322 170.657,121.79 170.041,122.938 168.98,124.523 168.102,125.759 166.777,127.346 165.721,128.229 
		163.604,129.286 163.516,129.286 163.074,129.55 159.46,129.729 157.784,129.992 155.756,130.697 154.257,131.49 154.434,131.932 
		154.08,132.372 152.316,134.313 150.994,136.341 150.113,137.309 150.023,137.223 149.672,137.752 148.879,138.544 147.73,140.484 
		147.82,142.337 147.82,143.836 146.939,145.335 146.764,147.188 147.468,148.156 147.908,148.773 148.35,150.186 148.701,151.243 
		148.701,151.684 147.203,153.8 146.232,155.212 144.646,155.477 142.706,155.124 141.561,155.299 140.502,155.917 138.826,156.533 
		138.12,156.271 135.123,155.124 134.857,155.035 133.535,154.682 133.447,154.682 132.391,155.477 130.537,156.887 
		129.744,158.915 	"/>
</g>
</svg>
