<?xml version="1.0" encoding="utf-8"?>
<!-- Generator: Adobe Illustrator 13.0.0, SVG Export Plug-In . SVG Version: 6.00 Build 14948)  -->
<!DOCTYPE svg PUBLIC "-//W3C//DTD SVG 1.1//EN" "http://www.w3.org/Graphics/SVG/1.1/DTD/svg11.dtd">
<svg version="1.1" id="Layer_1" xmlns="http://www.w3.org/2000/svg" xmlns:xlink="http://www.w3.org/1999/xlink" x="0px" y="0px"
	 width="180px" height="150px" viewBox="0 0 240 200" enable-background="new 0 0 240 200" xml:space="preserve">
<g id="_x30_2">
	<g>
		<polyline fill="#F2F2F2" stroke="#8D8D8D" points="62.483,149.953 62.753,149.82 62.818,149.82 63.567,149.82 63.969,150.086 
			64.037,150.152 64.105,150.021 64.444,149.753 64.511,149.617 64.647,149.412 65.054,148.467 65.527,148.534 66.069,148.604 
			66.61,148.534 67.219,148.67 68.235,148.534 68.706,148.396 68.706,147.922 68.506,147.25 68.506,147.111 68.438,147.041 
			68.167,146.368 68.235,145.621 68.305,144.607 68.506,144.199 68.637,144 68.774,143.798 69.047,143.318 69.047,143.252 
			68.909,142.782 68.843,142.715 68.774,142.307 68.706,141.964 67.964,141.564 67.76,141.43 67.625,141.498 67.016,141.829 
			66.881,141.829 66.61,141.63 65.935,141.02 65.594,140.747 65.866,140.413 65.866,140.348 66.001,140.143 66.27,139.596 
			66.946,139.33 67.693,138.924 68.305,138.718 68.637,138.514 69.182,138.18 69.248,138.111 69.857,137.909 70.196,137.909 
			70.535,137.841 71.007,137.841 71.482,137.636 71.615,137.568 72.156,137.295 73.851,136.557 74.258,136.078 74.324,135.813 
			74.393,135.744 74.461,135.676 74.593,134.594 75.135,132.491 75.272,132.157 75.341,131.75 75.88,131.006 76.151,130.734 
			76.353,130.395 77.166,130.531 77.37,130.6 77.844,130.463 78.927,130.258 80.686,129.109 80.752,129.109 80.955,128.838 
			80.752,127.354 80.479,125.861 80.82,124.506 81.228,123.898 81.767,123.085 82.104,121.936 82.377,121.057 82.377,120.518 
			82.377,120.109 82.377,119.496 82.377,119.23 81.903,118.825 82.039,117.878 82.039,117.398 81.498,117.129 81.228,116.251 
			80.686,115.032 81.021,114.225 81.228,113.677 81.564,112.801 81.835,112.126 82.039,111.58 82.104,111.311 81.632,111.239 
			81.632,111.311 80.82,111.447 80.279,111.58 79.196,111.991 78.586,112.264 78.112,112.46 77.64,112.664 76.625,113.004 
			75.409,113.411 75.135,113.951 74.865,114.427 74.73,114.695 74.661,114.563 74.123,113.746 73.646,112.867 73.375,112.264 
			72.904,110.842 72.294,109.281 71.482,108.335 70.672,107.79 69.857,107.186 68.305,106.236 68.305,106.104 67.152,105.421 
			67.084,105.489 66.474,105.088 65.527,104.544 64.647,104.134 63.769,102.583 63.633,102.583 62.212,101.096 61.738,99.338 
			61.939,98.793 63.295,98.05 63.498,97.711 63.633,96.898 63.567,95.003 64.174,93.313 65.527,92.633 66.677,91.687 67.487,90.672 
			68.305,89.114 69.316,88.372 69.589,88.907 69.857,91.959 71.277,92.428 72.497,92.837 75.135,93.647 79.262,94.26 80.349,94.325 
			80.617,94.26 80.887,94.124 82.916,91.823 85.217,89.455 85.895,88.842 87.857,87.628 90.769,85.729 91.038,85.729 90.971,85.799 
			96.048,87.425 96.452,88.1 101.394,87.018 108.363,82.146 110.662,72.806 109.582,68.408 105.858,52.168 104.775,50.067 
			104.775,50 105.248,50.201 109.985,53.249 116.211,56.77 119.393,58.458 126.632,60.963 129.203,61.84 136.238,63.737 
			142.939,66.175 149.1,67.797 154.714,69.287 158.773,69.626 162.43,74.363 167.37,81.13 173.055,81.198 178.468,81.198 
			180.227,83.433 181.512,85.527 181.241,89.25 179.145,92.702 178.195,94.325 169.063,101.096 168.721,101.973 169.063,102.243 
			169.534,102.583 173.458,104.952 174.68,107.456 174.813,110.704 173.997,111.239 171.768,112.46 169.671,113.677 167.234,114.76 
			166.218,115.236 166.083,114.896 163.443,115.713 161.211,116.592 158.639,117.605 157.15,118.215 156.813,118.961 
			155.461,119.23 154.648,117.878 152.954,117.537 150.113,116.863 149.91,116.93 149.572,117.811 148.762,117.741 147.066,118.215 
			144.229,119.098 140.303,120.246 138.605,120.715 134.686,121.864 134.549,121.396 132.52,122.206 128.662,123.561 
			127.311,124.234 123.857,125.997 122.301,126.807 121.148,127.42 118.309,128.971 116.414,130.055 116.819,130.395 
			116.957,130.395 116.549,132.227 116.007,132.969 111.137,132.695 108.702,132.422 108.43,132.422 107.956,132.357 
			106.332,132.157 104.844,133.311 104.435,134.119 104.031,134.995 103.83,135.27 102.744,136.557 102.609,137.096 
			102.067,138.991 102.067,140.21 102.067,140.48 103.016,141.359 103.285,141.564 103.896,142.102 103.761,142.715 
			104.302,143.389 104.368,144.607 104.435,145.016 104.572,145.484 104.572,145.688 105.722,145.35 106.601,146.5 105.993,147.18 
			105.925,147.854 105.925,148.057 105.925,148.534 105.925,148.803 105.925,149.953 105.925,150.152 105.521,151.508 
			106.131,153.943 106.131,154.824 105.79,155.163 105.048,154.756 104.979,154.824 104.707,154.891 104.979,155.57 
			104.503,156.039 103.896,156.654 104.165,157.059 104.233,157.668 103.354,157.668 102.609,157.059 100.377,157.191 
			99.296,157.602 99.296,157.734 99.296,158.009 98.007,158.275 97.533,158.614 97.128,158.818 96.048,158.545 95.234,158.818 
			94.692,158.818 94.22,158.818 93.813,159.766 92.864,160.846 92.729,160.982 92.391,161.391 91.987,162.475 91.921,162.475 
			91.173,163.284 90.428,164.229 90.023,164.91 89.755,165.314 89.144,166.335 88.129,167.816 88.401,168.157 90.293,169.17 
			90.565,169.307 90.428,169.582 89.551,171.402 89.482,171.471 88.401,172.553 87.857,173.1 86.911,173.637 83.188,174.316 
			83.122,174.384 82.377,174.521 81.835,174.59 80.686,174.854 80.078,174.923 77.912,175.872 77.844,175.938 77.029,176.958 
			76.083,178.441 75.203,178.85 73.917,179.523 73.243,179.592 70.807,180 68.706,179.592 68.438,179.592 66.138,178.646 
			66.001,178.577 64.511,177.768 63.633,176.549 63.091,175.193 63.091,173.568 63.227,172.354 64.037,170.66 64.444,169.852 
			64.579,168.564 64.647,168.157 64.717,167.348 64.918,167.143 61.601,164.641 60.724,162.201 60.518,161.664 60.114,160.643 
			58.898,159.627 58.488,158.545 58.558,158.009 58.898,155.57 59.437,153.271 61.063,151.172 61.601,150.494 62.415,149.953 
			62.415,150.021 62.483,149.953 		"/>
	</g>
</g>
</svg>
