<?xml version="1.0" encoding="utf-8"?>
<!-- Generator: Adobe Illustrator 13.0.0, SVG Export Plug-In . SVG Version: 6.00 Build 14948)  -->
<!DOCTYPE svg PUBLIC "-//W3C//DTD SVG 1.1//EN" "http://www.w3.org/Graphics/SVG/1.1/DTD/svg11.dtd">
<svg version="1.1" id="Layer_1" xmlns="http://www.w3.org/2000/svg" xmlns:xlink="http://www.w3.org/1999/xlink" x="0px" y="0px"
	 width="180px" height="150px" viewBox="0 0 240 200" enable-background="new 0 0 240 200" xml:space="preserve">
<g id="_x30_3">
	<polyline fill="#F2F2F2" stroke="#8D8D8D" points="83.23,116.936 83.389,116.287 83.389,115.805 86.292,114.838 91.935,114.518
		93.873,115.967 96.13,115.967 95.972,114.518 95.323,113.389 96.772,111.768 98.066,110.639 97.256,108.865 97.904,108.715 
		98.229,108.544 100.161,109.51 100.969,108.715 100.969,106.445 99.519,100.157 100.485,96.61 100.485,96.124 100.485,93.221 
		100.485,92.417 100.485,91.285 100.485,90.802 100.645,88.872 102.26,87.254 102.094,87.096 100.002,84.192 96.935,84.994 
		96.935,84.676 96.613,83.224 96.451,82.416 96.289,79.187 94.84,77.412 95.323,75.807 93.549,74.51 93.065,73.864 90.646,71.607 
		90.646,70.965 90.646,67.738 91.935,62.9 92.259,61.444 95.164,58.059 95.647,57.413 96.613,55.156 97.745,53.062 101.452,50 
		105.807,50.805 106.938,50.805 107.581,50.957 114.034,51.603 126.609,52.251 127.094,52.251 126.936,55.64 126.289,68.222 
		125.002,78.061 125.002,78.22 125.002,78.382 124.84,80.314 124.678,82.902 124.52,85.64 126.936,85.805 134.029,86.609 
		140.971,90.802 149.518,95.965 150.322,96.61 151.773,97.735 154.998,99.999 162.418,102.58 166.611,105.482 167.58,106.445 
		170.486,109.359 171.128,110.314 177.419,117.419 185.322,124.998 185.484,125.157 184.839,125.964 181.288,130.809 
		178.548,134.191 177.419,135.484 170.324,144.029 169.838,144.68 164.837,151.456 164.675,151.773 163.709,152.902 
		161.613,155.805 161.127,155.322 160.645,155.805 158.546,157.417 155.807,159.354 154.516,160.163 151.611,161.938 
		150.968,162.258 150.646,162.096 147.42,163.384 145.32,164.197 145,164.354 143.383,164.999 142.581,166.124 142.581,165.48 
		142.098,165.645 139.518,166.771 138.868,167.1 136.936,168.068 135.323,168.715 131.613,170.484 129.84,171.296 129.682,171.296 
		127.583,172.421 125.968,173.227 125.646,173.389 124.84,174.354 121.289,177.902 119.677,180 119.196,179.838 105.483,171.936 
		103.871,170.969 102.094,169.84 100.326,168.874 100.002,168.715 95.323,165.971 95.164,165.8 89.519,162.424 89.194,162.424 
		88.228,162.424 85.487,160.809 82.582,159.189 79.838,157.579 77.419,156.129 72.263,153.227 71.452,152.736 69.357,151.611 
		67.901,150.809 65.81,149.514 64.678,149.034 60.488,146.614 60.806,146.128 60.164,145.801 55.325,143.227 54.515,142.26 
		57.1,138.391 58.711,135.803 59.356,134.672 60.488,132.9 62.262,130.48 64.354,128.552 64.354,128.387 65.485,125.646 
		66.455,124.518 66.617,124.193 69.192,121.45 70.165,118.869 71.452,119.031 72.746,119.031 75.003,118.383 77.743,119.031 
		78.71,118.383 80,117.74 83.23,116.936 	"/>
</g>
</svg>
