<?xml version="1.0" encoding="utf-8"?>
<!-- Generator: Adobe Illustrator 13.0.0, SVG Export Plug-In . SVG Version: 6.00 Build 14948)  -->
<!DOCTYPE svg PUBLIC "-//W3C//DTD SVG 1.1//EN" "http://www.w3.org/Graphics/SVG/1.1/DTD/svg11.dtd">
<svg version="1.1" id="Layer_1" xmlns="http://www.w3.org/2000/svg" xmlns:xlink="http://www.w3.org/1999/xlink" x="0px" y="0px"
	 width="180px" height="150px" viewBox="0 0 240 200" enable-background="new 0 0 240 200" xml:space="preserve">
<g id="_x30_4">
	<polyline fill="#F2F2F2" stroke="#8D8D8D" points="87.712,158.891 87.921,158.336 88.062,158.055 88.199,156.586 88.55,154.141
		88.688,152.743 88.55,152.813 88.48,152.32 88.48,150.436 88.83,147.502 89.181,143.938 89.319,143.098 89.457,141.488 
		89.877,138.273 90.018,136.598 91.765,136.877 91.974,136.877 92.046,136.945 92.114,136.945 92.046,137.574 93.862,137.436 
		94.211,137.436 94.489,137.436 94.561,137.436 96.867,137.645 97.285,137.715 100.432,137.926 100.502,137.785 100.641,137.298 
		100.71,137.018 100.991,136.318 101.548,135.618 102.179,134.641 102.317,134.501 103.088,134.08 103.646,133.662 103.995,133.243 
		104.695,132.264 104.625,132.193 103.856,130.654 103.506,128.908 103.506,127.723 103.506,127.581 103.506,127.441 
		103.995,125.623 103.018,124.296 102.527,123.669 102.388,123.247 101.9,122.127 101.2,119.896 101.2,119.682 101.548,119.193 
		102.248,118.914 102.388,118.846 103.297,118.493 104.695,117.936 104.834,118.006 105.113,117.866 106.371,117.098 
		106.931,116.747 108.118,115.908 109.027,115.21 109.236,115 109.447,115.21 110.355,113.952 110.773,113.463 110.844,113.325 
		113.011,110.389 113.222,110.107 116.296,106.404 116.785,105.844 117.973,104.378 119.511,102.279 119.791,101.93 
		119.721,101.859 116.296,98.576 113.57,95.498 113.292,95.084 112.033,93.821 111.612,93.404 109.796,92.146 106.581,91.027 
		105.184,90.047 104.555,89.56 104.206,89.28 100.502,87.043 97.495,85.226 94.42,84.877 93.373,84.806 93.442,83.62 93.513,82.498 
		93.583,81.661 93.583,81.591 93.583,81.521 94.141,77.259 94.42,71.807 94.489,70.338 94.28,70.338 94.842,69.502 95.258,67.405 
		95.189,67.473 94.633,67.054 98.963,64.609 100.779,63.56 108.399,59.786 115.038,57.272 115.248,57.829 115.457,57.76 
		130.833,53.216 131.461,53.216 131.811,53.285 132.16,52.307 132.37,52.236 137.541,53.355 138.241,54.545 138.45,54.891 
		139.85,54.545 140.266,53.705 147.257,50.98 150.262,50 150.4,50.35 150.75,51.118 150.052,51.607 150.682,52.866 154.314,62.094 
		155.223,62.58 155.991,64.398 156.063,66.495 156.764,78.796 156.831,79.983 156.764,81.591 156.764,81.728 154.455,89.63 
		153.057,90.677 152.639,91.027 153.337,91.937 154.314,95.852 154.734,97.176 156.48,102.35 157.391,106.682 157.391,106.82 
		157.88,109.201 157.738,111.645 157.391,115.07 154.734,123.457 154.176,125.273 154.035,125.484 152.568,130.376 152.288,130.864 
		152.219,131.075 150.331,135.618 150.12,136.109 149.143,138.415 143.621,151.482 143.482,151.904 142.924,153.091 
		143.201,155.467 143.133,155.396 143.343,157.705 143.413,158.055 143.553,160.08 143.973,160.432 144.111,161.061 143.902,161.27 
		144.04,161.756 144.04,162.525 144.04,163.018 143.973,164.833 143.902,165.534 143.693,167.489 143.693,167.559 143.762,168.816 
		143.762,169.727 143.621,169.656 143.621,169.798 140.617,169.656 140.409,170.287 140.338,171.264 140.057,171.684 
		139.986,171.825 140.128,171.891 140.409,172.594 140.338,172.939 140.338,173.361 140.197,173.428 140.128,173.428 
		139.85,173.501 138.661,173.428 137.891,173.012 137.473,173.083 136.493,173.428 135.865,173.29 135.443,173.152 135.025,173.083 
		133.559,172.871 133.42,172.871 130.553,171.751 128.877,171.402 128.596,171.336 127.268,171.684 125.59,171.684 124.543,171.609 
		124.332,171.609 122.166,172.105 118.741,172.52 117.903,173.641 117.694,173.919 114.829,175.246 113.292,175.246 
		112.592,175.598 111.823,176.016 111.194,176.365 109.447,175.878 107.771,175.316 106.443,175.736 107.212,176.646 
		108.327,177.484 108.399,177.555 109.656,177.973 110.773,178.464 109.168,179.723 108.399,180 108.469,179.932 106.722,179.092 
		103.856,177.695 102.597,177.133 101.271,177.271 99.104,177.271 99.033,177.271 99.104,176.296 99.173,175.945 98.126,175.18 
		97.704,174.898 95.12,173.223 94.072,172.52 92.255,171.193 92.324,171.193 91.555,170.214 90.786,169.376 90.228,169.027 
		88.343,167.771 88.271,167.771 86.873,167.42 86.523,167.35 85.334,167 84.706,166.859 82.119,165.882 83.519,164.766 
		84.356,164.063 84.567,163.854 84.986,163.366 86.034,162.248 86.173,162.178 86.315,161.971 86.594,161.41 87.293,159.939 
		87.712,158.891 	"/>
</g>
</svg>
