<?xml version="1.0" encoding="utf-8"?>
<!-- Generator: Adobe Illustrator 13.0.0, SVG Export Plug-In . SVG Version: 6.00 Build 14948)  -->
<!DOCTYPE svg PUBLIC "-//W3C//DTD SVG 1.1//EN" "http://www.w3.org/Graphics/SVG/1.1/DTD/svg11.dtd">
<svg version="1.1" id="Layer_1" xmlns="http://www.w3.org/2000/svg" xmlns:xlink="http://www.w3.org/1999/xlink" x="0px" y="0px"
	 width="240px" height="200px" viewBox="0 0 240 200" enable-background="new 0 0 240 200" xml:space="preserve">
<g id="_x31_7" display="none">
	<text transform="matrix(1 0 0 1 20 23.6113)" display="inline" fill="#474747" font-family="'Arial-BoldMT'" font-size="15">District 17</text>
	<polyline display="inline" fill="#F2F2F2" stroke="#8D8D8D" points="129.744,158.915 127.629,163.941 124.63,165.088 
		121.366,166.059 117.399,166.234 113.607,167.204 111.58,168.704 111.139,169.232 110.256,168.086 108.052,167.82 105.671,168.969 
		104.437,170.202 103.467,171.79 101.88,173.465 100.47,174.7 98.441,175.846 97.559,174.876 97.295,174.348 96.59,174.259 
		96.236,174.171 95.707,174.083 95.267,173.994 95.179,173.994 94.649,172.936 94.033,171.79 93.415,170.643 92.886,169.585 
		92.356,168.527 92.181,168.086 91.828,167.469 91.475,166.764 90.946,165.882 90.594,165.088 90.241,164.471 89.977,163.941 
		89.8,163.412 89.623,163.236 89.535,162.973 89.535,162.795 89.447,162.529 89.271,161.913 89.006,161.296 88.83,160.502 
		88.652,160.15 88.477,159.62 88.301,159.091 88.213,158.563 87.947,158.033 87.859,157.682 84.333,155.477 79.307,151.949 
		77.279,148.156 74.457,143.836 74.28,143.57 70.753,139.251 67.844,136.252 64.935,133.166 61.937,131.05 58.408,128.491 
		58.32,128.491 54.705,126.199 52.236,124.35 49.062,122.055 45.711,119.674 42.36,117.205 39.363,115.617 39.187,115.177 
		38.216,114.383 35.836,112.797 34.16,111.826 32.838,111.209 32.396,110.768 29.84,109.355 26.665,107.77 23.844,106.271 
		21.463,105.035 15.907,102.126 14.585,100.715 13.527,99.393 12.821,98.775 12.381,97.717 10,96.482 10.97,96.041 11.764,95.336 
		12.204,93.925 12.293,92.603 12.204,92.25 13.174,91.104 13.614,88.898 13.703,88.458 13.527,86.87 13.439,85.636 13.174,85.46 
		14.408,85.282 16.613,84.931 17.936,84.666 19.17,84.666 20.229,81.668 20.405,81.05 20.669,79.904 20.934,79.728 21.11,79.287 
		20.934,78.934 22.345,78.405 23.402,78.052 24.196,78.229 25.343,78.316 27.282,78.581 28.693,78.758 28.958,78.758 28.693,78.493 
		30.368,78.846 33.014,79.375 35.042,79.816 36.453,80.169 37.158,80.345 38.305,82.284 38.569,82.814 39.099,84.226 39.627,85.813 
		40.421,88.635 40.95,89.604 41.832,91.279 42.273,92.25 42.448,92.25 43.154,93.22 44.389,95.159 45.446,96.041 46.417,97.1 
		47.739,98.511 48.445,99.305 49.062,99.921 49.238,99.745 49.943,100.45 52.148,101.598 52.413,101.686 52.501,101.686 
		53.118,102.566 53.823,103.448 53.911,103.361 54,103.361 55.411,105.035 56.381,106.184 55.94,108.211 55.587,109.975 
		55.234,111.298 55.146,111.736 54.882,115.795 55.675,117.559 54.97,118.527 55.234,119.762 55.499,120.909 54.794,121.79 
		54.617,122.055 54.794,122.584 56.381,122.584 56.293,121.879 56.293,121.438 56.646,121.085 57.175,120.557 57.351,121.79 
		57.703,121.879 58.232,121.438 58.85,120.645 59.819,120.909 60.349,121.085 60.084,121.702 59.467,122.408 59.115,122.761 
		59.379,123.289 59.555,123.555 59.819,123.907 60.084,124.35 60.613,123.907 60.613,122.761 61.76,121.79 63.259,120.732 
		65.728,121.525 66.697,122.055 65.728,123.907 66.521,124.789 67.491,123.643 68.901,120.468 69.52,121.438 69.52,122.23 
		70.313,122.496 71.371,121.262 73.046,120.645 74.721,121.702 74.104,122.673 75.251,122.408 74.985,123.73 75.604,124.172 
		76.485,123.995 76.485,125.143 77.19,125.316 78.248,124.172 78.689,123.643 80.453,122.496 80.542,120.115 81.952,118.704 
		82.128,118.527 84.244,116.323 85.038,115.882 87.684,116.323 87.859,116.588 89.623,117.116 90.594,117.116 91.034,116.764 
		90.946,116.061 91.563,115.795 92.975,117.027 93.504,116.5 93.062,115.089 92.356,113.236 92.533,111.475 92.533,110.327 
		93.768,108.65 94.737,107.594 94.033,105.742 94.12,104.419 93.327,102.743 93.591,100.805 91.211,100.45 90.505,98.951 
		90.241,98.951 89.8,99.039 89.271,99.039 88.741,99.039 88.477,99.128 87.859,99.216 87.419,99.305 87.33,99.128 86.979,98.863 
		86.713,98.599 86.449,98.422 85.92,97.981 85.479,97.54 85.038,97.188 84.509,96.747 84.244,96.482 83.892,96.307 83.45,96.041 
		82.922,95.776 82.393,95.425 81.775,95.071 81.334,94.454 81.158,94.189 80.981,93.75 80.718,93.22 80.718,92.69 80.718,92.338 
		80.718,91.985 80.718,91.456 81.07,90.75 81.423,90.222 81.6,89.957 81.246,89.34 80.981,88.986 80.806,88.546 80.629,88.281 
		80.453,87.929 80.276,87.664 80.101,87.311 79.924,86.87 79.748,86.518 79.571,86.253 79.395,85.9 79.131,85.371 78.865,85.018 
		78.513,84.313 78.16,83.695 78.337,83.607 78.777,83.432 79.131,83.607 79.219,83.52 79.748,83.079 80.188,83.167 80.894,83.255 
		81.423,83.344 82.216,83.255 82.569,83.255 82.833,83.255 83.539,83.167 84.244,83.607 84.95,84.578 85.391,84.842 85.303,84.489 
		85.126,84.049 84.95,83.344 84.95,83.255 85.126,82.726 85.391,82.108 85.479,81.756 85.655,81.403 85.655,81.314 85.831,80.785 
		86.008,80.257 86.097,79.816 85.655,79.64 84.156,78.934 83.627,78.141 83.804,77.435 84.95,76.906 85.038,76.554 85.038,76.288 
		83.804,76.112 82.04,76.818 81.423,76.994 81.158,76.024 80.894,74.172 80.453,73.555 80.365,72.673 81.07,72.32 82.216,72.32 
		82.745,71.968 82.745,69.939 82.745,68.793 82.48,67.911 81.775,66.765 82.48,66.236 82.569,65.178 83.01,64.473 83.362,63.767 
		86.361,63.325 87.066,64.031 89.447,62.532 90.858,62.355 91.916,62.62 92.975,62.885 94.297,63.59 94.474,63.767 95.796,64.385 
		97.383,64.736 100.733,65.53 103.202,66.06 105.143,66.236 105.231,66.236 105.76,66.324 106.024,66.412 106.643,66.765 
		106.995,66.854 107.348,67.206 107.435,67.646 107.611,68.44 107.788,68.617 108.052,71.262 108.318,73.467 107.876,78.229 
		107.876,78.846 108.758,79.992 109.639,81.05 110.61,82.902 110.963,84.137 110.433,85.547 108.669,86.077 108.318,86.077 
		106.643,86.342 105.76,86.605 105.671,86.959 105.231,86.782 105.055,86.518 102.057,89.78 103.908,94.454 104.789,94.542 
		105.495,95.512 106.643,94.808 107.171,94.808 107.876,94.983 108.582,95.953 109.993,96.041 110.698,96.041 110.963,96.835 
		110.522,97.188 111.844,97.452 111.844,96.482 112.638,96.041 112.902,95.425 113.784,95.336 114.93,95.512 115.37,94.983 
		115.813,94.719 116.164,94.895 116.253,95.512 116.782,96.041 117.751,96.13 118.986,95.776 120.133,95.512 120.662,95.071 
		120.133,93.837 119.692,92.778 119.779,92.425 120.484,91.81 121.189,92.25 122.072,92.514 124.1,92.161 124.363,92.161 
		124.982,92.338 125.688,92.338 125.953,92.778 125.865,93.484 126.305,93.308 127.01,92.425 127.273,92.161 127.98,91.896 
		127.629,89.34 128.333,87.487 128.688,83.52 132.741,84.049 136.093,85.018 137.943,83.96 139.529,84.401 138.738,82.55 
		142.971,78.316 146.764,75.495 145.968,70.646 145.175,67.911 143.939,65.883 144.471,63.59 144.471,60.327 147.73,58.123 
		150.816,59.005 153.109,59.623 154.08,59.887 157.167,60.417 161.751,61.475 165.632,63.149 167.925,64.648 171.627,64.561 
		180.709,63.149 188.029,63.325 194.555,63.59 203.105,63.855 206.018,57.153 207.427,57.064 213.512,55.478 218.186,54.154 
		219.859,55.037 221.094,56.359 220.918,58.388 220.213,60.239 220.654,60.768 221.447,61.915 222.506,63.502 223.3,65.266 
		223.034,66.412 223.034,67.559 224.27,69.146 225.063,70.204 227.354,72.145 227.443,72.232 227.708,72.673 228.501,73.731 
		230,75.583 230,75.671 229.736,76.112 229.119,76.994 228.061,78.229 227.532,80.081 227.532,82.284 225.68,83.167 224.534,84.489 
		222.418,84.842 220.654,85.107 219.596,85.9 218.45,87.399 217.305,88.104 216.246,89.075 215.979,90.574 215.363,91.896 
		214.48,92.25 213.247,92.603 210.689,93.22 210.426,93.572 210.337,93.925 209.896,94.631 209.721,95.512 209.632,96.041 
		208.75,97.629 207.34,98.157 206.193,97.629 204.958,96.747 204.078,96.307 203.988,96.219 203.9,96.219 203.813,96.13 
		203.46,96.041 202.932,96.041 202.137,96.041 201.784,96.658 201.434,97.188 200.55,97.894 199.139,98.069 197.814,98.246 
		196.141,99.305 194.466,100.098 192.967,100.187 191.996,100.273 190.938,101.066 189.264,101.244 188.382,101.771 187.5,103.271 
		186.089,104.859 185.207,105.564 183.619,105.301 181.68,105.301 180.27,105.564 179.828,105.83 179.124,106.271 177.977,106.447 
		175.948,105.742 173.305,104.771 170.922,105.301 169.953,106.094 168.98,109.27 170.217,111.12 170.568,111.475 172.422,113.325 
		173.127,114.473 172.598,118.175 172.068,119.322 170.657,121.79 170.041,122.938 168.98,124.523 168.102,125.759 166.777,127.346 
		165.721,128.229 163.604,129.286 163.516,129.286 163.074,129.55 159.46,129.729 157.784,129.992 155.756,130.697 154.257,131.49 
		154.434,131.932 154.08,132.372 152.316,134.313 150.994,136.341 150.113,137.309 150.023,137.223 149.672,137.752 
		148.879,138.544 147.73,140.484 147.82,142.337 147.82,143.836 146.939,145.335 146.764,147.188 147.468,148.156 147.908,148.773 
		148.35,150.186 148.701,151.243 148.701,151.684 147.203,153.8 146.232,155.212 144.646,155.477 142.706,155.124 141.561,155.299 
		140.502,155.917 138.826,156.533 138.12,156.271 135.123,155.124 134.857,155.035 133.535,154.682 133.447,154.682 
		132.391,155.477 130.537,156.887 129.744,158.915 	"/>
</g>
<g id="_x31_6" display="none">
	<text transform="matrix(1 0 0 1 20 23.6113)" display="inline" fill="#474747" font-family="'Arial-BoldMT'" font-size="15">District 16</text>
	<polyline display="inline" fill="#F2F2F2" stroke="#8D8D8D" points="163.617,64.527 161.907,67.95 154.21,75.647 148.223,84.204 
		146.514,96.181 146.514,104.73 144.803,111.57 147.369,118.418 147.369,126.107 148.223,128.68 149.08,128.68 148.223,129.538 
		150.79,135.514 149.08,137.238 143.945,141.506 143.09,143.219 140.529,145.795 139.673,146.648 137.963,150.916 136.249,152.635 
		134.542,155.199 134.542,156.046 132.829,158.616 131.977,160.332 131.119,161.18 130.27,162.039 129.409,163.749 128.553,165.456 
		127.699,167.166 125.988,168.876 125.988,169.742 124.275,172.3 122.564,176.582 120.857,175.717 119.999,179.152 119.146,179.152 
		119.146,180 118.292,180 117.438,180 114.015,180 110.595,180 108.882,180 107.169,179.152 105.462,179.152 104.604,179.152 
		101.185,179.152 100.331,179.152 98.622,180 97.765,180 96.908,177.424 96.908,175.717 96.908,174.007 96.908,173.152 
		96.908,171.449 96.908,170.59 97.765,168.876 97.765,167.166 97.765,166.313 96.908,164.604 96.908,163.749 96.908,162.896 
		96.908,161.18 96.055,160.332 96.055,159.466 96.055,158.616 95.198,157.764 95.198,156.046 94.345,154.339 93.488,153.484 
		93.488,152.635 92.632,151.77 91.774,150.057 91.774,147.492 90.925,144.93 89.214,142.372 86.647,138.089 84.081,134.672 
		83.225,133.809 81.515,132.096 79.808,129.538 79.808,128.68 80.661,126.107 80.661,123.545 80.661,121.845 80.661,120.988 
		80.661,120.122 80.661,119.281 80.661,118.418 79.808,117.564 79.808,116.705 79.808,115.852 79.808,114.988 78.951,114.135 
		78.951,112.428 78.951,111.57 79.808,110.718 76.382,103.878 90.925,96.181 99.472,87.627 110.595,76.507 117.438,66.244 
		125.137,56.827 141.387,50 155.92,51.706 162.76,59.403 162.76,61.11 163.617,64.527 	"/>
</g>
<g id="_x31_5" display="none">
	<text transform="matrix(1 0 0 1 20 23.6113)" display="inline" fill="#474747" font-family="'Arial-BoldMT'" font-size="15">District 15</text>
	<polyline display="inline" fill="#F2F2F2" stroke="#8D8D8D" points="96.718,153.805 96.234,154.291 96.234,154.773 95.746,155.261 
		95.264,155.745 94.777,157.684 94.292,158.652 93.322,160.598 92.353,162.048 89.927,167.382 89.443,168.355 89.927,168.355 
		89.443,168.841 88.957,169.326 87.987,170.298 87.502,172.236 86.046,171.266 84.593,173.206 83.622,173.693 83.136,174.182 
		81.681,175.15 81.195,175.628 81.195,176.117 79.257,178.059 78.77,179.029 78.284,180 76.83,179.029 77.317,176.117 
		78.284,170.298 78.77,169.326 80.712,164.961 82.165,162.536 81.681,162.048 83.136,158.652 84.593,155.745 85.563,152.833 
		86.532,151.378 87.015,150.896 87.015,149.438 87.987,147.016 87.987,144.1 88.473,141.191 87.502,140.223 87.502,139.25 
		87.015,138.766 87.987,135.37 89.443,134.889 89.927,134.4 89.927,133.43 88.957,131.975 87.015,129.063 85.563,126.643 
		87.015,125.672 91.868,123.25 92.353,123.25 94.292,123.25 94.777,123.25 95.746,123.25 96.718,123.73 97.689,123.73 
		99.629,123.73 101.57,123.73 102.055,123.73 102.539,123.73 102.539,123.25 103.023,123.25 103.51,121.301 104.479,121.792 
		105.448,119.363 106.42,117.913 106.42,117.422 107.39,116.452 107.874,115.48 108.359,114.514 108.848,113.544 109.33,113.057 
		109.815,112.576 110.299,111.604 111.271,110.145 111.271,109.664 112.239,108.211 113.211,107.234 114.181,104.814 
		114.667,104.331 116.119,102.87 116.604,101.898 119.516,99.479 120.485,98.499 119.03,95.111 119.516,94.623 119.03,94.623 
		120.485,92.682 121.457,92.196 122.909,90.747 123.883,90.262 123.883,88.804 123.396,86.375 123.396,85.407 122.909,84.438 
		123.396,83.953 122.909,83.471 121.939,83.953 120.485,84.438 119.516,84.921 118.546,84.921 118.546,83.953 119.516,83.471 
		120.485,83.471 121.939,82.979 122.909,82.012 123.396,82.012 122.909,81.042 122.909,80.558 122.426,80.07 121.939,80.07 
		121.939,79.591 121.457,78.616 120.971,79.591 120.485,80.07 120.002,79.591 120.485,78.616 120.002,78.616 119.03,78.616 
		119.03,78.134 119.516,77.646 120.971,77.158 121.457,77.158 121.457,76.192 121.939,75.705 120.971,75.705 119.516,75.705 
		119.03,75.225 119.516,74.736 120.971,74.736 121.457,74.251 120.971,72.793 120.002,70.371 120.002,69.399 120.485,67.938 
		121.939,66.488 122.426,65.034 123.883,64.547 125.335,64.547 125.335,65.034 125.823,65.034 126.307,64.063 127.275,63.093 
		128.732,62.608 129.218,61.643 130.188,61.643 130.67,61.155 132.126,61.155 132.611,61.643 133.098,61.155 135.523,61.155 
		136.979,60.182 138.919,59.697 139.887,59.697 140.857,58.726 141.346,56.793 142.314,54.36 143.284,52.426 144.252,52.426 
		146.193,52.426 147.165,51.452 148.132,50.969 149.102,50.48 150.073,50 151.047,50.48 152.016,50.969 152.499,50.969 
		153.469,50.969 154.926,50.969 155.895,51.452 156.38,51.452 156.38,51.938 156.861,53.873 157.834,55.818 156.38,56.302 
		155.412,57.271 154.926,57.763 154.926,59.213 153.469,60.667 152.499,62.127 152.016,63.58 152.016,64.063 152.499,65.034 
		153.469,66.004 154.438,67.464 154.926,67.938 156.38,68.43 157.348,69.399 158.318,70.859 158.805,72.793 159.777,72.313 
		160.26,72.313 160.26,72.793 160.743,73.767 161.715,75.225 162.199,76.192 162.199,77.646 163.169,79.101 163.169,80.07 
		163.169,80.558 163.169,81.042 160.743,81.042 159.777,81.042 157.834,81.042 156.861,81.529 156.38,82.499 156.861,82.979 
		157.348,83.471 157.348,83.953 156.861,84.438 155.895,84.921 155.895,85.407 155.895,85.895 154.438,85.895 153.469,85.895 
		152.499,85.895 151.047,86.859 149.102,88.32 146.682,88.804 145.708,88.804 144.738,89.771 145.225,92.196 146.193,94.142 
		147.165,95.595 147.165,97.049 147.165,98.99 147.646,99.96 147.646,100.93 148.132,100.93 149.102,101.414 148.132,102.391 
		146.193,102.87 145.708,104.331 147.165,106.266 147.165,106.748 147.646,107.234 147.646,108.211 148.132,109.664 
		148.619,111.118 150.073,112.085 150.561,113.057 149.102,114.029 148.619,114.998 147.165,114.998 146.682,116.452 
		145.225,116.939 145.225,117.913 144.252,118.881 144.252,120.331 144.738,121.301 146.682,121.301 147.165,122.27 148.619,123.73 
		147.646,124.695 145.225,125.186 145.708,125.672 144.738,126.643 143.768,126.152 142.798,125.672 141.83,125.672 
		140.857,127.122 139.887,128.096 139.402,129.063 140.373,130.521 139.402,132.463 139.887,132.945 140.373,133.913 
		143.284,133.913 143.284,135.854 142.798,136.342 142.798,137.313 141.83,137.313 140.373,137.796 139.402,138.279 
		138.919,137.796 137.952,137.796 137.952,137.313 137.465,135.854 136.979,134.4 136.493,135.854 136.009,136.342 136.493,137.796 
		135.523,138.279 134.555,138.766 132.611,138.279 129.218,138.279 128.732,138.279 128.248,138.766 127.275,139.736 
		124.852,142.163 123.883,142.648 123.396,143.13 122.426,144.587 121.939,145.563 121.457,146.041 120.971,147.496 
		120.002,148.954 119.516,149.438 119.516,150.896 118.546,152.833 118.061,154.291 117.574,154.291 117.091,154.291 
		116.604,154.291 116.119,153.805 115.637,153.805 115.152,153.805 114.667,153.318 114.181,152.833 113.695,152.833 
		113.211,153.318 112.727,152.833 112.239,152.346 112.239,151.378 111.756,151.378 111.271,150.896 111.271,151.378 
		111.271,152.833 111.271,153.805 111.756,154.291 111.756,154.773 111.271,155.261 111.271,155.745 111.271,156.232 
		111.271,156.715 110.785,156.232 109.33,155.745 108.848,155.261 107.39,154.291 106.906,154.291 105.448,153.318 104.963,153.318 
		104.479,153.318 103.023,153.318 102.539,153.318 101.57,153.318 101.083,153.318 100.115,153.318 98.176,153.805 96.718,153.805 	
		"/>
</g>
<g id="_x31_4" display="none">
	<text transform="matrix(1 0 0 1 20 23.6113)" display="inline" fill="#474747" font-family="'Arial-BoldMT'" font-size="15">District 14</text>
	<g display="inline">
		<polyline fill="#F2F2F2" stroke="#8D8D8D" points="50.742,178.27 49.023,176.594 47.311,176.594 38.766,174.874 38.766,173.154 
			35.346,171.448 35.346,166.311 37.059,164.598 40.479,159.464 42.178,156.059 42.178,154.352 43.891,152.619 45.598,154.352 
			45.598,152.619 47.311,150.918 49.023,152.619 50.742,150.918 50.742,149.212 52.443,145.779 54.15,144.073 55.863,140.66 
			59.282,138.959 59.282,135.533 60.982,132.102 62.708,128.676 64.415,123.574 66.128,120.143 66.128,118.423 67.834,116.717 
			69.541,109.884 71.26,108.171 69.541,106.464 74.668,109.884 76.381,106.464 78.1,103.038 84.932,96.192 84.932,94.468 
			86.645,92.786 91.771,89.366 93.49,87.647 96.91,85.928 102.036,79.082 107.162,82.508 108.875,75.676 112.295,72.25 
			114.008,70.537 115.715,68.83 120.841,68.83 122.561,68.83 124.268,68.83 129.398,67.11 134.531,63.691 143.084,61.984 
			151.637,58.571 160.182,56.858 163.607,55.14 167.021,53.445 170.439,53.445 173.866,51.72 177.286,51.72 180.705,50 182.425,50 
			190.971,50 192.677,51.72 194.384,50 197.811,51.72 201.229,51.72 204.654,51.72 204.654,53.445 199.516,56.858 197.811,61.984 
			192.677,68.83 189.257,70.537 189.257,73.969 187.544,79.082 185.838,82.508 187.544,89.366 187.544,92.786 190.971,96.192 
			194.384,99.619 196.104,101.325 196.104,103.038 197.811,106.464 199.516,106.464 201.229,113.297 199.516,118.423 
			196.104,125.27 194.384,126.986 189.257,135.533 184.125,142.366 180.705,144.073 172.159,145.779 167.021,147.492 
			163.607,145.779 160.182,142.366 156.77,137.24 153.343,133.814 148.21,132.102 144.797,130.407 141.371,128.676 139.658,130.407 
			136.232,128.676 134.531,126.986 131.105,125.27 129.398,123.574 127.686,123.574 127.686,126.986 127.686,132.102 
			125.986,133.814 124.268,135.533 122.561,137.24 120.841,138.959 117.428,142.366 114.008,144.073 112.295,144.073 
			110.588,144.073 110.588,145.779 108.875,145.779 105.449,147.492 103.75,147.492 102.036,147.492 100.33,149.212 98.623,149.212 
			96.91,150.918 95.197,150.918 95.197,152.619 93.49,152.619 91.771,152.619 90.064,152.619 86.645,154.352 84.932,154.352 
			83.226,154.352 83.226,156.059 81.52,156.059 79.807,156.059 79.807,157.775 79.807,159.464 78.1,161.171 76.381,162.891 
			76.381,164.598 74.668,164.598 72.967,164.598 69.541,164.598 69.541,166.311 67.834,166.311 66.128,168.029 64.415,168.029 
			60.982,169.723 60.982,171.448 60.982,173.154 59.282,173.154 59.282,174.874 59.282,176.594 57.576,178.27 55.863,178.27 
			55.863,180 54.15,180 52.443,180 50.742,180 50.742,178.27 		"/>
	</g>
</g>
<g id="_x31_3" display="none">
	<text transform="matrix(1 0 0 1 20 23.6113)" display="inline" fill="#474747" font-family="'Arial-BoldMT'" font-size="15">District 13</text>
	<polyline display="inline" fill="#F2F2F2" stroke="#8D8D8D" points="53.611,129.945 55.002,127.868 56.391,125.08 57.088,123.689 
		57.783,120.913 58.475,120.22 59.174,119.521 59.174,118.829 59.867,118.13 61.956,118.13 64.736,117.438 66.124,117.438 
		66.822,117.438 68.21,117.438 68.904,117.438 70.99,117.438 71.684,117.438 72.381,117.438 74.469,118.829 75.163,118.829 
		77.252,120.22 77.943,120.913 80.029,121.611 80.726,122.303 80.726,121.611 80.726,120.913 80.726,120.22 81.42,119.521 
		81.42,118.829 80.726,118.13 80.726,116.74 80.726,114.654 80.726,113.963 81.42,114.654 82.113,114.654 82.113,116.042 
		82.812,116.74 83.506,117.438 84.199,116.74 84.896,116.74 85.592,117.438 86.288,118.13 86.982,118.13 87.673,118.13 
		88.369,118.829 89.065,118.829 89.76,118.829 90.455,118.829 91.151,116.74 92.542,113.963 92.542,111.872 96.016,107.709 
		99.494,107.709 100.882,108.402 101.58,109.092 102.968,107.709 104.357,106.318 107.138,106.318 105.75,107.005 105.75,109.092 
		106.447,109.788 108.527,108.402 109.92,107.005 109.92,109.788 110.614,111.18 112.703,107.005 114.787,107.005 120.35,106.318 
		121.043,105.615 121.736,102.833 123.826,100.055 127.297,95.189 127.297,90.322 127.993,85.457 130.08,84.063 132.859,82.674 
		134.943,82.674 137.73,83.373 139.119,81.286 139.119,77.813 139.813,74.342 141.202,73.638 143.291,72.936 146.762,73.638 
		147.459,73.638 150.244,72.936 150.936,72.936 156.497,71.549 159.975,71.549 160.667,68.08 158.581,65.988 157.887,64.599 
		155.801,63.905 153.715,61.128 153.715,59.044 155.801,54.173 159.273,51.39 162.061,50 164.145,51.39 162.061,54.173 
		161.366,55.56 164.145,59.732 164.837,59.732 166.922,60.431 168.313,58.34 169.012,56.955 169.012,57.648 169.706,57.648 
		170.398,59.044 171.787,60.431 171.787,61.128 173.876,60.431 175.959,60.431 177.348,60.431 180.828,63.905 180.828,64.599 
		180.828,67.381 180.135,67.381 179.436,68.08 181.525,70.853 182.219,70.853 182.916,72.253 187.082,72.936 187.082,73.638 
		188.473,75.03 189.169,75.724 189.169,77.113 189.859,77.113 189.859,77.813 190.559,79.891 190.559,81.286 190.559,84.063 
		189.169,83.373 188.473,83.373 187.082,83.373 185.691,84.763 184.996,85.457 184.996,88.93 184.996,89.623 184.303,90.322 
		183.605,91.713 182.916,93.105 182.219,94.495 181.525,94.495 181.525,95.189 180.828,95.883 180.135,96.579 179.436,97.972 
		178.047,98.665 175.959,99.361 175.959,100.055 175.959,100.754 176.656,102.145 176.656,102.833 175.959,103.531 175.27,103.531 
		174.572,103.531 173.18,102.833 172.486,102.833 171.787,102.833 171.094,102.833 169.012,102.833 166.229,102.833 
		164.145,101.447 162.756,104.223 162.061,104.922 162.061,107.005 161.366,108.402 161.366,109.092 164.837,111.18 
		166.229,112.575 169.012,110.48 169.706,109.788 170.398,108.402 171.787,109.092 172.486,108.402 171.787,109.788 171.787,111.18 
		172.486,111.872 172.486,114.654 172.486,116.042 171.787,118.13 171.787,120.22 171.787,122.997 175.959,123.689 178.047,123.689 
		184.303,122.303 184.303,122.997 184.996,123.689 184.996,124.391 185.691,125.08 185.691,126.473 187.082,129.25 187.781,132.033 
		188.473,132.734 189.169,136.898 188.473,138.289 187.082,139.682 186.389,140.378 186.389,141.077 185.691,141.077 
		185.691,141.771 184.996,143.156 184.996,143.85 184.303,144.549 183.605,145.938 181.525,145.244 179.436,144.549 176.656,143.85 
		175.959,143.85 168.313,142.467 168.313,145.938 168.313,148.727 168.313,149.409 169.706,152.197 170.398,154.286 
		171.094,154.979 171.787,154.979 172.486,157.063 173.18,157.063 173.18,157.754 173.18,158.453 173.18,159.846 173.18,161.241 
		173.876,161.93 173.876,162.628 175.27,164.707 175.959,164.707 175.959,165.402 176.656,165.402 178.74,168.879 179.436,169.573 
		179.436,170.268 180.135,171.662 180.135,172.355 180.135,173.751 180.135,174.445 179.436,176.523 178.74,177.916 
		178.047,179.311 178.047,180 176.656,179.311 176.656,180 172.486,179.311 171.787,177.916 170.398,175.145 169.706,173.751 
		167.622,172.355 167.622,171.662 166.922,170.964 166.922,170.268 166.229,170.268 165.533,170.268 166.229,171.662 
		165.533,172.355 164.145,172.355 163.449,170.268 163.449,171.662 165.533,173.751 165.533,174.445 161.366,177.223 
		157.887,177.916 157.191,177.223 155.801,176.523 155.104,173.751 155.104,173.047 154.408,173.047 153.715,174.445 
		153.021,175.145 150.936,175.145 148.85,173.047 146.064,169.573 144.68,167.495 144.68,166.104 141.9,166.104 129.387,165.402 
		125.91,168.186 121.736,168.879 118.266,166.796 116.873,166.104 109.92,163.314 107.138,162.628 101.58,161.241 95.324,161.241 
		89.76,159.846 84.199,160.537 84.896,159.146 84.896,157.063 84.199,154.286 83.506,154.286 82.812,152.895 82.812,152.197 
		82.113,151.503 80.726,150.111 79.333,148.727 79.333,147.336 78.64,144.549 79.333,143.156 80.029,141.077 80.029,139.682 
		81.42,138.988 83.506,136.206 84.199,134.122 86.288,132.734 86.288,132.033 84.896,132.033 83.506,132.033 82.113,131.334 
		81.42,132.033 80.726,131.334 77.252,131.334 76.553,131.334 75.163,132.033 73.773,132.033 72.381,132.734 70.99,132.734 
		69.604,133.423 68.21,134.122 64.736,134.818 61.26,136.206 57.783,136.898 55.697,138.289 53.611,138.988 52.918,138.988 
		52.219,138.988 50.135,138.988 49.441,138.988 50.135,137.59 53.611,129.945 	"/>
</g>
<g id="_x31_2" display="none">
	<text transform="matrix(1 0 0 1 20 23.6113)" display="inline" fill="#474747" font-family="'Arial-BoldMT'" font-size="15">District 12</text>
	<polyline display="inline" fill="#F2F2F2" stroke="#8D8D8D" points="70.168,124.051 70.098,124.051 69.821,123.407 67.597,120.116 
		67.097,119.466 66.815,119.184 66.311,118.764 64.591,116.823 64.452,116.535 64.167,116.186 63.95,115.038 63.521,113.816 
		63.445,112.389 63.445,111.602 63.445,111.457 63.445,111.24 63.233,110.891 61.942,108.88 61.733,108.521 61.161,107.67 
		59.94,105.947 58.726,102.732 58.584,102.45 58.296,102.089 58.296,101.802 58.372,98.798 58.654,95.716 66.381,96.869 
		67.597,97.151 70.31,97.792 72.67,98.364 72.957,98.435 75.388,99.37 77.754,100.223 78.399,100.507 80.9,101.582 81.904,102.234 
		82.403,102.521 85.339,104.307 86.625,105.092 91.698,108.174 91.915,108.305 92.562,108.665 95.784,110.604 99.718,113.036 
		102.437,114.748 103.723,109.814 103.939,108.378 104.01,107.884 103.581,105.45 103.505,105.163 102.008,102.089 101.796,100.507 
		101.796,100.366 102.008,96.436 102.084,96.291 102.437,95.789 104.438,95.29 104.655,95.572 104.872,95.789 105.366,96.436 
		107.232,98.435 108.589,100.437 108.947,102.016 109.306,101.802 110.233,101.229 111.807,101.582 113.305,101.657 
		113.521,102.661 113.809,102.594 114.672,102.594 116.099,102.661 117.249,101.802 117.89,102.45 117.824,102.732 119.533,102.661 
		120.038,102.594 120.973,102.594 122.686,102.732 121.964,99.875 121.465,96.793 125.116,92.208 129.338,86.563 132.984,82.841 
		133.201,82.984 134.846,82.768 136.495,81.907 136.924,78.904 136.637,78.904 134.704,78.616 133.268,78.616 131.915,78.616 
		130.262,78.831 128.909,78.831 128.48,79.121 127.688,79.762 127.26,79.762 126.045,79.333 125.471,79.188 124.254,78.473 
		123.9,78.758 123.831,79.26 123.831,79.333 123.543,79.91 119.533,79.981 118.671,79.91 116.457,79.693 115.317,79.547 
		115.101,79.477 114.884,79.188 114.384,78.543 111.883,77.26 109.951,76.036 110.233,74.471 111.448,73.18 111.161,72.539 
		108.155,71.967 108.73,70.89 109.805,69.604 110.092,69.39 111.666,67.881 111.953,67.461 112.241,65.236 112.599,63.09 
		112.811,61.736 112.881,61.451 113.305,59.943 113.099,59.655 113.88,59.091 115.247,59.162 116.674,59.943 119.463,60.017 
		119.246,61.666 119.892,61.234 125.616,57.797 130.836,54.718 135.703,51.788 138.709,50.073 138.926,50 139.002,50 
		139.707,51.147 139.854,51.43 141.068,53.508 143.93,54.935 146.576,56.587 146.788,56.446 149.506,58.158 149.441,58.375 
		152.945,60.445 156.451,63.09 158.523,65.45 160.456,70.385 161.105,72.398 161.178,72.398 161.747,73.822 164.107,77.765 
		165.682,74.759 169.475,73.32 173.836,71.68 174.91,71.248 176.913,70.385 179.848,69.68 179.994,69.68 181.134,69.75 
		180.986,70.531 177.916,78.261 179.701,83.128 180.923,83.773 180.635,87.13 181.704,87.919 181.704,92.135 180.275,96.723 
		178.134,100.223 177.417,103.155 177.559,103.73 178.557,109.957 177.775,110.818 173.76,113.465 171.329,113.816 170.255,114.102 
		169.762,114.031 167.895,113.744 167.33,114.463 166.826,115.111 165.604,116.823 165.316,117.686 165.029,118.619 
		163.825,123.264 163.532,125.836 163.32,125.982 163.174,126.126 163.104,126.701 163.033,126.771 162.1,127.768 158.242,129.563 
		157.016,130.128 156.663,130.346 155.523,130.775 154.516,130.775 153.732,130.92 153.021,130.92 151.514,131.422 151.438,131.495 
		150.081,132.279 149.37,132.702 147.938,133.279 146.218,134.141 144.721,134.855 144.146,135.998 143.857,136.503 
		143.787,136.643 143.212,137.363 143.93,138.003 145.583,139.432 146.218,139.938 146.43,139.861 147.867,139.072 148.154,138.932 
		148.648,139.219 150.299,140.296 150.445,140.936 150.656,141.938 150.732,142.084 151.016,143.158 151.091,143.302 
		150.516,144.441 150.445,144.37 150.081,144.943 149.939,145.374 149.295,146.227 149.148,148.52 149.148,148.665 149.148,150.238 
		149.652,151.739 149.799,152.023 149.799,152.313 150.299,153.82 150.299,154.886 149.225,155.314 146.863,155.529 
		145.438,155.241 144.216,155.314 143.001,155.314 142.002,155.174 140.993,157.316 140.781,157.678 140.564,158.036 
		139.854,158.611 139.637,158.898 139.57,158.825 138.491,158.177 136.924,158.25 136.706,158.25 136.061,158.538 135.92,158.682 
		135.844,158.538 133.988,159.748 132.063,161.042 129.768,163.261 127.688,165.188 125.471,165.836 125.328,165.906 
		122.252,167.979 121.042,169.414 119.962,172.206 119.463,174.275 118.323,175.923 116.169,177.499 115.101,177.637 
		113.027,175.711 111.021,174.346 110.092,174.492 108.589,174.634 106.229,175.711 106.012,175.923 103.939,177.783 99.647,180 
		97.998,179.498 98.285,178.215 98.714,175.496 98.497,172.417 99.148,168.766 99.506,167.768 100,166.047 100.934,160.537 
		91.134,155.746 90.06,155.174 89.268,154.886 90.923,159.968 91.628,163.329 90.63,164.908 86.625,164.689 84.048,163.975 
		81.975,162.9 79.762,160.684 78.111,160.537 77.9,160.537 76.967,159.82 75.182,158.682 73.099,157.173 71.313,156.396 
		71.384,155.389 73.099,153.747 73.315,152.957 73.099,152.813 71.817,152.098 71.46,151.169 70.456,151.242 69.387,150.955 
		70.386,150.238 70.597,149.449 69.957,149.016 69.316,148.451 68.236,147.377 68.958,145.229 72.887,143.302 73.315,142.295 
		72.105,141.721 70.027,141.436 68.236,140.369 68.601,138.212 69.028,138.003 69.1,135.423 69.1,135.285 69.1,134.93 69.24,134.93 
		69.821,133.279 70.386,131.709 71.242,129.563 71.242,129.205 71.313,128.418 71.313,127.133 71.242,126.848 71.172,126.195 
		70.456,124.693 70.168,124.051 	"/>
</g>
<g id="_x31_1" display="none">
	<text transform="matrix(1 0 0 1 20 23.6113)" display="inline" fill="#474747" font-family="'Arial-BoldMT'" font-size="15">District 11</text>
	<polyline display="inline" fill="#F2F2F2" stroke="#8D8D8D" points="83.471,101.454 83.13,101.454 82.441,101.793 82.099,100.426 
		81.412,99.394 80.728,98.708 79.699,98.36 79.354,98.024 78.669,96.993 77.983,96.307 77.641,95.62 77.641,95.278 77.983,94.251 
		78.669,93.219 79.699,92.19 79.699,91.165 80.043,90.817 80.728,90.132 81.756,89.79 81.068,88.414 80.728,87.047 80.728,86.703 
		80.384,86.703 79.699,86.36 78.669,86.36 77.983,86.36 77.641,86.36 76.956,86.016 76.268,85.676 75.581,86.016 74.895,86.36 
		74.212,86.703 73.524,87.392 72.151,87.392 71.467,87.392 70.781,88.759 70.096,90.479 69.752,91.846 69.064,92.533 68.38,92.533 
		67.009,92.875 60.835,91.165 61.862,89.104 61.862,88.759 63.577,87.392 64.95,86.36 67.353,86.36 68.723,86.703 70.781,86.016 
		73.524,84.648 76.612,83.271 79.014,82.584 81.068,82.244 83.13,81.899 84.5,81.899 85.872,82.244 86.558,82.244 86.901,82.584 
		88.96,83.271 90.674,83.617 92.732,83.617 93.417,83.957 96.161,79.158 96.502,78.813 105.078,76.412 105.078,76.069 
		109.194,64.07 110.224,61.321 112.281,56.175 117.083,52.401 120.171,50 123.941,51.028 124.63,51.375 132.52,54.462 
		134.574,55.146 134.574,59.262 135.605,64.07 135.605,64.753 136.635,67.494 146.924,72.641 147.268,72.981 152.411,74.697 
		158.584,80.874 160.302,83.271 160.643,83.617 163.045,83.617 170.246,88.759 172.99,94.251 174.02,96.307 178.479,115.171 
		179.165,118.258 177.792,123.063 176.762,128.549 169.219,133.698 164.073,134.383 163.729,133.698 157.898,131.979 
		155.84,133.352 155.497,133.698 152.754,135.408 152.066,136.094 148.297,140.21 147.609,140.898 147.268,141.241 146.238,141.241 
		145.208,140.898 141.438,140.555 136.635,139.186 135.947,138.84 135.605,135.408 135.264,135.408 135.264,134.725 
		135.264,135.066 134.232,135.751 133.889,136.777 132.859,138.154 132.52,138.154 131.486,138.84 131.146,139.523 130.802,139.523 
		129.773,140.21 129.432,141.583 129.088,141.928 129.088,143.298 129.088,144.67 128.744,145.357 127.715,145.702 127.373,146.043 
		127.373,146.385 127.715,148.102 127.715,148.443 129.088,150.159 127.715,150.846 125.659,152.215 123.257,153.588 
		120.512,155.303 120.171,155.303 120.171,154.617 119.142,154.617 118.455,154.277 117.769,154.277 117.427,154.617 
		117.083,155.303 117.083,155.989 117.083,157.021 116.741,158.047 116.741,158.393 116.057,159.077 115.712,159.077 
		115.368,159.764 115.025,160.107 116.398,160.45 116.398,160.795 116.057,161.479 115.712,162.165 116.741,162.506 
		117.769,163.193 118.111,163.534 118.455,163.882 118.798,163.882 119.829,163.882 120.171,163.882 122.229,163.882 
		122.229,163.534 122.229,163.193 122.572,163.193 122.914,163.534 123.257,163.534 123.941,163.882 124.63,163.534 
		125.314,163.534 126.003,163.193 126.686,163.193 127.373,163.193 128.402,163.534 128.059,164.907 127.373,165.252 
		126.686,165.252 124.973,166.967 122.914,169.71 121.198,171.768 121.543,173.143 121.885,174.51 120.855,174.51 120.512,174.51 
		120.171,174.51 119.485,174.51 119.142,174.173 118.798,174.51 118.111,174.51 117.769,174.51 117.427,174.51 117.427,173.825 
		116.741,173.825 116.057,173.825 115.712,174.173 115.368,174.173 115.368,173.486 114.682,172.455 113.655,171.424 
		113.312,171.084 112.281,171.424 111.938,173.486 112.281,174.173 112.967,175.543 112.967,175.885 112.967,176.916 
		112.967,177.258 112.967,177.602 112.281,180 111.253,179.314 109.194,178.286 107.824,177.258 107.48,176.916 105.078,175.543 
		104.394,175.198 103.021,174.51 103.021,174.173 102.335,173.825 101.306,173.486 100.963,173.143 99.934,172.797 99.591,172.797 
		99.934,172.111 100.276,171.768 100.276,171.424 100.62,170.741 100.62,170.398 100.963,170.398 100.963,170.055 101.306,169.71 
		101.991,169.023 102.335,168.337 101.991,166.282 101.65,165.938 101.306,164.563 100.62,163.193 100.62,162.506 100.276,162.165 
		100.276,161.82 99.934,161.479 99.934,161.136 96.848,161.82 95.818,161.82 93.759,161.479 93.759,160.107 93.759,159.077 
		94.104,158.047 94.104,157.361 94.104,155.989 93.759,155.648 93.759,154.961 94.104,154.277 93.759,154.617 93.074,154.277 
		92.732,154.961 92.39,155.303 91.018,156.336 90.33,155.648 88.617,154.617 88.617,154.277 88.96,153.588 88.96,152.561 
		89.304,152.215 89.988,150.846 91.018,151.529 92.39,151.529 93.417,151.529 93.759,151.529 94.104,151.529 94.446,151.529 
		95.133,151.874 95.477,151.874 95.818,151.874 96.161,151.529 96.161,151.189 95.818,150.504 95.818,150.159 95.818,149.816 
		96.848,149.473 97.533,149.131 97.878,148.443 98.22,148.102 98.563,147.758 98.563,147.416 98.906,147.416 99.249,146.729 
		99.591,146.043 99.934,145.357 100.276,145.014 100.276,144.67 100.276,142.956 100.62,142.613 101.306,141.928 101.991,141.928 
		102.335,141.928 103.021,142.27 103.021,140.898 103.021,140.21 102.676,139.186 102.676,138.84 102.335,138.84 102.335,138.154 
		101.991,137.813 101.306,137.125 101.306,136.777 99.249,136.441 98.906,135.751 98.563,135.751 97.533,134.383 97.878,134.038 
		98.22,134.038 98.22,132.665 98.22,132.323 96.502,130.607 95.818,130.607 94.79,130.607 93.759,130.952 93.759,130.607 
		93.074,129.925 92.732,129.236 92.39,129.236 92.39,128.895 92.045,129.577 91.358,130.607 90.33,130.264 89.988,130.264 
		88.617,128.205 88.96,127.521 89.304,126.838 89.646,126.49 89.988,126.146 89.646,125.803 88.96,125.462 89.304,120.663 
		87.586,113.461 85.528,107.626 85.528,107.283 85.528,106.938 85.528,106.253 84.843,105.225 84.843,104.197 84.5,103.514 
		83.813,102.48 83.471,101.793 83.471,101.454 	"/>
</g>
<g id="_x31_0" display="none">
	<text transform="matrix(1 0 0 1 20 23.6113)" display="inline" fill="#474747" font-family="'Arial-BoldMT'" font-size="15">District 10</text>
	<g display="inline">
		<polyline fill="#F2F2F2" stroke="#8D8D8D" points="43,99.426 46.639,94.966 47.312,94.147 47.754,93.63 48.646,92.511 
			49.244,91.99 49.244,91.915 50.582,90.356 52.584,87.834 55.561,84.185 57.047,82.405 59.722,79.133 59.869,78.912 61.056,77.575 
			62.842,75.419 63.138,75.046 64.477,73.411 67.227,70.063 72.728,63.449 75.775,59.587 80.678,53.789 80.608,53.566 
			82.165,51.557 83.506,50 85.809,51.557 88.559,52.968 88.336,55.648 90.343,64.567 90.568,64.417 94.437,65.829 96.587,68.504 
			97.851,69.99 100.378,73.632 108.108,74.603 109.37,75.266 110.336,76.457 110.562,76.683 111.007,78.021 111.151,80.101 
			111.449,81.888 111.524,82.703 110.562,84.413 110.115,85.604 109.891,87.093 110.038,88.572 110.038,89.015 110.19,89.175 
			110.631,89.693 111.151,90.134 111.822,90.879 112.19,92.068 112.19,93.555 111.975,94.746 111.893,94.966 111.449,96.603 
			111.079,97.864 111.079,97.941 110.562,98.98 110.264,100.171 109.521,101.061 108.552,101.655 106.324,102.848 107.143,103.369 
			107.513,103.512 109.295,104.408 109.077,108.718 108.774,111.988 109,113.186 108.702,114.141 108.256,115.557 107.215,117.936 
			107.288,117.936 108.108,116.225 108.329,116.3 110.264,117.118 110.709,114.141 117.183,104.852 122.078,99.351 127.281,94.521 
			131.072,94.521 134.045,95.339 136.127,97.341 137.395,98.534 138.135,97.198 141.035,91.99 146.234,91.99 149.652,96.229 
			148.611,100.396 149.432,101.207 151.508,103.143 151.66,105.967 152.627,106.115 154.932,107.152 156.195,107.674 
			156.195,108.271 156.118,109.979 155.225,110.795 150.99,114.439 148.467,117.563 146.533,119.051 148.238,121.128 
			149.652,122.912 152.329,124.178 152.329,124.251 153.367,124.251 155.154,124.102 155.079,124.477 161.176,129.083 
			166.154,132.206 171.277,135.402 171.357,135.402 174.105,136.884 176.482,138.146 182.43,137.923 182.354,137.854 
			182.209,137.557 182.654,137.489 183.618,137.782 183.841,137.923 184.068,138.077 184.217,138.077 184.363,138.373 
			184.659,138.666 185.104,139.566 185.628,139.932 186.744,139.861 187.71,139.271 188.078,139.271 187.633,142.314 
			187.561,145.953 188.975,145.732 189.564,145.732 190.311,145.732 192.835,145.732 194.023,145.732 197.37,145.66 197.518,145.66 
			197.59,145.807 197.74,146.253 197.814,146.253 197.814,146.331 196.848,147.889 196.775,148.037 196.624,148.333 
			194.925,150.934 194.473,152.422 194.249,152.945 194.023,153.761 194.092,154.057 194.092,154.354 194.177,155.395 
			194.473,155.99 194.404,156.286 196.182,158.072 196.182,158.146 197.74,159.632 198.408,160.229 199.602,163.421 
			199.895,164.166 200.788,166.246 202.05,166.989 202.125,167.438 202.125,167.66 202.572,171.449 203.093,174.645 
			203.314,176.357 203.093,179.257 203.021,180 200.191,177.17 198.264,175.165 192.915,169.294 188.15,166.174 183.548,164.234 
			182.354,163.198 182.282,163.198 178.866,162.087 174.334,160.598 169.354,158.373 168.092,157.85 161.176,155.023 
			154.262,152.572 147.867,150.189 142.664,148.333 142.438,148.333 135.232,145.807 133.675,145.66 131.743,145.215 
			129.215,144.693 128.846,144.469 128.768,144.616 127.945,144.318 124.014,142.984 123.116,142.686 118.134,141.051 
			117.994,140.977 117.476,140.83 111.822,138.891 110.115,138.3 107.884,137.557 102.385,135.479 96.885,133.841 92.723,132.65 
			92.565,132.129 92.565,132.354 89.154,131.536 86.774,130.939 84.024,130.348 80.979,129.677 80.386,129.456 78.671,128.486 
			76.892,127.967 74.737,127.445 72.43,126.557 67.38,124.994 66.344,124.701 63.438,123.807 56.599,121.432 53.33,119.421 
			52.364,118.6 51.178,117.712 49.244,116.3 49.613,113.92 49.244,113.252 47.014,111.615 44.111,110.352 41.588,109.014 
			40.1,107.973 38.47,106.115 36.684,103.292 40.475,99.878 41.883,98.757 41.951,98.68 42.109,98.907 43,99.426 		"/>
	</g>
</g>
<g id="_x30_9" display="none">
	<text transform="matrix(1 0 0 1 20 23.6113)" display="inline" fill="#474747" font-family="'Arial-BoldMT'" font-size="15">District 09</text>
	<polyline display="inline" fill="#F2F2F2" stroke="#8D8D8D" points="68.254,82.323 70.87,77.617 70.668,75.742 71.949,74.189 
		73.013,72.043 73.889,69.356 74.566,67.065 74.77,66.729 76.051,64.245 77.184,61.356 79.475,56.654 79.881,55.977 80.746,54.171 
		82.031,52.013 83.443,50.41 86.061,50.199 100.646,50.265 100.909,50.265 110.191,50.135 112.881,50.065 113.757,50.065 
		116.849,50.065 119.937,50.065 125.048,50 127.795,50 128.672,50.666 132.107,51.737 133.921,52.35 135.527,53.899 136.07,55.637 
		136.141,57.396 135.934,58.135 135.329,59.202 135.063,60.48 134.721,61.628 134.721,63.3 134.314,64.85 133.921,66.591 
		134.043,68.684 134.384,71.706 134.988,73.397 135.063,73.649 135.195,75.269 135.329,76.213 135.934,76.075 138.484,77.35 
		141.313,80.992 146.75,85.208 149.775,87.703 149.707,87.436 153.074,88.84 156.305,89.517 158.855,89.111 160.271,88.84 
		162.418,87.029 165.704,85.074 169.875,83.942 173.027,84.21 177.202,85.882 180.087,88.178 183.057,90.795 184.46,92.413 
		185.139,93.347 187.814,97.043 189.503,100.08 189.702,100.471 181.908,109.615 176.999,115.664 168.333,126.221 163.968,131.523 
		161.878,134.091 161.404,134.68 158.584,138.055 156.709,140.271 156.507,140.538 152.202,145.723 149.91,148.538 145.146,154.381 
		141.979,158.275 139.904,160.773 139.832,160.839 138.952,161.771 137.557,163.46 136.813,164.4 135.8,165.672 130.025,172.738 
		128.208,171.659 125.993,173.404 120.002,178.787 118.662,180 116.914,178.18 111.396,172.674 107.766,169.096 105.019,166.751 
		103.469,165.331 100.167,162.516 100.033,162.377 98.43,161.57 96.008,160.369 92.981,158.818 90.9,157.809 88.884,156.803 
		86.193,155.46 83.914,154.314 82.43,153.585 79.139,151.626 74.635,149.078 67.714,145.18 67.645,145.309 62.196,142.818 
		58.565,141.014 58.232,140.875 53.993,138.92 50.297,137.247 50.837,135.828 52.455,131.803 53.863,127.969 55.412,124.27 
		56.824,120.37 56.89,120.172 58.5,116.195 59.848,112.639 61.396,108.739 63.072,104.504 64.963,99.675 65.824,97.448 
		66.229,96.441 66.295,96.312 66.16,95.906 65.227,95.439 64.217,95.034 63.543,94.763 61.994,94.292 61.588,94.157 60.724,93.817 
		60.119,93.748 59.174,93.748 58.975,93.68 58.906,93.614 58.095,93.347 57.437,93.213 56.221,92.738 54.801,92.076 55.814,91.2 
		57.758,88.108 59.109,87.236 60.926,86.153 64.014,84.481 65.288,83.805 66.295,83.265 67.515,82.726 68.254,82.323 	"/>
</g>
<g id="_x30_8" display="none">
	<text transform="matrix(1 0 0 1 20 23.6113)" display="inline" fill="#474747" font-family="'Arial-BoldMT'" font-size="15">District 08</text>
	<polyline display="inline" fill="#F2F2F2" stroke="#8D8D8D" points="82.796,108.036 83,107.559 82.596,107.027 81.987,105.822 
		80.633,103.979 79.362,101.729 79.012,100.276 78.805,100.276 77.938,99.745 77.611,99.626 77.199,99.506 73.223,98.136 
		68.967,96.516 68.762,96.281 70.853,91.928 71.402,90.919 71.33,90.846 71.061,90.78 70.922,90.711 70.379,90.435 69.578,89.741 
		69.439,89.537 68.828,88.918 68.559,88.09 68.289,87.378 68.361,87.247 68.489,86.505 68.22,85.893 68.762,83.803 68.828,83.583 
		68.9,83.302 69.513,81.774 70.787,78.179 70.99,77.586 71.402,76.474 72.191,73.987 73.357,70.466 73.631,70.123 73.832,69.8 
		73.832,69.607 76.379,62.81 76.113,62.603 75.852,62.325 77.057,60.266 77.342,58.626 77.546,57.406 77.546,56.813 77.411,54.177 
		77.342,53.907 76.779,50 78.607,50.874 79.497,51.81 80.302,52.01 81.172,52.822 83,53.103 83.734,54.312 84.213,55.055 
		85.167,55.396 85.29,55.462 86.718,56.274 88.607,56.937 88.885,57.202 89.662,57.948 90.91,58.495 92.152,59.173 93.588,60.735 
		94.111,61.501 94.182,61.709 94.686,62.26 94.316,63.226 94.316,64.053 95.348,64.326 95.813,65.616 96.279,66.99 96.833,68.11 
		97.168,69.026 96.768,70.258 96.629,71.743 97.099,73.271 97.168,74.507 96.968,76.339 97.099,77.128 97.233,77.521 97.372,77.913 
		97.033,79.253 97.033,82.302 97.233,83.302 97.372,84.337 97.233,85.962 97.303,86.166 97.572,87.378 97.98,88.298 98.646,89.676 
		98.703,90.022 99.393,91.809 101.837,94.787 102.876,96.104 103.568,97.543 104.162,98.429 105.501,99.745 106.633,100.691 
		109.431,103.917 110.393,104.448 112.184,105.73 113.307,107.027 114.805,109.155 114.805,111.97 114.805,112.385 114.98,116.266 
		115.216,118.154 115.516,121.146 115.693,121.266 116.891,122.238 117.541,123.844 117.129,125.91 117.541,128.607 
		118.122,130.938 119.334,133.195 119.627,133.493 121.883,136.364 121.729,136.482 122.549,136.482 123.568,136.482 
		125.301,136.604 126.786,136.604 127.125,137.016 128.053,138.177 128.795,138.604 129.814,138.955 130.555,139.316 
		131.016,139.598 132.837,140.591 133.814,141.126 134.73,141.63 138.973,139.17 140.143,138.674 143.294,137.365 148.016,135.279 
		153.05,132.725 157.715,132.072 162.68,129.994 164.535,129.675 163.165,130.626 161.21,133.67 160.23,134.617 161.625,135.354 
		162.811,135.795 163.512,136.014 164.277,136.307 164.412,136.364 164.604,136.426 165.467,136.426 166.159,136.482 
		167.061,136.779 167.468,136.838 168.984,137.313 169.67,137.546 170.693,137.966 171.641,138.462 171.779,138.886 
		171.718,139.027 170.416,142.253 168.521,147.134 162.326,162.896 162.257,163.088 160.744,167.014 159.331,170.705 
		157.861,174.535 156.244,178.576 155.729,180 155.074,179.654 150.063,177.43 146.25,175.555 143.633,174.327 136.624,171.256 
		133.164,169.662 127.714,167.268 125.119,166.109 118.211,163.088 112.718,160.324 112.66,160.521 111.34,160.132 108.307,158.111 
		102.637,153.643 99.047,149.982 90.975,145.302 83.734,139.17 82.865,136.896 82.727,137.016 81.584,134.617 81.379,133.547 
		79.012,129.613 77.746,128.016 77.546,126.915 77.411,125.854 77.269,125.264 77.269,121.977 77.746,121.563 79.225,120.021 
		80.028,117.743 80.232,117.743 80.302,117.564 80.567,117.15 80.768,115.672 80.902,115.021 81.715,111.021 81.853,110.473 
		82.053,109.641 82.796,108.036 	"/>
</g>
<g id="_x30_7" display="none">
	<text transform="matrix(1 0 0 1 20 23.6113)" display="inline" fill="#474747" font-family="'Arial-BoldMT'" font-size="15">District 07</text>
	<polyline display="inline" fill="#F2F2F2" stroke="#8D8D8D" points="88.688,88.703 88.881,88.839 93.621,86.014 95.591,85.484 
		95.78,85.289 98.807,85.549 102.684,87.067 106.831,87.398 112.539,87.792 115.565,83.98 116.553,81.871 118.258,78.457 
		119.574,75.696 119.709,75.373 120.363,72.346 120.563,71.494 120.895,70.237 121.016,69.573 121.092,69.329 121.156,68.665 
		121.41,66.096 121.48,64.857 121.611,62.152 121.676,60.981 122.396,57.691 122.598,56.903 125.096,54.524 126.869,53.414 
		129.107,52.033 129.957,51.508 131.211,50.979 133.377,50 136.922,50.259 139.684,50.717 139.948,50.78 143.104,51.104 
		146.063,52.161 146.52,52.693 147.641,53.947 148.623,54.994 148.689,55.909 148.754,57.162 148.559,57.958 147.968,59.856 
		146.784,62.014 146.648,62.279 145.139,64.197 144.678,64.516 143.036,65.581 141.325,67.742 141.27,67.81 139.288,69.254 
		139.225,69.127 136.859,71.888 135.412,74.518 135.084,74.837 135.215,74.837 134.889,75.373 133.574,76.086 132.588,76.935 
		132.588,77.265 132.52,77.399 132.588,78.334 132.26,78.795 132.26,78.907 132.195,79.703 132.26,80.101 132.324,80.502 
		132.26,80.761 132.195,80.941 131.928,81.609 131.928,82.4 131.602,82.858 131.081,83.59 131.863,83.853 132.124,84.565 
		132.654,84.959 132.725,85.226 132.725,85.882 132.393,87.334 133.438,87.855 133.971,88.572 133.701,88.771 134.557,88.97 
		133.835,89.961 134.689,90.809 135.744,91.412 135.876,91.735 136.465,91.668 136.532,91.607 136.859,91.341 137.777,91.668 
		137.909,92.85 137.518,94.035 137.715,95.085 138.047,96.335 138.896,96.53 140.145,97.449 140.604,98.5 141.471,98.762 
		141.783,99.04 142.708,99.937 144.482,100.338 145.273,101.266 145.207,102.053 145.867,102.646 147.508,103.227 149.016,103.955 
		150.328,104.551 151.324,104.878 152.564,104.878 152.962,107.174 153.027,107.966 153.096,108.427 153.227,109.219 
		153.294,110.01 153.49,111.714 153.555,112.303 153.354,113.488 153.027,115.057 151.911,117.104 152.17,117.375 152.436,117.566 
		150.988,121.299 149.941,124.203 149.941,124.398 149.742,124.725 149.479,125.059 148.361,128.473 147.576,130.836 
		147.176,131.958 146.98,132.555 145.67,136.029 145.139,137.541 145.073,137.809 145.006,138.002 144.482,140.043 144.747,140.621 
		144.609,141.35 144.547,141.42 144.811,142.212 145.073,143 145.67,143.589 145.797,143.795 146.52,144.439 147.111,144.703 
		147.176,144.771 147.439,144.838 147.576,144.895 147.049,145.952 145.006,150.162 145.207,150.496 149.348,151.934 
		153.622,153.377 153.943,153.443 154.805,154.041 155.001,154.105 155.329,155.497 156.574,157.65 157.891,159.48 158.48,160.498 
		158.876,161.068 158.682,161.586 157.957,163.368 157.756,163.833 157.625,164.357 156.839,168.234 156.706,168.966 
		156.512,170.594 156.25,171.061 156.18,171.255 155.98,171.255 155.199,173.234 153.746,174.938 153.294,175.404 153.294,178.488 
		153.423,179.145 153.555,180 151.721,178.218 149.941,173.168 146.254,168.966 141.525,166.01 137.453,162.316 133.438,159.823 
		132.52,159.23 132.725,158.641 132.393,158.84 129.957,157.523 124.176,154.503 119.841,152.195 116.029,150.227 115.83,149.438 
		109.715,146.418 107.744,145.757 106.76,147.738 100.584,143.923 87.502,136.303 87.375,136.23 81.916,130.51 81.124,124.004 
		81.717,121.832 83.959,113.227 83.563,109.616 84.609,105.137 84.543,100.398 85.137,94.823 86.579,90.943 88.688,88.703 	"/>
</g>
<g id="_x30_6" display="none">
	<text transform="matrix(1 0 0 1 20 23.6113)" display="inline" fill="#474747" font-family="'Arial-BoldMT'" font-size="15">District 06</text>
	<g display="inline">
		<polyline fill="#F2F2F2" stroke="#8D8D8D" points="56.984,133.979 48.136,131.604 47.286,130.266 46.425,129.032 44.523,128.173 
			40.247,123.797 35.681,116.57 30.552,111.529 26.642,108.018 26.363,107.632 23.317,102.781 21.799,99.166 20.748,96.789 
			19.609,94.6 19.324,94.025 18.271,90.513 18.173,89.174 17.987,87.648 18.08,86.789 18.08,86.232 18.271,83.566 18.08,82.046 
			17.61,79.187 17.231,75.77 17.231,75.58 17.134,75.195 15.989,74.521 15.235,72.621 14.946,72.055 13.894,69.112 13.334,68.633 
			11.9,67.207 10.283,65.579 10.38,65.294 10.09,64.737 10,63.877 10.09,63.583 10,63.294 10.188,62.641 10.38,62.066 10.76,60.832 
			12.278,58.451 12.469,58.166 12.57,58.071 13.334,56.641 13.334,56.551 13.143,56.266 13.237,56.075 14.373,54.836 14.563,55.977 
			19.134,55.977 20.08,55.977 21.607,55.977 26.642,55.885 27.305,55.885 27.305,55.695 27.305,55.41 30.741,55.695 31.113,55.695 
			31.586,55.695 34.065,55.596 34.541,55.596 34.828,55.505 36.059,55.505 38.536,55.41 40.152,55.311 42.24,54.456 45.671,53.025 
			45.858,53.12 50.142,54.736 51.183,55.025 53.181,55.505 53.757,55.596 56.038,56.171 59.17,58.261 60.032,58.827 60.127,58.922 
			61.263,60.261 62.604,61.778 62.51,61.873 65.447,63.877 67.173,65.117 71.356,67.864 72.016,68.244 73.734,69.488 73.638,70.055 
			73.445,71.675 73.734,71.675 77.153,71.761 79.441,71.488 81.34,72.43 86.098,74.716 88.858,76.137 88.762,76.236 90.087,75.675 
			92.753,73.679 90.858,72.909 88.762,72.24 88.666,72.145 86.94,70.724 85.619,69.212 87.803,68.538 90.568,69.488 93.318,70.244 
			94.368,69.67 95.605,68.919 96.842,68.439 99.319,68.348 103.982,66.253 104.064,66.253 104.351,65.769 105.692,63.968 
			111.393,63.294 114.812,62.546 115.196,62.546 116.907,62.546 119.569,62.641 121.756,61.972 122.234,62.066 125.098,62.732 
			129.663,64.447 129.938,64.546 132.314,64.922 132.98,64.922 133.746,65.294 134.791,65.389 136.313,64.827 136.979,64.827 
			138.219,65.389 140.217,65.579 140.593,65.483 140.217,66.158 139.932,68.823 139.454,72.24 139.839,72.909 144.309,77.665 
			144.404,77.765 147.063,80.05 152.577,85.372 154.771,90.033 156.379,93.546 156.956,94.789 157.055,94.979 170.932,84.794 
			171.123,84.699 173.791,87.174 173.695,87.554 177.786,90.988 184.439,97.355 184.536,97.455 188.627,106.673 193.1,117.811 
			193.288,118.189 196.805,117.995 199.568,117.9 199.277,119.615 198.712,121.512 198.619,121.802 202.327,122.275 
			206.799,122.852 206.896,122.852 207.177,122.666 216.211,115.995 219.355,116.57 224.488,117.426 230,118.475 228.298,123.327 
			225.246,130.744 224.77,131.029 225.05,131.219 224.109,133.509 224.109,150.723 224.398,153.197 224.109,153.197 
			225.148,155.189 224.018,159.379 221.16,166.788 219.451,171.074 215.355,176.975 214.786,176.884 214.786,173.454 
			214.023,173.354 201.943,170.604 199.277,169.553 197.282,168.788 189.873,167.941 183.212,166.788 181.021,166.227 
			176.553,165.082 173.6,165.466 172.657,164.797 170.18,164.604 167.993,164.04 164.848,161.945 164.561,161.76 160.564,159.564 
			155.997,158.33 154.389,156.904 134.313,152.623 130.227,151.764 122.521,149.384 120.525,149.77 118.244,149.289 
			116.818,148.917 111.487,146.826 108.822,146.252 104.161,147.293 103.789,147.389 102.544,145.771 102.065,145.771 
			100.459,144.73 97.516,143.677 95.327,142.165 94.655,141.971 91.987,141.202 91.607,141.202 89.99,141.202 87.133,140.07 
			82.294,138.536 78.575,137.119 75.825,136.641 73.062,136.26 67.924,134.348 68.209,133.214 66.98,133.313 63.831,133.509 
			63.166,133.409 60.606,133.023 57.078,132.266 56.984,133.979 		"/>
	</g>
</g>
<g id="_x30_5" display="none">
	<text transform="matrix(1 0 0 1 20 23.6113)" display="inline" fill="#474747" font-family="'Arial-BoldMT'" font-size="15">District 05</text>
	<polyline display="inline" fill="#F2F2F2" stroke="#8D8D8D" points="38.869,146.134 41.438,144.208 44.648,140.357 49.939,135.704 
		51.066,134.743 51.066,132.497 51.066,131.854 49.459,131.21 53.314,128.799 58.449,127.521 62.467,123.35 68.559,121.104 
		75.941,121.104 80.596,120.615 83.166,122.223 84.289,123.021 85.252,122.868 88.14,122.223 88.301,122.223 90.228,123.188 
		88.301,121.738 86.858,120.938 79.314,117.244 71.451,110.503 69.039,107.938 63.105,108.576 52.35,100.234 51.066,92.371 
		48.5,77.443 48.658,73.266 48.98,73.433 54.918,75.837 55.723,75.998 61.018,76.802 67.273,75.998 69.039,75.679 72.254,74.072 
		74.5,72.939 77.07,69.09 78.992,66.524 79.314,66.369 84.933,63.959 86.213,63.639 89.263,62.997 90.708,62.839 92.638,62.514 
		92.796,62.357 102.267,60.59 104.674,59.306 106.278,57.702 108.847,55.134 109.166,54.816 111.415,50 115.585,52.406 
		116.71,52.884 118.792,54.171 120.24,54.973 122.325,56.092 123.132,56.579 128.264,59.467 130.67,60.909 133.4,62.514 
		136.291,64.123 139.018,65.729 139.979,65.729 140.303,65.729 145.92,69.09 146.078,69.26 150.734,71.99 151.059,72.148 
		152.816,73.109 154.584,74.233 156.188,75.195 169.834,83.059 170.313,83.22 171.916,81.132 175.449,77.602 176.253,76.641 
		176.572,76.479 178.18,75.679 180.268,74.559 180.425,74.559 182.189,73.752 185.883,71.99 187.486,71.348 189.41,70.384 
		190.055,70.058 192.624,68.935 193.104,68.773 193.104,69.413 193.104,69.905 194.711,75.03 195.831,77.602 196.15,78.57 
		197.275,80.009 199.521,83.059 198.398,87.234 198.398,87.554 198.398,87.879 198.398,90.603 199.203,94.613 200.969,98.147 
		201.13,98.306 199.521,100.559 198.723,101.52 197.438,102.479 195.67,103.445 195.352,103.766 193.902,106.011 192.624,107.618 
		191.979,109.223 191.818,109.867 191.501,110.986 191.339,111.311 184.113,110.826 183.152,110.665 177.855,110.184 
		177.691,110.184 177.053,110.184 176.253,110.184 172.08,110.503 172.238,109.061 172.08,109.061 171.916,108.902 171.436,108.902 
		167.424,108.257 167.102,112.109 166.137,119.49 165.82,123.188 165.501,125.113 164.697,133.3 163.895,140.035 163.895,144.369 
		164.052,145.498 164.372,145.336 164.052,148.544 163.248,154.162 162.932,157.534 162.609,158.18 162.128,159.454 
		161.167,161.865 159.561,165.24 158.921,166.523 158.596,167.002 158.275,167.163 155.868,169.73 155.389,170.374 154.907,170.852 
		154.423,171.333 152.5,172.941 149.286,175.508 148.809,175.348 144.152,177.436 141.264,178.561 139.018,178.723 135.323,178.88 
		133.723,178.88 133.4,178.88 132.598,179.041 129.066,179.199 128.585,179.199 127.945,179.199 123.132,178.723 123.132,179.199 
		123.132,179.357 122.167,179.357 115.104,179.52 113.016,179.52 111.573,179.52 105.31,179.52 104.835,177.912 103.387,179.52 
		103.226,179.846 103.226,179.682 102.906,179.682 98.733,179.682 97.288,179.682 94.08,179.682 93.115,179.682 92.474,179.682 
		90.544,180 90.708,175.348 91.189,171.658 90.708,171.658 89.588,172.305 88.14,172.458 87.501,171.975 86.858,170.852 
		86.536,170.532 86.374,170.216 86.213,170.216 85.895,169.893 85.574,169.73 84.451,169.412 83.809,169.566 84.129,169.893 
		76.584,170.216 73.695,168.607 70.166,166.844 70.004,166.68 63.586,162.668 57.326,158.813 49.781,152.878 49.781,152.559 
		47.539,152.717 46.252,152.717 46.252,152.559 42.879,150.948 41.117,148.703 38.869,146.134 	"/>
</g>
<g id="_x30_4">
	<g enable-background="new    ">
		<path fill="#474747" d="M21.084,12.874h3.962c0.894,0,1.575,0.068,2.043,0.205c0.63,0.186,1.169,0.516,1.619,0.989
			s0.791,1.053,1.025,1.739c0.234,0.686,0.352,1.532,0.352,2.538c0,0.884-0.11,1.646-0.33,2.285
			c-0.269,0.781-0.652,1.413-1.15,1.896c-0.376,0.366-0.884,0.652-1.523,0.857c-0.479,0.151-1.118,0.227-1.919,0.227h-4.08V12.874z
			 M23.252,14.69v7.112h1.619c0.605,0,1.042-0.034,1.311-0.104c0.352-0.088,0.643-0.236,0.875-0.446s0.421-0.556,0.568-1.036
			c0.146-0.481,0.22-1.137,0.22-1.967s-0.073-1.467-0.22-1.912c-0.146-0.443-0.352-0.791-0.615-1.039
			c-0.264-0.25-0.598-0.418-1.003-0.506c-0.303-0.068-0.896-0.103-1.78-0.103H23.252z"/>
		<path fill="#474747" d="M31.909,14.778v-1.904h2.058v1.904H31.909z M31.909,23.611v-7.778h2.058v7.778H31.909z"/>
		<path fill="#474747" d="M35.352,21.393l2.065-0.315c0.088,0.4,0.266,0.704,0.535,0.912c0.269,0.207,0.645,0.312,1.128,0.312
			c0.532,0,0.933-0.098,1.201-0.293c0.181-0.137,0.271-0.32,0.271-0.55c0-0.156-0.049-0.286-0.146-0.388
			c-0.103-0.098-0.332-0.188-0.688-0.271c-1.66-0.366-2.712-0.7-3.157-1.004c-0.615-0.419-0.923-1.003-0.923-1.75
			c0-0.674,0.266-1.24,0.798-1.699s1.357-0.688,2.476-0.688c1.064,0,1.855,0.174,2.373,0.521s0.874,0.859,1.069,1.537l-1.941,0.359
			c-0.083-0.303-0.241-0.535-0.472-0.695c-0.232-0.162-0.563-0.242-0.993-0.242c-0.542,0-0.93,0.076-1.165,0.227
			c-0.156,0.108-0.234,0.247-0.234,0.418c0,0.146,0.068,0.271,0.205,0.373c0.186,0.138,0.826,0.33,1.923,0.579
			c1.096,0.249,1.861,0.555,2.296,0.915c0.43,0.367,0.645,0.877,0.645,1.531c0,0.713-0.298,1.326-0.894,1.838
			c-0.596,0.514-1.477,0.77-2.644,0.77c-1.06,0-1.898-0.215-2.516-0.645S35.542,22.13,35.352,21.393z"/>
		<path fill="#474747" d="M47.986,15.833v1.641H46.58v3.135c0,0.635,0.013,1.005,0.041,1.109c0.026,0.105,0.088,0.192,0.183,0.261
			c0.096,0.068,0.211,0.102,0.348,0.102c0.19,0,0.466-0.065,0.828-0.197l0.176,1.597c-0.479,0.205-1.021,0.308-1.626,0.308
			c-0.371,0-0.706-0.063-1.003-0.187c-0.298-0.125-0.516-0.286-0.656-0.483c-0.139-0.198-0.235-0.465-0.289-0.803
			c-0.044-0.238-0.066-0.722-0.066-1.449v-3.392h-0.945v-1.641h0.945v-1.546l2.065-1.201v2.747H47.986z"/>
		<path fill="#474747" d="M51.384,23.611h-2.058v-7.778h1.912v1.106c0.327-0.522,0.621-0.867,0.882-1.033s0.558-0.249,0.89-0.249
			c0.469,0,0.92,0.13,1.355,0.388l-0.637,1.795c-0.347-0.225-0.669-0.337-0.967-0.337c-0.288,0-0.532,0.079-0.732,0.238
			c-0.2,0.158-0.358,0.445-0.472,0.86c-0.115,0.415-0.172,1.284-0.172,2.607V23.611z"/>
		<path fill="#474747" d="M55.251,14.778v-1.904h2.058v1.904H55.251z M55.251,23.611v-7.778h2.058v7.778H55.251z"/>
		<path fill="#474747" d="M66.201,18.133l-2.029,0.366c-0.068-0.405-0.223-0.71-0.465-0.915c-0.241-0.205-0.555-0.309-0.941-0.309
			c-0.513,0-0.922,0.178-1.227,0.531c-0.305,0.354-0.458,0.946-0.458,1.776c0,0.923,0.155,1.575,0.465,1.956
			c0.31,0.381,0.726,0.57,1.249,0.57c0.391,0,0.71-0.11,0.959-0.333c0.249-0.222,0.425-0.604,0.527-1.146l2.021,0.344
			c-0.21,0.928-0.613,1.629-1.208,2.102c-0.596,0.475-1.394,0.711-2.395,0.711c-1.138,0-2.045-0.359-2.721-1.076
			c-0.677-0.719-1.015-1.712-1.015-2.981c0-1.284,0.339-2.284,1.018-2.999c0.679-0.716,1.597-1.073,2.754-1.073
			c0.947,0,1.7,0.204,2.259,0.611C65.555,16.677,65.957,17.298,66.201,18.133z"/>
		<path fill="#474747" d="M71.328,15.833v1.641h-1.406v3.135c0,0.635,0.013,1.005,0.04,1.109c0.027,0.105,0.088,0.192,0.184,0.261
			c0.095,0.068,0.211,0.102,0.348,0.102c0.19,0,0.466-0.065,0.828-0.197l0.176,1.597c-0.479,0.205-1.021,0.308-1.626,0.308
			c-0.371,0-0.706-0.063-1.003-0.187c-0.298-0.125-0.517-0.286-0.655-0.483c-0.14-0.198-0.236-0.465-0.29-0.803
			c-0.044-0.238-0.066-0.722-0.066-1.449v-3.392h-0.945v-1.641h0.945v-1.546l2.065-1.201v2.747H71.328z"/>
		<path fill="#474747" d="M79.963,12.83c1.04,0,1.853,0.371,2.439,1.113c0.698,0.879,1.047,2.336,1.047,4.373
			c0,2.031-0.352,3.491-1.055,4.379c-0.581,0.732-1.392,1.1-2.432,1.1c-1.045,0-1.887-0.402-2.527-1.205
			c-0.64-0.804-0.959-2.235-0.959-4.296c0-2.021,0.352-3.477,1.055-4.365C78.113,13.196,78.923,12.83,79.963,12.83z M79.963,14.537
			c-0.249,0-0.471,0.079-0.667,0.237c-0.195,0.159-0.347,0.443-0.454,0.854c-0.142,0.532-0.212,1.429-0.212,2.688
			s0.063,2.125,0.19,2.596c0.127,0.472,0.287,0.785,0.48,0.941c0.192,0.156,0.414,0.234,0.663,0.234s0.471-0.079,0.667-0.238
			c0.195-0.158,0.347-0.443,0.454-0.854c0.142-0.527,0.212-1.42,0.212-2.68s-0.063-2.126-0.19-2.597
			c-0.127-0.472-0.287-0.786-0.48-0.945C80.433,14.616,80.212,14.537,79.963,14.537z"/>
		<path fill="#474747" d="M88.862,23.611v-2.16h-4.395v-1.803l4.658-6.818h1.729v6.812h1.333v1.81h-1.333v2.16H88.862z
			 M88.862,19.642v-3.669l-2.468,3.669H88.862z"/>
	</g>
	<polyline fill="#F2F2F2" stroke="#8D8D8D" points="87.712,158.891 87.921,158.336 88.062,158.055 88.199,156.586 88.55,154.141 
		88.688,152.743 88.55,152.813 88.48,152.32 88.48,150.436 88.83,147.502 89.181,143.938 89.319,143.098 89.457,141.488 
		89.877,138.273 90.018,136.598 91.765,136.877 91.974,136.877 92.046,136.945 92.114,136.945 92.046,137.574 93.862,137.436 
		94.211,137.436 94.489,137.436 94.561,137.436 96.867,137.645 97.285,137.715 100.432,137.926 100.502,137.785 100.641,137.298 
		100.71,137.018 100.991,136.318 101.548,135.618 102.179,134.641 102.317,134.501 103.088,134.08 103.646,133.662 103.995,133.243 
		104.695,132.264 104.625,132.193 103.856,130.654 103.506,128.908 103.506,127.723 103.506,127.581 103.506,127.441 
		103.995,125.623 103.018,124.296 102.527,123.669 102.388,123.247 101.9,122.127 101.2,119.896 101.2,119.682 101.548,119.193 
		102.248,118.914 102.388,118.846 103.297,118.493 104.695,117.936 104.834,118.006 105.113,117.866 106.371,117.098 
		106.931,116.747 108.118,115.908 109.027,115.21 109.236,115 109.447,115.21 110.355,113.952 110.773,113.463 110.844,113.325 
		113.011,110.389 113.222,110.107 116.296,106.404 116.785,105.844 117.973,104.378 119.511,102.279 119.791,101.93 
		119.721,101.859 116.296,98.576 113.57,95.498 113.292,95.084 112.033,93.821 111.612,93.404 109.796,92.146 106.581,91.027 
		105.184,90.047 104.555,89.56 104.206,89.28 100.502,87.043 97.495,85.226 94.42,84.877 93.373,84.806 93.442,83.62 93.513,82.498 
		93.583,81.661 93.583,81.591 93.583,81.521 94.141,77.259 94.42,71.807 94.489,70.338 94.28,70.338 94.842,69.502 95.258,67.405 
		95.189,67.473 94.633,67.054 98.963,64.609 100.779,63.56 108.399,59.786 115.038,57.272 115.248,57.829 115.457,57.76 
		130.833,53.216 131.461,53.216 131.811,53.285 132.16,52.307 132.37,52.236 137.541,53.355 138.241,54.545 138.45,54.891 
		139.85,54.545 140.266,53.705 147.257,50.98 150.262,50 150.4,50.35 150.75,51.118 150.052,51.607 150.682,52.866 154.314,62.094 
		155.223,62.58 155.991,64.398 156.063,66.495 156.764,78.796 156.831,79.983 156.764,81.591 156.764,81.728 154.455,89.63 
		153.057,90.677 152.639,91.027 153.337,91.937 154.314,95.852 154.734,97.176 156.48,102.35 157.391,106.682 157.391,106.82 
		157.88,109.201 157.738,111.645 157.391,115.07 154.734,123.457 154.176,125.273 154.035,125.484 152.568,130.376 152.288,130.864 
		152.219,131.075 150.331,135.618 150.12,136.109 149.143,138.415 143.621,151.482 143.482,151.904 142.924,153.091 
		143.201,155.467 143.133,155.396 143.343,157.705 143.413,158.055 143.553,160.08 143.973,160.432 144.111,161.061 143.902,161.27 
		144.04,161.756 144.04,162.525 144.04,163.018 143.973,164.833 143.902,165.534 143.693,167.489 143.693,167.559 143.762,168.816 
		143.762,169.727 143.621,169.656 143.621,169.798 140.617,169.656 140.409,170.287 140.338,171.264 140.057,171.684 
		139.986,171.825 140.128,171.891 140.409,172.594 140.338,172.939 140.338,173.361 140.197,173.428 140.128,173.428 
		139.85,173.501 138.661,173.428 137.891,173.012 137.473,173.083 136.493,173.428 135.865,173.29 135.443,173.152 135.025,173.083 
		133.559,172.871 133.42,172.871 130.553,171.751 128.877,171.402 128.596,171.336 127.268,171.684 125.59,171.684 124.543,171.609 
		124.332,171.609 122.166,172.105 118.741,172.52 117.903,173.641 117.694,173.919 114.829,175.246 113.292,175.246 
		112.592,175.598 111.823,176.016 111.194,176.365 109.447,175.878 107.771,175.316 106.443,175.736 107.212,176.646 
		108.327,177.484 108.399,177.555 109.656,177.973 110.773,178.464 109.168,179.723 108.399,180 108.469,179.932 106.722,179.092 
		103.856,177.695 102.597,177.133 101.271,177.271 99.104,177.271 99.033,177.271 99.104,176.296 99.173,175.945 98.126,175.18 
		97.704,174.898 95.12,173.223 94.072,172.52 92.255,171.193 92.324,171.193 91.555,170.214 90.786,169.376 90.228,169.027 
		88.343,167.771 88.271,167.771 86.873,167.42 86.523,167.35 85.334,167 84.706,166.859 82.119,165.882 83.519,164.766 
		84.356,164.063 84.567,163.854 84.986,163.366 86.034,162.248 86.173,162.178 86.315,161.971 86.594,161.41 87.293,159.939 
		87.712,158.891 	"/>
</g>
<g id="_x30_3" display="none">
	<text transform="matrix(1 0 0 1 20 23.6113)" display="inline" fill="#474747" font-family="'Arial-BoldMT'" font-size="15">District 03</text>
	<polyline display="inline" fill="#F2F2F2" stroke="#8D8D8D" points="83.23,116.936 83.389,116.287 83.389,115.805 86.292,114.838 
		91.935,114.518 93.873,115.967 96.13,115.967 95.972,114.518 95.323,113.389 96.772,111.768 98.066,110.639 97.256,108.865 
		97.904,108.715 98.229,108.544 100.161,109.51 100.969,108.715 100.969,106.445 99.519,100.157 100.485,96.61 100.485,96.124 
		100.485,93.221 100.485,92.417 100.485,91.285 100.485,90.802 100.645,88.872 102.26,87.254 102.094,87.096 100.002,84.192 
		96.935,84.994 96.935,84.676 96.613,83.224 96.451,82.416 96.289,79.187 94.84,77.412 95.323,75.807 93.549,74.51 93.065,73.864 
		90.646,71.607 90.646,70.965 90.646,67.738 91.935,62.9 92.259,61.444 95.164,58.059 95.647,57.413 96.613,55.156 97.745,53.062 
		101.452,50 105.807,50.805 106.938,50.805 107.581,50.957 114.034,51.603 126.609,52.251 127.094,52.251 126.936,55.64 
		126.289,68.222 125.002,78.061 125.002,78.22 125.002,78.382 124.84,80.314 124.678,82.902 124.52,85.64 126.936,85.805 
		134.029,86.609 140.971,90.802 149.518,95.965 150.322,96.61 151.773,97.735 154.998,99.999 162.418,102.58 166.611,105.482 
		167.58,106.445 170.486,109.359 171.128,110.314 177.419,117.419 185.322,124.998 185.484,125.157 184.839,125.964 
		181.288,130.809 178.548,134.191 177.419,135.484 170.324,144.029 169.838,144.68 164.837,151.456 164.675,151.773 
		163.709,152.902 161.613,155.805 161.127,155.322 160.645,155.805 158.546,157.417 155.807,159.354 154.516,160.163 
		151.611,161.938 150.968,162.258 150.646,162.096 147.42,163.384 145.32,164.197 145,164.354 143.383,164.999 142.581,166.124 
		142.581,165.48 142.098,165.645 139.518,166.771 138.868,167.1 136.936,168.068 135.323,168.715 131.613,170.484 129.84,171.296 
		129.682,171.296 127.583,172.421 125.968,173.227 125.646,173.389 124.84,174.354 121.289,177.902 119.677,180 119.196,179.838 
		105.483,171.936 103.871,170.969 102.094,169.84 100.326,168.874 100.002,168.715 95.323,165.971 95.164,165.8 89.519,162.424 
		89.194,162.424 88.228,162.424 85.487,160.809 82.582,159.189 79.838,157.579 77.419,156.129 72.263,153.227 71.452,152.736 
		69.357,151.611 67.901,150.809 65.81,149.514 64.678,149.034 60.488,146.614 60.806,146.128 60.164,145.801 55.325,143.227 
		54.515,142.26 57.1,138.391 58.711,135.803 59.356,134.672 60.488,132.9 62.262,130.48 64.354,128.552 64.354,128.387 
		65.485,125.646 66.455,124.518 66.617,124.193 69.192,121.45 70.165,118.869 71.452,119.031 72.746,119.031 75.003,118.383 
		77.743,119.031 78.71,118.383 80,117.74 83.23,116.936 	"/>
</g>
<g id="_x30_2" display="none">
	<text transform="matrix(1 0 0 1 20 23.6113)" display="inline" fill="#474747" font-family="'Arial-BoldMT'" font-size="15">District 02</text>
	<g display="inline">
		<polyline fill="#F2F2F2" stroke="#8D8D8D" points="62.483,149.953 62.753,149.82 62.818,149.82 63.567,149.82 63.969,150.086 
			64.037,150.152 64.105,150.021 64.444,149.753 64.511,149.617 64.647,149.412 65.054,148.467 65.527,148.534 66.069,148.604 
			66.61,148.534 67.219,148.67 68.235,148.534 68.706,148.396 68.706,147.922 68.506,147.25 68.506,147.111 68.438,147.041 
			68.167,146.368 68.235,145.621 68.305,144.607 68.506,144.199 68.637,144 68.774,143.798 69.047,143.318 69.047,143.252 
			68.909,142.782 68.843,142.715 68.774,142.307 68.706,141.964 67.964,141.564 67.76,141.43 67.625,141.498 67.016,141.829 
			66.881,141.829 66.61,141.63 65.935,141.02 65.594,140.747 65.866,140.413 65.866,140.348 66.001,140.143 66.27,139.596 
			66.946,139.33 67.693,138.924 68.305,138.718 68.637,138.514 69.182,138.18 69.248,138.111 69.857,137.909 70.196,137.909 
			70.535,137.841 71.007,137.841 71.482,137.636 71.615,137.568 72.156,137.295 73.851,136.557 74.258,136.078 74.324,135.813 
			74.393,135.744 74.461,135.676 74.593,134.594 75.135,132.491 75.272,132.157 75.341,131.75 75.88,131.006 76.151,130.734 
			76.353,130.395 77.166,130.531 77.37,130.6 77.844,130.463 78.927,130.258 80.686,129.109 80.752,129.109 80.955,128.838 
			80.752,127.354 80.479,125.861 80.82,124.506 81.228,123.898 81.767,123.085 82.104,121.936 82.377,121.057 82.377,120.518 
			82.377,120.109 82.377,119.496 82.377,119.23 81.903,118.825 82.039,117.878 82.039,117.398 81.498,117.129 81.228,116.251 
			80.686,115.032 81.021,114.225 81.228,113.677 81.564,112.801 81.835,112.126 82.039,111.58 82.104,111.311 81.632,111.239 
			81.632,111.311 80.82,111.447 80.279,111.58 79.196,111.991 78.586,112.264 78.112,112.46 77.64,112.664 76.625,113.004 
			75.409,113.411 75.135,113.951 74.865,114.427 74.73,114.695 74.661,114.563 74.123,113.746 73.646,112.867 73.375,112.264 
			72.904,110.842 72.294,109.281 71.482,108.335 70.672,107.79 69.857,107.186 68.305,106.236 68.305,106.104 67.152,105.421 
			67.084,105.489 66.474,105.088 65.527,104.544 64.647,104.134 63.769,102.583 63.633,102.583 62.212,101.096 61.738,99.338 
			61.939,98.793 63.295,98.05 63.498,97.711 63.633,96.898 63.567,95.003 64.174,93.313 65.527,92.633 66.677,91.687 67.487,90.672 
			68.305,89.114 69.316,88.372 69.589,88.907 69.857,91.959 71.277,92.428 72.497,92.837 75.135,93.647 79.262,94.26 80.349,94.325 
			80.617,94.26 80.887,94.124 82.916,91.823 85.217,89.455 85.895,88.842 87.857,87.628 90.769,85.729 91.038,85.729 90.971,85.799 
			96.048,87.425 96.452,88.1 101.394,87.018 108.363,82.146 110.662,72.806 109.582,68.408 105.858,52.168 104.775,50.067 
			104.775,50 105.248,50.201 109.985,53.249 116.211,56.77 119.393,58.458 126.632,60.963 129.203,61.84 136.238,63.737 
			142.939,66.175 149.1,67.797 154.714,69.287 158.773,69.626 162.43,74.363 167.37,81.13 173.055,81.198 178.468,81.198 
			180.227,83.433 181.512,85.527 181.241,89.25 179.145,92.702 178.195,94.325 169.063,101.096 168.721,101.973 169.063,102.243 
			169.534,102.583 173.458,104.952 174.68,107.456 174.813,110.704 173.997,111.239 171.768,112.46 169.671,113.677 167.234,114.76 
			166.218,115.236 166.083,114.896 163.443,115.713 161.211,116.592 158.639,117.605 157.15,118.215 156.813,118.961 
			155.461,119.23 154.648,117.878 152.954,117.537 150.113,116.863 149.91,116.93 149.572,117.811 148.762,117.741 147.066,118.215 
			144.229,119.098 140.303,120.246 138.605,120.715 134.686,121.864 134.549,121.396 132.52,122.206 128.662,123.561 
			127.311,124.234 123.857,125.997 122.301,126.807 121.148,127.42 118.309,128.971 116.414,130.055 116.819,130.395 
			116.957,130.395 116.549,132.227 116.007,132.969 111.137,132.695 108.702,132.422 108.43,132.422 107.956,132.357 
			106.332,132.157 104.844,133.311 104.435,134.119 104.031,134.995 103.83,135.27 102.744,136.557 102.609,137.096 
			102.067,138.991 102.067,140.21 102.067,140.48 103.016,141.359 103.285,141.564 103.896,142.102 103.761,142.715 
			104.302,143.389 104.368,144.607 104.435,145.016 104.572,145.484 104.572,145.688 105.722,145.35 106.601,146.5 105.993,147.18 
			105.925,147.854 105.925,148.057 105.925,148.534 105.925,148.803 105.925,149.953 105.925,150.152 105.521,151.508 
			106.131,153.943 106.131,154.824 105.79,155.163 105.048,154.756 104.979,154.824 104.707,154.891 104.979,155.57 
			104.503,156.039 103.896,156.654 104.165,157.059 104.233,157.668 103.354,157.668 102.609,157.059 100.377,157.191 
			99.296,157.602 99.296,157.734 99.296,158.009 98.007,158.275 97.533,158.614 97.128,158.818 96.048,158.545 95.234,158.818 
			94.692,158.818 94.22,158.818 93.813,159.766 92.864,160.846 92.729,160.982 92.391,161.391 91.987,162.475 91.921,162.475 
			91.173,163.284 90.428,164.229 90.023,164.91 89.755,165.314 89.144,166.335 88.129,167.816 88.401,168.157 90.293,169.17 
			90.565,169.307 90.428,169.582 89.551,171.402 89.482,171.471 88.401,172.553 87.857,173.1 86.911,173.637 83.188,174.316 
			83.122,174.384 82.377,174.521 81.835,174.59 80.686,174.854 80.078,174.923 77.912,175.872 77.844,175.938 77.029,176.958 
			76.083,178.441 75.203,178.85 73.917,179.523 73.243,179.592 70.807,180 68.706,179.592 68.438,179.592 66.138,178.646 
			66.001,178.577 64.511,177.768 63.633,176.549 63.091,175.193 63.091,173.568 63.227,172.354 64.037,170.66 64.444,169.852 
			64.579,168.564 64.647,168.157 64.717,167.348 64.918,167.143 61.601,164.641 60.724,162.201 60.518,161.664 60.114,160.643 
			58.898,159.627 58.488,158.545 58.558,158.009 58.898,155.57 59.437,153.271 61.063,151.172 61.601,150.494 62.415,149.953 
			62.415,150.021 62.483,149.953 		"/>
	</g>
</g>
<g id="_x30_1" display="none">
	<text transform="matrix(1 0 0 1 20 23.6113)" display="inline" fill="#474747" font-family="'Arial-BoldMT'" font-size="15">District 01</text>
	<polyline display="inline" fill="#F2F2F2" stroke="#8D8D8D" points="76.938,152.992 77.067,152.732 77.132,152.732 77.584,152.281 
		78.295,151.184 79.328,150.02 79.264,149.826 79.975,149.438 81.009,149.051 81.913,148.855 83.722,148.855 83.98,148.729 
		83.98,148.662 85.079,148.146 85.596,147.693 86.242,146.918 86.759,146.271 87.275,145.498 87.599,144.916 88.31,143.623 
		88.567,143.041 88.826,141.168 88.438,140.521 87.404,139.486 86.759,138.52 87.211,136.902 87.728,136.451 88.955,136.193 
		90.183,136.71 91.281,137.098 91.928,137.032 92.443,136.58 93.155,136.516 94.124,136.516 94.964,136.645 95.48,136.257 
		96.191,135.417 96.579,134.707 97.031,134.447 97.871,134.318 98.453,133.932 98.905,133.866 99.616,133.866 100.584,133.415 
		101.425,132.898 102.782,132.768 103.233,132.381 103.621,131.799 104.268,131.799 104.525,131.928 104.655,131.928 
		105.431,132.121 105.689,132.252 106.271,132.445 106.916,132.252 107.434,131.541 107.498,131.089 107.757,130.636 
		107.95,130.313 108.854,130.119 110.341,129.73 110.599,129.021 110.729,128.245 111.181,127.857 111.892,127.341 112.279,126.76 
		112.795,126.178 114.023,125.725 115.058,125.791 115.574,125.273 116.479,124.82 116.479,123.658 116.736,122.754 
		117.771,121.461 117.771,121.396 117.771,121.461 116.931,120.428 116.544,119.91 116.414,119.65 115.187,118.555 114.411,117.584 
		114.217,117.326 114.217,116.744 114.347,116.163 113.895,115.258 113.378,114.418 112.731,113.578 113.118,112.674 
		113.184,111.641 112.537,110.93 111.311,110.283 110.534,108.99 109.307,108.797 108.145,108.086 107.498,107.635 106.399,106.924 
		104.461,105.438 103.104,104.402 102.976,103.691 103.104,102.854 102.911,101.818 102.911,100.721 102.717,100.203 
		102.652,100.074 102.394,99.428 102.717,98.136 102.911,96.973 103.169,96.068 103.363,95.357 103.428,95.229 104.074,93.807 
		104.331,93.16 104.331,92.32 104.331,91.416 105.043,90.77 105.495,89.995 105.947,89.154 106.787,88.961 107.691,88.768 
		108.338,88.768 108.726,88.25 108.661,87.41 108.209,86.893 107.886,86.313 107.175,84.955 106.916,84.438 106.335,83.146 
		105.495,81.918 105.624,80.756 106.271,80.69 106.916,80.496 107.239,79.98 107.369,79.527 107.757,79.27 108.726,79.205 
		109.759,79.011 110.986,79.011 111.633,78.494 111.956,77.719 112.149,76.749 112.021,75.844 112.344,74.682 112.149,73.647 
		111.762,72.873 111.892,71.709 112.602,70.934 112.473,69.577 112.407,68.479 112.795,65.83 113.184,65.248 113.636,64.926 
		114.411,64.537 114.799,64.085 114.799,63.31 114.67,62.405 114.799,61.5 115.122,60.854 115.251,59.95 115.768,58.98 
		116.091,58.076 116.865,57.365 117.125,56.913 116.995,56.525 116.672,55.879 117.125,55.557 118.61,55.233 120.032,54.394 
		121.193,53.877 122.357,53.166 123.068,52.777 123.393,52.391 124.038,52.067 124.941,52.003 125.977,52.003 126.299,51.486 
		126.363,51.098 127.204,50.452 128.173,50.064 128.947,50 129.917,50.129 130.111,50 130.111,50.322 130.24,50.969 130.887,51.938 
		131.339,53.295 131.727,53.553 132.824,53.683 133.923,54.717 134.505,55.428 134.827,55.814 135.344,56.461 136.572,57.883 
		138.381,59.305 139.736,60.145 141.159,60.919 142.129,61.694 143.484,62.922 144.002,63.375 144.391,63.956 145.035,64.926 
		145.617,64.796 145.746,64.926 146.846,64.926 148.911,64.86 149.234,64.86 150.462,64.99 150.462,66.023 156.473,65.959 
		158.926,65.959 161.381,65.959 165.839,65.959 165.969,65.959 165.969,66.023 165.969,66.476 166.873,67.252 167.002,67.381 
		167.454,67.703 167.583,67.768 167.648,67.768 166.938,68.802 165.902,70.029 165.773,70.676 165.839,70.805 166.033,71.063 
		166.484,71.516 166.55,71.645 166.229,73.777 165.516,74.553 165.451,74.617 165.581,74.746 165.902,75.199 166.162,75.65 
		166.162,75.715 166.098,76.104 166.098,76.49 166.098,76.943 166.098,77.072 166.033,77.848 166.033,77.912 166.033,78.3 
		166.033,78.43 166.098,78.494 166.55,79.463 165.773,79.915 165.581,80.109 165.451,80.109 164.741,80.432 164.611,80.496 
		164.418,80.885 164.482,81.143 164.029,81.272 163.9,81.596 163.318,82.241 163.514,82.564 162.867,82.822 162.156,83.469 
		162.092,83.856 161.77,84.891 161.833,85.407 161.381,85.73 161.252,86.184 161.316,86.506 161.059,86.506 160.541,87.733 
		160.605,89.09 160.219,89.219 159.96,89.349 159.768,89.414 158.926,89.801 158.796,89.865 157.568,89.865 157.246,90.705 
		156.277,90.124 155.438,91.029 155.309,91.158 154.273,91.545 154.146,91.609 153.628,91.804 153.37,91.934 153.176,91.998 
		152.596,92.45 151.173,92.515 151.044,93.096 150.979,93.484 150.979,93.613 151.497,94.389 151.689,94.711 151.689,94.906 
		151.432,96.133 151.366,96.521 150.785,97.748 149.881,98.782 150.462,99.558 150.27,99.881 150.074,100.656 149.945,100.85 
		149.881,101.044 149.816,101.884 150.012,102.207 150.074,102.336 150.27,102.725 150.592,103.305 150.656,103.434 
		150.656,103.498 150.785,103.691 150.979,104.468 151.044,104.662 151.366,104.727 152.529,104.92 153.757,105.309 
		154.339,105.502 154.598,105.566 155.954,105.889 156.342,106.277 156.473,106.342 156.473,106.664 156.213,106.924 
		156.02,106.988 156.084,107.117 156.277,107.375 156.406,107.375 156.6,107.117 156.794,106.988 156.923,106.988 157.439,107.698 
		157.439,107.764 157.313,108.086 157.313,108.28 157.505,108.344 157.568,108.344 157.828,108.086 157.893,108.086 157.957,108.15 
		158.279,108.539 158.409,108.732 158.409,108.99 158.732,109.314 158.926,109.701 158.861,110.09 159.057,110.348 158.668,110.67 
		158.861,110.801 158.926,110.994 158.99,111.316 159.057,111.381 159.12,111.705 159.314,111.834 159.572,111.898 159.701,111.834 
		159.83,112.286 160.09,112.416 160.348,112.803 160.541,113.191 160.541,113.514 160.541,113.578 160.283,113.837 160.283,113.966 
		160.479,114.03 160.541,114.289 160.541,114.547 160.605,114.611 160.8,114.547 160.994,114.16 161.252,113.966 161.575,113.9 
		161.77,114.03 162.092,114.677 162.479,114.807 162.738,115.129 163.063,115.452 163.384,115.84 163.578,116.098 163.514,116.809 
		163.578,117.003 163.771,117.326 164.029,117.391 164.225,117.52 164.547,117.907 164.611,118.295 164.677,118.359 
		164.807,118.488 164.87,118.488 165.193,118.555 165.451,118.684 165.516,118.877 165.451,119.199 165.323,119.329 
		165.387,119.521 165.451,119.587 165.387,119.91 165.387,120.039 165.516,120.039 165.71,119.91 165.969,119.975 166.162,120.232 
		166.162,120.814 165.902,121.785 166.033,121.979 166.033,122.107 165.902,122.365 165.902,122.561 166.613,123.206 
		166.938,123.723 166.938,123.98 166.809,124.24 166.291,124.109 166.229,124.305 166.355,125.145 166.355,125.209 166.484,125.467 
		166.484,125.531 166.68,125.725 167.262,125.791 167.325,126.049 167.262,126.371 167.391,126.889 167.195,127.341 
		167.262,127.729 167.454,127.922 168.102,128.375 168.229,128.697 167.842,128.633 167.648,128.826 167.52,129.215 
		167.713,129.796 167.777,130.184 167.713,130.313 167.648,130.57 167.842,130.7 167.648,131.152 167.648,131.281 167.713,131.348 
		167.583,131.348 167.454,131.67 167.391,132.188 167.454,132.316 168.294,132.963 168.553,133.35 168.617,133.544 168.553,133.802 
		168.036,134.189 167.583,134.643 167.262,134.771 167.002,135.029 166.873,135.225 166.809,135.287 166.355,136.257 
		166.291,136.839 166.355,137.421 166.55,138.26 166.55,138.775 166.421,138.971 166.229,139.1 165.969,139.164 165.451,139.035 
		164.999,139.295 164.741,139.553 164.741,139.811 164.87,140.134 164.87,140.198 164.936,140.198 165.193,140.521 165.323,141.749 
		165.064,142.523 164.87,142.719 164.354,142.783 164.225,143.234 164.354,143.688 164.225,143.945 163.836,144.463 
		163.771,144.463 163.643,144.723 163.514,144.527 163.063,144.398 162.932,144.398 162.607,144.463 162.544,144.592 
		162.223,144.786 161.963,145.303 161.896,145.498 161.963,145.626 162.156,145.689 162.286,145.82 162.286,146.078 162.286,146.4 
		162.352,146.66 162.025,147.048 162.286,147.111 162.544,147.178 162.803,147.629 162.932,147.822 162.996,148.082 
		163.189,148.275 163.384,148.404 163.384,148.6 163.189,148.922 163.255,149.244 163.318,149.566 163.063,149.891 162.803,149.955 
		162.286,149.955 162.025,150.02 161.77,150.084 161.381,150.213 160.994,150.407 160.67,150.859 160.8,151.118 160.863,151.377 
		161.122,151.57 161.381,151.766 161.252,152.087 161.445,152.475 161.575,152.799 161.641,153.25 161.963,153.574 162.286,153.896 
		162.479,154.221 162.544,154.413 162.803,155.254 163.126,155.383 163.384,155.383 163.384,155.641 163.318,155.9 163.255,156.352 
		163.318,156.545 163.578,156.74 163.9,156.74 164.096,156.674 164.482,156.48 164.87,156.545 165.193,156.674 165.516,157.191 
		165.581,157.45 165.773,158.032 165.969,158.355 166.229,159.001 166.291,159.389 166.355,159.906 166.421,160.164 
		166.873,160.357 167.195,160.357 167.325,160.486 167.325,160.744 167.325,160.874 167.131,160.874 166.809,161.068 
		166.613,161.456 166.291,161.456 166.162,161.327 163.189,160.682 163.189,162.555 162.932,164.105 159.639,164.234 
		156.535,164.299 152.788,164.299 152.271,165.074 152.596,165.914 152.596,166.689 154.727,166.884 156.213,167.078 
		157.313,167.014 159.378,166.947 160.541,166.947 162.025,166.884 163.384,167.014 164.029,167.336 164.029,169.273 
		163.771,171.084 163.189,171.665 163.771,173.279 163.771,174.443 163.643,174.96 162.544,175.734 161.188,176.575 159.83,177.223 
		156.857,177.868 155.566,177.868 153.628,177.932 151.625,177.932 149.299,177.156 147.232,176.511 146.264,176.188 
		144.584,175.994 144.195,175.605 143.55,174.96 143.355,174.702 142.387,174.379 141.547,173.604 140.706,172.764 139.607,173.99 
		139.543,174.055 138.704,174.637 138.51,174.766 137.67,175.348 137.218,175.605 135.796,175.734 131.532,174.766 131.08,174.637 
		131.016,174.637 130.434,174.572 127.85,174.186 127.268,173.926 125.266,173.086 124.104,172.375 123.456,171.729 
		122.939,171.213 122.552,170.889 121.453,170.889 121.064,170.889 120.872,170.889 118.352,170.438 118.223,171.277 
		116.672,171.406 116.155,171.406 115.703,171.535 113.313,171.923 112.86,171.988 111.311,172.375 111.245,172.439 
		110.986,172.698 110.857,172.828 109.694,174.637 109.436,175.154 107.304,177.996 107.175,178.126 106.528,178.449 
		102.782,178.966 101.489,179.482 101.554,179.289 101.166,178.707 100.714,178.707 100.843,178.643 99.487,178.385 98.323,178.126 
		97.419,178.255 97.225,178.514 97.612,178.9 98.13,179.354 98.259,179.871 97.871,180 96.902,179.677 96.063,178.966 
		95.352,178.255 94.317,177.932 93.349,178.771 93.542,178.449 93.93,177.738 93.995,177.027 93.736,176.575 93.349,176.123 
		92.315,176.123 91.151,176.123 90.183,174.766 89.407,173.797 88.632,173.732 87.47,173.475 86.242,173.15 84.885,172.635 
		83.528,172.247 83.012,172.117 81.525,171.6 80.944,171.213 79.651,170.566 78.683,169.92 78.618,169.92 78.101,168.887 
		76.744,167.852 76.356,167.852 75.969,167.465 75.646,167.078 74.806,166.236 73.772,165.914 72.48,165.203 71.77,164.881 
		71.576,164.234 71.382,163.33 71.382,162.555 72.222,162.23 72.803,161.908 73.385,161.844 74.354,162.037 75.193,161.908 
		75.646,161.133 76.421,160.098 76.421,159.906 76.356,159.711 76.033,158.613 75.452,157.773 75.581,156.869 75.969,156.094 
		75.969,154.35 76.551,153.38 76.938,152.992 	"/>
</g>
</svg>
