<?xml version="1.0" encoding="utf-8"?>
<!-- Generator: Adobe Illustrator 13.0.0, SVG Export Plug-In . SVG Version: 6.00 Build 14948)  -->
<!DOCTYPE svg PUBLIC "-//W3C//DTD SVG 1.1//EN" "http://www.w3.org/Graphics/SVG/1.1/DTD/svg11.dtd">
<svg version="1.1" id="Layer_1" xmlns="http://www.w3.org/2000/svg" xmlns:xlink="http://www.w3.org/1999/xlink" x="0px" y="0px"
	 width="180px" height="150px" viewBox="0 0 240 200" enable-background="new 0 0 240 200" xml:space="preserve">
<g id="_x30_5">
	<polyline fill="#F2F2F2" stroke="#8D8D8D" points="38.869,146.134 41.438,144.208 44.648,140.357 49.939,135.704 51.066,134.743
		51.066,132.497 51.066,131.854 49.459,131.21 53.314,128.799 58.449,127.521 62.467,123.35 68.559,121.104 75.941,121.104
		80.596,120.615 83.166,122.223 84.289,123.021 85.252,122.868 88.14,122.223 88.301,122.223 90.228,123.188 88.301,121.738
		86.858,120.938 79.314,117.244 71.451,110.503 69.039,107.938 63.105,108.576 52.35,100.234 51.066,92.371 48.5,77.443
		48.658,73.266 48.98,73.433 54.918,75.837 55.723,75.998 61.018,76.802 67.273,75.998 69.039,75.679 72.254,74.072 74.5,72.939
		77.07,69.09 78.992,66.524 79.314,66.369 84.933,63.959 86.213,63.639 89.263,62.997 90.708,62.839 92.638,62.514 92.796,62.357
		102.267,60.59 104.674,59.306 106.278,57.702 108.847,55.134 109.166,54.816 111.415,50 115.585,52.406 116.71,52.884
		118.792,54.171 120.24,54.973 122.325,56.092 123.132,56.579 128.264,59.467 130.67,60.909 133.4,62.514 136.291,64.123
		139.018,65.729 139.979,65.729 140.303,65.729 145.92,69.09 146.078,69.26 150.734,71.99 151.059,72.148 152.816,73.109
		154.584,74.233 156.188,75.195 169.834,83.059 170.313,83.22 171.916,81.132 175.449,77.602 176.253,76.641 176.572,76.479
		178.18,75.679 180.268,74.559 180.425,74.559 182.189,73.752 185.883,71.99 187.486,71.348 189.41,70.384 190.055,70.058
		192.624,68.935 193.104,68.773 193.104,69.413 193.104,69.905 194.711,75.03 195.831,77.602 196.15,78.57 197.275,80.009
		199.521,83.059 198.398,87.234 198.398,87.554 198.398,87.879 198.398,90.603 199.203,94.613 200.969,98.147 201.13,98.306
		199.521,100.559 198.723,101.52 197.438,102.479 195.67,103.445 195.352,103.766 193.902,106.011 192.624,107.618 191.979,109.223
		191.818,109.867 191.501,110.986 191.339,111.311 184.113,110.826 183.152,110.665 177.855,110.184 177.691,110.184
		177.053,110.184 176.253,110.184 172.08,110.503 172.238,109.061 172.08,109.061 171.916,108.902 171.436,108.902 167.424,108.257
		167.102,112.109 166.137,119.49 165.82,123.188 165.501,125.113 164.697,133.3 163.895,140.035 163.895,144.369 164.052,145.498
		164.372,145.336 164.052,148.544 163.248,154.162 162.932,157.534 162.609,158.18 162.128,159.454 161.167,161.865 159.561,165.24
		158.921,166.523 158.596,167.002 158.275,167.163 155.868,169.73 155.389,170.374 154.907,170.852 154.423,171.333 152.5,172.941
		149.286,175.508 148.809,175.348 144.152,177.436 141.264,178.561 139.018,178.723 135.323,178.88 133.723,178.88 133.4,178.88
		132.598,179.041 129.066,179.199 128.585,179.199 127.945,179.199 123.132,178.723 123.132,179.199 123.132,179.357
		122.167,179.357 115.104,179.52 113.016,179.52 111.573,179.52 105.31,179.52 104.835,177.912 103.387,179.52 103.226,179.846
		103.226,179.682 102.906,179.682 98.733,179.682 97.288,179.682 94.08,179.682 93.115,179.682 92.474,179.682 90.544,180
		90.708,175.348 91.189,171.658 90.708,171.658 89.588,172.305 88.14,172.458 87.501,171.975 86.858,170.852 86.536,170.532
		86.374,170.216 86.213,170.216 85.895,169.893 85.574,169.73 84.451,169.412 83.809,169.566 84.129,169.893 76.584,170.216
		73.695,168.607 70.166,166.844 70.004,166.68 63.586,162.668 57.326,158.813 49.781,152.878 49.781,152.559 47.539,152.717
		46.252,152.717 46.252,152.559 42.879,150.948 41.117,148.703 38.869,146.134 	"/>
</g>
</svg>
