<?xml version="1.0" encoding="utf-8"?>
<!-- Generator: Adobe Illustrator 13.0.0, SVG Export Plug-In . SVG Version: 6.00 Build 14948)  -->
<!DOCTYPE svg PUBLIC "-//W3C//DTD SVG 1.1//EN" "http://www.w3.org/Graphics/SVG/1.1/DTD/svg11.dtd">
<svg version="1.1" id="Layer_1" xmlns="http://www.w3.org/2000/svg" xmlns:xlink="http://www.w3.org/1999/xlink" x="0px" y="0px"
	 width="180px" height="150px" viewBox="0 0 240 200" enable-background="new 0 0 240 200" xml:space="preserve">
<g id="_x30_6">
	<g>
		<polyline fill="#F2F2F2" stroke="#8D8D8D" points="56.984,133.979 48.136,131.604 47.286,130.266 46.425,129.032 44.523,128.173 
			40.247,123.797 35.681,116.57 30.552,111.529 26.642,108.018 26.363,107.632 23.317,102.781 21.799,99.166 20.748,96.789 
			19.609,94.6 19.324,94.025 18.271,90.513 18.173,89.174 17.987,87.648 18.08,86.789 18.08,86.232 18.271,83.566 18.08,82.046 
			17.61,79.187 17.231,75.77 17.231,75.58 17.134,75.195 15.989,74.521 15.235,72.621 14.946,72.055 13.894,69.112 13.334,68.633 
			11.9,67.207 10.283,65.579 10.38,65.294 10.09,64.737 10,63.877 10.09,63.583 10,63.294 10.188,62.641 10.38,62.066 10.76,60.832 
			12.278,58.451 12.469,58.166 12.57,58.071 13.334,56.641 13.334,56.551 13.143,56.266 13.237,56.075 14.373,54.836 14.563,55.977 
			19.134,55.977 20.08,55.977 21.607,55.977 26.642,55.885 27.305,55.885 27.305,55.695 27.305,55.41 30.741,55.695 31.113,55.695 
			31.586,55.695 34.065,55.596 34.541,55.596 34.828,55.505 36.059,55.505 38.536,55.41 40.152,55.311 42.24,54.456 45.671,53.025 
			45.858,53.12 50.142,54.736 51.183,55.025 53.181,55.505 53.757,55.596 56.038,56.171 59.17,58.261 60.032,58.827 60.127,58.922 
			61.263,60.261 62.604,61.778 62.51,61.873 65.447,63.877 67.173,65.117 71.356,67.864 72.016,68.244 73.734,69.488 73.638,70.055 
			73.445,71.675 73.734,71.675 77.153,71.761 79.441,71.488 81.34,72.43 86.098,74.716 88.858,76.137 88.762,76.236 90.087,75.675 
			92.753,73.679 90.858,72.909 88.762,72.24 88.666,72.145 86.94,70.724 85.619,69.212 87.803,68.538 90.568,69.488 93.318,70.244 
			94.368,69.67 95.605,68.919 96.842,68.439 99.319,68.348 103.982,66.253 104.064,66.253 104.351,65.769 105.692,63.968 
			111.393,63.294 114.812,62.546 115.196,62.546 116.907,62.546 119.569,62.641 121.756,61.972 122.234,62.066 125.098,62.732 
			129.663,64.447 129.938,64.546 132.314,64.922 132.98,64.922 133.746,65.294 134.791,65.389 136.313,64.827 136.979,64.827 
			138.219,65.389 140.217,65.579 140.593,65.483 140.217,66.158 139.932,68.823 139.454,72.24 139.839,72.909 144.309,77.665 
			144.404,77.765 147.063,80.05 152.577,85.372 154.771,90.033 156.379,93.546 156.956,94.789 157.055,94.979 170.932,84.794 
			171.123,84.699 173.791,87.174 173.695,87.554 177.786,90.988 184.439,97.355 184.536,97.455 188.627,106.673 193.1,117.811 
			193.288,118.189 196.805,117.995 199.568,117.9 199.277,119.615 198.712,121.512 198.619,121.802 202.327,122.275 
			206.799,122.852 206.896,122.852 207.177,122.666 216.211,115.995 219.355,116.57 224.488,117.426 230,118.475 228.298,123.327 
			225.246,130.744 224.77,131.029 225.05,131.219 224.109,133.509 224.109,150.723 224.398,153.197 224.109,153.197 
			225.148,155.189 224.018,159.379 221.16,166.788 219.451,171.074 215.355,176.975 214.786,176.884 214.786,173.454 
			214.023,173.354 201.943,170.604 199.277,169.553 197.282,168.788 189.873,167.941 183.212,166.788 181.021,166.227 
			176.553,165.082 173.6,165.466 172.657,164.797 170.18,164.604 167.993,164.04 164.848,161.945 164.561,161.76 160.564,159.564 
			155.997,158.33 154.389,156.904 134.313,152.623 130.227,151.764 122.521,149.384 120.525,149.77 118.244,149.289 
			116.818,148.917 111.487,146.826 108.822,146.252 104.161,147.293 103.789,147.389 102.544,145.771 102.065,145.771 
			100.459,144.73 97.516,143.677 95.327,142.165 94.655,141.971 91.987,141.202 91.607,141.202 89.99,141.202 87.133,140.07 
			82.294,138.536 78.575,137.119 75.825,136.641 73.062,136.26 67.924,134.348 68.209,133.214 66.98,133.313 63.831,133.509 
			63.166,133.409 60.606,133.023 57.078,132.266 56.984,133.979 		"/>
	</g>
</g>
</svg>
