<?xml version="1.0" encoding="utf-8"?>
<!-- Generator: Adobe Illustrator 13.0.0, SVG Export Plug-In . SVG Version: 6.00 Build 14948)  -->
<!DOCTYPE svg PUBLIC "-//W3C//DTD SVG 1.1//EN" "http://www.w3.org/Graphics/SVG/1.1/DTD/svg11.dtd">
<svg version="1.1" id="Layer_1" xmlns="http://www.w3.org/2000/svg" xmlns:xlink="http://www.w3.org/1999/xlink" x="0px" y="0px"
	 width="180px" height="150px" viewBox="0 0 240 200" enable-background="new 0 0 240 200" xml:space="preserve">
<g id="_x30_7">
	<polyline fill="#F2F2F2" stroke="#8D8D8D" points="88.688,88.703 88.881,88.839 93.621,86.014 95.591,85.484 95.78,85.289
		98.807,85.549 102.684,87.067 106.831,87.398 112.539,87.792 115.565,83.98 116.553,81.871 118.258,78.457 119.574,75.696 
		119.709,75.373 120.363,72.346 120.563,71.494 120.895,70.237 121.016,69.573 121.092,69.329 121.156,68.665 121.41,66.096 
		121.48,64.857 121.611,62.152 121.676,60.981 122.396,57.691 122.598,56.903 125.096,54.524 126.869,53.414 129.107,52.033 
		129.957,51.508 131.211,50.979 133.377,50 136.922,50.259 139.684,50.717 139.948,50.78 143.104,51.104 146.063,52.161 
		146.52,52.693 147.641,53.947 148.623,54.994 148.689,55.909 148.754,57.162 148.559,57.958 147.968,59.856 146.784,62.014 
		146.648,62.279 145.139,64.197 144.678,64.516 143.036,65.581 141.325,67.742 141.27,67.81 139.288,69.254 139.225,69.127 
		136.859,71.888 135.412,74.518 135.084,74.837 135.215,74.837 134.889,75.373 133.574,76.086 132.588,76.935 132.588,77.265 
		132.52,77.399 132.588,78.334 132.26,78.795 132.26,78.907 132.195,79.703 132.26,80.101 132.324,80.502 132.26,80.761 
		132.195,80.941 131.928,81.609 131.928,82.4 131.602,82.858 131.081,83.59 131.863,83.853 132.124,84.565 132.654,84.959 
		132.725,85.226 132.725,85.882 132.393,87.334 133.438,87.855 133.971,88.572 133.701,88.771 134.557,88.97 133.835,89.961 
		134.689,90.809 135.744,91.412 135.876,91.735 136.465,91.668 136.532,91.607 136.859,91.341 137.777,91.668 137.909,92.85 
		137.518,94.035 137.715,95.085 138.047,96.335 138.896,96.53 140.145,97.449 140.604,98.5 141.471,98.762 141.783,99.04 
		142.708,99.937 144.482,100.338 145.273,101.266 145.207,102.053 145.867,102.646 147.508,103.227 149.016,103.955 
		150.328,104.551 151.324,104.878 152.564,104.878 152.962,107.174 153.027,107.966 153.096,108.427 153.227,109.219 
		153.294,110.01 153.49,111.714 153.555,112.303 153.354,113.488 153.027,115.057 151.911,117.104 152.17,117.375 152.436,117.566 
		150.988,121.299 149.941,124.203 149.941,124.398 149.742,124.725 149.479,125.059 148.361,128.473 147.576,130.836 
		147.176,131.958 146.98,132.555 145.67,136.029 145.139,137.541 145.073,137.809 145.006,138.002 144.482,140.043 144.747,140.621 
		144.609,141.35 144.547,141.42 144.811,142.212 145.073,143 145.67,143.589 145.797,143.795 146.52,144.439 147.111,144.703 
		147.176,144.771 147.439,144.838 147.576,144.895 147.049,145.952 145.006,150.162 145.207,150.496 149.348,151.934 
		153.622,153.377 153.943,153.443 154.805,154.041 155.001,154.105 155.329,155.497 156.574,157.65 157.891,159.48 158.48,160.498 
		158.876,161.068 158.682,161.586 157.957,163.368 157.756,163.833 157.625,164.357 156.839,168.234 156.706,168.966 
		156.512,170.594 156.25,171.061 156.18,171.255 155.98,171.255 155.199,173.234 153.746,174.938 153.294,175.404 153.294,178.488 
		153.423,179.145 153.555,180 151.721,178.218 149.941,173.168 146.254,168.966 141.525,166.01 137.453,162.316 133.438,159.823 
		132.52,159.23 132.725,158.641 132.393,158.84 129.957,157.523 124.176,154.503 119.841,152.195 116.029,150.227 115.83,149.438 
		109.715,146.418 107.744,145.757 106.76,147.738 100.584,143.923 87.502,136.303 87.375,136.23 81.916,130.51 81.124,124.004 
		81.717,121.832 83.959,113.227 83.563,109.616 84.609,105.137 84.543,100.398 85.137,94.823 86.579,90.943 88.688,88.703 	"/>
</g>
</svg>
