<?xml version="1.0" encoding="utf-8"?>
<!-- Generator: Adobe Illustrator 13.0.0, SVG Export Plug-In . SVG Version: 6.00 Build 14948)  -->
<!DOCTYPE svg PUBLIC "-//W3C//DTD SVG 1.1//EN" "http://www.w3.org/Graphics/SVG/1.1/DTD/svg11.dtd">
<svg version="1.1" id="Layer_1" xmlns="http://www.w3.org/2000/svg" xmlns:xlink="http://www.w3.org/1999/xlink" x="0px" y="0px"
	 width="180px" height="150px" viewBox="0 0 240 200" enable-background="new 0 0 240 200" xml:space="preserve">
<g id="_x30_8">
	<polyline fill="#F2F2F2" stroke="#8D8D8D" points="82.796,108.036 83,107.559 82.596,107.027 81.987,105.822 80.633,103.979
		79.362,101.729 79.012,100.276 78.805,100.276 77.938,99.745 77.611,99.626 77.199,99.506 73.223,98.136 68.967,96.516 
		68.762,96.281 70.853,91.928 71.402,90.919 71.33,90.846 71.061,90.78 70.922,90.711 70.379,90.435 69.578,89.741 69.439,89.537 
		68.828,88.918 68.559,88.09 68.289,87.378 68.361,87.247 68.489,86.505 68.22,85.893 68.762,83.803 68.828,83.583 68.9,83.302 
		69.513,81.774 70.787,78.179 70.99,77.586 71.402,76.474 72.191,73.987 73.357,70.466 73.631,70.123 73.832,69.8 73.832,69.607 
		76.379,62.81 76.113,62.603 75.852,62.325 77.057,60.266 77.342,58.626 77.546,57.406 77.546,56.813 77.411,54.177 77.342,53.907 
		76.779,50 78.607,50.874 79.497,51.81 80.302,52.01 81.172,52.822 83,53.103 83.734,54.312 84.213,55.055 85.167,55.396 
		85.29,55.462 86.718,56.274 88.607,56.937 88.885,57.202 89.662,57.948 90.91,58.495 92.152,59.173 93.588,60.735 94.111,61.501 
		94.182,61.709 94.686,62.26 94.316,63.226 94.316,64.053 95.348,64.326 95.813,65.616 96.279,66.99 96.833,68.11 97.168,69.026 
		96.768,70.258 96.629,71.743 97.099,73.271 97.168,74.507 96.968,76.339 97.099,77.128 97.233,77.521 97.372,77.913 97.033,79.253 
		97.033,82.302 97.233,83.302 97.372,84.337 97.233,85.962 97.303,86.166 97.572,87.378 97.98,88.298 98.646,89.676 98.703,90.022 
		99.393,91.809 101.837,94.787 102.876,96.104 103.568,97.543 104.162,98.429 105.501,99.745 106.633,100.691 109.431,103.917 
		110.393,104.448 112.184,105.73 113.307,107.027 114.805,109.155 114.805,111.97 114.805,112.385 114.98,116.266 115.216,118.154 
		115.516,121.146 115.693,121.266 116.891,122.238 117.541,123.844 117.129,125.91 117.541,128.607 118.122,130.938 
		119.334,133.195 119.627,133.493 121.883,136.364 121.729,136.482 122.549,136.482 123.568,136.482 125.301,136.604 
		126.786,136.604 127.125,137.016 128.053,138.177 128.795,138.604 129.814,138.955 130.555,139.316 131.016,139.598 
		132.837,140.591 133.814,141.126 134.73,141.63 138.973,139.17 140.143,138.674 143.294,137.365 148.016,135.279 153.05,132.725 
		157.715,132.072 162.68,129.994 164.535,129.675 163.165,130.626 161.21,133.67 160.23,134.617 161.625,135.354 162.811,135.795 
		163.512,136.014 164.277,136.307 164.412,136.364 164.604,136.426 165.467,136.426 166.159,136.482 167.061,136.779 
		167.468,136.838 168.984,137.313 169.67,137.546 170.693,137.966 171.641,138.462 171.779,138.886 171.718,139.027 
		170.416,142.253 168.521,147.134 162.326,162.896 162.257,163.088 160.744,167.014 159.331,170.705 157.861,174.535 
		156.244,178.576 155.729,180 155.074,179.654 150.063,177.43 146.25,175.555 143.633,174.327 136.624,171.256 133.164,169.662 
		127.714,167.268 125.119,166.109 118.211,163.088 112.718,160.324 112.66,160.521 111.34,160.132 108.307,158.111 102.637,153.643 
		99.047,149.982 90.975,145.302 83.734,139.17 82.865,136.896 82.727,137.016 81.584,134.617 81.379,133.547 79.012,129.613 
		77.746,128.016 77.546,126.915 77.411,125.854 77.269,125.264 77.269,121.977 77.746,121.563 79.225,120.021 80.028,117.743 
		80.232,117.743 80.302,117.564 80.567,117.15 80.768,115.672 80.902,115.021 81.715,111.021 81.853,110.473 82.053,109.641 
		82.796,108.036 	"/>
</g>
</svg>
