<?xml version="1.0" encoding="utf-8"?>
<!-- Generator: Adobe Illustrator 13.0.0, SVG Export Plug-In . SVG Version: 6.00 Build 14948)  -->
<!DOCTYPE svg PUBLIC "-//W3C//DTD SVG 1.1//EN" "http://www.w3.org/Graphics/SVG/1.1/DTD/svg11.dtd">
<svg version="1.1" id="Layer_1" xmlns="http://www.w3.org/2000/svg" xmlns:xlink="http://www.w3.org/1999/xlink" x="0px" y="0px"
	 width="180px" height="150px" viewBox="0 0 240 200" enable-background="new 0 0 240 200" xml:space="preserve">
<g id="_x30_9">
	<polyline fill="#F2F2F2" stroke="#8D8D8D" points="68.254,82.323 70.87,77.617 70.668,75.742 71.949,74.189 73.013,72.043
		73.889,69.356 74.566,67.065 74.77,66.729 76.051,64.245 77.184,61.356 79.475,56.654 79.881,55.977 80.746,54.171 82.031,52.013 
		83.443,50.41 86.061,50.199 100.646,50.265 100.909,50.265 110.191,50.135 112.881,50.065 113.757,50.065 116.849,50.065 
		119.937,50.065 125.048,50 127.795,50 128.672,50.666 132.107,51.737 133.921,52.35 135.527,53.899 136.07,55.637 136.141,57.396 
		135.934,58.135 135.329,59.202 135.063,60.48 134.721,61.628 134.721,63.3 134.314,64.85 133.921,66.591 134.043,68.684 
		134.384,71.706 134.988,73.397 135.063,73.649 135.195,75.269 135.329,76.213 135.934,76.075 138.484,77.35 141.313,80.992 
		146.75,85.208 149.775,87.703 149.707,87.436 153.074,88.84 156.305,89.517 158.855,89.111 160.271,88.84 162.418,87.029 
		165.704,85.074 169.875,83.942 173.027,84.21 177.202,85.882 180.087,88.178 183.057,90.795 184.46,92.413 185.139,93.347 
		187.814,97.043 189.503,100.08 189.702,100.471 181.908,109.615 176.999,115.664 168.333,126.221 163.968,131.523 161.878,134.091 
		161.404,134.68 158.584,138.055 156.709,140.271 156.507,140.538 152.202,145.723 149.91,148.538 145.146,154.381 141.979,158.275 
		139.904,160.773 139.832,160.839 138.952,161.771 137.557,163.46 136.813,164.4 135.8,165.672 130.025,172.738 128.208,171.659 
		125.993,173.404 120.002,178.787 118.662,180 116.914,178.18 111.396,172.674 107.766,169.096 105.019,166.751 103.469,165.331 
		100.167,162.516 100.033,162.377 98.43,161.57 96.008,160.369 92.981,158.818 90.9,157.809 88.884,156.803 86.193,155.46 
		83.914,154.314 82.43,153.585 79.139,151.626 74.635,149.078 67.714,145.18 67.645,145.309 62.196,142.818 58.565,141.014 
		58.232,140.875 53.993,138.92 50.297,137.247 50.837,135.828 52.455,131.803 53.863,127.969 55.412,124.27 56.824,120.37 
		56.89,120.172 58.5,116.195 59.848,112.639 61.396,108.739 63.072,104.504 64.963,99.675 65.824,97.448 66.229,96.441 
		66.295,96.312 66.16,95.906 65.227,95.439 64.217,95.034 63.543,94.763 61.994,94.292 61.588,94.157 60.724,93.817 60.119,93.748 
		59.174,93.748 58.975,93.68 58.906,93.614 58.095,93.347 57.437,93.213 56.221,92.738 54.801,92.076 55.814,91.2 57.758,88.108 
		59.109,87.236 60.926,86.153 64.014,84.481 65.288,83.805 66.295,83.265 67.515,82.726 68.254,82.323 	"/>
</g>
</svg>
